%TF.GenerationSoftware,KiCad,Pcbnew,(5.1.10)-1*%
%TF.CreationDate,2022-05-26T21:18:39-05:00*%
%TF.ProjectId,SE,53452e6b-6963-4616-945f-706362585858,rev?*%
%TF.SameCoordinates,Original*%
%TF.FileFunction,Soldermask,Bot*%
%TF.FilePolarity,Negative*%
%FSLAX46Y46*%
G04 Gerber Fmt 4.6, Leading zero omitted, Abs format (unit mm)*
G04 Created by KiCad (PCBNEW (5.1.10)-1) date 2022-05-26 21:18:39*
%MOMM*%
%LPD*%
G01*
G04 APERTURE LIST*
%ADD10C,3.800000*%
%ADD11C,1.800000*%
%ADD12R,1.800000X1.800000*%
%ADD13C,0.900000*%
%ADD14C,1.440000*%
%ADD15R,1.500000X1.050000*%
%ADD16O,1.500000X1.050000*%
%ADD17C,3.000000*%
%ADD18C,2.500000*%
%ADD19O,1.800000X1.200000*%
%ADD20O,1.700000X1.700000*%
%ADD21R,1.700000X1.700000*%
G04 APERTURE END LIST*
D10*
%TO.C,REF\u002A\u002A*%
X115650000Y-147870000D03*
%TD*%
%TO.C,REF\u002A\u002A*%
X207670000Y-147950000D03*
%TD*%
%TO.C,REF\u002A\u002A*%
X207690000Y-61760000D03*
%TD*%
%TO.C,REF\u002A\u002A*%
X115650000Y-61750000D03*
%TD*%
D11*
%TO.C,U2*%
X161290000Y-88340000D03*
X158750000Y-88340000D03*
X156210000Y-88340000D03*
X153670000Y-88340000D03*
X151130000Y-88340000D03*
X148590000Y-88340000D03*
X146050000Y-88340000D03*
X143510000Y-88340000D03*
X140970000Y-88340000D03*
X138430000Y-88340000D03*
X135890000Y-88340000D03*
X133350000Y-88340000D03*
X130810000Y-88340000D03*
X128270000Y-88340000D03*
X125730000Y-88340000D03*
D12*
X123190000Y-88340000D03*
%TD*%
D11*
%TO.C,U3*%
X161310000Y-79160000D03*
X158770000Y-79160000D03*
X156230000Y-79160000D03*
X153690000Y-79160000D03*
X151150000Y-79160000D03*
X148610000Y-79160000D03*
X146070000Y-79160000D03*
X143530000Y-79160000D03*
X140990000Y-79160000D03*
X138450000Y-79160000D03*
X135910000Y-79160000D03*
X133370000Y-79160000D03*
X130830000Y-79160000D03*
X128290000Y-79160000D03*
X125750000Y-79160000D03*
D12*
X123210000Y-79160000D03*
%TD*%
D13*
%TO.C,SW4*%
X139530000Y-146470000D03*
X132730000Y-146470000D03*
%TD*%
D14*
%TO.C,RV1*%
X116960000Y-86820000D03*
X116960000Y-84280000D03*
X116960000Y-81740000D03*
%TD*%
D15*
%TO.C,Q4*%
X160460000Y-113800000D03*
D16*
X160460000Y-111260000D03*
X160460000Y-112530000D03*
%TD*%
D17*
%TO.C,K1*%
X144530000Y-113520000D03*
D18*
X142580000Y-119470000D03*
D17*
X130330000Y-119520000D03*
X130380000Y-107470000D03*
D18*
X142580000Y-107470000D03*
%TD*%
D19*
%TO.C,J5*%
X120400000Y-105490000D03*
G36*
G01*
X121050001Y-108090000D02*
X119749999Y-108090000D01*
G75*
G02*
X119500000Y-107840001I0J249999D01*
G01*
X119500000Y-107139999D01*
G75*
G02*
X119749999Y-106890000I249999J0D01*
G01*
X121050001Y-106890000D01*
G75*
G02*
X121300000Y-107139999I0J-249999D01*
G01*
X121300000Y-107840001D01*
G75*
G02*
X121050001Y-108090000I-249999J0D01*
G01*
G37*
%TD*%
%TO.C,J4*%
X120070000Y-138660000D03*
G36*
G01*
X120720001Y-141260000D02*
X119419999Y-141260000D01*
G75*
G02*
X119170000Y-141010001I0J249999D01*
G01*
X119170000Y-140309999D01*
G75*
G02*
X119419999Y-140060000I249999J0D01*
G01*
X120720001Y-140060000D01*
G75*
G02*
X120970000Y-140309999I0J-249999D01*
G01*
X120970000Y-141010001D01*
G75*
G02*
X120720001Y-141260000I-249999J0D01*
G01*
G37*
%TD*%
%TO.C,J3*%
X120380000Y-127310000D03*
G36*
G01*
X121030001Y-129910000D02*
X119729999Y-129910000D01*
G75*
G02*
X119480000Y-129660001I0J249999D01*
G01*
X119480000Y-128959999D01*
G75*
G02*
X119729999Y-128710000I249999J0D01*
G01*
X121030001Y-128710000D01*
G75*
G02*
X121280000Y-128959999I0J-249999D01*
G01*
X121280000Y-129660001D01*
G75*
G02*
X121030001Y-129910000I-249999J0D01*
G01*
G37*
%TD*%
%TO.C,J2*%
X203820000Y-122270000D03*
X203820000Y-120270000D03*
X203820000Y-118270000D03*
X203820000Y-116270000D03*
X203820000Y-114270000D03*
X203820000Y-112270000D03*
G36*
G01*
X203169999Y-109670000D02*
X204470001Y-109670000D01*
G75*
G02*
X204720000Y-109919999I0J-249999D01*
G01*
X204720000Y-110620001D01*
G75*
G02*
X204470001Y-110870000I-249999J0D01*
G01*
X203169999Y-110870000D01*
G75*
G02*
X202920000Y-110620001I0J249999D01*
G01*
X202920000Y-109919999D01*
G75*
G02*
X203169999Y-109670000I249999J0D01*
G01*
G37*
%TD*%
D20*
%TO.C,J1*%
X200520000Y-128140000D03*
X200520000Y-130680000D03*
D21*
X200520000Y-133220000D03*
%TD*%
M02*
