%TF.GenerationSoftware,KiCad,Pcbnew,(5.1.10)-1*%
%TF.CreationDate,2022-05-26T21:18:39-05:00*%
%TF.ProjectId,SE,53452e6b-6963-4616-945f-706362585858,rev?*%
%TF.SameCoordinates,Original*%
%TF.FileFunction,Copper,L2,Bot*%
%TF.FilePolarity,Positive*%
%FSLAX46Y46*%
G04 Gerber Fmt 4.6, Leading zero omitted, Abs format (unit mm)*
G04 Created by KiCad (PCBNEW (5.1.10)-1) date 2022-05-26 21:18:39*
%MOMM*%
%LPD*%
G01*
G04 APERTURE LIST*
%TA.AperFunction,ComponentPad*%
%ADD10C,3.800000*%
%TD*%
%TA.AperFunction,ComponentPad*%
%ADD11C,1.800000*%
%TD*%
%TA.AperFunction,ComponentPad*%
%ADD12R,1.800000X1.800000*%
%TD*%
%TA.AperFunction,ComponentPad*%
%ADD13C,1.440000*%
%TD*%
%TA.AperFunction,ComponentPad*%
%ADD14R,1.500000X1.050000*%
%TD*%
%TA.AperFunction,ComponentPad*%
%ADD15O,1.500000X1.050000*%
%TD*%
%TA.AperFunction,ComponentPad*%
%ADD16C,3.000000*%
%TD*%
%TA.AperFunction,ComponentPad*%
%ADD17C,2.500000*%
%TD*%
%TA.AperFunction,ComponentPad*%
%ADD18O,1.800000X1.200000*%
%TD*%
%TA.AperFunction,ComponentPad*%
%ADD19O,1.700000X1.700000*%
%TD*%
%TA.AperFunction,ComponentPad*%
%ADD20R,1.700000X1.700000*%
%TD*%
%TA.AperFunction,ViaPad*%
%ADD21C,0.800000*%
%TD*%
%TA.AperFunction,ViaPad*%
%ADD22C,1.000000*%
%TD*%
%TA.AperFunction,Conductor*%
%ADD23C,0.250000*%
%TD*%
%TA.AperFunction,Conductor*%
%ADD24C,0.525491*%
%TD*%
%TA.AperFunction,Conductor*%
%ADD25C,0.254000*%
%TD*%
%TA.AperFunction,Conductor*%
%ADD26C,0.100000*%
%TD*%
G04 APERTURE END LIST*
D10*
%TO.P,REF\u002A\u002A,1*%
%TO.N,N/C*%
X115650000Y-147870000D03*
%TD*%
%TO.P,REF\u002A\u002A,1*%
%TO.N,N/C*%
X207670000Y-147950000D03*
%TD*%
%TO.P,REF\u002A\u002A,1*%
%TO.N,N/C*%
X207690000Y-61760000D03*
%TD*%
%TO.P,REF\u002A\u002A,1*%
%TO.N,N/C*%
X115650000Y-61750000D03*
%TD*%
D11*
%TO.P,U2,16*%
%TO.N,GND*%
X161290000Y-88340000D03*
%TO.P,U2,15*%
%TO.N,Net-(R8-Pad2)*%
X158750000Y-88340000D03*
%TO.P,U2,14*%
%TO.N,Net-(U2-Pad14)*%
X156210000Y-88340000D03*
%TO.P,U2,13*%
%TO.N,Net-(U2-Pad13)*%
X153670000Y-88340000D03*
%TO.P,U2,12*%
%TO.N,Net-(U2-Pad12)*%
X151130000Y-88340000D03*
%TO.P,U2,11*%
%TO.N,Net-(U2-Pad11)*%
X148590000Y-88340000D03*
%TO.P,U2,10*%
%TO.N,Net-(U2-Pad10)*%
X146050000Y-88340000D03*
%TO.P,U2,9*%
%TO.N,Net-(U2-Pad9)*%
X143510000Y-88340000D03*
%TO.P,U2,8*%
%TO.N,Net-(U2-Pad8)*%
X140970000Y-88340000D03*
%TO.P,U2,7*%
%TO.N,Net-(U2-Pad7)*%
X138430000Y-88340000D03*
%TO.P,U2,6*%
%TO.N,Net-(U2-Pad6)*%
X135890000Y-88340000D03*
%TO.P,U2,5*%
%TO.N,Net-(U2-Pad5)*%
X133350000Y-88340000D03*
%TO.P,U2,4*%
%TO.N,Net-(U2-Pad4)*%
X130810000Y-88340000D03*
%TO.P,U2,3*%
%TO.N,Net-(RV1-Pad2)*%
X128270000Y-88340000D03*
%TO.P,U2,2*%
%TO.N,+5V*%
X125730000Y-88340000D03*
D12*
%TO.P,U2,1*%
%TO.N,GND*%
X123190000Y-88340000D03*
%TD*%
D11*
%TO.P,U3,16*%
%TO.N,GND*%
X161310000Y-79160000D03*
%TO.P,U3,15*%
%TO.N,Net-(R8-Pad2)*%
X158770000Y-79160000D03*
%TO.P,U3,14*%
%TO.N,Net-(U2-Pad14)*%
X156230000Y-79160000D03*
%TO.P,U3,13*%
%TO.N,Net-(U2-Pad13)*%
X153690000Y-79160000D03*
%TO.P,U3,12*%
%TO.N,Net-(U2-Pad12)*%
X151150000Y-79160000D03*
%TO.P,U3,11*%
%TO.N,Net-(U2-Pad11)*%
X148610000Y-79160000D03*
%TO.P,U3,10*%
%TO.N,Net-(U3-Pad10)*%
X146070000Y-79160000D03*
%TO.P,U3,9*%
%TO.N,Net-(U3-Pad9)*%
X143530000Y-79160000D03*
%TO.P,U3,8*%
%TO.N,Net-(U3-Pad8)*%
X140990000Y-79160000D03*
%TO.P,U3,7*%
%TO.N,Net-(U3-Pad7)*%
X138450000Y-79160000D03*
%TO.P,U3,6*%
%TO.N,Net-(U2-Pad6)*%
X135910000Y-79160000D03*
%TO.P,U3,5*%
%TO.N,Net-(U2-Pad5)*%
X133370000Y-79160000D03*
%TO.P,U3,4*%
%TO.N,Net-(U2-Pad4)*%
X130830000Y-79160000D03*
%TO.P,U3,3*%
%TO.N,Net-(RV1-Pad2)*%
X128290000Y-79160000D03*
%TO.P,U3,2*%
%TO.N,+5V*%
X125750000Y-79160000D03*
D12*
%TO.P,U3,1*%
%TO.N,GND*%
X123210000Y-79160000D03*
%TD*%
D13*
%TO.P,RV1,3*%
%TO.N,GND*%
X116960000Y-86820000D03*
%TO.P,RV1,2*%
%TO.N,Net-(RV1-Pad2)*%
X116960000Y-84280000D03*
%TO.P,RV1,1*%
%TO.N,+5V*%
X116960000Y-81740000D03*
%TD*%
D14*
%TO.P,Q4,1*%
%TO.N,Net-(D4-Pad1)*%
X160460000Y-113800000D03*
D15*
%TO.P,Q4,3*%
%TO.N,GND*%
X160460000Y-111260000D03*
%TO.P,Q4,2*%
%TO.N,Net-(Q4-Pad2)*%
X160460000Y-112530000D03*
%TD*%
D16*
%TO.P,K1,1*%
%TO.N,Net-(J5-Pad1)*%
X144530000Y-113520000D03*
D17*
%TO.P,K1,5*%
%TO.N,+5V*%
X142580000Y-119470000D03*
D16*
%TO.P,K1,4*%
%TO.N,+12V*%
X130330000Y-119520000D03*
%TO.P,K1,3*%
%TO.N,Net-(K1-Pad3)*%
X130380000Y-107470000D03*
D17*
%TO.P,K1,2*%
%TO.N,Net-(D4-Pad1)*%
X142580000Y-107470000D03*
%TD*%
D18*
%TO.P,J5,2*%
%TO.N,GND*%
X120400000Y-105490000D03*
%TO.P,J5,1*%
%TO.N,Net-(J5-Pad1)*%
%TA.AperFunction,ComponentPad*%
G36*
G01*
X121050001Y-108090000D02*
X119749999Y-108090000D01*
G75*
G02*
X119500000Y-107840001I0J249999D01*
G01*
X119500000Y-107139999D01*
G75*
G02*
X119749999Y-106890000I249999J0D01*
G01*
X121050001Y-106890000D01*
G75*
G02*
X121300000Y-107139999I0J-249999D01*
G01*
X121300000Y-107840001D01*
G75*
G02*
X121050001Y-108090000I-249999J0D01*
G01*
G37*
%TD.AperFunction*%
%TD*%
%TO.P,J4,2*%
%TO.N,GND*%
X120070000Y-138660000D03*
%TO.P,J4,1*%
%TO.N,Vbat*%
%TA.AperFunction,ComponentPad*%
G36*
G01*
X120720001Y-141260000D02*
X119419999Y-141260000D01*
G75*
G02*
X119170000Y-141010001I0J249999D01*
G01*
X119170000Y-140309999D01*
G75*
G02*
X119419999Y-140060000I249999J0D01*
G01*
X120720001Y-140060000D01*
G75*
G02*
X120970000Y-140309999I0J-249999D01*
G01*
X120970000Y-141010001D01*
G75*
G02*
X120720001Y-141260000I-249999J0D01*
G01*
G37*
%TD.AperFunction*%
%TD*%
%TO.P,J3,2*%
%TO.N,GND*%
X120380000Y-127310000D03*
%TO.P,J3,1*%
%TO.N,Net-(F1-Pad1)*%
%TA.AperFunction,ComponentPad*%
G36*
G01*
X121030001Y-129910000D02*
X119729999Y-129910000D01*
G75*
G02*
X119480000Y-129660001I0J249999D01*
G01*
X119480000Y-128959999D01*
G75*
G02*
X119729999Y-128710000I249999J0D01*
G01*
X121030001Y-128710000D01*
G75*
G02*
X121280000Y-128959999I0J-249999D01*
G01*
X121280000Y-129660001D01*
G75*
G02*
X121030001Y-129910000I-249999J0D01*
G01*
G37*
%TD.AperFunction*%
%TD*%
%TO.P,J2,7*%
%TO.N,+3V3*%
X203820000Y-122270000D03*
%TO.P,J2,6*%
%TO.N,Net-(J2-Pad6)*%
X203820000Y-120270000D03*
%TO.P,J2,5*%
%TO.N,GND*%
X203820000Y-118270000D03*
%TO.P,J2,4*%
%TO.N,Net-(J2-Pad4)*%
X203820000Y-116270000D03*
%TO.P,J2,3*%
%TO.N,Net-(J2-Pad3)*%
X203820000Y-114270000D03*
%TO.P,J2,2*%
%TO.N,Net-(J2-Pad2)*%
X203820000Y-112270000D03*
%TO.P,J2,1*%
%TO.N,Net-(J2-Pad1)*%
%TA.AperFunction,ComponentPad*%
G36*
G01*
X203169999Y-109670000D02*
X204470001Y-109670000D01*
G75*
G02*
X204720000Y-109919999I0J-249999D01*
G01*
X204720000Y-110620001D01*
G75*
G02*
X204470001Y-110870000I-249999J0D01*
G01*
X203169999Y-110870000D01*
G75*
G02*
X202920000Y-110620001I0J249999D01*
G01*
X202920000Y-109919999D01*
G75*
G02*
X203169999Y-109670000I249999J0D01*
G01*
G37*
%TD.AperFunction*%
%TD*%
D19*
%TO.P,J1,3*%
%TO.N,GND*%
X200520000Y-128140000D03*
%TO.P,J1,2*%
%TO.N,Net-(J1-Pad2)*%
X200520000Y-130680000D03*
D20*
%TO.P,J1,1*%
%TO.N,Net-(J1-Pad1)*%
X200520000Y-133220000D03*
%TD*%
D21*
%TO.N,Net-(C1-Pad1)*%
X190270000Y-71810000D03*
X201180000Y-80670000D03*
%TO.N,+3V3*%
X202465000Y-79085000D03*
X208930000Y-138570000D03*
%TO.N,Net-(C3-Pad2)*%
X188450000Y-74600000D03*
X195940000Y-74640000D03*
X188440000Y-103420000D03*
D22*
%TO.N,+12V*%
X138540000Y-139420000D03*
D21*
%TO.N,+5V*%
X150820000Y-93570000D03*
X167150000Y-76840000D03*
%TO.N,Net-(D4-Pad2)*%
X157490000Y-107870000D03*
X157500000Y-116040000D03*
D22*
%TO.N,Net-(D6-Pad2)*%
X131770000Y-138370000D03*
X130190000Y-144800000D03*
D21*
%TO.N,Net-(J1-Pad2)*%
X197050000Y-130770000D03*
X192350000Y-130770000D03*
%TO.N,Net-(Q1-Pad3)*%
X169540000Y-128590000D03*
X175020000Y-128530000D03*
X169730000Y-76830000D03*
%TO.N,SCL*%
X200650000Y-124930000D03*
X180610000Y-128410000D03*
%TO.N,Net-(Q2-Pad3)*%
X169570000Y-122690000D03*
X175040000Y-122690000D03*
X168480000Y-76840000D03*
%TO.N,Net-(R11-Pad2)*%
X194880000Y-81350000D03*
X187490000Y-113210000D03*
%TO.N,Net-(R12-Pad2)*%
X186730000Y-119160000D03*
X192020000Y-79510000D03*
%TO.N,Crelay*%
X187720000Y-77670000D03*
X178830000Y-98090000D03*
%TO.N,Net-(U2-Pad6)*%
X136000000Y-100890000D03*
X173530000Y-90890000D03*
%TO.N,Net-(U2-Pad5)*%
X133350000Y-97370000D03*
X172240000Y-90870000D03*
%TO.N,Net-(U2-Pad4)*%
X130770000Y-91560000D03*
X170970000Y-90870000D03*
%TO.N,Net-(J2-Pad6)*%
X191035000Y-109665000D03*
%TO.N,Net-(J2-Pad4)*%
X194845000Y-107365000D03*
%TO.N,Net-(J2-Pad3)*%
X202480000Y-103830000D03*
%TO.N,Net-(J2-Pad2)*%
X182610000Y-88000000D03*
%TO.N,Net-(J2-Pad1)*%
X192290000Y-103900000D03*
%TD*%
D23*
%TO.N,GND*%
X123210000Y-88320000D02*
X123190000Y-88340000D01*
X123210000Y-79160000D02*
X123210000Y-88320000D01*
X161290000Y-79180000D02*
X161310000Y-79160000D01*
X161290000Y-88340000D02*
X161290000Y-79180000D01*
%TO.N,Net-(C1-Pad1)*%
X190270000Y-71810000D02*
X194790000Y-71810000D01*
X201180000Y-78200000D02*
X201180000Y-80670000D01*
X194790000Y-71810000D02*
X201180000Y-78200000D01*
%TO.N,+3V3*%
X202465000Y-79085000D02*
X202465000Y-84445000D01*
X202465000Y-84445000D02*
X204370000Y-86350000D01*
X204370000Y-86350000D02*
X204370000Y-106320000D01*
X204370000Y-106320000D02*
X206970000Y-108920000D01*
X206970000Y-108920000D02*
X206970000Y-119520000D01*
X204220000Y-122270000D02*
X203820000Y-122270000D01*
X206970000Y-119520000D02*
X204220000Y-122270000D01*
X203820000Y-122270000D02*
X203820000Y-127980000D01*
X208930000Y-133090000D02*
X208930000Y-138570000D01*
X203820000Y-127980000D02*
X208930000Y-133090000D01*
%TO.N,Net-(C3-Pad2)*%
X188440000Y-103420000D02*
X189340000Y-103420000D01*
X189340000Y-103420000D02*
X197650000Y-95110000D01*
X197650000Y-76350000D02*
X195940000Y-74640000D01*
X197650000Y-95110000D02*
X197650000Y-76350000D01*
X188490000Y-74640000D02*
X188450000Y-74600000D01*
X195940000Y-74640000D02*
X188490000Y-74640000D01*
D24*
%TO.N,+12V*%
X138540000Y-139420000D02*
X138540000Y-136120000D01*
X130330000Y-127910000D02*
X130330000Y-119520000D01*
X138540000Y-136120000D02*
X130330000Y-127910000D01*
D23*
%TO.N,+5V*%
X125750000Y-88320000D02*
X125730000Y-88340000D01*
X125750000Y-79160000D02*
X125750000Y-88320000D01*
X125730000Y-93930000D02*
X125730000Y-88340000D01*
X142580000Y-119470000D02*
X136430000Y-119470000D01*
X125730000Y-108770000D02*
X125730000Y-93930000D01*
X136430000Y-119470000D02*
X125730000Y-108770000D01*
X125750000Y-79160000D02*
X125750000Y-77120000D01*
X125750000Y-77120000D02*
X128110000Y-74760000D01*
X128110000Y-74760000D02*
X166350000Y-74760000D01*
X167150000Y-75560000D02*
X167150000Y-76840000D01*
X166350000Y-74760000D02*
X167150000Y-75560000D01*
X167150000Y-76840000D02*
X167150000Y-86320000D01*
X167150000Y-86320000D02*
X162680000Y-90790000D01*
X162680000Y-90790000D02*
X151600000Y-90790000D01*
X150820000Y-91570000D02*
X150820000Y-93570000D01*
X151600000Y-90790000D02*
X150820000Y-91570000D01*
%TO.N,Net-(D4-Pad2)*%
X157500000Y-116040000D02*
X157500000Y-110380000D01*
X157500000Y-110380000D02*
X158280000Y-109600000D01*
X158280000Y-108660000D02*
X157490000Y-107870000D01*
X158280000Y-109600000D02*
X158280000Y-108660000D01*
D24*
%TO.N,Net-(D6-Pad2)*%
X131770000Y-138370000D02*
X131770000Y-139610000D01*
X130190000Y-141190000D02*
X130190000Y-144800000D01*
X131770000Y-139610000D02*
X130190000Y-141190000D01*
D23*
%TO.N,Net-(J1-Pad2)*%
X197050000Y-130770000D02*
X192350000Y-130770000D01*
%TO.N,Net-(Q1-Pad3)*%
X169600000Y-128530000D02*
X169540000Y-128590000D01*
X175020000Y-128530000D02*
X169600000Y-128530000D01*
X169730000Y-76830000D02*
X169730000Y-75910000D01*
X169730000Y-75910000D02*
X170400000Y-75240000D01*
X170400000Y-75240000D02*
X175500000Y-75240000D01*
X175500000Y-75240000D02*
X176800000Y-76540000D01*
X176800000Y-76540000D02*
X176800000Y-120590000D01*
X176800000Y-120590000D02*
X176110000Y-121280000D01*
X176110000Y-121280000D02*
X168340000Y-121280000D01*
X168340000Y-121280000D02*
X166660000Y-122960000D01*
X166660000Y-122960000D02*
X166660000Y-127470000D01*
X167780000Y-128590000D02*
X169540000Y-128590000D01*
X166660000Y-127470000D02*
X167780000Y-128590000D01*
%TO.N,SCL*%
X180610000Y-128410000D02*
X181450000Y-127570000D01*
X181450000Y-127570000D02*
X191540000Y-127570000D01*
X194180000Y-124930000D02*
X200650000Y-124930000D01*
X191540000Y-127570000D02*
X194180000Y-124930000D01*
%TO.N,Net-(Q2-Pad3)*%
X175040000Y-122690000D02*
X169570000Y-122690000D01*
X176810000Y-122690000D02*
X175040000Y-122690000D01*
X177750000Y-121750000D02*
X176810000Y-122690000D01*
X176250000Y-74340000D02*
X177750000Y-75840000D01*
X169440000Y-74340000D02*
X176250000Y-74340000D01*
X168480000Y-75300000D02*
X169440000Y-74340000D01*
X177750000Y-75840000D02*
X177750000Y-121750000D01*
X168480000Y-76840000D02*
X168480000Y-75300000D01*
%TO.N,Net-(R8-Pad2)*%
X158770000Y-88320000D02*
X158750000Y-88340000D01*
X158770000Y-79160000D02*
X158770000Y-88320000D01*
%TO.N,Net-(R11-Pad2)*%
X187490000Y-105440000D02*
X187490000Y-113210000D01*
X185950000Y-103900000D02*
X187490000Y-105440000D01*
X180850000Y-98750000D02*
X185950000Y-103850000D01*
X185950000Y-103850000D02*
X185950000Y-103900000D01*
X180850000Y-88130000D02*
X180850000Y-98750000D01*
X187630000Y-81350000D02*
X180850000Y-88130000D01*
X194880000Y-81350000D02*
X187630000Y-81350000D01*
%TO.N,Net-(R12-Pad2)*%
X179870000Y-87550000D02*
X180010000Y-87410000D01*
X179870000Y-100270000D02*
X179870000Y-87550000D01*
X184970000Y-114020000D02*
X184970000Y-105370000D01*
X185010000Y-114020000D02*
X184970000Y-114020000D01*
X186730000Y-115740000D02*
X185010000Y-114020000D01*
X184970000Y-105370000D02*
X179870000Y-100270000D01*
X186730000Y-119160000D02*
X186730000Y-115740000D01*
X180010000Y-87410000D02*
X187915000Y-79505000D01*
X187920000Y-79510000D02*
X187915000Y-79505000D01*
X192020000Y-79510000D02*
X187920000Y-79510000D01*
%TO.N,Crelay*%
X178830000Y-98090000D02*
X178830000Y-98090000D01*
X184010000Y-77670000D02*
X187720000Y-77670000D01*
X178830000Y-82850000D02*
X184010000Y-77670000D01*
X178830000Y-98090000D02*
X178830000Y-82850000D01*
%TO.N,Net-(RV1-Pad2)*%
X128210000Y-79240000D02*
X128290000Y-79160000D01*
X128290000Y-88320000D02*
X128270000Y-88340000D01*
X128290000Y-79160000D02*
X128290000Y-88320000D01*
%TO.N,Net-(U2-Pad14)*%
X156230000Y-88320000D02*
X156210000Y-88340000D01*
X156230000Y-79160000D02*
X156230000Y-88320000D01*
%TO.N,Net-(U2-Pad13)*%
X153690000Y-88320000D02*
X153670000Y-88340000D01*
X153690000Y-79160000D02*
X153690000Y-88320000D01*
%TO.N,Net-(U2-Pad12)*%
X151150000Y-88320000D02*
X151130000Y-88340000D01*
X151150000Y-79160000D02*
X151150000Y-88320000D01*
%TO.N,Net-(U2-Pad11)*%
X148610000Y-88320000D02*
X148590000Y-88340000D01*
X148610000Y-79160000D02*
X148610000Y-88320000D01*
%TO.N,Net-(U2-Pad6)*%
X135910000Y-88320000D02*
X135890000Y-88340000D01*
X135910000Y-79160000D02*
X135910000Y-88320000D01*
X173530000Y-90890000D02*
X173530000Y-97060000D01*
X173530000Y-97060000D02*
X168900000Y-101690000D01*
X168900000Y-101690000D02*
X136760000Y-101690000D01*
X136760000Y-101650000D02*
X136760000Y-101690000D01*
X136000000Y-100890000D02*
X136760000Y-101650000D01*
%TO.N,Net-(U2-Pad5)*%
X133370000Y-88320000D02*
X133350000Y-88340000D01*
X133370000Y-79160000D02*
X133370000Y-88320000D01*
X172240000Y-90870000D02*
X172240000Y-95940000D01*
X172240000Y-95940000D02*
X168950000Y-99230000D01*
X168950000Y-99230000D02*
X134400000Y-99230000D01*
X133350000Y-98180000D02*
X134400000Y-99230000D01*
X133350000Y-97370000D02*
X133350000Y-98180000D01*
%TO.N,Net-(U2-Pad4)*%
X130830000Y-88320000D02*
X130810000Y-88340000D01*
X130830000Y-79160000D02*
X130830000Y-88320000D01*
X170970000Y-90870000D02*
X170970000Y-94170000D01*
X170970000Y-94170000D02*
X168720000Y-96420000D01*
X168720000Y-96420000D02*
X133190000Y-96420000D01*
X130770000Y-94000000D02*
X130770000Y-91560000D01*
X133190000Y-96420000D02*
X130770000Y-94000000D01*
%TO.N,Net-(J2-Pad6)*%
X203820000Y-120270000D02*
X196670000Y-120270000D01*
X191035000Y-114635000D02*
X191035000Y-109665000D01*
X196670000Y-120270000D02*
X191035000Y-114635000D01*
%TO.N,Net-(J2-Pad4)*%
X203820000Y-116270000D02*
X201130000Y-116270000D01*
X194845000Y-109985000D02*
X194845000Y-107365000D01*
X201130000Y-116270000D02*
X194845000Y-109985000D01*
%TO.N,Net-(J2-Pad3)*%
X202480000Y-103830000D02*
X202480000Y-105560000D01*
X202480000Y-105560000D02*
X206020000Y-109100000D01*
X205200000Y-114270000D02*
X203820000Y-114270000D01*
X206020000Y-113450000D02*
X205200000Y-114270000D01*
X206020000Y-109100000D02*
X206020000Y-113450000D01*
%TO.N,Net-(J2-Pad2)*%
X182610000Y-88000000D02*
X181740000Y-88870000D01*
X203820000Y-112270000D02*
X201950000Y-112270000D01*
X201950000Y-112270000D02*
X197920000Y-108240000D01*
X197920000Y-108240000D02*
X197920000Y-107110000D01*
X197920000Y-107110000D02*
X196200000Y-105390000D01*
X196200000Y-105390000D02*
X188880000Y-105390000D01*
X188880000Y-105390000D02*
X181960000Y-98470000D01*
X181740000Y-88870000D02*
X181740000Y-98290000D01*
X181780000Y-98290000D02*
X181960000Y-98470000D01*
%TO.N,Net-(J2-Pad1)*%
X203820000Y-110270000D02*
X203820000Y-108640000D01*
X199080000Y-103900000D02*
X192290000Y-103900000D01*
X203820000Y-108640000D02*
X199080000Y-103900000D01*
%TD*%
D25*
%TO.N,GND*%
X211034491Y-151165549D02*
X112414198Y-151244453D01*
X112409959Y-147620324D01*
X113115000Y-147620324D01*
X113115000Y-148119676D01*
X113212418Y-148609432D01*
X113403512Y-149070773D01*
X113680937Y-149485968D01*
X114034032Y-149839063D01*
X114449227Y-150116488D01*
X114910568Y-150307582D01*
X115400324Y-150405000D01*
X115899676Y-150405000D01*
X116389432Y-150307582D01*
X116850773Y-150116488D01*
X117265968Y-149839063D01*
X117619063Y-149485968D01*
X117896488Y-149070773D01*
X118087582Y-148609432D01*
X118185000Y-148119676D01*
X118185000Y-147700324D01*
X205135000Y-147700324D01*
X205135000Y-148199676D01*
X205232418Y-148689432D01*
X205423512Y-149150773D01*
X205700937Y-149565968D01*
X206054032Y-149919063D01*
X206469227Y-150196488D01*
X206930568Y-150387582D01*
X207420324Y-150485000D01*
X207919676Y-150485000D01*
X208409432Y-150387582D01*
X208870773Y-150196488D01*
X209285968Y-149919063D01*
X209639063Y-149565968D01*
X209916488Y-149150773D01*
X210107582Y-148689432D01*
X210205000Y-148199676D01*
X210205000Y-147700324D01*
X210107582Y-147210568D01*
X209916488Y-146749227D01*
X209639063Y-146334032D01*
X209285968Y-145980937D01*
X208870773Y-145703512D01*
X208409432Y-145512418D01*
X207919676Y-145415000D01*
X207420324Y-145415000D01*
X206930568Y-145512418D01*
X206469227Y-145703512D01*
X206054032Y-145980937D01*
X205700937Y-146334032D01*
X205423512Y-146749227D01*
X205232418Y-147210568D01*
X205135000Y-147700324D01*
X118185000Y-147700324D01*
X118185000Y-147620324D01*
X118087582Y-147130568D01*
X117896488Y-146669227D01*
X117691965Y-146363137D01*
X131645000Y-146363137D01*
X131645000Y-146576863D01*
X131686696Y-146786483D01*
X131768485Y-146983940D01*
X131887225Y-147161647D01*
X132038353Y-147312775D01*
X132216060Y-147431515D01*
X132413517Y-147513304D01*
X132623137Y-147555000D01*
X132836863Y-147555000D01*
X133046483Y-147513304D01*
X133243940Y-147431515D01*
X133421647Y-147312775D01*
X133572775Y-147161647D01*
X133691515Y-146983940D01*
X133773304Y-146786483D01*
X133815000Y-146576863D01*
X133815000Y-146363137D01*
X138445000Y-146363137D01*
X138445000Y-146576863D01*
X138486696Y-146786483D01*
X138568485Y-146983940D01*
X138687225Y-147161647D01*
X138838353Y-147312775D01*
X139016060Y-147431515D01*
X139213517Y-147513304D01*
X139423137Y-147555000D01*
X139636863Y-147555000D01*
X139846483Y-147513304D01*
X140043940Y-147431515D01*
X140221647Y-147312775D01*
X140372775Y-147161647D01*
X140491515Y-146983940D01*
X140573304Y-146786483D01*
X140615000Y-146576863D01*
X140615000Y-146363137D01*
X140573304Y-146153517D01*
X140491515Y-145956060D01*
X140372775Y-145778353D01*
X140221647Y-145627225D01*
X140043940Y-145508485D01*
X139846483Y-145426696D01*
X139636863Y-145385000D01*
X139423137Y-145385000D01*
X139213517Y-145426696D01*
X139016060Y-145508485D01*
X138838353Y-145627225D01*
X138687225Y-145778353D01*
X138568485Y-145956060D01*
X138486696Y-146153517D01*
X138445000Y-146363137D01*
X133815000Y-146363137D01*
X133773304Y-146153517D01*
X133691515Y-145956060D01*
X133572775Y-145778353D01*
X133421647Y-145627225D01*
X133243940Y-145508485D01*
X133046483Y-145426696D01*
X132836863Y-145385000D01*
X132623137Y-145385000D01*
X132413517Y-145426696D01*
X132216060Y-145508485D01*
X132038353Y-145627225D01*
X131887225Y-145778353D01*
X131768485Y-145956060D01*
X131686696Y-146153517D01*
X131645000Y-146363137D01*
X117691965Y-146363137D01*
X117619063Y-146254032D01*
X117265968Y-145900937D01*
X116850773Y-145623512D01*
X116389432Y-145432418D01*
X115899676Y-145335000D01*
X115400324Y-145335000D01*
X114910568Y-145432418D01*
X114449227Y-145623512D01*
X114034032Y-145900937D01*
X113680937Y-146254032D01*
X113403512Y-146669227D01*
X113212418Y-147130568D01*
X113115000Y-147620324D01*
X112409959Y-147620324D01*
X112406530Y-144688212D01*
X129055000Y-144688212D01*
X129055000Y-144911788D01*
X129098617Y-145131067D01*
X129184176Y-145337624D01*
X129308388Y-145523520D01*
X129466480Y-145681612D01*
X129652376Y-145805824D01*
X129858933Y-145891383D01*
X130078212Y-145935000D01*
X130301788Y-145935000D01*
X130521067Y-145891383D01*
X130727624Y-145805824D01*
X130913520Y-145681612D01*
X131071612Y-145523520D01*
X131195824Y-145337624D01*
X131281383Y-145131067D01*
X131325000Y-144911788D01*
X131325000Y-144688212D01*
X131281383Y-144468933D01*
X131195824Y-144262376D01*
X131087745Y-144100625D01*
X131087745Y-141561857D01*
X132373617Y-140275986D01*
X132407873Y-140247873D01*
X132520059Y-140111173D01*
X132603421Y-139955214D01*
X132654755Y-139785989D01*
X132667745Y-139654096D01*
X132667745Y-139654095D01*
X132672088Y-139610001D01*
X132667745Y-139565907D01*
X132667745Y-139069375D01*
X132775824Y-138907624D01*
X132861383Y-138701067D01*
X132905000Y-138481788D01*
X132905000Y-138258212D01*
X132861383Y-138038933D01*
X132775824Y-137832376D01*
X132651612Y-137646480D01*
X132493520Y-137488388D01*
X132307624Y-137364176D01*
X132101067Y-137278617D01*
X131881788Y-137235000D01*
X131658212Y-137235000D01*
X131438933Y-137278617D01*
X131232376Y-137364176D01*
X131046480Y-137488388D01*
X130888388Y-137646480D01*
X130764176Y-137832376D01*
X130678617Y-138038933D01*
X130635000Y-138258212D01*
X130635000Y-138481788D01*
X130678617Y-138701067D01*
X130764176Y-138907624D01*
X130872256Y-139069376D01*
X130872256Y-139238141D01*
X129586388Y-140524010D01*
X129552127Y-140552127D01*
X129472373Y-140649309D01*
X129439941Y-140688827D01*
X129395384Y-140772189D01*
X129356579Y-140844787D01*
X129305245Y-141014012D01*
X129292255Y-141145904D01*
X129287912Y-141190000D01*
X129292255Y-141234094D01*
X129292256Y-144100623D01*
X129184176Y-144262376D01*
X129098617Y-144468933D01*
X129055000Y-144688212D01*
X112406530Y-144688212D01*
X112401409Y-140309999D01*
X118531928Y-140309999D01*
X118531928Y-141010001D01*
X118548992Y-141183255D01*
X118599528Y-141349851D01*
X118681595Y-141503387D01*
X118792038Y-141637962D01*
X118926613Y-141748405D01*
X119080149Y-141830472D01*
X119246745Y-141881008D01*
X119419999Y-141898072D01*
X120720001Y-141898072D01*
X120893255Y-141881008D01*
X121059851Y-141830472D01*
X121213387Y-141748405D01*
X121347962Y-141637962D01*
X121458405Y-141503387D01*
X121540472Y-141349851D01*
X121591008Y-141183255D01*
X121608072Y-141010001D01*
X121608072Y-140309999D01*
X121591008Y-140136745D01*
X121540472Y-139970149D01*
X121458405Y-139816613D01*
X121347962Y-139682038D01*
X121213387Y-139571595D01*
X121208594Y-139569033D01*
X121333078Y-139443474D01*
X121467421Y-139240533D01*
X121559591Y-139015282D01*
X121563462Y-138977609D01*
X121438731Y-138787000D01*
X120197000Y-138787000D01*
X120197000Y-138807000D01*
X119943000Y-138807000D01*
X119943000Y-138787000D01*
X118701269Y-138787000D01*
X118576538Y-138977609D01*
X118580409Y-139015282D01*
X118672579Y-139240533D01*
X118806922Y-139443474D01*
X118931406Y-139569033D01*
X118926613Y-139571595D01*
X118792038Y-139682038D01*
X118681595Y-139816613D01*
X118599528Y-139970149D01*
X118548992Y-140136745D01*
X118531928Y-140309999D01*
X112401409Y-140309999D01*
X112399108Y-138342391D01*
X118576538Y-138342391D01*
X118701269Y-138533000D01*
X119943000Y-138533000D01*
X119943000Y-137425000D01*
X120197000Y-137425000D01*
X120197000Y-138533000D01*
X121438731Y-138533000D01*
X121563462Y-138342391D01*
X121559591Y-138304718D01*
X121467421Y-138079467D01*
X121333078Y-137876526D01*
X121161725Y-137703693D01*
X120959946Y-137567610D01*
X120735496Y-137473507D01*
X120497000Y-137425000D01*
X120197000Y-137425000D01*
X119943000Y-137425000D01*
X119643000Y-137425000D01*
X119404504Y-137473507D01*
X119180054Y-137567610D01*
X118978275Y-137703693D01*
X118806922Y-137876526D01*
X118672579Y-138079467D01*
X118580409Y-138304718D01*
X118576538Y-138342391D01*
X112399108Y-138342391D01*
X112388134Y-128959999D01*
X118841928Y-128959999D01*
X118841928Y-129660001D01*
X118858992Y-129833255D01*
X118909528Y-129999851D01*
X118991595Y-130153387D01*
X119102038Y-130287962D01*
X119236613Y-130398405D01*
X119390149Y-130480472D01*
X119556745Y-130531008D01*
X119729999Y-130548072D01*
X121030001Y-130548072D01*
X121203255Y-130531008D01*
X121369851Y-130480472D01*
X121523387Y-130398405D01*
X121657962Y-130287962D01*
X121768405Y-130153387D01*
X121850472Y-129999851D01*
X121901008Y-129833255D01*
X121918072Y-129660001D01*
X121918072Y-128959999D01*
X121901008Y-128786745D01*
X121850472Y-128620149D01*
X121768405Y-128466613D01*
X121657962Y-128332038D01*
X121523387Y-128221595D01*
X121518594Y-128219033D01*
X121643078Y-128093474D01*
X121777421Y-127890533D01*
X121869591Y-127665282D01*
X121873462Y-127627609D01*
X121748731Y-127437000D01*
X120507000Y-127437000D01*
X120507000Y-127457000D01*
X120253000Y-127457000D01*
X120253000Y-127437000D01*
X119011269Y-127437000D01*
X118886538Y-127627609D01*
X118890409Y-127665282D01*
X118982579Y-127890533D01*
X119116922Y-128093474D01*
X119241406Y-128219033D01*
X119236613Y-128221595D01*
X119102038Y-128332038D01*
X118991595Y-128466613D01*
X118909528Y-128620149D01*
X118858992Y-128786745D01*
X118841928Y-128959999D01*
X112388134Y-128959999D01*
X112385833Y-126992391D01*
X118886538Y-126992391D01*
X119011269Y-127183000D01*
X120253000Y-127183000D01*
X120253000Y-126075000D01*
X120507000Y-126075000D01*
X120507000Y-127183000D01*
X121748731Y-127183000D01*
X121873462Y-126992391D01*
X121869591Y-126954718D01*
X121777421Y-126729467D01*
X121643078Y-126526526D01*
X121471725Y-126353693D01*
X121269946Y-126217610D01*
X121045496Y-126123507D01*
X120807000Y-126075000D01*
X120507000Y-126075000D01*
X120253000Y-126075000D01*
X119953000Y-126075000D01*
X119714504Y-126123507D01*
X119490054Y-126217610D01*
X119288275Y-126353693D01*
X119116922Y-126526526D01*
X118982579Y-126729467D01*
X118890409Y-126954718D01*
X118886538Y-126992391D01*
X112385833Y-126992391D01*
X112376847Y-119309721D01*
X128195000Y-119309721D01*
X128195000Y-119730279D01*
X128277047Y-120142756D01*
X128437988Y-120531302D01*
X128671637Y-120880983D01*
X128969017Y-121178363D01*
X129318698Y-121412012D01*
X129432256Y-121459049D01*
X129432255Y-127865906D01*
X129427912Y-127910000D01*
X129432255Y-127954093D01*
X129432255Y-127954095D01*
X129445245Y-128085988D01*
X129496579Y-128255213D01*
X129514159Y-128288102D01*
X129579941Y-128411173D01*
X129604431Y-128441014D01*
X129692127Y-128547873D01*
X129726388Y-128575990D01*
X137642256Y-136491859D01*
X137642255Y-138720624D01*
X137534176Y-138882376D01*
X137448617Y-139088933D01*
X137405000Y-139308212D01*
X137405000Y-139531788D01*
X137448617Y-139751067D01*
X137534176Y-139957624D01*
X137658388Y-140143520D01*
X137816480Y-140301612D01*
X138002376Y-140425824D01*
X138208933Y-140511383D01*
X138428212Y-140555000D01*
X138651788Y-140555000D01*
X138871067Y-140511383D01*
X139077624Y-140425824D01*
X139263520Y-140301612D01*
X139421612Y-140143520D01*
X139545824Y-139957624D01*
X139631383Y-139751067D01*
X139675000Y-139531788D01*
X139675000Y-139308212D01*
X139631383Y-139088933D01*
X139545824Y-138882376D01*
X139437745Y-138720625D01*
X139437745Y-136164093D01*
X139442088Y-136119999D01*
X139437745Y-136075904D01*
X139424755Y-135944011D01*
X139373421Y-135774786D01*
X139334616Y-135702188D01*
X139290059Y-135618826D01*
X139249274Y-135569130D01*
X139177873Y-135482127D01*
X139143617Y-135454014D01*
X136059603Y-132370000D01*
X199031928Y-132370000D01*
X199031928Y-134070000D01*
X199044188Y-134194482D01*
X199080498Y-134314180D01*
X199139463Y-134424494D01*
X199218815Y-134521185D01*
X199315506Y-134600537D01*
X199425820Y-134659502D01*
X199545518Y-134695812D01*
X199670000Y-134708072D01*
X201370000Y-134708072D01*
X201494482Y-134695812D01*
X201614180Y-134659502D01*
X201724494Y-134600537D01*
X201821185Y-134521185D01*
X201900537Y-134424494D01*
X201959502Y-134314180D01*
X201995812Y-134194482D01*
X202008072Y-134070000D01*
X202008072Y-132370000D01*
X201995812Y-132245518D01*
X201959502Y-132125820D01*
X201900537Y-132015506D01*
X201821185Y-131918815D01*
X201724494Y-131839463D01*
X201614180Y-131780498D01*
X201541620Y-131758487D01*
X201673475Y-131626632D01*
X201835990Y-131383411D01*
X201947932Y-131113158D01*
X202005000Y-130826260D01*
X202005000Y-130533740D01*
X201947932Y-130246842D01*
X201835990Y-129976589D01*
X201673475Y-129733368D01*
X201466632Y-129526525D01*
X201284466Y-129404805D01*
X201401355Y-129335178D01*
X201617588Y-129140269D01*
X201791641Y-128906920D01*
X201916825Y-128644099D01*
X201961476Y-128496890D01*
X201840155Y-128267000D01*
X200647000Y-128267000D01*
X200647000Y-128287000D01*
X200393000Y-128287000D01*
X200393000Y-128267000D01*
X199199845Y-128267000D01*
X199078524Y-128496890D01*
X199123175Y-128644099D01*
X199248359Y-128906920D01*
X199422412Y-129140269D01*
X199638645Y-129335178D01*
X199755534Y-129404805D01*
X199573368Y-129526525D01*
X199366525Y-129733368D01*
X199204010Y-129976589D01*
X199092068Y-130246842D01*
X199035000Y-130533740D01*
X199035000Y-130826260D01*
X199092068Y-131113158D01*
X199204010Y-131383411D01*
X199366525Y-131626632D01*
X199498380Y-131758487D01*
X199425820Y-131780498D01*
X199315506Y-131839463D01*
X199218815Y-131918815D01*
X199139463Y-132015506D01*
X199080498Y-132125820D01*
X199044188Y-132245518D01*
X199031928Y-132370000D01*
X136059603Y-132370000D01*
X134357664Y-130668061D01*
X191315000Y-130668061D01*
X191315000Y-130871939D01*
X191354774Y-131071898D01*
X191432795Y-131260256D01*
X191546063Y-131429774D01*
X191690226Y-131573937D01*
X191859744Y-131687205D01*
X192048102Y-131765226D01*
X192248061Y-131805000D01*
X192451939Y-131805000D01*
X192651898Y-131765226D01*
X192840256Y-131687205D01*
X193009774Y-131573937D01*
X193053711Y-131530000D01*
X196346289Y-131530000D01*
X196390226Y-131573937D01*
X196559744Y-131687205D01*
X196748102Y-131765226D01*
X196948061Y-131805000D01*
X197151939Y-131805000D01*
X197351898Y-131765226D01*
X197540256Y-131687205D01*
X197709774Y-131573937D01*
X197853937Y-131429774D01*
X197967205Y-131260256D01*
X198045226Y-131071898D01*
X198085000Y-130871939D01*
X198085000Y-130668061D01*
X198045226Y-130468102D01*
X197967205Y-130279744D01*
X197853937Y-130110226D01*
X197709774Y-129966063D01*
X197540256Y-129852795D01*
X197351898Y-129774774D01*
X197151939Y-129735000D01*
X196948061Y-129735000D01*
X196748102Y-129774774D01*
X196559744Y-129852795D01*
X196390226Y-129966063D01*
X196346289Y-130010000D01*
X193053711Y-130010000D01*
X193009774Y-129966063D01*
X192840256Y-129852795D01*
X192651898Y-129774774D01*
X192451939Y-129735000D01*
X192248061Y-129735000D01*
X192048102Y-129774774D01*
X191859744Y-129852795D01*
X191690226Y-129966063D01*
X191546063Y-130110226D01*
X191432795Y-130279744D01*
X191354774Y-130468102D01*
X191315000Y-130668061D01*
X134357664Y-130668061D01*
X131227745Y-127538143D01*
X131227745Y-121459049D01*
X131341302Y-121412012D01*
X131690983Y-121178363D01*
X131988363Y-120880983D01*
X132222012Y-120531302D01*
X132382953Y-120142756D01*
X132465000Y-119730279D01*
X132465000Y-119309721D01*
X132382953Y-118897244D01*
X132222012Y-118508698D01*
X131988363Y-118159017D01*
X131690983Y-117861637D01*
X131341302Y-117627988D01*
X130952756Y-117467047D01*
X130540279Y-117385000D01*
X130119721Y-117385000D01*
X129707244Y-117467047D01*
X129318698Y-117627988D01*
X128969017Y-117861637D01*
X128671637Y-118159017D01*
X128437988Y-118508698D01*
X128277047Y-118897244D01*
X128195000Y-119309721D01*
X112376847Y-119309721D01*
X112362611Y-107139999D01*
X118861928Y-107139999D01*
X118861928Y-107840001D01*
X118878992Y-108013255D01*
X118929528Y-108179851D01*
X119011595Y-108333387D01*
X119122038Y-108467962D01*
X119256613Y-108578405D01*
X119410149Y-108660472D01*
X119576745Y-108711008D01*
X119749999Y-108728072D01*
X121050001Y-108728072D01*
X121223255Y-108711008D01*
X121389851Y-108660472D01*
X121543387Y-108578405D01*
X121677962Y-108467962D01*
X121788405Y-108333387D01*
X121870472Y-108179851D01*
X121921008Y-108013255D01*
X121938072Y-107840001D01*
X121938072Y-107139999D01*
X121921008Y-106966745D01*
X121870472Y-106800149D01*
X121788405Y-106646613D01*
X121677962Y-106512038D01*
X121543387Y-106401595D01*
X121538594Y-106399033D01*
X121663078Y-106273474D01*
X121797421Y-106070533D01*
X121889591Y-105845282D01*
X121893462Y-105807609D01*
X121768731Y-105617000D01*
X120527000Y-105617000D01*
X120527000Y-105637000D01*
X120273000Y-105637000D01*
X120273000Y-105617000D01*
X119031269Y-105617000D01*
X118906538Y-105807609D01*
X118910409Y-105845282D01*
X119002579Y-106070533D01*
X119136922Y-106273474D01*
X119261406Y-106399033D01*
X119256613Y-106401595D01*
X119122038Y-106512038D01*
X119011595Y-106646613D01*
X118929528Y-106800149D01*
X118878992Y-106966745D01*
X118861928Y-107139999D01*
X112362611Y-107139999D01*
X112360310Y-105172391D01*
X118906538Y-105172391D01*
X119031269Y-105363000D01*
X120273000Y-105363000D01*
X120273000Y-104255000D01*
X120527000Y-104255000D01*
X120527000Y-105363000D01*
X121768731Y-105363000D01*
X121893462Y-105172391D01*
X121889591Y-105134718D01*
X121797421Y-104909467D01*
X121663078Y-104706526D01*
X121491725Y-104533693D01*
X121289946Y-104397610D01*
X121065496Y-104303507D01*
X120827000Y-104255000D01*
X120527000Y-104255000D01*
X120273000Y-104255000D01*
X119973000Y-104255000D01*
X119734504Y-104303507D01*
X119510054Y-104397610D01*
X119308275Y-104533693D01*
X119136922Y-104706526D01*
X119002579Y-104909467D01*
X118910409Y-105134718D01*
X118906538Y-105172391D01*
X112360310Y-105172391D01*
X112341673Y-89240000D01*
X121651928Y-89240000D01*
X121664188Y-89364482D01*
X121700498Y-89484180D01*
X121759463Y-89594494D01*
X121838815Y-89691185D01*
X121935506Y-89770537D01*
X122045820Y-89829502D01*
X122165518Y-89865812D01*
X122290000Y-89878072D01*
X122904250Y-89875000D01*
X123063000Y-89716250D01*
X123063000Y-88467000D01*
X121813750Y-88467000D01*
X121655000Y-88625750D01*
X121651928Y-89240000D01*
X112341673Y-89240000D01*
X112339936Y-87755560D01*
X116204045Y-87755560D01*
X116265932Y-87991368D01*
X116507790Y-88104266D01*
X116767027Y-88167811D01*
X117033680Y-88179561D01*
X117297501Y-88139063D01*
X117548353Y-88047875D01*
X117654068Y-87991368D01*
X117715955Y-87755560D01*
X116960000Y-86999605D01*
X116204045Y-87755560D01*
X112339936Y-87755560D01*
X112338927Y-86893680D01*
X115600439Y-86893680D01*
X115640937Y-87157501D01*
X115732125Y-87408353D01*
X115788632Y-87514068D01*
X116024440Y-87575955D01*
X116780395Y-86820000D01*
X117139605Y-86820000D01*
X117895560Y-87575955D01*
X118131368Y-87514068D01*
X118165942Y-87440000D01*
X121651928Y-87440000D01*
X121655000Y-88054250D01*
X121813750Y-88213000D01*
X123063000Y-88213000D01*
X123063000Y-86963750D01*
X123317000Y-86963750D01*
X123317000Y-88213000D01*
X123337000Y-88213000D01*
X123337000Y-88467000D01*
X123317000Y-88467000D01*
X123317000Y-89716250D01*
X123475750Y-89875000D01*
X124090000Y-89878072D01*
X124214482Y-89865812D01*
X124334180Y-89829502D01*
X124444494Y-89770537D01*
X124541185Y-89691185D01*
X124620537Y-89594494D01*
X124679502Y-89484180D01*
X124685056Y-89465873D01*
X124751495Y-89532312D01*
X124970001Y-89678313D01*
X124970000Y-93967332D01*
X124970001Y-93967342D01*
X124970000Y-108732678D01*
X124966324Y-108770000D01*
X124970000Y-108807322D01*
X124970000Y-108807332D01*
X124980997Y-108918985D01*
X125020434Y-109048992D01*
X125024454Y-109062246D01*
X125095026Y-109194276D01*
X125109774Y-109212246D01*
X125189999Y-109310001D01*
X125219003Y-109333804D01*
X135866201Y-119981003D01*
X135889999Y-120010001D01*
X135918997Y-120033799D01*
X136005723Y-120104974D01*
X136119379Y-120165725D01*
X136137753Y-120175546D01*
X136281014Y-120219003D01*
X136392667Y-120230000D01*
X136392676Y-120230000D01*
X136429999Y-120233676D01*
X136467322Y-120230000D01*
X140854493Y-120230000D01*
X140909534Y-120362882D01*
X141115825Y-120671618D01*
X141378382Y-120934175D01*
X141687118Y-121140466D01*
X142030166Y-121282561D01*
X142394344Y-121355000D01*
X142765656Y-121355000D01*
X143129834Y-121282561D01*
X143472882Y-121140466D01*
X143781618Y-120934175D01*
X144044175Y-120671618D01*
X144250466Y-120362882D01*
X144392561Y-120019834D01*
X144465000Y-119655656D01*
X144465000Y-119284344D01*
X144392561Y-118920166D01*
X144250466Y-118577118D01*
X144044175Y-118268382D01*
X143781618Y-118005825D01*
X143472882Y-117799534D01*
X143129834Y-117657439D01*
X142765656Y-117585000D01*
X142394344Y-117585000D01*
X142030166Y-117657439D01*
X141687118Y-117799534D01*
X141378382Y-118005825D01*
X141115825Y-118268382D01*
X140909534Y-118577118D01*
X140854493Y-118710000D01*
X136744802Y-118710000D01*
X131344523Y-113309721D01*
X142395000Y-113309721D01*
X142395000Y-113730279D01*
X142477047Y-114142756D01*
X142637988Y-114531302D01*
X142871637Y-114880983D01*
X143169017Y-115178363D01*
X143518698Y-115412012D01*
X143907244Y-115572953D01*
X144319721Y-115655000D01*
X144740279Y-115655000D01*
X145152756Y-115572953D01*
X145541302Y-115412012D01*
X145890983Y-115178363D01*
X146188363Y-114880983D01*
X146422012Y-114531302D01*
X146582953Y-114142756D01*
X146665000Y-113730279D01*
X146665000Y-113309721D01*
X146582953Y-112897244D01*
X146422012Y-112508698D01*
X146188363Y-112159017D01*
X145890983Y-111861637D01*
X145541302Y-111627988D01*
X145152756Y-111467047D01*
X144740279Y-111385000D01*
X144319721Y-111385000D01*
X143907244Y-111467047D01*
X143518698Y-111627988D01*
X143169017Y-111861637D01*
X142871637Y-112159017D01*
X142637988Y-112508698D01*
X142477047Y-112897244D01*
X142395000Y-113309721D01*
X131344523Y-113309721D01*
X126490000Y-108455199D01*
X126490000Y-107259721D01*
X128245000Y-107259721D01*
X128245000Y-107680279D01*
X128327047Y-108092756D01*
X128487988Y-108481302D01*
X128721637Y-108830983D01*
X129019017Y-109128363D01*
X129368698Y-109362012D01*
X129757244Y-109522953D01*
X130169721Y-109605000D01*
X130590279Y-109605000D01*
X131002756Y-109522953D01*
X131391302Y-109362012D01*
X131740983Y-109128363D01*
X132038363Y-108830983D01*
X132272012Y-108481302D01*
X132432953Y-108092756D01*
X132515000Y-107680279D01*
X132515000Y-107284344D01*
X140695000Y-107284344D01*
X140695000Y-107655656D01*
X140767439Y-108019834D01*
X140909534Y-108362882D01*
X141115825Y-108671618D01*
X141378382Y-108934175D01*
X141687118Y-109140466D01*
X142030166Y-109282561D01*
X142394344Y-109355000D01*
X142765656Y-109355000D01*
X143129834Y-109282561D01*
X143472882Y-109140466D01*
X143781618Y-108934175D01*
X144044175Y-108671618D01*
X144250466Y-108362882D01*
X144392561Y-108019834D01*
X144442641Y-107768061D01*
X156455000Y-107768061D01*
X156455000Y-107971939D01*
X156494774Y-108171898D01*
X156572795Y-108360256D01*
X156686063Y-108529774D01*
X156830226Y-108673937D01*
X156999744Y-108787205D01*
X157188102Y-108865226D01*
X157388061Y-108905000D01*
X157450198Y-108905000D01*
X157520001Y-108974802D01*
X157520000Y-109285198D01*
X156988998Y-109816201D01*
X156960000Y-109839999D01*
X156936202Y-109868997D01*
X156936201Y-109868998D01*
X156865026Y-109955724D01*
X156794454Y-110087754D01*
X156764180Y-110187558D01*
X156750998Y-110231014D01*
X156746444Y-110277247D01*
X156736324Y-110380000D01*
X156740001Y-110417332D01*
X156740000Y-115336289D01*
X156696063Y-115380226D01*
X156582795Y-115549744D01*
X156504774Y-115738102D01*
X156465000Y-115938061D01*
X156465000Y-116141939D01*
X156504774Y-116341898D01*
X156582795Y-116530256D01*
X156696063Y-116699774D01*
X156840226Y-116843937D01*
X157009744Y-116957205D01*
X157198102Y-117035226D01*
X157398061Y-117075000D01*
X157601939Y-117075000D01*
X157801898Y-117035226D01*
X157990256Y-116957205D01*
X158159774Y-116843937D01*
X158303937Y-116699774D01*
X158417205Y-116530256D01*
X158495226Y-116341898D01*
X158535000Y-116141939D01*
X158535000Y-115938061D01*
X158495226Y-115738102D01*
X158417205Y-115549744D01*
X158303937Y-115380226D01*
X158260000Y-115336289D01*
X158260000Y-112530000D01*
X159069388Y-112530000D01*
X159091785Y-112757400D01*
X159155093Y-112966098D01*
X159120498Y-113030820D01*
X159084188Y-113150518D01*
X159071928Y-113275000D01*
X159071928Y-114325000D01*
X159084188Y-114449482D01*
X159120498Y-114569180D01*
X159179463Y-114679494D01*
X159258815Y-114776185D01*
X159355506Y-114855537D01*
X159465820Y-114914502D01*
X159585518Y-114950812D01*
X159710000Y-114963072D01*
X161210000Y-114963072D01*
X161334482Y-114950812D01*
X161454180Y-114914502D01*
X161564494Y-114855537D01*
X161661185Y-114776185D01*
X161740537Y-114679494D01*
X161799502Y-114569180D01*
X161835812Y-114449482D01*
X161848072Y-114325000D01*
X161848072Y-113275000D01*
X161835812Y-113150518D01*
X161799502Y-113030820D01*
X161764907Y-112966098D01*
X161828215Y-112757400D01*
X161850612Y-112530000D01*
X161828215Y-112302600D01*
X161761885Y-112083940D01*
X161661071Y-111895331D01*
X161702275Y-111836882D01*
X161795272Y-111627337D01*
X161803964Y-111565810D01*
X161678163Y-111387000D01*
X160913109Y-111387000D01*
X160912400Y-111386785D01*
X160741979Y-111370000D01*
X160178021Y-111370000D01*
X160007600Y-111386785D01*
X160006891Y-111387000D01*
X159241837Y-111387000D01*
X159116036Y-111565810D01*
X159124728Y-111627337D01*
X159217725Y-111836882D01*
X159258929Y-111895331D01*
X159158115Y-112083940D01*
X159091785Y-112302600D01*
X159069388Y-112530000D01*
X158260000Y-112530000D01*
X158260000Y-110954190D01*
X159116036Y-110954190D01*
X159241837Y-111133000D01*
X160333000Y-111133000D01*
X160333000Y-110253402D01*
X160587000Y-110253402D01*
X160587000Y-111133000D01*
X161678163Y-111133000D01*
X161803964Y-110954190D01*
X161795272Y-110892663D01*
X161702275Y-110683118D01*
X161570184Y-110495742D01*
X161404076Y-110337736D01*
X161210334Y-110215172D01*
X160996404Y-110132761D01*
X160770507Y-110093669D01*
X160587000Y-110253402D01*
X160333000Y-110253402D01*
X160149493Y-110093669D01*
X159923596Y-110132761D01*
X159709666Y-110215172D01*
X159515924Y-110337736D01*
X159349816Y-110495742D01*
X159217725Y-110683118D01*
X159124728Y-110892663D01*
X159116036Y-110954190D01*
X158260000Y-110954190D01*
X158260000Y-110694801D01*
X158791004Y-110163798D01*
X158820001Y-110140001D01*
X158914974Y-110024276D01*
X158985546Y-109892247D01*
X159029003Y-109748986D01*
X159040000Y-109637333D01*
X159040000Y-109637332D01*
X159043677Y-109600000D01*
X159040000Y-109562667D01*
X159040000Y-108697325D01*
X159043676Y-108660000D01*
X159040000Y-108622675D01*
X159040000Y-108622667D01*
X159029003Y-108511014D01*
X158985546Y-108367753D01*
X158914974Y-108235724D01*
X158820001Y-108119999D01*
X158791002Y-108096201D01*
X158525000Y-107830198D01*
X158525000Y-107768061D01*
X158485226Y-107568102D01*
X158407205Y-107379744D01*
X158293937Y-107210226D01*
X158149774Y-107066063D01*
X157980256Y-106952795D01*
X157791898Y-106874774D01*
X157591939Y-106835000D01*
X157388061Y-106835000D01*
X157188102Y-106874774D01*
X156999744Y-106952795D01*
X156830226Y-107066063D01*
X156686063Y-107210226D01*
X156572795Y-107379744D01*
X156494774Y-107568102D01*
X156455000Y-107768061D01*
X144442641Y-107768061D01*
X144465000Y-107655656D01*
X144465000Y-107284344D01*
X144392561Y-106920166D01*
X144250466Y-106577118D01*
X144044175Y-106268382D01*
X143781618Y-106005825D01*
X143472882Y-105799534D01*
X143129834Y-105657439D01*
X142765656Y-105585000D01*
X142394344Y-105585000D01*
X142030166Y-105657439D01*
X141687118Y-105799534D01*
X141378382Y-106005825D01*
X141115825Y-106268382D01*
X140909534Y-106577118D01*
X140767439Y-106920166D01*
X140695000Y-107284344D01*
X132515000Y-107284344D01*
X132515000Y-107259721D01*
X132432953Y-106847244D01*
X132272012Y-106458698D01*
X132038363Y-106109017D01*
X131740983Y-105811637D01*
X131391302Y-105577988D01*
X131002756Y-105417047D01*
X130590279Y-105335000D01*
X130169721Y-105335000D01*
X129757244Y-105417047D01*
X129368698Y-105577988D01*
X129019017Y-105811637D01*
X128721637Y-106109017D01*
X128487988Y-106458698D01*
X128327047Y-106847244D01*
X128245000Y-107259721D01*
X126490000Y-107259721D01*
X126490000Y-91458061D01*
X129735000Y-91458061D01*
X129735000Y-91661939D01*
X129774774Y-91861898D01*
X129852795Y-92050256D01*
X129966063Y-92219774D01*
X130010001Y-92263712D01*
X130010000Y-93962677D01*
X130006324Y-94000000D01*
X130010000Y-94037322D01*
X130010000Y-94037332D01*
X130020997Y-94148985D01*
X130045504Y-94229774D01*
X130064454Y-94292246D01*
X130135026Y-94424276D01*
X130172552Y-94470001D01*
X130229999Y-94540001D01*
X130259003Y-94563804D01*
X132489731Y-96794533D01*
X132432795Y-96879744D01*
X132354774Y-97068102D01*
X132315000Y-97268061D01*
X132315000Y-97471939D01*
X132354774Y-97671898D01*
X132432795Y-97860256D01*
X132546063Y-98029774D01*
X132590000Y-98073711D01*
X132590000Y-98142678D01*
X132586324Y-98180000D01*
X132590000Y-98217322D01*
X132590000Y-98217333D01*
X132596883Y-98287205D01*
X132600998Y-98328985D01*
X132644454Y-98472246D01*
X132715026Y-98604276D01*
X132785378Y-98689999D01*
X132810000Y-98720001D01*
X132838998Y-98743799D01*
X133836201Y-99741003D01*
X133859999Y-99770001D01*
X133975724Y-99864974D01*
X134107753Y-99935546D01*
X134251014Y-99979003D01*
X134362667Y-99990000D01*
X134362676Y-99990000D01*
X134399999Y-99993676D01*
X134437322Y-99990000D01*
X135483995Y-99990000D01*
X135340226Y-100086063D01*
X135196063Y-100230226D01*
X135082795Y-100399744D01*
X135004774Y-100588102D01*
X134965000Y-100788061D01*
X134965000Y-100991939D01*
X135004774Y-101191898D01*
X135082795Y-101380256D01*
X135196063Y-101549774D01*
X135340226Y-101693937D01*
X135509744Y-101807205D01*
X135698102Y-101885226D01*
X135898061Y-101925000D01*
X135960198Y-101925000D01*
X136096952Y-102061754D01*
X136125026Y-102114276D01*
X136219999Y-102230001D01*
X136335724Y-102324974D01*
X136467753Y-102395546D01*
X136611014Y-102439003D01*
X136722667Y-102450000D01*
X136760000Y-102453677D01*
X136797333Y-102450000D01*
X168862678Y-102450000D01*
X168900000Y-102453676D01*
X168937322Y-102450000D01*
X168937333Y-102450000D01*
X169048986Y-102439003D01*
X169192247Y-102395546D01*
X169324276Y-102324974D01*
X169440001Y-102230001D01*
X169463804Y-102200997D01*
X174041003Y-97623799D01*
X174070001Y-97600001D01*
X174164974Y-97484276D01*
X174235546Y-97352247D01*
X174279003Y-97208986D01*
X174290000Y-97097333D01*
X174290000Y-97097325D01*
X174293676Y-97060000D01*
X174290000Y-97022675D01*
X174290000Y-91593711D01*
X174333937Y-91549774D01*
X174447205Y-91380256D01*
X174525226Y-91191898D01*
X174565000Y-90991939D01*
X174565000Y-90788061D01*
X174525226Y-90588102D01*
X174447205Y-90399744D01*
X174333937Y-90230226D01*
X174189774Y-90086063D01*
X174020256Y-89972795D01*
X173831898Y-89894774D01*
X173631939Y-89855000D01*
X173428061Y-89855000D01*
X173228102Y-89894774D01*
X173039744Y-89972795D01*
X172899928Y-90066217D01*
X172899774Y-90066063D01*
X172730256Y-89952795D01*
X172541898Y-89874774D01*
X172341939Y-89835000D01*
X172138061Y-89835000D01*
X171938102Y-89874774D01*
X171749744Y-89952795D01*
X171605000Y-90049510D01*
X171460256Y-89952795D01*
X171271898Y-89874774D01*
X171071939Y-89835000D01*
X170868061Y-89835000D01*
X170668102Y-89874774D01*
X170479744Y-89952795D01*
X170310226Y-90066063D01*
X170166063Y-90210226D01*
X170052795Y-90379744D01*
X169974774Y-90568102D01*
X169935000Y-90768061D01*
X169935000Y-90971939D01*
X169974774Y-91171898D01*
X170052795Y-91360256D01*
X170166063Y-91529774D01*
X170210000Y-91573711D01*
X170210001Y-93855197D01*
X168405199Y-95660000D01*
X133504802Y-95660000D01*
X131530000Y-93685199D01*
X131530000Y-92263711D01*
X131573937Y-92219774D01*
X131687205Y-92050256D01*
X131765226Y-91861898D01*
X131805000Y-91661939D01*
X131805000Y-91458061D01*
X131765226Y-91258102D01*
X131687205Y-91069744D01*
X131573937Y-90900226D01*
X131429774Y-90756063D01*
X131260256Y-90642795D01*
X131071898Y-90564774D01*
X130871939Y-90525000D01*
X130668061Y-90525000D01*
X130468102Y-90564774D01*
X130279744Y-90642795D01*
X130110226Y-90756063D01*
X129966063Y-90900226D01*
X129852795Y-91069744D01*
X129774774Y-91258102D01*
X129735000Y-91458061D01*
X126490000Y-91458061D01*
X126490000Y-89678313D01*
X126708505Y-89532312D01*
X126922312Y-89318505D01*
X127000000Y-89202237D01*
X127077688Y-89318505D01*
X127291495Y-89532312D01*
X127542905Y-89700299D01*
X127822257Y-89816011D01*
X128118816Y-89875000D01*
X128421184Y-89875000D01*
X128717743Y-89816011D01*
X128997095Y-89700299D01*
X129248505Y-89532312D01*
X129462312Y-89318505D01*
X129540000Y-89202237D01*
X129617688Y-89318505D01*
X129831495Y-89532312D01*
X130082905Y-89700299D01*
X130362257Y-89816011D01*
X130658816Y-89875000D01*
X130961184Y-89875000D01*
X131257743Y-89816011D01*
X131537095Y-89700299D01*
X131788505Y-89532312D01*
X132002312Y-89318505D01*
X132080000Y-89202237D01*
X132157688Y-89318505D01*
X132371495Y-89532312D01*
X132622905Y-89700299D01*
X132902257Y-89816011D01*
X133198816Y-89875000D01*
X133501184Y-89875000D01*
X133797743Y-89816011D01*
X134077095Y-89700299D01*
X134328505Y-89532312D01*
X134542312Y-89318505D01*
X134620000Y-89202237D01*
X134697688Y-89318505D01*
X134911495Y-89532312D01*
X135162905Y-89700299D01*
X135442257Y-89816011D01*
X135738816Y-89875000D01*
X136041184Y-89875000D01*
X136337743Y-89816011D01*
X136617095Y-89700299D01*
X136868505Y-89532312D01*
X137082312Y-89318505D01*
X137160000Y-89202237D01*
X137237688Y-89318505D01*
X137451495Y-89532312D01*
X137702905Y-89700299D01*
X137982257Y-89816011D01*
X138278816Y-89875000D01*
X138581184Y-89875000D01*
X138877743Y-89816011D01*
X139157095Y-89700299D01*
X139408505Y-89532312D01*
X139622312Y-89318505D01*
X139700000Y-89202237D01*
X139777688Y-89318505D01*
X139991495Y-89532312D01*
X140242905Y-89700299D01*
X140522257Y-89816011D01*
X140818816Y-89875000D01*
X141121184Y-89875000D01*
X141417743Y-89816011D01*
X141697095Y-89700299D01*
X141948505Y-89532312D01*
X142162312Y-89318505D01*
X142240000Y-89202237D01*
X142317688Y-89318505D01*
X142531495Y-89532312D01*
X142782905Y-89700299D01*
X143062257Y-89816011D01*
X143358816Y-89875000D01*
X143661184Y-89875000D01*
X143957743Y-89816011D01*
X144237095Y-89700299D01*
X144488505Y-89532312D01*
X144702312Y-89318505D01*
X144780000Y-89202237D01*
X144857688Y-89318505D01*
X145071495Y-89532312D01*
X145322905Y-89700299D01*
X145602257Y-89816011D01*
X145898816Y-89875000D01*
X146201184Y-89875000D01*
X146497743Y-89816011D01*
X146777095Y-89700299D01*
X147028505Y-89532312D01*
X147242312Y-89318505D01*
X147320000Y-89202237D01*
X147397688Y-89318505D01*
X147611495Y-89532312D01*
X147862905Y-89700299D01*
X148142257Y-89816011D01*
X148438816Y-89875000D01*
X148741184Y-89875000D01*
X149037743Y-89816011D01*
X149317095Y-89700299D01*
X149568505Y-89532312D01*
X149782312Y-89318505D01*
X149860000Y-89202237D01*
X149937688Y-89318505D01*
X150151495Y-89532312D01*
X150402905Y-89700299D01*
X150682257Y-89816011D01*
X150978816Y-89875000D01*
X151281184Y-89875000D01*
X151577743Y-89816011D01*
X151857095Y-89700299D01*
X152108505Y-89532312D01*
X152322312Y-89318505D01*
X152400000Y-89202237D01*
X152477688Y-89318505D01*
X152691495Y-89532312D01*
X152942905Y-89700299D01*
X153222257Y-89816011D01*
X153518816Y-89875000D01*
X153821184Y-89875000D01*
X154117743Y-89816011D01*
X154397095Y-89700299D01*
X154648505Y-89532312D01*
X154862312Y-89318505D01*
X154940000Y-89202237D01*
X155017688Y-89318505D01*
X155231495Y-89532312D01*
X155482905Y-89700299D01*
X155762257Y-89816011D01*
X156058816Y-89875000D01*
X156361184Y-89875000D01*
X156657743Y-89816011D01*
X156937095Y-89700299D01*
X157188505Y-89532312D01*
X157402312Y-89318505D01*
X157480000Y-89202237D01*
X157557688Y-89318505D01*
X157771495Y-89532312D01*
X158022905Y-89700299D01*
X158302257Y-89816011D01*
X158598816Y-89875000D01*
X158901184Y-89875000D01*
X159197743Y-89816011D01*
X159477095Y-89700299D01*
X159728505Y-89532312D01*
X159856737Y-89404080D01*
X160405525Y-89404080D01*
X160489208Y-89658261D01*
X160761775Y-89789158D01*
X161054642Y-89864365D01*
X161356553Y-89880991D01*
X161655907Y-89838397D01*
X161941199Y-89738222D01*
X162090792Y-89658261D01*
X162174475Y-89404080D01*
X161290000Y-88519605D01*
X160405525Y-89404080D01*
X159856737Y-89404080D01*
X159942312Y-89318505D01*
X160044951Y-89164895D01*
X160225920Y-89224475D01*
X161110395Y-88340000D01*
X161469605Y-88340000D01*
X162354080Y-89224475D01*
X162608261Y-89140792D01*
X162739158Y-88868225D01*
X162814365Y-88575358D01*
X162830991Y-88273447D01*
X162788397Y-87974093D01*
X162688222Y-87688801D01*
X162608261Y-87539208D01*
X162354080Y-87455525D01*
X161469605Y-88340000D01*
X161110395Y-88340000D01*
X160225920Y-87455525D01*
X160044951Y-87515105D01*
X159942312Y-87361495D01*
X159856737Y-87275920D01*
X160405525Y-87275920D01*
X161290000Y-88160395D01*
X162174475Y-87275920D01*
X162090792Y-87021739D01*
X161818225Y-86890842D01*
X161525358Y-86815635D01*
X161223447Y-86799009D01*
X160924093Y-86841603D01*
X160638801Y-86941778D01*
X160489208Y-87021739D01*
X160405525Y-87275920D01*
X159856737Y-87275920D01*
X159728505Y-87147688D01*
X159530000Y-87015051D01*
X159530000Y-80498313D01*
X159748505Y-80352312D01*
X159876737Y-80224080D01*
X160425525Y-80224080D01*
X160509208Y-80478261D01*
X160781775Y-80609158D01*
X161074642Y-80684365D01*
X161376553Y-80700991D01*
X161675907Y-80658397D01*
X161961199Y-80558222D01*
X162110792Y-80478261D01*
X162194475Y-80224080D01*
X161310000Y-79339605D01*
X160425525Y-80224080D01*
X159876737Y-80224080D01*
X159962312Y-80138505D01*
X160064951Y-79984895D01*
X160245920Y-80044475D01*
X161130395Y-79160000D01*
X161489605Y-79160000D01*
X162374080Y-80044475D01*
X162628261Y-79960792D01*
X162759158Y-79688225D01*
X162834365Y-79395358D01*
X162850991Y-79093447D01*
X162808397Y-78794093D01*
X162708222Y-78508801D01*
X162628261Y-78359208D01*
X162374080Y-78275525D01*
X161489605Y-79160000D01*
X161130395Y-79160000D01*
X160245920Y-78275525D01*
X160064951Y-78335105D01*
X159962312Y-78181495D01*
X159876737Y-78095920D01*
X160425525Y-78095920D01*
X161310000Y-78980395D01*
X162194475Y-78095920D01*
X162110792Y-77841739D01*
X161838225Y-77710842D01*
X161545358Y-77635635D01*
X161243447Y-77619009D01*
X160944093Y-77661603D01*
X160658801Y-77761778D01*
X160509208Y-77841739D01*
X160425525Y-78095920D01*
X159876737Y-78095920D01*
X159748505Y-77967688D01*
X159497095Y-77799701D01*
X159217743Y-77683989D01*
X158921184Y-77625000D01*
X158618816Y-77625000D01*
X158322257Y-77683989D01*
X158042905Y-77799701D01*
X157791495Y-77967688D01*
X157577688Y-78181495D01*
X157500000Y-78297763D01*
X157422312Y-78181495D01*
X157208505Y-77967688D01*
X156957095Y-77799701D01*
X156677743Y-77683989D01*
X156381184Y-77625000D01*
X156078816Y-77625000D01*
X155782257Y-77683989D01*
X155502905Y-77799701D01*
X155251495Y-77967688D01*
X155037688Y-78181495D01*
X154960000Y-78297763D01*
X154882312Y-78181495D01*
X154668505Y-77967688D01*
X154417095Y-77799701D01*
X154137743Y-77683989D01*
X153841184Y-77625000D01*
X153538816Y-77625000D01*
X153242257Y-77683989D01*
X152962905Y-77799701D01*
X152711495Y-77967688D01*
X152497688Y-78181495D01*
X152420000Y-78297763D01*
X152342312Y-78181495D01*
X152128505Y-77967688D01*
X151877095Y-77799701D01*
X151597743Y-77683989D01*
X151301184Y-77625000D01*
X150998816Y-77625000D01*
X150702257Y-77683989D01*
X150422905Y-77799701D01*
X150171495Y-77967688D01*
X149957688Y-78181495D01*
X149880000Y-78297763D01*
X149802312Y-78181495D01*
X149588505Y-77967688D01*
X149337095Y-77799701D01*
X149057743Y-77683989D01*
X148761184Y-77625000D01*
X148458816Y-77625000D01*
X148162257Y-77683989D01*
X147882905Y-77799701D01*
X147631495Y-77967688D01*
X147417688Y-78181495D01*
X147340000Y-78297763D01*
X147262312Y-78181495D01*
X147048505Y-77967688D01*
X146797095Y-77799701D01*
X146517743Y-77683989D01*
X146221184Y-77625000D01*
X145918816Y-77625000D01*
X145622257Y-77683989D01*
X145342905Y-77799701D01*
X145091495Y-77967688D01*
X144877688Y-78181495D01*
X144800000Y-78297763D01*
X144722312Y-78181495D01*
X144508505Y-77967688D01*
X144257095Y-77799701D01*
X143977743Y-77683989D01*
X143681184Y-77625000D01*
X143378816Y-77625000D01*
X143082257Y-77683989D01*
X142802905Y-77799701D01*
X142551495Y-77967688D01*
X142337688Y-78181495D01*
X142260000Y-78297763D01*
X142182312Y-78181495D01*
X141968505Y-77967688D01*
X141717095Y-77799701D01*
X141437743Y-77683989D01*
X141141184Y-77625000D01*
X140838816Y-77625000D01*
X140542257Y-77683989D01*
X140262905Y-77799701D01*
X140011495Y-77967688D01*
X139797688Y-78181495D01*
X139720000Y-78297763D01*
X139642312Y-78181495D01*
X139428505Y-77967688D01*
X139177095Y-77799701D01*
X138897743Y-77683989D01*
X138601184Y-77625000D01*
X138298816Y-77625000D01*
X138002257Y-77683989D01*
X137722905Y-77799701D01*
X137471495Y-77967688D01*
X137257688Y-78181495D01*
X137180000Y-78297763D01*
X137102312Y-78181495D01*
X136888505Y-77967688D01*
X136637095Y-77799701D01*
X136357743Y-77683989D01*
X136061184Y-77625000D01*
X135758816Y-77625000D01*
X135462257Y-77683989D01*
X135182905Y-77799701D01*
X134931495Y-77967688D01*
X134717688Y-78181495D01*
X134640000Y-78297763D01*
X134562312Y-78181495D01*
X134348505Y-77967688D01*
X134097095Y-77799701D01*
X133817743Y-77683989D01*
X133521184Y-77625000D01*
X133218816Y-77625000D01*
X132922257Y-77683989D01*
X132642905Y-77799701D01*
X132391495Y-77967688D01*
X132177688Y-78181495D01*
X132100000Y-78297763D01*
X132022312Y-78181495D01*
X131808505Y-77967688D01*
X131557095Y-77799701D01*
X131277743Y-77683989D01*
X130981184Y-77625000D01*
X130678816Y-77625000D01*
X130382257Y-77683989D01*
X130102905Y-77799701D01*
X129851495Y-77967688D01*
X129637688Y-78181495D01*
X129560000Y-78297763D01*
X129482312Y-78181495D01*
X129268505Y-77967688D01*
X129017095Y-77799701D01*
X128737743Y-77683989D01*
X128441184Y-77625000D01*
X128138816Y-77625000D01*
X127842257Y-77683989D01*
X127562905Y-77799701D01*
X127311495Y-77967688D01*
X127097688Y-78181495D01*
X127020000Y-78297763D01*
X126942312Y-78181495D01*
X126728505Y-77967688D01*
X126510000Y-77821687D01*
X126510000Y-77434801D01*
X128424802Y-75520000D01*
X166035199Y-75520000D01*
X166390000Y-75874802D01*
X166390000Y-76136289D01*
X166346063Y-76180226D01*
X166232795Y-76349744D01*
X166154774Y-76538102D01*
X166115000Y-76738061D01*
X166115000Y-76941939D01*
X166154774Y-77141898D01*
X166232795Y-77330256D01*
X166346063Y-77499774D01*
X166390000Y-77543711D01*
X166390001Y-86005197D01*
X162365199Y-90030000D01*
X151637333Y-90030000D01*
X151600000Y-90026323D01*
X151562667Y-90030000D01*
X151451014Y-90040997D01*
X151307753Y-90084454D01*
X151175724Y-90155026D01*
X151059999Y-90249999D01*
X151036201Y-90278998D01*
X150309002Y-91006197D01*
X150279999Y-91029999D01*
X150237121Y-91082247D01*
X150185026Y-91145724D01*
X150148384Y-91214276D01*
X150114454Y-91277754D01*
X150070997Y-91421015D01*
X150060000Y-91532668D01*
X150060000Y-91532678D01*
X150056324Y-91570000D01*
X150060000Y-91607323D01*
X150060001Y-92866288D01*
X150016063Y-92910226D01*
X149902795Y-93079744D01*
X149824774Y-93268102D01*
X149785000Y-93468061D01*
X149785000Y-93671939D01*
X149824774Y-93871898D01*
X149902795Y-94060256D01*
X150016063Y-94229774D01*
X150160226Y-94373937D01*
X150329744Y-94487205D01*
X150518102Y-94565226D01*
X150718061Y-94605000D01*
X150921939Y-94605000D01*
X151121898Y-94565226D01*
X151310256Y-94487205D01*
X151479774Y-94373937D01*
X151623937Y-94229774D01*
X151737205Y-94060256D01*
X151815226Y-93871898D01*
X151855000Y-93671939D01*
X151855000Y-93468061D01*
X151815226Y-93268102D01*
X151737205Y-93079744D01*
X151623937Y-92910226D01*
X151580000Y-92866289D01*
X151580000Y-91884801D01*
X151914802Y-91550000D01*
X162642678Y-91550000D01*
X162680000Y-91553676D01*
X162717322Y-91550000D01*
X162717333Y-91550000D01*
X162828986Y-91539003D01*
X162972247Y-91495546D01*
X163104276Y-91424974D01*
X163220001Y-91330001D01*
X163243804Y-91300997D01*
X167661003Y-86883799D01*
X167690001Y-86860001D01*
X167784974Y-86744276D01*
X167855546Y-86612247D01*
X167899003Y-86468986D01*
X167910000Y-86357333D01*
X167913677Y-86320000D01*
X167910000Y-86282667D01*
X167910000Y-77703922D01*
X167989744Y-77757205D01*
X168178102Y-77835226D01*
X168378061Y-77875000D01*
X168581939Y-77875000D01*
X168781898Y-77835226D01*
X168970256Y-77757205D01*
X169112483Y-77662172D01*
X169239744Y-77747205D01*
X169428102Y-77825226D01*
X169628061Y-77865000D01*
X169831939Y-77865000D01*
X170031898Y-77825226D01*
X170220256Y-77747205D01*
X170389774Y-77633937D01*
X170533937Y-77489774D01*
X170647205Y-77320256D01*
X170725226Y-77131898D01*
X170765000Y-76931939D01*
X170765000Y-76728061D01*
X170725226Y-76528102D01*
X170647205Y-76339744D01*
X170538198Y-76176603D01*
X170714802Y-76000000D01*
X175185199Y-76000000D01*
X176040000Y-76854802D01*
X176040001Y-120275197D01*
X175795199Y-120520000D01*
X168377325Y-120520000D01*
X168340000Y-120516324D01*
X168302675Y-120520000D01*
X168302667Y-120520000D01*
X168191014Y-120530997D01*
X168047753Y-120574454D01*
X167915724Y-120645026D01*
X167799999Y-120739999D01*
X167776201Y-120768997D01*
X166149003Y-122396196D01*
X166119999Y-122419999D01*
X166090827Y-122455546D01*
X166025026Y-122535724D01*
X166022198Y-122541015D01*
X165954454Y-122667754D01*
X165910997Y-122811015D01*
X165900000Y-122922668D01*
X165900000Y-122922678D01*
X165896324Y-122960000D01*
X165900000Y-122997323D01*
X165900001Y-127432668D01*
X165896324Y-127470000D01*
X165910998Y-127618985D01*
X165954454Y-127762246D01*
X166025026Y-127894276D01*
X166054530Y-127930226D01*
X166120000Y-128010001D01*
X166148998Y-128033799D01*
X167216201Y-129101003D01*
X167239999Y-129130001D01*
X167355724Y-129224974D01*
X167487753Y-129295546D01*
X167631014Y-129339003D01*
X167742667Y-129350000D01*
X167742676Y-129350000D01*
X167779999Y-129353676D01*
X167817322Y-129350000D01*
X168836289Y-129350000D01*
X168880226Y-129393937D01*
X169049744Y-129507205D01*
X169238102Y-129585226D01*
X169438061Y-129625000D01*
X169641939Y-129625000D01*
X169841898Y-129585226D01*
X170030256Y-129507205D01*
X170199774Y-129393937D01*
X170303711Y-129290000D01*
X174316289Y-129290000D01*
X174360226Y-129333937D01*
X174529744Y-129447205D01*
X174718102Y-129525226D01*
X174918061Y-129565000D01*
X175121939Y-129565000D01*
X175321898Y-129525226D01*
X175510256Y-129447205D01*
X175679774Y-129333937D01*
X175823937Y-129189774D01*
X175937205Y-129020256D01*
X176015226Y-128831898D01*
X176055000Y-128631939D01*
X176055000Y-128428061D01*
X176031131Y-128308061D01*
X179575000Y-128308061D01*
X179575000Y-128511939D01*
X179614774Y-128711898D01*
X179692795Y-128900256D01*
X179806063Y-129069774D01*
X179950226Y-129213937D01*
X180119744Y-129327205D01*
X180308102Y-129405226D01*
X180508061Y-129445000D01*
X180711939Y-129445000D01*
X180911898Y-129405226D01*
X181100256Y-129327205D01*
X181269774Y-129213937D01*
X181413937Y-129069774D01*
X181527205Y-128900256D01*
X181605226Y-128711898D01*
X181645000Y-128511939D01*
X181645000Y-128449802D01*
X181764802Y-128330000D01*
X191502678Y-128330000D01*
X191540000Y-128333676D01*
X191577322Y-128330000D01*
X191577333Y-128330000D01*
X191688986Y-128319003D01*
X191832247Y-128275546D01*
X191964276Y-128204974D01*
X192080001Y-128110001D01*
X192103804Y-128080997D01*
X192401691Y-127783110D01*
X199078524Y-127783110D01*
X199199845Y-128013000D01*
X200393000Y-128013000D01*
X200393000Y-126819186D01*
X200647000Y-126819186D01*
X200647000Y-128013000D01*
X201840155Y-128013000D01*
X201961476Y-127783110D01*
X201916825Y-127635901D01*
X201791641Y-127373080D01*
X201617588Y-127139731D01*
X201401355Y-126944822D01*
X201151252Y-126795843D01*
X200876891Y-126698519D01*
X200647000Y-126819186D01*
X200393000Y-126819186D01*
X200163109Y-126698519D01*
X199888748Y-126795843D01*
X199638645Y-126944822D01*
X199422412Y-127139731D01*
X199248359Y-127373080D01*
X199123175Y-127635901D01*
X199078524Y-127783110D01*
X192401691Y-127783110D01*
X194494802Y-125690000D01*
X199946289Y-125690000D01*
X199990226Y-125733937D01*
X200159744Y-125847205D01*
X200348102Y-125925226D01*
X200548061Y-125965000D01*
X200751939Y-125965000D01*
X200951898Y-125925226D01*
X201140256Y-125847205D01*
X201309774Y-125733937D01*
X201453937Y-125589774D01*
X201567205Y-125420256D01*
X201645226Y-125231898D01*
X201685000Y-125031939D01*
X201685000Y-124828061D01*
X201645226Y-124628102D01*
X201567205Y-124439744D01*
X201453937Y-124270226D01*
X201309774Y-124126063D01*
X201140256Y-124012795D01*
X200951898Y-123934774D01*
X200751939Y-123895000D01*
X200548061Y-123895000D01*
X200348102Y-123934774D01*
X200159744Y-124012795D01*
X199990226Y-124126063D01*
X199946289Y-124170000D01*
X194217323Y-124170000D01*
X194180000Y-124166324D01*
X194142677Y-124170000D01*
X194142667Y-124170000D01*
X194031014Y-124180997D01*
X193887753Y-124224454D01*
X193755724Y-124295026D01*
X193639999Y-124389999D01*
X193616201Y-124418997D01*
X191225199Y-126810000D01*
X181487322Y-126810000D01*
X181449999Y-126806324D01*
X181412676Y-126810000D01*
X181412667Y-126810000D01*
X181301014Y-126820997D01*
X181157753Y-126864454D01*
X181025724Y-126935026D01*
X181025722Y-126935027D01*
X181025723Y-126935027D01*
X180938996Y-127006201D01*
X180938992Y-127006205D01*
X180909999Y-127029999D01*
X180886205Y-127058992D01*
X180570198Y-127375000D01*
X180508061Y-127375000D01*
X180308102Y-127414774D01*
X180119744Y-127492795D01*
X179950226Y-127606063D01*
X179806063Y-127750226D01*
X179692795Y-127919744D01*
X179614774Y-128108102D01*
X179575000Y-128308061D01*
X176031131Y-128308061D01*
X176015226Y-128228102D01*
X175937205Y-128039744D01*
X175823937Y-127870226D01*
X175679774Y-127726063D01*
X175510256Y-127612795D01*
X175321898Y-127534774D01*
X175121939Y-127495000D01*
X174918061Y-127495000D01*
X174718102Y-127534774D01*
X174529744Y-127612795D01*
X174360226Y-127726063D01*
X174316289Y-127770000D01*
X170175734Y-127770000D01*
X170030256Y-127672795D01*
X169841898Y-127594774D01*
X169641939Y-127555000D01*
X169438061Y-127555000D01*
X169238102Y-127594774D01*
X169049744Y-127672795D01*
X168880226Y-127786063D01*
X168836289Y-127830000D01*
X168094802Y-127830000D01*
X167420000Y-127155199D01*
X167420000Y-123274801D01*
X168654802Y-122040000D01*
X168759532Y-122040000D01*
X168652795Y-122199744D01*
X168574774Y-122388102D01*
X168535000Y-122588061D01*
X168535000Y-122791939D01*
X168574774Y-122991898D01*
X168652795Y-123180256D01*
X168766063Y-123349774D01*
X168910226Y-123493937D01*
X169079744Y-123607205D01*
X169268102Y-123685226D01*
X169468061Y-123725000D01*
X169671939Y-123725000D01*
X169871898Y-123685226D01*
X170060256Y-123607205D01*
X170229774Y-123493937D01*
X170273711Y-123450000D01*
X174336289Y-123450000D01*
X174380226Y-123493937D01*
X174549744Y-123607205D01*
X174738102Y-123685226D01*
X174938061Y-123725000D01*
X175141939Y-123725000D01*
X175341898Y-123685226D01*
X175530256Y-123607205D01*
X175699774Y-123493937D01*
X175743711Y-123450000D01*
X176772678Y-123450000D01*
X176810000Y-123453676D01*
X176847322Y-123450000D01*
X176847333Y-123450000D01*
X176958986Y-123439003D01*
X177102247Y-123395546D01*
X177234276Y-123324974D01*
X177350001Y-123230001D01*
X177373804Y-123200998D01*
X178261003Y-122313799D01*
X178290001Y-122290001D01*
X178384974Y-122174276D01*
X178455546Y-122042247D01*
X178499003Y-121898986D01*
X178510000Y-121787333D01*
X178510000Y-121787325D01*
X178513676Y-121750000D01*
X178510000Y-121712675D01*
X178510000Y-99077728D01*
X178528102Y-99085226D01*
X178728061Y-99125000D01*
X178931939Y-99125000D01*
X179110000Y-99089582D01*
X179110000Y-100232678D01*
X179106324Y-100270000D01*
X179110000Y-100307322D01*
X179110000Y-100307332D01*
X179120997Y-100418985D01*
X179164454Y-100562246D01*
X179235026Y-100694276D01*
X179273384Y-100741015D01*
X179329999Y-100810001D01*
X179359003Y-100833804D01*
X184210001Y-105684803D01*
X184210000Y-113982667D01*
X184206323Y-114020000D01*
X184220997Y-114168986D01*
X184264454Y-114312247D01*
X184335026Y-114444276D01*
X184429999Y-114560001D01*
X184545724Y-114654974D01*
X184598248Y-114683049D01*
X185970001Y-116054803D01*
X185970000Y-118456289D01*
X185926063Y-118500226D01*
X185812795Y-118669744D01*
X185734774Y-118858102D01*
X185695000Y-119058061D01*
X185695000Y-119261939D01*
X185734774Y-119461898D01*
X185812795Y-119650256D01*
X185926063Y-119819774D01*
X186070226Y-119963937D01*
X186239744Y-120077205D01*
X186428102Y-120155226D01*
X186628061Y-120195000D01*
X186831939Y-120195000D01*
X187031898Y-120155226D01*
X187220256Y-120077205D01*
X187389774Y-119963937D01*
X187533937Y-119819774D01*
X187647205Y-119650256D01*
X187725226Y-119461898D01*
X187765000Y-119261939D01*
X187765000Y-119058061D01*
X187725226Y-118858102D01*
X187647205Y-118669744D01*
X187533937Y-118500226D01*
X187490000Y-118456289D01*
X187490000Y-115777322D01*
X187493676Y-115739999D01*
X187490000Y-115702676D01*
X187490000Y-115702667D01*
X187479003Y-115591014D01*
X187435546Y-115447753D01*
X187364974Y-115315724D01*
X187270001Y-115199999D01*
X187241003Y-115176201D01*
X185730000Y-113665199D01*
X185730000Y-105407322D01*
X185733676Y-105369999D01*
X185730000Y-105332676D01*
X185730000Y-105332667D01*
X185719003Y-105221014D01*
X185675546Y-105077753D01*
X185604974Y-104945724D01*
X185510001Y-104829999D01*
X185481003Y-104806201D01*
X180630000Y-99955199D01*
X180630000Y-99604801D01*
X185275469Y-104250271D01*
X185315026Y-104324276D01*
X185409999Y-104440001D01*
X185439001Y-104463802D01*
X186730000Y-105754802D01*
X186730001Y-112506288D01*
X186686063Y-112550226D01*
X186572795Y-112719744D01*
X186494774Y-112908102D01*
X186455000Y-113108061D01*
X186455000Y-113311939D01*
X186494774Y-113511898D01*
X186572795Y-113700256D01*
X186686063Y-113869774D01*
X186830226Y-114013937D01*
X186999744Y-114127205D01*
X187188102Y-114205226D01*
X187388061Y-114245000D01*
X187591939Y-114245000D01*
X187791898Y-114205226D01*
X187980256Y-114127205D01*
X188149774Y-114013937D01*
X188293937Y-113869774D01*
X188407205Y-113700256D01*
X188485226Y-113511898D01*
X188525000Y-113311939D01*
X188525000Y-113108061D01*
X188485226Y-112908102D01*
X188407205Y-112719744D01*
X188293937Y-112550226D01*
X188250000Y-112506289D01*
X188250000Y-105834802D01*
X188316200Y-105901002D01*
X188339999Y-105930001D01*
X188455724Y-106024974D01*
X188587753Y-106095546D01*
X188731014Y-106139003D01*
X188842667Y-106150000D01*
X188842677Y-106150000D01*
X188880000Y-106153676D01*
X188917323Y-106150000D01*
X195885199Y-106150000D01*
X197160001Y-107424803D01*
X197160000Y-108202677D01*
X197156324Y-108240000D01*
X197160000Y-108277322D01*
X197160000Y-108277332D01*
X197170997Y-108388985D01*
X197213704Y-108529774D01*
X197214454Y-108532246D01*
X197285026Y-108664276D01*
X197323378Y-108711008D01*
X197379999Y-108780001D01*
X197409003Y-108803804D01*
X201386201Y-112781003D01*
X201409999Y-112810001D01*
X201525724Y-112904974D01*
X201657753Y-112975546D01*
X201801014Y-113019003D01*
X201912667Y-113030000D01*
X201912675Y-113030000D01*
X201950000Y-113033676D01*
X201987325Y-113030000D01*
X202546067Y-113030000D01*
X202642498Y-113147502D01*
X202791762Y-113270000D01*
X202642498Y-113392498D01*
X202488167Y-113580551D01*
X202373489Y-113795099D01*
X202302870Y-114027898D01*
X202279025Y-114270000D01*
X202302870Y-114512102D01*
X202373489Y-114744901D01*
X202488167Y-114959449D01*
X202642498Y-115147502D01*
X202791762Y-115270000D01*
X202642498Y-115392498D01*
X202546067Y-115510000D01*
X201444802Y-115510000D01*
X195605000Y-109670199D01*
X195605000Y-108068711D01*
X195648937Y-108024774D01*
X195762205Y-107855256D01*
X195840226Y-107666898D01*
X195880000Y-107466939D01*
X195880000Y-107263061D01*
X195840226Y-107063102D01*
X195762205Y-106874744D01*
X195648937Y-106705226D01*
X195504774Y-106561063D01*
X195335256Y-106447795D01*
X195146898Y-106369774D01*
X194946939Y-106330000D01*
X194743061Y-106330000D01*
X194543102Y-106369774D01*
X194354744Y-106447795D01*
X194185226Y-106561063D01*
X194041063Y-106705226D01*
X193927795Y-106874744D01*
X193849774Y-107063102D01*
X193810000Y-107263061D01*
X193810000Y-107466939D01*
X193849774Y-107666898D01*
X193927795Y-107855256D01*
X194041063Y-108024774D01*
X194085001Y-108068712D01*
X194085000Y-109947677D01*
X194081324Y-109985000D01*
X194085000Y-110022322D01*
X194085000Y-110022332D01*
X194095997Y-110133985D01*
X194126631Y-110234974D01*
X194139454Y-110277246D01*
X194210026Y-110409276D01*
X194249871Y-110457826D01*
X194304999Y-110525001D01*
X194334003Y-110548804D01*
X200566201Y-116781003D01*
X200589999Y-116810001D01*
X200705724Y-116904974D01*
X200837753Y-116975546D01*
X200981014Y-117019003D01*
X201092667Y-117030000D01*
X201092676Y-117030000D01*
X201129999Y-117033676D01*
X201167322Y-117030000D01*
X202546067Y-117030000D01*
X202642498Y-117147502D01*
X202792348Y-117270481D01*
X202728275Y-117313693D01*
X202556922Y-117486526D01*
X202422579Y-117689467D01*
X202330409Y-117914718D01*
X202326538Y-117952391D01*
X202451269Y-118143000D01*
X203693000Y-118143000D01*
X203693000Y-118123000D01*
X203947000Y-118123000D01*
X203947000Y-118143000D01*
X205188731Y-118143000D01*
X205313462Y-117952391D01*
X205309591Y-117914718D01*
X205217421Y-117689467D01*
X205083078Y-117486526D01*
X204911725Y-117313693D01*
X204847652Y-117270481D01*
X204997502Y-117147502D01*
X205151833Y-116959449D01*
X205266511Y-116744901D01*
X205337130Y-116512102D01*
X205360975Y-116270000D01*
X205337130Y-116027898D01*
X205266511Y-115795099D01*
X205151833Y-115580551D01*
X204997502Y-115392498D01*
X204848238Y-115270000D01*
X204997502Y-115147502D01*
X205093933Y-115030000D01*
X205162678Y-115030000D01*
X205200000Y-115033676D01*
X205237322Y-115030000D01*
X205237333Y-115030000D01*
X205348986Y-115019003D01*
X205492247Y-114975546D01*
X205624276Y-114904974D01*
X205740001Y-114810001D01*
X205763803Y-114780998D01*
X206210001Y-114334801D01*
X206210001Y-119205197D01*
X205341628Y-120073570D01*
X205337130Y-120027898D01*
X205266511Y-119795099D01*
X205151833Y-119580551D01*
X204997502Y-119392498D01*
X204847652Y-119269519D01*
X204911725Y-119226307D01*
X205083078Y-119053474D01*
X205217421Y-118850533D01*
X205309591Y-118625282D01*
X205313462Y-118587609D01*
X205188731Y-118397000D01*
X203947000Y-118397000D01*
X203947000Y-118417000D01*
X203693000Y-118417000D01*
X203693000Y-118397000D01*
X202451269Y-118397000D01*
X202326538Y-118587609D01*
X202330409Y-118625282D01*
X202422579Y-118850533D01*
X202556922Y-119053474D01*
X202728275Y-119226307D01*
X202792348Y-119269519D01*
X202642498Y-119392498D01*
X202546067Y-119510000D01*
X196984803Y-119510000D01*
X191795000Y-114320199D01*
X191795000Y-110368711D01*
X191838937Y-110324774D01*
X191952205Y-110155256D01*
X192030226Y-109966898D01*
X192070000Y-109766939D01*
X192070000Y-109563061D01*
X192030226Y-109363102D01*
X191952205Y-109174744D01*
X191838937Y-109005226D01*
X191694774Y-108861063D01*
X191525256Y-108747795D01*
X191336898Y-108669774D01*
X191136939Y-108630000D01*
X190933061Y-108630000D01*
X190733102Y-108669774D01*
X190544744Y-108747795D01*
X190375226Y-108861063D01*
X190231063Y-109005226D01*
X190117795Y-109174744D01*
X190039774Y-109363102D01*
X190000000Y-109563061D01*
X190000000Y-109766939D01*
X190039774Y-109966898D01*
X190117795Y-110155256D01*
X190231063Y-110324774D01*
X190275001Y-110368712D01*
X190275000Y-114597677D01*
X190271324Y-114635000D01*
X190275000Y-114672322D01*
X190275000Y-114672332D01*
X190285997Y-114783985D01*
X190301108Y-114833799D01*
X190329454Y-114927246D01*
X190400026Y-115059276D01*
X190439871Y-115107826D01*
X190494999Y-115175001D01*
X190524003Y-115198804D01*
X196106205Y-120781008D01*
X196129999Y-120810001D01*
X196158992Y-120833795D01*
X196158996Y-120833799D01*
X196216491Y-120880983D01*
X196245724Y-120904974D01*
X196377753Y-120975546D01*
X196521014Y-121019003D01*
X196632667Y-121030000D01*
X196632676Y-121030000D01*
X196669999Y-121033676D01*
X196707322Y-121030000D01*
X202546067Y-121030000D01*
X202642498Y-121147502D01*
X202791762Y-121270000D01*
X202642498Y-121392498D01*
X202488167Y-121580551D01*
X202373489Y-121795099D01*
X202302870Y-122027898D01*
X202279025Y-122270000D01*
X202302870Y-122512102D01*
X202373489Y-122744901D01*
X202488167Y-122959449D01*
X202642498Y-123147502D01*
X202830551Y-123301833D01*
X203045099Y-123416511D01*
X203060000Y-123421031D01*
X203060001Y-127942668D01*
X203056324Y-127980000D01*
X203060001Y-128017333D01*
X203066075Y-128078997D01*
X203070998Y-128128985D01*
X203114454Y-128272246D01*
X203185026Y-128404276D01*
X203256201Y-128491002D01*
X203280000Y-128520001D01*
X203308998Y-128543799D01*
X208170000Y-133404802D01*
X208170001Y-137866288D01*
X208126063Y-137910226D01*
X208012795Y-138079744D01*
X207934774Y-138268102D01*
X207895000Y-138468061D01*
X207895000Y-138671939D01*
X207934774Y-138871898D01*
X208012795Y-139060256D01*
X208126063Y-139229774D01*
X208270226Y-139373937D01*
X208439744Y-139487205D01*
X208628102Y-139565226D01*
X208828061Y-139605000D01*
X209031939Y-139605000D01*
X209231898Y-139565226D01*
X209420256Y-139487205D01*
X209589774Y-139373937D01*
X209733937Y-139229774D01*
X209847205Y-139060256D01*
X209925226Y-138871898D01*
X209965000Y-138671939D01*
X209965000Y-138468061D01*
X209925226Y-138268102D01*
X209847205Y-138079744D01*
X209733937Y-137910226D01*
X209690000Y-137866289D01*
X209690000Y-133127322D01*
X209693676Y-133089999D01*
X209690000Y-133052676D01*
X209690000Y-133052667D01*
X209679003Y-132941014D01*
X209635546Y-132797753D01*
X209564974Y-132665724D01*
X209470001Y-132549999D01*
X209441004Y-132526202D01*
X204580000Y-127665199D01*
X204580000Y-123421031D01*
X204594901Y-123416511D01*
X204809449Y-123301833D01*
X204997502Y-123147502D01*
X205151833Y-122959449D01*
X205266511Y-122744901D01*
X205337130Y-122512102D01*
X205360975Y-122270000D01*
X205355042Y-122209759D01*
X207481003Y-120083799D01*
X207510001Y-120060001D01*
X207604974Y-119944276D01*
X207675546Y-119812247D01*
X207719003Y-119668986D01*
X207730000Y-119557333D01*
X207730000Y-119557324D01*
X207733676Y-119520001D01*
X207730000Y-119482678D01*
X207730000Y-108957322D01*
X207733676Y-108919999D01*
X207730000Y-108882676D01*
X207730000Y-108882667D01*
X207719003Y-108771014D01*
X207675546Y-108627753D01*
X207604974Y-108495724D01*
X207510001Y-108379999D01*
X207481004Y-108356202D01*
X205130000Y-106005199D01*
X205130000Y-86387323D01*
X205133676Y-86350000D01*
X205130000Y-86312677D01*
X205130000Y-86312667D01*
X205119003Y-86201014D01*
X205075546Y-86057753D01*
X205004974Y-85925724D01*
X204910001Y-85809999D01*
X204881004Y-85786202D01*
X203225000Y-84130199D01*
X203225000Y-79788711D01*
X203268937Y-79744774D01*
X203382205Y-79575256D01*
X203460226Y-79386898D01*
X203500000Y-79186939D01*
X203500000Y-78983061D01*
X203460226Y-78783102D01*
X203382205Y-78594744D01*
X203268937Y-78425226D01*
X203124774Y-78281063D01*
X202955256Y-78167795D01*
X202766898Y-78089774D01*
X202566939Y-78050000D01*
X202363061Y-78050000D01*
X202163102Y-78089774D01*
X201974744Y-78167795D01*
X201942618Y-78189261D01*
X201940000Y-78162675D01*
X201940000Y-78162667D01*
X201929003Y-78051014D01*
X201885546Y-77907753D01*
X201814974Y-77775724D01*
X201720001Y-77659999D01*
X201691004Y-77636202D01*
X195353804Y-71299003D01*
X195330001Y-71269999D01*
X195214276Y-71175026D01*
X195082247Y-71104454D01*
X194938986Y-71060997D01*
X194827333Y-71050000D01*
X194827322Y-71050000D01*
X194790000Y-71046324D01*
X194752678Y-71050000D01*
X190973711Y-71050000D01*
X190929774Y-71006063D01*
X190760256Y-70892795D01*
X190571898Y-70814774D01*
X190371939Y-70775000D01*
X190168061Y-70775000D01*
X189968102Y-70814774D01*
X189779744Y-70892795D01*
X189610226Y-71006063D01*
X189466063Y-71150226D01*
X189352795Y-71319744D01*
X189274774Y-71508102D01*
X189235000Y-71708061D01*
X189235000Y-71911939D01*
X189274774Y-72111898D01*
X189352795Y-72300256D01*
X189466063Y-72469774D01*
X189610226Y-72613937D01*
X189779744Y-72727205D01*
X189968102Y-72805226D01*
X190168061Y-72845000D01*
X190371939Y-72845000D01*
X190571898Y-72805226D01*
X190760256Y-72727205D01*
X190929774Y-72613937D01*
X190973711Y-72570000D01*
X194475199Y-72570000D01*
X195575785Y-73670587D01*
X195449744Y-73722795D01*
X195280226Y-73836063D01*
X195236289Y-73880000D01*
X189193711Y-73880000D01*
X189109774Y-73796063D01*
X188940256Y-73682795D01*
X188751898Y-73604774D01*
X188551939Y-73565000D01*
X188348061Y-73565000D01*
X188148102Y-73604774D01*
X187959744Y-73682795D01*
X187790226Y-73796063D01*
X187646063Y-73940226D01*
X187532795Y-74109744D01*
X187454774Y-74298102D01*
X187415000Y-74498061D01*
X187415000Y-74701939D01*
X187454774Y-74901898D01*
X187532795Y-75090256D01*
X187646063Y-75259774D01*
X187790226Y-75403937D01*
X187959744Y-75517205D01*
X188148102Y-75595226D01*
X188348061Y-75635000D01*
X188551939Y-75635000D01*
X188751898Y-75595226D01*
X188940256Y-75517205D01*
X189109774Y-75403937D01*
X189113711Y-75400000D01*
X195236289Y-75400000D01*
X195280226Y-75443937D01*
X195449744Y-75557205D01*
X195638102Y-75635226D01*
X195838061Y-75675000D01*
X195900199Y-75675000D01*
X196890001Y-76664803D01*
X196890000Y-94795198D01*
X189081408Y-102603791D01*
X188930256Y-102502795D01*
X188741898Y-102424774D01*
X188541939Y-102385000D01*
X188338061Y-102385000D01*
X188138102Y-102424774D01*
X187949744Y-102502795D01*
X187780226Y-102616063D01*
X187636063Y-102760226D01*
X187522795Y-102929744D01*
X187514521Y-102949719D01*
X182523804Y-97959003D01*
X182523799Y-97958997D01*
X182500000Y-97935198D01*
X182500000Y-89184801D01*
X182649801Y-89035000D01*
X182711939Y-89035000D01*
X182911898Y-88995226D01*
X183100256Y-88917205D01*
X183269774Y-88803937D01*
X183413937Y-88659774D01*
X183527205Y-88490256D01*
X183605226Y-88301898D01*
X183645000Y-88101939D01*
X183645000Y-87898061D01*
X183605226Y-87698102D01*
X183527205Y-87509744D01*
X183413937Y-87340226D01*
X183269774Y-87196063D01*
X183100256Y-87082795D01*
X183009570Y-87045231D01*
X187944802Y-82110000D01*
X194176289Y-82110000D01*
X194220226Y-82153937D01*
X194389744Y-82267205D01*
X194578102Y-82345226D01*
X194778061Y-82385000D01*
X194981939Y-82385000D01*
X195181898Y-82345226D01*
X195370256Y-82267205D01*
X195539774Y-82153937D01*
X195683937Y-82009774D01*
X195797205Y-81840256D01*
X195875226Y-81651898D01*
X195915000Y-81451939D01*
X195915000Y-81248061D01*
X195875226Y-81048102D01*
X195797205Y-80859744D01*
X195683937Y-80690226D01*
X195539774Y-80546063D01*
X195370256Y-80432795D01*
X195181898Y-80354774D01*
X194981939Y-80315000D01*
X194778061Y-80315000D01*
X194578102Y-80354774D01*
X194389744Y-80432795D01*
X194220226Y-80546063D01*
X194176289Y-80590000D01*
X187904802Y-80590000D01*
X188224802Y-80270000D01*
X191316289Y-80270000D01*
X191360226Y-80313937D01*
X191529744Y-80427205D01*
X191718102Y-80505226D01*
X191918061Y-80545000D01*
X192121939Y-80545000D01*
X192321898Y-80505226D01*
X192510256Y-80427205D01*
X192679774Y-80313937D01*
X192823937Y-80169774D01*
X192937205Y-80000256D01*
X193015226Y-79811898D01*
X193055000Y-79611939D01*
X193055000Y-79408061D01*
X193015226Y-79208102D01*
X192937205Y-79019744D01*
X192823937Y-78850226D01*
X192679774Y-78706063D01*
X192510256Y-78592795D01*
X192321898Y-78514774D01*
X192121939Y-78475000D01*
X191918061Y-78475000D01*
X191718102Y-78514774D01*
X191529744Y-78592795D01*
X191360226Y-78706063D01*
X191316289Y-78750000D01*
X188003087Y-78750000D01*
X187915000Y-78741324D01*
X187914999Y-78741324D01*
X187766013Y-78755998D01*
X187622753Y-78799454D01*
X187592315Y-78815724D01*
X187490724Y-78870026D01*
X187374999Y-78964999D01*
X187351201Y-78993997D01*
X179590000Y-86755199D01*
X179590000Y-83164801D01*
X184324802Y-78430000D01*
X187016289Y-78430000D01*
X187060226Y-78473937D01*
X187229744Y-78587205D01*
X187418102Y-78665226D01*
X187618061Y-78705000D01*
X187821939Y-78705000D01*
X188021898Y-78665226D01*
X188210256Y-78587205D01*
X188379774Y-78473937D01*
X188523937Y-78329774D01*
X188637205Y-78160256D01*
X188715226Y-77971898D01*
X188755000Y-77771939D01*
X188755000Y-77568061D01*
X188715226Y-77368102D01*
X188637205Y-77179744D01*
X188523937Y-77010226D01*
X188379774Y-76866063D01*
X188210256Y-76752795D01*
X188021898Y-76674774D01*
X187821939Y-76635000D01*
X187618061Y-76635000D01*
X187418102Y-76674774D01*
X187229744Y-76752795D01*
X187060226Y-76866063D01*
X187016289Y-76910000D01*
X184047322Y-76910000D01*
X184009999Y-76906324D01*
X183972676Y-76910000D01*
X183972667Y-76910000D01*
X183861014Y-76920997D01*
X183717753Y-76964454D01*
X183585724Y-77035026D01*
X183469999Y-77129999D01*
X183446201Y-77158997D01*
X178510000Y-82095199D01*
X178510000Y-75877322D01*
X178513676Y-75839999D01*
X178510000Y-75802676D01*
X178510000Y-75802667D01*
X178499003Y-75691014D01*
X178455546Y-75547753D01*
X178384974Y-75415724D01*
X178290001Y-75299999D01*
X178261004Y-75276202D01*
X176813804Y-73829003D01*
X176790001Y-73799999D01*
X176674276Y-73705026D01*
X176542247Y-73634454D01*
X176398986Y-73590997D01*
X176287333Y-73580000D01*
X176287322Y-73580000D01*
X176250000Y-73576324D01*
X176212678Y-73580000D01*
X169477322Y-73580000D01*
X169439999Y-73576324D01*
X169402677Y-73580000D01*
X169402667Y-73580000D01*
X169291014Y-73590997D01*
X169147753Y-73634454D01*
X169015723Y-73705026D01*
X168994072Y-73722795D01*
X168899999Y-73799999D01*
X168876201Y-73828997D01*
X167968998Y-74736201D01*
X167940000Y-74759999D01*
X167916202Y-74788997D01*
X167916201Y-74788998D01*
X167845026Y-74875724D01*
X167774454Y-75007754D01*
X167749428Y-75090256D01*
X167748951Y-75091830D01*
X167690001Y-75019999D01*
X167661004Y-74996202D01*
X166913803Y-74249002D01*
X166890001Y-74219999D01*
X166774276Y-74125026D01*
X166642247Y-74054454D01*
X166498986Y-74010997D01*
X166387333Y-74000000D01*
X166387322Y-74000000D01*
X166350000Y-73996324D01*
X166312678Y-74000000D01*
X128147322Y-74000000D01*
X128109999Y-73996324D01*
X128072677Y-74000000D01*
X128072667Y-74000000D01*
X127961014Y-74010997D01*
X127817753Y-74054454D01*
X127685723Y-74125026D01*
X127623948Y-74175724D01*
X127569999Y-74219999D01*
X127546201Y-74248997D01*
X125238998Y-76556201D01*
X125210000Y-76579999D01*
X125186202Y-76608997D01*
X125186201Y-76608998D01*
X125115026Y-76695724D01*
X125044454Y-76827754D01*
X125000998Y-76971015D01*
X124986324Y-77120000D01*
X124990001Y-77157332D01*
X124990001Y-77821687D01*
X124771495Y-77967688D01*
X124705056Y-78034127D01*
X124699502Y-78015820D01*
X124640537Y-77905506D01*
X124561185Y-77808815D01*
X124464494Y-77729463D01*
X124354180Y-77670498D01*
X124234482Y-77634188D01*
X124110000Y-77621928D01*
X123495750Y-77625000D01*
X123337000Y-77783750D01*
X123337000Y-79033000D01*
X123357000Y-79033000D01*
X123357000Y-79287000D01*
X123337000Y-79287000D01*
X123337000Y-80536250D01*
X123495750Y-80695000D01*
X124110000Y-80698072D01*
X124234482Y-80685812D01*
X124354180Y-80649502D01*
X124464494Y-80590537D01*
X124561185Y-80511185D01*
X124640537Y-80414494D01*
X124699502Y-80304180D01*
X124705056Y-80285873D01*
X124771495Y-80352312D01*
X124990000Y-80498313D01*
X124990001Y-86988323D01*
X124751495Y-87147688D01*
X124685056Y-87214127D01*
X124679502Y-87195820D01*
X124620537Y-87085506D01*
X124541185Y-86988815D01*
X124444494Y-86909463D01*
X124334180Y-86850498D01*
X124214482Y-86814188D01*
X124090000Y-86801928D01*
X123475750Y-86805000D01*
X123317000Y-86963750D01*
X123063000Y-86963750D01*
X122904250Y-86805000D01*
X122290000Y-86801928D01*
X122165518Y-86814188D01*
X122045820Y-86850498D01*
X121935506Y-86909463D01*
X121838815Y-86988815D01*
X121759463Y-87085506D01*
X121700498Y-87195820D01*
X121664188Y-87315518D01*
X121651928Y-87440000D01*
X118165942Y-87440000D01*
X118244266Y-87272210D01*
X118307811Y-87012973D01*
X118319561Y-86746320D01*
X118279063Y-86482499D01*
X118187875Y-86231647D01*
X118131368Y-86125932D01*
X117895560Y-86064045D01*
X117139605Y-86820000D01*
X116780395Y-86820000D01*
X116024440Y-86064045D01*
X115788632Y-86125932D01*
X115675734Y-86367790D01*
X115612189Y-86627027D01*
X115600439Y-86893680D01*
X112338927Y-86893680D01*
X112332743Y-81606544D01*
X115605000Y-81606544D01*
X115605000Y-81873456D01*
X115657072Y-82135239D01*
X115759215Y-82381833D01*
X115907503Y-82603762D01*
X116096238Y-82792497D01*
X116318167Y-82940785D01*
X116485266Y-83010000D01*
X116318167Y-83079215D01*
X116096238Y-83227503D01*
X115907503Y-83416238D01*
X115759215Y-83638167D01*
X115657072Y-83884761D01*
X115605000Y-84146544D01*
X115605000Y-84413456D01*
X115657072Y-84675239D01*
X115759215Y-84921833D01*
X115907503Y-85143762D01*
X116096238Y-85332497D01*
X116318167Y-85480785D01*
X116486324Y-85550438D01*
X116371647Y-85592125D01*
X116265932Y-85648632D01*
X116204045Y-85884440D01*
X116960000Y-86640395D01*
X117715955Y-85884440D01*
X117654068Y-85648632D01*
X117438993Y-85548236D01*
X117601833Y-85480785D01*
X117823762Y-85332497D01*
X118012497Y-85143762D01*
X118160785Y-84921833D01*
X118262928Y-84675239D01*
X118315000Y-84413456D01*
X118315000Y-84146544D01*
X118262928Y-83884761D01*
X118160785Y-83638167D01*
X118012497Y-83416238D01*
X117823762Y-83227503D01*
X117601833Y-83079215D01*
X117434734Y-83010000D01*
X117601833Y-82940785D01*
X117823762Y-82792497D01*
X118012497Y-82603762D01*
X118160785Y-82381833D01*
X118262928Y-82135239D01*
X118315000Y-81873456D01*
X118315000Y-81606544D01*
X118262928Y-81344761D01*
X118160785Y-81098167D01*
X118012497Y-80876238D01*
X117823762Y-80687503D01*
X117601833Y-80539215D01*
X117355239Y-80437072D01*
X117093456Y-80385000D01*
X116826544Y-80385000D01*
X116564761Y-80437072D01*
X116318167Y-80539215D01*
X116096238Y-80687503D01*
X115907503Y-80876238D01*
X115759215Y-81098167D01*
X115657072Y-81344761D01*
X115605000Y-81606544D01*
X112332743Y-81606544D01*
X112330934Y-80060000D01*
X121671928Y-80060000D01*
X121684188Y-80184482D01*
X121720498Y-80304180D01*
X121779463Y-80414494D01*
X121858815Y-80511185D01*
X121955506Y-80590537D01*
X122065820Y-80649502D01*
X122185518Y-80685812D01*
X122310000Y-80698072D01*
X122924250Y-80695000D01*
X123083000Y-80536250D01*
X123083000Y-79287000D01*
X121833750Y-79287000D01*
X121675000Y-79445750D01*
X121671928Y-80060000D01*
X112330934Y-80060000D01*
X112328829Y-78260000D01*
X121671928Y-78260000D01*
X121675000Y-78874250D01*
X121833750Y-79033000D01*
X123083000Y-79033000D01*
X123083000Y-77783750D01*
X122924250Y-77625000D01*
X122310000Y-77621928D01*
X122185518Y-77634188D01*
X122065820Y-77670498D01*
X121955506Y-77729463D01*
X121858815Y-77808815D01*
X121779463Y-77905506D01*
X121720498Y-78015820D01*
X121684188Y-78135518D01*
X121671928Y-78260000D01*
X112328829Y-78260000D01*
X112309224Y-61500324D01*
X113115000Y-61500324D01*
X113115000Y-61999676D01*
X113212418Y-62489432D01*
X113403512Y-62950773D01*
X113680937Y-63365968D01*
X114034032Y-63719063D01*
X114449227Y-63996488D01*
X114910568Y-64187582D01*
X115400324Y-64285000D01*
X115899676Y-64285000D01*
X116389432Y-64187582D01*
X116850773Y-63996488D01*
X117265968Y-63719063D01*
X117619063Y-63365968D01*
X117896488Y-62950773D01*
X118087582Y-62489432D01*
X118185000Y-61999676D01*
X118185000Y-61510324D01*
X205155000Y-61510324D01*
X205155000Y-62009676D01*
X205252418Y-62499432D01*
X205443512Y-62960773D01*
X205720937Y-63375968D01*
X206074032Y-63729063D01*
X206489227Y-64006488D01*
X206950568Y-64197582D01*
X207440324Y-64295000D01*
X207939676Y-64295000D01*
X208429432Y-64197582D01*
X208890773Y-64006488D01*
X209305968Y-63729063D01*
X209659063Y-63375968D01*
X209936488Y-62960773D01*
X210127582Y-62499432D01*
X210225000Y-62009676D01*
X210225000Y-61510324D01*
X210127582Y-61020568D01*
X209936488Y-60559227D01*
X209659063Y-60144032D01*
X209305968Y-59790937D01*
X208890773Y-59513512D01*
X208429432Y-59322418D01*
X207939676Y-59225000D01*
X207440324Y-59225000D01*
X206950568Y-59322418D01*
X206489227Y-59513512D01*
X206074032Y-59790937D01*
X205720937Y-60144032D01*
X205443512Y-60559227D01*
X205252418Y-61020568D01*
X205155000Y-61510324D01*
X118185000Y-61510324D01*
X118185000Y-61500324D01*
X118087582Y-61010568D01*
X117896488Y-60549227D01*
X117619063Y-60134032D01*
X117265968Y-59780937D01*
X116850773Y-59503512D01*
X116389432Y-59312418D01*
X115899676Y-59215000D01*
X115400324Y-59215000D01*
X114910568Y-59312418D01*
X114449227Y-59503512D01*
X114034032Y-59780937D01*
X113680937Y-60134032D01*
X113403512Y-60549227D01*
X113212418Y-61010568D01*
X113115000Y-61500324D01*
X112309224Y-61500324D01*
X112305801Y-58574589D01*
X210965511Y-58515410D01*
X211034491Y-151165549D01*
%TA.AperFunction,Conductor*%
D26*
G36*
X211034491Y-151165549D02*
G01*
X112414198Y-151244453D01*
X112409959Y-147620324D01*
X113115000Y-147620324D01*
X113115000Y-148119676D01*
X113212418Y-148609432D01*
X113403512Y-149070773D01*
X113680937Y-149485968D01*
X114034032Y-149839063D01*
X114449227Y-150116488D01*
X114910568Y-150307582D01*
X115400324Y-150405000D01*
X115899676Y-150405000D01*
X116389432Y-150307582D01*
X116850773Y-150116488D01*
X117265968Y-149839063D01*
X117619063Y-149485968D01*
X117896488Y-149070773D01*
X118087582Y-148609432D01*
X118185000Y-148119676D01*
X118185000Y-147700324D01*
X205135000Y-147700324D01*
X205135000Y-148199676D01*
X205232418Y-148689432D01*
X205423512Y-149150773D01*
X205700937Y-149565968D01*
X206054032Y-149919063D01*
X206469227Y-150196488D01*
X206930568Y-150387582D01*
X207420324Y-150485000D01*
X207919676Y-150485000D01*
X208409432Y-150387582D01*
X208870773Y-150196488D01*
X209285968Y-149919063D01*
X209639063Y-149565968D01*
X209916488Y-149150773D01*
X210107582Y-148689432D01*
X210205000Y-148199676D01*
X210205000Y-147700324D01*
X210107582Y-147210568D01*
X209916488Y-146749227D01*
X209639063Y-146334032D01*
X209285968Y-145980937D01*
X208870773Y-145703512D01*
X208409432Y-145512418D01*
X207919676Y-145415000D01*
X207420324Y-145415000D01*
X206930568Y-145512418D01*
X206469227Y-145703512D01*
X206054032Y-145980937D01*
X205700937Y-146334032D01*
X205423512Y-146749227D01*
X205232418Y-147210568D01*
X205135000Y-147700324D01*
X118185000Y-147700324D01*
X118185000Y-147620324D01*
X118087582Y-147130568D01*
X117896488Y-146669227D01*
X117691965Y-146363137D01*
X131645000Y-146363137D01*
X131645000Y-146576863D01*
X131686696Y-146786483D01*
X131768485Y-146983940D01*
X131887225Y-147161647D01*
X132038353Y-147312775D01*
X132216060Y-147431515D01*
X132413517Y-147513304D01*
X132623137Y-147555000D01*
X132836863Y-147555000D01*
X133046483Y-147513304D01*
X133243940Y-147431515D01*
X133421647Y-147312775D01*
X133572775Y-147161647D01*
X133691515Y-146983940D01*
X133773304Y-146786483D01*
X133815000Y-146576863D01*
X133815000Y-146363137D01*
X138445000Y-146363137D01*
X138445000Y-146576863D01*
X138486696Y-146786483D01*
X138568485Y-146983940D01*
X138687225Y-147161647D01*
X138838353Y-147312775D01*
X139016060Y-147431515D01*
X139213517Y-147513304D01*
X139423137Y-147555000D01*
X139636863Y-147555000D01*
X139846483Y-147513304D01*
X140043940Y-147431515D01*
X140221647Y-147312775D01*
X140372775Y-147161647D01*
X140491515Y-146983940D01*
X140573304Y-146786483D01*
X140615000Y-146576863D01*
X140615000Y-146363137D01*
X140573304Y-146153517D01*
X140491515Y-145956060D01*
X140372775Y-145778353D01*
X140221647Y-145627225D01*
X140043940Y-145508485D01*
X139846483Y-145426696D01*
X139636863Y-145385000D01*
X139423137Y-145385000D01*
X139213517Y-145426696D01*
X139016060Y-145508485D01*
X138838353Y-145627225D01*
X138687225Y-145778353D01*
X138568485Y-145956060D01*
X138486696Y-146153517D01*
X138445000Y-146363137D01*
X133815000Y-146363137D01*
X133773304Y-146153517D01*
X133691515Y-145956060D01*
X133572775Y-145778353D01*
X133421647Y-145627225D01*
X133243940Y-145508485D01*
X133046483Y-145426696D01*
X132836863Y-145385000D01*
X132623137Y-145385000D01*
X132413517Y-145426696D01*
X132216060Y-145508485D01*
X132038353Y-145627225D01*
X131887225Y-145778353D01*
X131768485Y-145956060D01*
X131686696Y-146153517D01*
X131645000Y-146363137D01*
X117691965Y-146363137D01*
X117619063Y-146254032D01*
X117265968Y-145900937D01*
X116850773Y-145623512D01*
X116389432Y-145432418D01*
X115899676Y-145335000D01*
X115400324Y-145335000D01*
X114910568Y-145432418D01*
X114449227Y-145623512D01*
X114034032Y-145900937D01*
X113680937Y-146254032D01*
X113403512Y-146669227D01*
X113212418Y-147130568D01*
X113115000Y-147620324D01*
X112409959Y-147620324D01*
X112406530Y-144688212D01*
X129055000Y-144688212D01*
X129055000Y-144911788D01*
X129098617Y-145131067D01*
X129184176Y-145337624D01*
X129308388Y-145523520D01*
X129466480Y-145681612D01*
X129652376Y-145805824D01*
X129858933Y-145891383D01*
X130078212Y-145935000D01*
X130301788Y-145935000D01*
X130521067Y-145891383D01*
X130727624Y-145805824D01*
X130913520Y-145681612D01*
X131071612Y-145523520D01*
X131195824Y-145337624D01*
X131281383Y-145131067D01*
X131325000Y-144911788D01*
X131325000Y-144688212D01*
X131281383Y-144468933D01*
X131195824Y-144262376D01*
X131087745Y-144100625D01*
X131087745Y-141561857D01*
X132373617Y-140275986D01*
X132407873Y-140247873D01*
X132520059Y-140111173D01*
X132603421Y-139955214D01*
X132654755Y-139785989D01*
X132667745Y-139654096D01*
X132667745Y-139654095D01*
X132672088Y-139610001D01*
X132667745Y-139565907D01*
X132667745Y-139069375D01*
X132775824Y-138907624D01*
X132861383Y-138701067D01*
X132905000Y-138481788D01*
X132905000Y-138258212D01*
X132861383Y-138038933D01*
X132775824Y-137832376D01*
X132651612Y-137646480D01*
X132493520Y-137488388D01*
X132307624Y-137364176D01*
X132101067Y-137278617D01*
X131881788Y-137235000D01*
X131658212Y-137235000D01*
X131438933Y-137278617D01*
X131232376Y-137364176D01*
X131046480Y-137488388D01*
X130888388Y-137646480D01*
X130764176Y-137832376D01*
X130678617Y-138038933D01*
X130635000Y-138258212D01*
X130635000Y-138481788D01*
X130678617Y-138701067D01*
X130764176Y-138907624D01*
X130872256Y-139069376D01*
X130872256Y-139238141D01*
X129586388Y-140524010D01*
X129552127Y-140552127D01*
X129472373Y-140649309D01*
X129439941Y-140688827D01*
X129395384Y-140772189D01*
X129356579Y-140844787D01*
X129305245Y-141014012D01*
X129292255Y-141145904D01*
X129287912Y-141190000D01*
X129292255Y-141234094D01*
X129292256Y-144100623D01*
X129184176Y-144262376D01*
X129098617Y-144468933D01*
X129055000Y-144688212D01*
X112406530Y-144688212D01*
X112401409Y-140309999D01*
X118531928Y-140309999D01*
X118531928Y-141010001D01*
X118548992Y-141183255D01*
X118599528Y-141349851D01*
X118681595Y-141503387D01*
X118792038Y-141637962D01*
X118926613Y-141748405D01*
X119080149Y-141830472D01*
X119246745Y-141881008D01*
X119419999Y-141898072D01*
X120720001Y-141898072D01*
X120893255Y-141881008D01*
X121059851Y-141830472D01*
X121213387Y-141748405D01*
X121347962Y-141637962D01*
X121458405Y-141503387D01*
X121540472Y-141349851D01*
X121591008Y-141183255D01*
X121608072Y-141010001D01*
X121608072Y-140309999D01*
X121591008Y-140136745D01*
X121540472Y-139970149D01*
X121458405Y-139816613D01*
X121347962Y-139682038D01*
X121213387Y-139571595D01*
X121208594Y-139569033D01*
X121333078Y-139443474D01*
X121467421Y-139240533D01*
X121559591Y-139015282D01*
X121563462Y-138977609D01*
X121438731Y-138787000D01*
X120197000Y-138787000D01*
X120197000Y-138807000D01*
X119943000Y-138807000D01*
X119943000Y-138787000D01*
X118701269Y-138787000D01*
X118576538Y-138977609D01*
X118580409Y-139015282D01*
X118672579Y-139240533D01*
X118806922Y-139443474D01*
X118931406Y-139569033D01*
X118926613Y-139571595D01*
X118792038Y-139682038D01*
X118681595Y-139816613D01*
X118599528Y-139970149D01*
X118548992Y-140136745D01*
X118531928Y-140309999D01*
X112401409Y-140309999D01*
X112399108Y-138342391D01*
X118576538Y-138342391D01*
X118701269Y-138533000D01*
X119943000Y-138533000D01*
X119943000Y-137425000D01*
X120197000Y-137425000D01*
X120197000Y-138533000D01*
X121438731Y-138533000D01*
X121563462Y-138342391D01*
X121559591Y-138304718D01*
X121467421Y-138079467D01*
X121333078Y-137876526D01*
X121161725Y-137703693D01*
X120959946Y-137567610D01*
X120735496Y-137473507D01*
X120497000Y-137425000D01*
X120197000Y-137425000D01*
X119943000Y-137425000D01*
X119643000Y-137425000D01*
X119404504Y-137473507D01*
X119180054Y-137567610D01*
X118978275Y-137703693D01*
X118806922Y-137876526D01*
X118672579Y-138079467D01*
X118580409Y-138304718D01*
X118576538Y-138342391D01*
X112399108Y-138342391D01*
X112388134Y-128959999D01*
X118841928Y-128959999D01*
X118841928Y-129660001D01*
X118858992Y-129833255D01*
X118909528Y-129999851D01*
X118991595Y-130153387D01*
X119102038Y-130287962D01*
X119236613Y-130398405D01*
X119390149Y-130480472D01*
X119556745Y-130531008D01*
X119729999Y-130548072D01*
X121030001Y-130548072D01*
X121203255Y-130531008D01*
X121369851Y-130480472D01*
X121523387Y-130398405D01*
X121657962Y-130287962D01*
X121768405Y-130153387D01*
X121850472Y-129999851D01*
X121901008Y-129833255D01*
X121918072Y-129660001D01*
X121918072Y-128959999D01*
X121901008Y-128786745D01*
X121850472Y-128620149D01*
X121768405Y-128466613D01*
X121657962Y-128332038D01*
X121523387Y-128221595D01*
X121518594Y-128219033D01*
X121643078Y-128093474D01*
X121777421Y-127890533D01*
X121869591Y-127665282D01*
X121873462Y-127627609D01*
X121748731Y-127437000D01*
X120507000Y-127437000D01*
X120507000Y-127457000D01*
X120253000Y-127457000D01*
X120253000Y-127437000D01*
X119011269Y-127437000D01*
X118886538Y-127627609D01*
X118890409Y-127665282D01*
X118982579Y-127890533D01*
X119116922Y-128093474D01*
X119241406Y-128219033D01*
X119236613Y-128221595D01*
X119102038Y-128332038D01*
X118991595Y-128466613D01*
X118909528Y-128620149D01*
X118858992Y-128786745D01*
X118841928Y-128959999D01*
X112388134Y-128959999D01*
X112385833Y-126992391D01*
X118886538Y-126992391D01*
X119011269Y-127183000D01*
X120253000Y-127183000D01*
X120253000Y-126075000D01*
X120507000Y-126075000D01*
X120507000Y-127183000D01*
X121748731Y-127183000D01*
X121873462Y-126992391D01*
X121869591Y-126954718D01*
X121777421Y-126729467D01*
X121643078Y-126526526D01*
X121471725Y-126353693D01*
X121269946Y-126217610D01*
X121045496Y-126123507D01*
X120807000Y-126075000D01*
X120507000Y-126075000D01*
X120253000Y-126075000D01*
X119953000Y-126075000D01*
X119714504Y-126123507D01*
X119490054Y-126217610D01*
X119288275Y-126353693D01*
X119116922Y-126526526D01*
X118982579Y-126729467D01*
X118890409Y-126954718D01*
X118886538Y-126992391D01*
X112385833Y-126992391D01*
X112376847Y-119309721D01*
X128195000Y-119309721D01*
X128195000Y-119730279D01*
X128277047Y-120142756D01*
X128437988Y-120531302D01*
X128671637Y-120880983D01*
X128969017Y-121178363D01*
X129318698Y-121412012D01*
X129432256Y-121459049D01*
X129432255Y-127865906D01*
X129427912Y-127910000D01*
X129432255Y-127954093D01*
X129432255Y-127954095D01*
X129445245Y-128085988D01*
X129496579Y-128255213D01*
X129514159Y-128288102D01*
X129579941Y-128411173D01*
X129604431Y-128441014D01*
X129692127Y-128547873D01*
X129726388Y-128575990D01*
X137642256Y-136491859D01*
X137642255Y-138720624D01*
X137534176Y-138882376D01*
X137448617Y-139088933D01*
X137405000Y-139308212D01*
X137405000Y-139531788D01*
X137448617Y-139751067D01*
X137534176Y-139957624D01*
X137658388Y-140143520D01*
X137816480Y-140301612D01*
X138002376Y-140425824D01*
X138208933Y-140511383D01*
X138428212Y-140555000D01*
X138651788Y-140555000D01*
X138871067Y-140511383D01*
X139077624Y-140425824D01*
X139263520Y-140301612D01*
X139421612Y-140143520D01*
X139545824Y-139957624D01*
X139631383Y-139751067D01*
X139675000Y-139531788D01*
X139675000Y-139308212D01*
X139631383Y-139088933D01*
X139545824Y-138882376D01*
X139437745Y-138720625D01*
X139437745Y-136164093D01*
X139442088Y-136119999D01*
X139437745Y-136075904D01*
X139424755Y-135944011D01*
X139373421Y-135774786D01*
X139334616Y-135702188D01*
X139290059Y-135618826D01*
X139249274Y-135569130D01*
X139177873Y-135482127D01*
X139143617Y-135454014D01*
X136059603Y-132370000D01*
X199031928Y-132370000D01*
X199031928Y-134070000D01*
X199044188Y-134194482D01*
X199080498Y-134314180D01*
X199139463Y-134424494D01*
X199218815Y-134521185D01*
X199315506Y-134600537D01*
X199425820Y-134659502D01*
X199545518Y-134695812D01*
X199670000Y-134708072D01*
X201370000Y-134708072D01*
X201494482Y-134695812D01*
X201614180Y-134659502D01*
X201724494Y-134600537D01*
X201821185Y-134521185D01*
X201900537Y-134424494D01*
X201959502Y-134314180D01*
X201995812Y-134194482D01*
X202008072Y-134070000D01*
X202008072Y-132370000D01*
X201995812Y-132245518D01*
X201959502Y-132125820D01*
X201900537Y-132015506D01*
X201821185Y-131918815D01*
X201724494Y-131839463D01*
X201614180Y-131780498D01*
X201541620Y-131758487D01*
X201673475Y-131626632D01*
X201835990Y-131383411D01*
X201947932Y-131113158D01*
X202005000Y-130826260D01*
X202005000Y-130533740D01*
X201947932Y-130246842D01*
X201835990Y-129976589D01*
X201673475Y-129733368D01*
X201466632Y-129526525D01*
X201284466Y-129404805D01*
X201401355Y-129335178D01*
X201617588Y-129140269D01*
X201791641Y-128906920D01*
X201916825Y-128644099D01*
X201961476Y-128496890D01*
X201840155Y-128267000D01*
X200647000Y-128267000D01*
X200647000Y-128287000D01*
X200393000Y-128287000D01*
X200393000Y-128267000D01*
X199199845Y-128267000D01*
X199078524Y-128496890D01*
X199123175Y-128644099D01*
X199248359Y-128906920D01*
X199422412Y-129140269D01*
X199638645Y-129335178D01*
X199755534Y-129404805D01*
X199573368Y-129526525D01*
X199366525Y-129733368D01*
X199204010Y-129976589D01*
X199092068Y-130246842D01*
X199035000Y-130533740D01*
X199035000Y-130826260D01*
X199092068Y-131113158D01*
X199204010Y-131383411D01*
X199366525Y-131626632D01*
X199498380Y-131758487D01*
X199425820Y-131780498D01*
X199315506Y-131839463D01*
X199218815Y-131918815D01*
X199139463Y-132015506D01*
X199080498Y-132125820D01*
X199044188Y-132245518D01*
X199031928Y-132370000D01*
X136059603Y-132370000D01*
X134357664Y-130668061D01*
X191315000Y-130668061D01*
X191315000Y-130871939D01*
X191354774Y-131071898D01*
X191432795Y-131260256D01*
X191546063Y-131429774D01*
X191690226Y-131573937D01*
X191859744Y-131687205D01*
X192048102Y-131765226D01*
X192248061Y-131805000D01*
X192451939Y-131805000D01*
X192651898Y-131765226D01*
X192840256Y-131687205D01*
X193009774Y-131573937D01*
X193053711Y-131530000D01*
X196346289Y-131530000D01*
X196390226Y-131573937D01*
X196559744Y-131687205D01*
X196748102Y-131765226D01*
X196948061Y-131805000D01*
X197151939Y-131805000D01*
X197351898Y-131765226D01*
X197540256Y-131687205D01*
X197709774Y-131573937D01*
X197853937Y-131429774D01*
X197967205Y-131260256D01*
X198045226Y-131071898D01*
X198085000Y-130871939D01*
X198085000Y-130668061D01*
X198045226Y-130468102D01*
X197967205Y-130279744D01*
X197853937Y-130110226D01*
X197709774Y-129966063D01*
X197540256Y-129852795D01*
X197351898Y-129774774D01*
X197151939Y-129735000D01*
X196948061Y-129735000D01*
X196748102Y-129774774D01*
X196559744Y-129852795D01*
X196390226Y-129966063D01*
X196346289Y-130010000D01*
X193053711Y-130010000D01*
X193009774Y-129966063D01*
X192840256Y-129852795D01*
X192651898Y-129774774D01*
X192451939Y-129735000D01*
X192248061Y-129735000D01*
X192048102Y-129774774D01*
X191859744Y-129852795D01*
X191690226Y-129966063D01*
X191546063Y-130110226D01*
X191432795Y-130279744D01*
X191354774Y-130468102D01*
X191315000Y-130668061D01*
X134357664Y-130668061D01*
X131227745Y-127538143D01*
X131227745Y-121459049D01*
X131341302Y-121412012D01*
X131690983Y-121178363D01*
X131988363Y-120880983D01*
X132222012Y-120531302D01*
X132382953Y-120142756D01*
X132465000Y-119730279D01*
X132465000Y-119309721D01*
X132382953Y-118897244D01*
X132222012Y-118508698D01*
X131988363Y-118159017D01*
X131690983Y-117861637D01*
X131341302Y-117627988D01*
X130952756Y-117467047D01*
X130540279Y-117385000D01*
X130119721Y-117385000D01*
X129707244Y-117467047D01*
X129318698Y-117627988D01*
X128969017Y-117861637D01*
X128671637Y-118159017D01*
X128437988Y-118508698D01*
X128277047Y-118897244D01*
X128195000Y-119309721D01*
X112376847Y-119309721D01*
X112362611Y-107139999D01*
X118861928Y-107139999D01*
X118861928Y-107840001D01*
X118878992Y-108013255D01*
X118929528Y-108179851D01*
X119011595Y-108333387D01*
X119122038Y-108467962D01*
X119256613Y-108578405D01*
X119410149Y-108660472D01*
X119576745Y-108711008D01*
X119749999Y-108728072D01*
X121050001Y-108728072D01*
X121223255Y-108711008D01*
X121389851Y-108660472D01*
X121543387Y-108578405D01*
X121677962Y-108467962D01*
X121788405Y-108333387D01*
X121870472Y-108179851D01*
X121921008Y-108013255D01*
X121938072Y-107840001D01*
X121938072Y-107139999D01*
X121921008Y-106966745D01*
X121870472Y-106800149D01*
X121788405Y-106646613D01*
X121677962Y-106512038D01*
X121543387Y-106401595D01*
X121538594Y-106399033D01*
X121663078Y-106273474D01*
X121797421Y-106070533D01*
X121889591Y-105845282D01*
X121893462Y-105807609D01*
X121768731Y-105617000D01*
X120527000Y-105617000D01*
X120527000Y-105637000D01*
X120273000Y-105637000D01*
X120273000Y-105617000D01*
X119031269Y-105617000D01*
X118906538Y-105807609D01*
X118910409Y-105845282D01*
X119002579Y-106070533D01*
X119136922Y-106273474D01*
X119261406Y-106399033D01*
X119256613Y-106401595D01*
X119122038Y-106512038D01*
X119011595Y-106646613D01*
X118929528Y-106800149D01*
X118878992Y-106966745D01*
X118861928Y-107139999D01*
X112362611Y-107139999D01*
X112360310Y-105172391D01*
X118906538Y-105172391D01*
X119031269Y-105363000D01*
X120273000Y-105363000D01*
X120273000Y-104255000D01*
X120527000Y-104255000D01*
X120527000Y-105363000D01*
X121768731Y-105363000D01*
X121893462Y-105172391D01*
X121889591Y-105134718D01*
X121797421Y-104909467D01*
X121663078Y-104706526D01*
X121491725Y-104533693D01*
X121289946Y-104397610D01*
X121065496Y-104303507D01*
X120827000Y-104255000D01*
X120527000Y-104255000D01*
X120273000Y-104255000D01*
X119973000Y-104255000D01*
X119734504Y-104303507D01*
X119510054Y-104397610D01*
X119308275Y-104533693D01*
X119136922Y-104706526D01*
X119002579Y-104909467D01*
X118910409Y-105134718D01*
X118906538Y-105172391D01*
X112360310Y-105172391D01*
X112341673Y-89240000D01*
X121651928Y-89240000D01*
X121664188Y-89364482D01*
X121700498Y-89484180D01*
X121759463Y-89594494D01*
X121838815Y-89691185D01*
X121935506Y-89770537D01*
X122045820Y-89829502D01*
X122165518Y-89865812D01*
X122290000Y-89878072D01*
X122904250Y-89875000D01*
X123063000Y-89716250D01*
X123063000Y-88467000D01*
X121813750Y-88467000D01*
X121655000Y-88625750D01*
X121651928Y-89240000D01*
X112341673Y-89240000D01*
X112339936Y-87755560D01*
X116204045Y-87755560D01*
X116265932Y-87991368D01*
X116507790Y-88104266D01*
X116767027Y-88167811D01*
X117033680Y-88179561D01*
X117297501Y-88139063D01*
X117548353Y-88047875D01*
X117654068Y-87991368D01*
X117715955Y-87755560D01*
X116960000Y-86999605D01*
X116204045Y-87755560D01*
X112339936Y-87755560D01*
X112338927Y-86893680D01*
X115600439Y-86893680D01*
X115640937Y-87157501D01*
X115732125Y-87408353D01*
X115788632Y-87514068D01*
X116024440Y-87575955D01*
X116780395Y-86820000D01*
X117139605Y-86820000D01*
X117895560Y-87575955D01*
X118131368Y-87514068D01*
X118165942Y-87440000D01*
X121651928Y-87440000D01*
X121655000Y-88054250D01*
X121813750Y-88213000D01*
X123063000Y-88213000D01*
X123063000Y-86963750D01*
X123317000Y-86963750D01*
X123317000Y-88213000D01*
X123337000Y-88213000D01*
X123337000Y-88467000D01*
X123317000Y-88467000D01*
X123317000Y-89716250D01*
X123475750Y-89875000D01*
X124090000Y-89878072D01*
X124214482Y-89865812D01*
X124334180Y-89829502D01*
X124444494Y-89770537D01*
X124541185Y-89691185D01*
X124620537Y-89594494D01*
X124679502Y-89484180D01*
X124685056Y-89465873D01*
X124751495Y-89532312D01*
X124970001Y-89678313D01*
X124970000Y-93967332D01*
X124970001Y-93967342D01*
X124970000Y-108732678D01*
X124966324Y-108770000D01*
X124970000Y-108807322D01*
X124970000Y-108807332D01*
X124980997Y-108918985D01*
X125020434Y-109048992D01*
X125024454Y-109062246D01*
X125095026Y-109194276D01*
X125109774Y-109212246D01*
X125189999Y-109310001D01*
X125219003Y-109333804D01*
X135866201Y-119981003D01*
X135889999Y-120010001D01*
X135918997Y-120033799D01*
X136005723Y-120104974D01*
X136119379Y-120165725D01*
X136137753Y-120175546D01*
X136281014Y-120219003D01*
X136392667Y-120230000D01*
X136392676Y-120230000D01*
X136429999Y-120233676D01*
X136467322Y-120230000D01*
X140854493Y-120230000D01*
X140909534Y-120362882D01*
X141115825Y-120671618D01*
X141378382Y-120934175D01*
X141687118Y-121140466D01*
X142030166Y-121282561D01*
X142394344Y-121355000D01*
X142765656Y-121355000D01*
X143129834Y-121282561D01*
X143472882Y-121140466D01*
X143781618Y-120934175D01*
X144044175Y-120671618D01*
X144250466Y-120362882D01*
X144392561Y-120019834D01*
X144465000Y-119655656D01*
X144465000Y-119284344D01*
X144392561Y-118920166D01*
X144250466Y-118577118D01*
X144044175Y-118268382D01*
X143781618Y-118005825D01*
X143472882Y-117799534D01*
X143129834Y-117657439D01*
X142765656Y-117585000D01*
X142394344Y-117585000D01*
X142030166Y-117657439D01*
X141687118Y-117799534D01*
X141378382Y-118005825D01*
X141115825Y-118268382D01*
X140909534Y-118577118D01*
X140854493Y-118710000D01*
X136744802Y-118710000D01*
X131344523Y-113309721D01*
X142395000Y-113309721D01*
X142395000Y-113730279D01*
X142477047Y-114142756D01*
X142637988Y-114531302D01*
X142871637Y-114880983D01*
X143169017Y-115178363D01*
X143518698Y-115412012D01*
X143907244Y-115572953D01*
X144319721Y-115655000D01*
X144740279Y-115655000D01*
X145152756Y-115572953D01*
X145541302Y-115412012D01*
X145890983Y-115178363D01*
X146188363Y-114880983D01*
X146422012Y-114531302D01*
X146582953Y-114142756D01*
X146665000Y-113730279D01*
X146665000Y-113309721D01*
X146582953Y-112897244D01*
X146422012Y-112508698D01*
X146188363Y-112159017D01*
X145890983Y-111861637D01*
X145541302Y-111627988D01*
X145152756Y-111467047D01*
X144740279Y-111385000D01*
X144319721Y-111385000D01*
X143907244Y-111467047D01*
X143518698Y-111627988D01*
X143169017Y-111861637D01*
X142871637Y-112159017D01*
X142637988Y-112508698D01*
X142477047Y-112897244D01*
X142395000Y-113309721D01*
X131344523Y-113309721D01*
X126490000Y-108455199D01*
X126490000Y-107259721D01*
X128245000Y-107259721D01*
X128245000Y-107680279D01*
X128327047Y-108092756D01*
X128487988Y-108481302D01*
X128721637Y-108830983D01*
X129019017Y-109128363D01*
X129368698Y-109362012D01*
X129757244Y-109522953D01*
X130169721Y-109605000D01*
X130590279Y-109605000D01*
X131002756Y-109522953D01*
X131391302Y-109362012D01*
X131740983Y-109128363D01*
X132038363Y-108830983D01*
X132272012Y-108481302D01*
X132432953Y-108092756D01*
X132515000Y-107680279D01*
X132515000Y-107284344D01*
X140695000Y-107284344D01*
X140695000Y-107655656D01*
X140767439Y-108019834D01*
X140909534Y-108362882D01*
X141115825Y-108671618D01*
X141378382Y-108934175D01*
X141687118Y-109140466D01*
X142030166Y-109282561D01*
X142394344Y-109355000D01*
X142765656Y-109355000D01*
X143129834Y-109282561D01*
X143472882Y-109140466D01*
X143781618Y-108934175D01*
X144044175Y-108671618D01*
X144250466Y-108362882D01*
X144392561Y-108019834D01*
X144442641Y-107768061D01*
X156455000Y-107768061D01*
X156455000Y-107971939D01*
X156494774Y-108171898D01*
X156572795Y-108360256D01*
X156686063Y-108529774D01*
X156830226Y-108673937D01*
X156999744Y-108787205D01*
X157188102Y-108865226D01*
X157388061Y-108905000D01*
X157450198Y-108905000D01*
X157520001Y-108974802D01*
X157520000Y-109285198D01*
X156988998Y-109816201D01*
X156960000Y-109839999D01*
X156936202Y-109868997D01*
X156936201Y-109868998D01*
X156865026Y-109955724D01*
X156794454Y-110087754D01*
X156764180Y-110187558D01*
X156750998Y-110231014D01*
X156746444Y-110277247D01*
X156736324Y-110380000D01*
X156740001Y-110417332D01*
X156740000Y-115336289D01*
X156696063Y-115380226D01*
X156582795Y-115549744D01*
X156504774Y-115738102D01*
X156465000Y-115938061D01*
X156465000Y-116141939D01*
X156504774Y-116341898D01*
X156582795Y-116530256D01*
X156696063Y-116699774D01*
X156840226Y-116843937D01*
X157009744Y-116957205D01*
X157198102Y-117035226D01*
X157398061Y-117075000D01*
X157601939Y-117075000D01*
X157801898Y-117035226D01*
X157990256Y-116957205D01*
X158159774Y-116843937D01*
X158303937Y-116699774D01*
X158417205Y-116530256D01*
X158495226Y-116341898D01*
X158535000Y-116141939D01*
X158535000Y-115938061D01*
X158495226Y-115738102D01*
X158417205Y-115549744D01*
X158303937Y-115380226D01*
X158260000Y-115336289D01*
X158260000Y-112530000D01*
X159069388Y-112530000D01*
X159091785Y-112757400D01*
X159155093Y-112966098D01*
X159120498Y-113030820D01*
X159084188Y-113150518D01*
X159071928Y-113275000D01*
X159071928Y-114325000D01*
X159084188Y-114449482D01*
X159120498Y-114569180D01*
X159179463Y-114679494D01*
X159258815Y-114776185D01*
X159355506Y-114855537D01*
X159465820Y-114914502D01*
X159585518Y-114950812D01*
X159710000Y-114963072D01*
X161210000Y-114963072D01*
X161334482Y-114950812D01*
X161454180Y-114914502D01*
X161564494Y-114855537D01*
X161661185Y-114776185D01*
X161740537Y-114679494D01*
X161799502Y-114569180D01*
X161835812Y-114449482D01*
X161848072Y-114325000D01*
X161848072Y-113275000D01*
X161835812Y-113150518D01*
X161799502Y-113030820D01*
X161764907Y-112966098D01*
X161828215Y-112757400D01*
X161850612Y-112530000D01*
X161828215Y-112302600D01*
X161761885Y-112083940D01*
X161661071Y-111895331D01*
X161702275Y-111836882D01*
X161795272Y-111627337D01*
X161803964Y-111565810D01*
X161678163Y-111387000D01*
X160913109Y-111387000D01*
X160912400Y-111386785D01*
X160741979Y-111370000D01*
X160178021Y-111370000D01*
X160007600Y-111386785D01*
X160006891Y-111387000D01*
X159241837Y-111387000D01*
X159116036Y-111565810D01*
X159124728Y-111627337D01*
X159217725Y-111836882D01*
X159258929Y-111895331D01*
X159158115Y-112083940D01*
X159091785Y-112302600D01*
X159069388Y-112530000D01*
X158260000Y-112530000D01*
X158260000Y-110954190D01*
X159116036Y-110954190D01*
X159241837Y-111133000D01*
X160333000Y-111133000D01*
X160333000Y-110253402D01*
X160587000Y-110253402D01*
X160587000Y-111133000D01*
X161678163Y-111133000D01*
X161803964Y-110954190D01*
X161795272Y-110892663D01*
X161702275Y-110683118D01*
X161570184Y-110495742D01*
X161404076Y-110337736D01*
X161210334Y-110215172D01*
X160996404Y-110132761D01*
X160770507Y-110093669D01*
X160587000Y-110253402D01*
X160333000Y-110253402D01*
X160149493Y-110093669D01*
X159923596Y-110132761D01*
X159709666Y-110215172D01*
X159515924Y-110337736D01*
X159349816Y-110495742D01*
X159217725Y-110683118D01*
X159124728Y-110892663D01*
X159116036Y-110954190D01*
X158260000Y-110954190D01*
X158260000Y-110694801D01*
X158791004Y-110163798D01*
X158820001Y-110140001D01*
X158914974Y-110024276D01*
X158985546Y-109892247D01*
X159029003Y-109748986D01*
X159040000Y-109637333D01*
X159040000Y-109637332D01*
X159043677Y-109600000D01*
X159040000Y-109562667D01*
X159040000Y-108697325D01*
X159043676Y-108660000D01*
X159040000Y-108622675D01*
X159040000Y-108622667D01*
X159029003Y-108511014D01*
X158985546Y-108367753D01*
X158914974Y-108235724D01*
X158820001Y-108119999D01*
X158791002Y-108096201D01*
X158525000Y-107830198D01*
X158525000Y-107768061D01*
X158485226Y-107568102D01*
X158407205Y-107379744D01*
X158293937Y-107210226D01*
X158149774Y-107066063D01*
X157980256Y-106952795D01*
X157791898Y-106874774D01*
X157591939Y-106835000D01*
X157388061Y-106835000D01*
X157188102Y-106874774D01*
X156999744Y-106952795D01*
X156830226Y-107066063D01*
X156686063Y-107210226D01*
X156572795Y-107379744D01*
X156494774Y-107568102D01*
X156455000Y-107768061D01*
X144442641Y-107768061D01*
X144465000Y-107655656D01*
X144465000Y-107284344D01*
X144392561Y-106920166D01*
X144250466Y-106577118D01*
X144044175Y-106268382D01*
X143781618Y-106005825D01*
X143472882Y-105799534D01*
X143129834Y-105657439D01*
X142765656Y-105585000D01*
X142394344Y-105585000D01*
X142030166Y-105657439D01*
X141687118Y-105799534D01*
X141378382Y-106005825D01*
X141115825Y-106268382D01*
X140909534Y-106577118D01*
X140767439Y-106920166D01*
X140695000Y-107284344D01*
X132515000Y-107284344D01*
X132515000Y-107259721D01*
X132432953Y-106847244D01*
X132272012Y-106458698D01*
X132038363Y-106109017D01*
X131740983Y-105811637D01*
X131391302Y-105577988D01*
X131002756Y-105417047D01*
X130590279Y-105335000D01*
X130169721Y-105335000D01*
X129757244Y-105417047D01*
X129368698Y-105577988D01*
X129019017Y-105811637D01*
X128721637Y-106109017D01*
X128487988Y-106458698D01*
X128327047Y-106847244D01*
X128245000Y-107259721D01*
X126490000Y-107259721D01*
X126490000Y-91458061D01*
X129735000Y-91458061D01*
X129735000Y-91661939D01*
X129774774Y-91861898D01*
X129852795Y-92050256D01*
X129966063Y-92219774D01*
X130010001Y-92263712D01*
X130010000Y-93962677D01*
X130006324Y-94000000D01*
X130010000Y-94037322D01*
X130010000Y-94037332D01*
X130020997Y-94148985D01*
X130045504Y-94229774D01*
X130064454Y-94292246D01*
X130135026Y-94424276D01*
X130172552Y-94470001D01*
X130229999Y-94540001D01*
X130259003Y-94563804D01*
X132489731Y-96794533D01*
X132432795Y-96879744D01*
X132354774Y-97068102D01*
X132315000Y-97268061D01*
X132315000Y-97471939D01*
X132354774Y-97671898D01*
X132432795Y-97860256D01*
X132546063Y-98029774D01*
X132590000Y-98073711D01*
X132590000Y-98142678D01*
X132586324Y-98180000D01*
X132590000Y-98217322D01*
X132590000Y-98217333D01*
X132596883Y-98287205D01*
X132600998Y-98328985D01*
X132644454Y-98472246D01*
X132715026Y-98604276D01*
X132785378Y-98689999D01*
X132810000Y-98720001D01*
X132838998Y-98743799D01*
X133836201Y-99741003D01*
X133859999Y-99770001D01*
X133975724Y-99864974D01*
X134107753Y-99935546D01*
X134251014Y-99979003D01*
X134362667Y-99990000D01*
X134362676Y-99990000D01*
X134399999Y-99993676D01*
X134437322Y-99990000D01*
X135483995Y-99990000D01*
X135340226Y-100086063D01*
X135196063Y-100230226D01*
X135082795Y-100399744D01*
X135004774Y-100588102D01*
X134965000Y-100788061D01*
X134965000Y-100991939D01*
X135004774Y-101191898D01*
X135082795Y-101380256D01*
X135196063Y-101549774D01*
X135340226Y-101693937D01*
X135509744Y-101807205D01*
X135698102Y-101885226D01*
X135898061Y-101925000D01*
X135960198Y-101925000D01*
X136096952Y-102061754D01*
X136125026Y-102114276D01*
X136219999Y-102230001D01*
X136335724Y-102324974D01*
X136467753Y-102395546D01*
X136611014Y-102439003D01*
X136722667Y-102450000D01*
X136760000Y-102453677D01*
X136797333Y-102450000D01*
X168862678Y-102450000D01*
X168900000Y-102453676D01*
X168937322Y-102450000D01*
X168937333Y-102450000D01*
X169048986Y-102439003D01*
X169192247Y-102395546D01*
X169324276Y-102324974D01*
X169440001Y-102230001D01*
X169463804Y-102200997D01*
X174041003Y-97623799D01*
X174070001Y-97600001D01*
X174164974Y-97484276D01*
X174235546Y-97352247D01*
X174279003Y-97208986D01*
X174290000Y-97097333D01*
X174290000Y-97097325D01*
X174293676Y-97060000D01*
X174290000Y-97022675D01*
X174290000Y-91593711D01*
X174333937Y-91549774D01*
X174447205Y-91380256D01*
X174525226Y-91191898D01*
X174565000Y-90991939D01*
X174565000Y-90788061D01*
X174525226Y-90588102D01*
X174447205Y-90399744D01*
X174333937Y-90230226D01*
X174189774Y-90086063D01*
X174020256Y-89972795D01*
X173831898Y-89894774D01*
X173631939Y-89855000D01*
X173428061Y-89855000D01*
X173228102Y-89894774D01*
X173039744Y-89972795D01*
X172899928Y-90066217D01*
X172899774Y-90066063D01*
X172730256Y-89952795D01*
X172541898Y-89874774D01*
X172341939Y-89835000D01*
X172138061Y-89835000D01*
X171938102Y-89874774D01*
X171749744Y-89952795D01*
X171605000Y-90049510D01*
X171460256Y-89952795D01*
X171271898Y-89874774D01*
X171071939Y-89835000D01*
X170868061Y-89835000D01*
X170668102Y-89874774D01*
X170479744Y-89952795D01*
X170310226Y-90066063D01*
X170166063Y-90210226D01*
X170052795Y-90379744D01*
X169974774Y-90568102D01*
X169935000Y-90768061D01*
X169935000Y-90971939D01*
X169974774Y-91171898D01*
X170052795Y-91360256D01*
X170166063Y-91529774D01*
X170210000Y-91573711D01*
X170210001Y-93855197D01*
X168405199Y-95660000D01*
X133504802Y-95660000D01*
X131530000Y-93685199D01*
X131530000Y-92263711D01*
X131573937Y-92219774D01*
X131687205Y-92050256D01*
X131765226Y-91861898D01*
X131805000Y-91661939D01*
X131805000Y-91458061D01*
X131765226Y-91258102D01*
X131687205Y-91069744D01*
X131573937Y-90900226D01*
X131429774Y-90756063D01*
X131260256Y-90642795D01*
X131071898Y-90564774D01*
X130871939Y-90525000D01*
X130668061Y-90525000D01*
X130468102Y-90564774D01*
X130279744Y-90642795D01*
X130110226Y-90756063D01*
X129966063Y-90900226D01*
X129852795Y-91069744D01*
X129774774Y-91258102D01*
X129735000Y-91458061D01*
X126490000Y-91458061D01*
X126490000Y-89678313D01*
X126708505Y-89532312D01*
X126922312Y-89318505D01*
X127000000Y-89202237D01*
X127077688Y-89318505D01*
X127291495Y-89532312D01*
X127542905Y-89700299D01*
X127822257Y-89816011D01*
X128118816Y-89875000D01*
X128421184Y-89875000D01*
X128717743Y-89816011D01*
X128997095Y-89700299D01*
X129248505Y-89532312D01*
X129462312Y-89318505D01*
X129540000Y-89202237D01*
X129617688Y-89318505D01*
X129831495Y-89532312D01*
X130082905Y-89700299D01*
X130362257Y-89816011D01*
X130658816Y-89875000D01*
X130961184Y-89875000D01*
X131257743Y-89816011D01*
X131537095Y-89700299D01*
X131788505Y-89532312D01*
X132002312Y-89318505D01*
X132080000Y-89202237D01*
X132157688Y-89318505D01*
X132371495Y-89532312D01*
X132622905Y-89700299D01*
X132902257Y-89816011D01*
X133198816Y-89875000D01*
X133501184Y-89875000D01*
X133797743Y-89816011D01*
X134077095Y-89700299D01*
X134328505Y-89532312D01*
X134542312Y-89318505D01*
X134620000Y-89202237D01*
X134697688Y-89318505D01*
X134911495Y-89532312D01*
X135162905Y-89700299D01*
X135442257Y-89816011D01*
X135738816Y-89875000D01*
X136041184Y-89875000D01*
X136337743Y-89816011D01*
X136617095Y-89700299D01*
X136868505Y-89532312D01*
X137082312Y-89318505D01*
X137160000Y-89202237D01*
X137237688Y-89318505D01*
X137451495Y-89532312D01*
X137702905Y-89700299D01*
X137982257Y-89816011D01*
X138278816Y-89875000D01*
X138581184Y-89875000D01*
X138877743Y-89816011D01*
X139157095Y-89700299D01*
X139408505Y-89532312D01*
X139622312Y-89318505D01*
X139700000Y-89202237D01*
X139777688Y-89318505D01*
X139991495Y-89532312D01*
X140242905Y-89700299D01*
X140522257Y-89816011D01*
X140818816Y-89875000D01*
X141121184Y-89875000D01*
X141417743Y-89816011D01*
X141697095Y-89700299D01*
X141948505Y-89532312D01*
X142162312Y-89318505D01*
X142240000Y-89202237D01*
X142317688Y-89318505D01*
X142531495Y-89532312D01*
X142782905Y-89700299D01*
X143062257Y-89816011D01*
X143358816Y-89875000D01*
X143661184Y-89875000D01*
X143957743Y-89816011D01*
X144237095Y-89700299D01*
X144488505Y-89532312D01*
X144702312Y-89318505D01*
X144780000Y-89202237D01*
X144857688Y-89318505D01*
X145071495Y-89532312D01*
X145322905Y-89700299D01*
X145602257Y-89816011D01*
X145898816Y-89875000D01*
X146201184Y-89875000D01*
X146497743Y-89816011D01*
X146777095Y-89700299D01*
X147028505Y-89532312D01*
X147242312Y-89318505D01*
X147320000Y-89202237D01*
X147397688Y-89318505D01*
X147611495Y-89532312D01*
X147862905Y-89700299D01*
X148142257Y-89816011D01*
X148438816Y-89875000D01*
X148741184Y-89875000D01*
X149037743Y-89816011D01*
X149317095Y-89700299D01*
X149568505Y-89532312D01*
X149782312Y-89318505D01*
X149860000Y-89202237D01*
X149937688Y-89318505D01*
X150151495Y-89532312D01*
X150402905Y-89700299D01*
X150682257Y-89816011D01*
X150978816Y-89875000D01*
X151281184Y-89875000D01*
X151577743Y-89816011D01*
X151857095Y-89700299D01*
X152108505Y-89532312D01*
X152322312Y-89318505D01*
X152400000Y-89202237D01*
X152477688Y-89318505D01*
X152691495Y-89532312D01*
X152942905Y-89700299D01*
X153222257Y-89816011D01*
X153518816Y-89875000D01*
X153821184Y-89875000D01*
X154117743Y-89816011D01*
X154397095Y-89700299D01*
X154648505Y-89532312D01*
X154862312Y-89318505D01*
X154940000Y-89202237D01*
X155017688Y-89318505D01*
X155231495Y-89532312D01*
X155482905Y-89700299D01*
X155762257Y-89816011D01*
X156058816Y-89875000D01*
X156361184Y-89875000D01*
X156657743Y-89816011D01*
X156937095Y-89700299D01*
X157188505Y-89532312D01*
X157402312Y-89318505D01*
X157480000Y-89202237D01*
X157557688Y-89318505D01*
X157771495Y-89532312D01*
X158022905Y-89700299D01*
X158302257Y-89816011D01*
X158598816Y-89875000D01*
X158901184Y-89875000D01*
X159197743Y-89816011D01*
X159477095Y-89700299D01*
X159728505Y-89532312D01*
X159856737Y-89404080D01*
X160405525Y-89404080D01*
X160489208Y-89658261D01*
X160761775Y-89789158D01*
X161054642Y-89864365D01*
X161356553Y-89880991D01*
X161655907Y-89838397D01*
X161941199Y-89738222D01*
X162090792Y-89658261D01*
X162174475Y-89404080D01*
X161290000Y-88519605D01*
X160405525Y-89404080D01*
X159856737Y-89404080D01*
X159942312Y-89318505D01*
X160044951Y-89164895D01*
X160225920Y-89224475D01*
X161110395Y-88340000D01*
X161469605Y-88340000D01*
X162354080Y-89224475D01*
X162608261Y-89140792D01*
X162739158Y-88868225D01*
X162814365Y-88575358D01*
X162830991Y-88273447D01*
X162788397Y-87974093D01*
X162688222Y-87688801D01*
X162608261Y-87539208D01*
X162354080Y-87455525D01*
X161469605Y-88340000D01*
X161110395Y-88340000D01*
X160225920Y-87455525D01*
X160044951Y-87515105D01*
X159942312Y-87361495D01*
X159856737Y-87275920D01*
X160405525Y-87275920D01*
X161290000Y-88160395D01*
X162174475Y-87275920D01*
X162090792Y-87021739D01*
X161818225Y-86890842D01*
X161525358Y-86815635D01*
X161223447Y-86799009D01*
X160924093Y-86841603D01*
X160638801Y-86941778D01*
X160489208Y-87021739D01*
X160405525Y-87275920D01*
X159856737Y-87275920D01*
X159728505Y-87147688D01*
X159530000Y-87015051D01*
X159530000Y-80498313D01*
X159748505Y-80352312D01*
X159876737Y-80224080D01*
X160425525Y-80224080D01*
X160509208Y-80478261D01*
X160781775Y-80609158D01*
X161074642Y-80684365D01*
X161376553Y-80700991D01*
X161675907Y-80658397D01*
X161961199Y-80558222D01*
X162110792Y-80478261D01*
X162194475Y-80224080D01*
X161310000Y-79339605D01*
X160425525Y-80224080D01*
X159876737Y-80224080D01*
X159962312Y-80138505D01*
X160064951Y-79984895D01*
X160245920Y-80044475D01*
X161130395Y-79160000D01*
X161489605Y-79160000D01*
X162374080Y-80044475D01*
X162628261Y-79960792D01*
X162759158Y-79688225D01*
X162834365Y-79395358D01*
X162850991Y-79093447D01*
X162808397Y-78794093D01*
X162708222Y-78508801D01*
X162628261Y-78359208D01*
X162374080Y-78275525D01*
X161489605Y-79160000D01*
X161130395Y-79160000D01*
X160245920Y-78275525D01*
X160064951Y-78335105D01*
X159962312Y-78181495D01*
X159876737Y-78095920D01*
X160425525Y-78095920D01*
X161310000Y-78980395D01*
X162194475Y-78095920D01*
X162110792Y-77841739D01*
X161838225Y-77710842D01*
X161545358Y-77635635D01*
X161243447Y-77619009D01*
X160944093Y-77661603D01*
X160658801Y-77761778D01*
X160509208Y-77841739D01*
X160425525Y-78095920D01*
X159876737Y-78095920D01*
X159748505Y-77967688D01*
X159497095Y-77799701D01*
X159217743Y-77683989D01*
X158921184Y-77625000D01*
X158618816Y-77625000D01*
X158322257Y-77683989D01*
X158042905Y-77799701D01*
X157791495Y-77967688D01*
X157577688Y-78181495D01*
X157500000Y-78297763D01*
X157422312Y-78181495D01*
X157208505Y-77967688D01*
X156957095Y-77799701D01*
X156677743Y-77683989D01*
X156381184Y-77625000D01*
X156078816Y-77625000D01*
X155782257Y-77683989D01*
X155502905Y-77799701D01*
X155251495Y-77967688D01*
X155037688Y-78181495D01*
X154960000Y-78297763D01*
X154882312Y-78181495D01*
X154668505Y-77967688D01*
X154417095Y-77799701D01*
X154137743Y-77683989D01*
X153841184Y-77625000D01*
X153538816Y-77625000D01*
X153242257Y-77683989D01*
X152962905Y-77799701D01*
X152711495Y-77967688D01*
X152497688Y-78181495D01*
X152420000Y-78297763D01*
X152342312Y-78181495D01*
X152128505Y-77967688D01*
X151877095Y-77799701D01*
X151597743Y-77683989D01*
X151301184Y-77625000D01*
X150998816Y-77625000D01*
X150702257Y-77683989D01*
X150422905Y-77799701D01*
X150171495Y-77967688D01*
X149957688Y-78181495D01*
X149880000Y-78297763D01*
X149802312Y-78181495D01*
X149588505Y-77967688D01*
X149337095Y-77799701D01*
X149057743Y-77683989D01*
X148761184Y-77625000D01*
X148458816Y-77625000D01*
X148162257Y-77683989D01*
X147882905Y-77799701D01*
X147631495Y-77967688D01*
X147417688Y-78181495D01*
X147340000Y-78297763D01*
X147262312Y-78181495D01*
X147048505Y-77967688D01*
X146797095Y-77799701D01*
X146517743Y-77683989D01*
X146221184Y-77625000D01*
X145918816Y-77625000D01*
X145622257Y-77683989D01*
X145342905Y-77799701D01*
X145091495Y-77967688D01*
X144877688Y-78181495D01*
X144800000Y-78297763D01*
X144722312Y-78181495D01*
X144508505Y-77967688D01*
X144257095Y-77799701D01*
X143977743Y-77683989D01*
X143681184Y-77625000D01*
X143378816Y-77625000D01*
X143082257Y-77683989D01*
X142802905Y-77799701D01*
X142551495Y-77967688D01*
X142337688Y-78181495D01*
X142260000Y-78297763D01*
X142182312Y-78181495D01*
X141968505Y-77967688D01*
X141717095Y-77799701D01*
X141437743Y-77683989D01*
X141141184Y-77625000D01*
X140838816Y-77625000D01*
X140542257Y-77683989D01*
X140262905Y-77799701D01*
X140011495Y-77967688D01*
X139797688Y-78181495D01*
X139720000Y-78297763D01*
X139642312Y-78181495D01*
X139428505Y-77967688D01*
X139177095Y-77799701D01*
X138897743Y-77683989D01*
X138601184Y-77625000D01*
X138298816Y-77625000D01*
X138002257Y-77683989D01*
X137722905Y-77799701D01*
X137471495Y-77967688D01*
X137257688Y-78181495D01*
X137180000Y-78297763D01*
X137102312Y-78181495D01*
X136888505Y-77967688D01*
X136637095Y-77799701D01*
X136357743Y-77683989D01*
X136061184Y-77625000D01*
X135758816Y-77625000D01*
X135462257Y-77683989D01*
X135182905Y-77799701D01*
X134931495Y-77967688D01*
X134717688Y-78181495D01*
X134640000Y-78297763D01*
X134562312Y-78181495D01*
X134348505Y-77967688D01*
X134097095Y-77799701D01*
X133817743Y-77683989D01*
X133521184Y-77625000D01*
X133218816Y-77625000D01*
X132922257Y-77683989D01*
X132642905Y-77799701D01*
X132391495Y-77967688D01*
X132177688Y-78181495D01*
X132100000Y-78297763D01*
X132022312Y-78181495D01*
X131808505Y-77967688D01*
X131557095Y-77799701D01*
X131277743Y-77683989D01*
X130981184Y-77625000D01*
X130678816Y-77625000D01*
X130382257Y-77683989D01*
X130102905Y-77799701D01*
X129851495Y-77967688D01*
X129637688Y-78181495D01*
X129560000Y-78297763D01*
X129482312Y-78181495D01*
X129268505Y-77967688D01*
X129017095Y-77799701D01*
X128737743Y-77683989D01*
X128441184Y-77625000D01*
X128138816Y-77625000D01*
X127842257Y-77683989D01*
X127562905Y-77799701D01*
X127311495Y-77967688D01*
X127097688Y-78181495D01*
X127020000Y-78297763D01*
X126942312Y-78181495D01*
X126728505Y-77967688D01*
X126510000Y-77821687D01*
X126510000Y-77434801D01*
X128424802Y-75520000D01*
X166035199Y-75520000D01*
X166390000Y-75874802D01*
X166390000Y-76136289D01*
X166346063Y-76180226D01*
X166232795Y-76349744D01*
X166154774Y-76538102D01*
X166115000Y-76738061D01*
X166115000Y-76941939D01*
X166154774Y-77141898D01*
X166232795Y-77330256D01*
X166346063Y-77499774D01*
X166390000Y-77543711D01*
X166390001Y-86005197D01*
X162365199Y-90030000D01*
X151637333Y-90030000D01*
X151600000Y-90026323D01*
X151562667Y-90030000D01*
X151451014Y-90040997D01*
X151307753Y-90084454D01*
X151175724Y-90155026D01*
X151059999Y-90249999D01*
X151036201Y-90278998D01*
X150309002Y-91006197D01*
X150279999Y-91029999D01*
X150237121Y-91082247D01*
X150185026Y-91145724D01*
X150148384Y-91214276D01*
X150114454Y-91277754D01*
X150070997Y-91421015D01*
X150060000Y-91532668D01*
X150060000Y-91532678D01*
X150056324Y-91570000D01*
X150060000Y-91607323D01*
X150060001Y-92866288D01*
X150016063Y-92910226D01*
X149902795Y-93079744D01*
X149824774Y-93268102D01*
X149785000Y-93468061D01*
X149785000Y-93671939D01*
X149824774Y-93871898D01*
X149902795Y-94060256D01*
X150016063Y-94229774D01*
X150160226Y-94373937D01*
X150329744Y-94487205D01*
X150518102Y-94565226D01*
X150718061Y-94605000D01*
X150921939Y-94605000D01*
X151121898Y-94565226D01*
X151310256Y-94487205D01*
X151479774Y-94373937D01*
X151623937Y-94229774D01*
X151737205Y-94060256D01*
X151815226Y-93871898D01*
X151855000Y-93671939D01*
X151855000Y-93468061D01*
X151815226Y-93268102D01*
X151737205Y-93079744D01*
X151623937Y-92910226D01*
X151580000Y-92866289D01*
X151580000Y-91884801D01*
X151914802Y-91550000D01*
X162642678Y-91550000D01*
X162680000Y-91553676D01*
X162717322Y-91550000D01*
X162717333Y-91550000D01*
X162828986Y-91539003D01*
X162972247Y-91495546D01*
X163104276Y-91424974D01*
X163220001Y-91330001D01*
X163243804Y-91300997D01*
X167661003Y-86883799D01*
X167690001Y-86860001D01*
X167784974Y-86744276D01*
X167855546Y-86612247D01*
X167899003Y-86468986D01*
X167910000Y-86357333D01*
X167913677Y-86320000D01*
X167910000Y-86282667D01*
X167910000Y-77703922D01*
X167989744Y-77757205D01*
X168178102Y-77835226D01*
X168378061Y-77875000D01*
X168581939Y-77875000D01*
X168781898Y-77835226D01*
X168970256Y-77757205D01*
X169112483Y-77662172D01*
X169239744Y-77747205D01*
X169428102Y-77825226D01*
X169628061Y-77865000D01*
X169831939Y-77865000D01*
X170031898Y-77825226D01*
X170220256Y-77747205D01*
X170389774Y-77633937D01*
X170533937Y-77489774D01*
X170647205Y-77320256D01*
X170725226Y-77131898D01*
X170765000Y-76931939D01*
X170765000Y-76728061D01*
X170725226Y-76528102D01*
X170647205Y-76339744D01*
X170538198Y-76176603D01*
X170714802Y-76000000D01*
X175185199Y-76000000D01*
X176040000Y-76854802D01*
X176040001Y-120275197D01*
X175795199Y-120520000D01*
X168377325Y-120520000D01*
X168340000Y-120516324D01*
X168302675Y-120520000D01*
X168302667Y-120520000D01*
X168191014Y-120530997D01*
X168047753Y-120574454D01*
X167915724Y-120645026D01*
X167799999Y-120739999D01*
X167776201Y-120768997D01*
X166149003Y-122396196D01*
X166119999Y-122419999D01*
X166090827Y-122455546D01*
X166025026Y-122535724D01*
X166022198Y-122541015D01*
X165954454Y-122667754D01*
X165910997Y-122811015D01*
X165900000Y-122922668D01*
X165900000Y-122922678D01*
X165896324Y-122960000D01*
X165900000Y-122997323D01*
X165900001Y-127432668D01*
X165896324Y-127470000D01*
X165910998Y-127618985D01*
X165954454Y-127762246D01*
X166025026Y-127894276D01*
X166054530Y-127930226D01*
X166120000Y-128010001D01*
X166148998Y-128033799D01*
X167216201Y-129101003D01*
X167239999Y-129130001D01*
X167355724Y-129224974D01*
X167487753Y-129295546D01*
X167631014Y-129339003D01*
X167742667Y-129350000D01*
X167742676Y-129350000D01*
X167779999Y-129353676D01*
X167817322Y-129350000D01*
X168836289Y-129350000D01*
X168880226Y-129393937D01*
X169049744Y-129507205D01*
X169238102Y-129585226D01*
X169438061Y-129625000D01*
X169641939Y-129625000D01*
X169841898Y-129585226D01*
X170030256Y-129507205D01*
X170199774Y-129393937D01*
X170303711Y-129290000D01*
X174316289Y-129290000D01*
X174360226Y-129333937D01*
X174529744Y-129447205D01*
X174718102Y-129525226D01*
X174918061Y-129565000D01*
X175121939Y-129565000D01*
X175321898Y-129525226D01*
X175510256Y-129447205D01*
X175679774Y-129333937D01*
X175823937Y-129189774D01*
X175937205Y-129020256D01*
X176015226Y-128831898D01*
X176055000Y-128631939D01*
X176055000Y-128428061D01*
X176031131Y-128308061D01*
X179575000Y-128308061D01*
X179575000Y-128511939D01*
X179614774Y-128711898D01*
X179692795Y-128900256D01*
X179806063Y-129069774D01*
X179950226Y-129213937D01*
X180119744Y-129327205D01*
X180308102Y-129405226D01*
X180508061Y-129445000D01*
X180711939Y-129445000D01*
X180911898Y-129405226D01*
X181100256Y-129327205D01*
X181269774Y-129213937D01*
X181413937Y-129069774D01*
X181527205Y-128900256D01*
X181605226Y-128711898D01*
X181645000Y-128511939D01*
X181645000Y-128449802D01*
X181764802Y-128330000D01*
X191502678Y-128330000D01*
X191540000Y-128333676D01*
X191577322Y-128330000D01*
X191577333Y-128330000D01*
X191688986Y-128319003D01*
X191832247Y-128275546D01*
X191964276Y-128204974D01*
X192080001Y-128110001D01*
X192103804Y-128080997D01*
X192401691Y-127783110D01*
X199078524Y-127783110D01*
X199199845Y-128013000D01*
X200393000Y-128013000D01*
X200393000Y-126819186D01*
X200647000Y-126819186D01*
X200647000Y-128013000D01*
X201840155Y-128013000D01*
X201961476Y-127783110D01*
X201916825Y-127635901D01*
X201791641Y-127373080D01*
X201617588Y-127139731D01*
X201401355Y-126944822D01*
X201151252Y-126795843D01*
X200876891Y-126698519D01*
X200647000Y-126819186D01*
X200393000Y-126819186D01*
X200163109Y-126698519D01*
X199888748Y-126795843D01*
X199638645Y-126944822D01*
X199422412Y-127139731D01*
X199248359Y-127373080D01*
X199123175Y-127635901D01*
X199078524Y-127783110D01*
X192401691Y-127783110D01*
X194494802Y-125690000D01*
X199946289Y-125690000D01*
X199990226Y-125733937D01*
X200159744Y-125847205D01*
X200348102Y-125925226D01*
X200548061Y-125965000D01*
X200751939Y-125965000D01*
X200951898Y-125925226D01*
X201140256Y-125847205D01*
X201309774Y-125733937D01*
X201453937Y-125589774D01*
X201567205Y-125420256D01*
X201645226Y-125231898D01*
X201685000Y-125031939D01*
X201685000Y-124828061D01*
X201645226Y-124628102D01*
X201567205Y-124439744D01*
X201453937Y-124270226D01*
X201309774Y-124126063D01*
X201140256Y-124012795D01*
X200951898Y-123934774D01*
X200751939Y-123895000D01*
X200548061Y-123895000D01*
X200348102Y-123934774D01*
X200159744Y-124012795D01*
X199990226Y-124126063D01*
X199946289Y-124170000D01*
X194217323Y-124170000D01*
X194180000Y-124166324D01*
X194142677Y-124170000D01*
X194142667Y-124170000D01*
X194031014Y-124180997D01*
X193887753Y-124224454D01*
X193755724Y-124295026D01*
X193639999Y-124389999D01*
X193616201Y-124418997D01*
X191225199Y-126810000D01*
X181487322Y-126810000D01*
X181449999Y-126806324D01*
X181412676Y-126810000D01*
X181412667Y-126810000D01*
X181301014Y-126820997D01*
X181157753Y-126864454D01*
X181025724Y-126935026D01*
X181025722Y-126935027D01*
X181025723Y-126935027D01*
X180938996Y-127006201D01*
X180938992Y-127006205D01*
X180909999Y-127029999D01*
X180886205Y-127058992D01*
X180570198Y-127375000D01*
X180508061Y-127375000D01*
X180308102Y-127414774D01*
X180119744Y-127492795D01*
X179950226Y-127606063D01*
X179806063Y-127750226D01*
X179692795Y-127919744D01*
X179614774Y-128108102D01*
X179575000Y-128308061D01*
X176031131Y-128308061D01*
X176015226Y-128228102D01*
X175937205Y-128039744D01*
X175823937Y-127870226D01*
X175679774Y-127726063D01*
X175510256Y-127612795D01*
X175321898Y-127534774D01*
X175121939Y-127495000D01*
X174918061Y-127495000D01*
X174718102Y-127534774D01*
X174529744Y-127612795D01*
X174360226Y-127726063D01*
X174316289Y-127770000D01*
X170175734Y-127770000D01*
X170030256Y-127672795D01*
X169841898Y-127594774D01*
X169641939Y-127555000D01*
X169438061Y-127555000D01*
X169238102Y-127594774D01*
X169049744Y-127672795D01*
X168880226Y-127786063D01*
X168836289Y-127830000D01*
X168094802Y-127830000D01*
X167420000Y-127155199D01*
X167420000Y-123274801D01*
X168654802Y-122040000D01*
X168759532Y-122040000D01*
X168652795Y-122199744D01*
X168574774Y-122388102D01*
X168535000Y-122588061D01*
X168535000Y-122791939D01*
X168574774Y-122991898D01*
X168652795Y-123180256D01*
X168766063Y-123349774D01*
X168910226Y-123493937D01*
X169079744Y-123607205D01*
X169268102Y-123685226D01*
X169468061Y-123725000D01*
X169671939Y-123725000D01*
X169871898Y-123685226D01*
X170060256Y-123607205D01*
X170229774Y-123493937D01*
X170273711Y-123450000D01*
X174336289Y-123450000D01*
X174380226Y-123493937D01*
X174549744Y-123607205D01*
X174738102Y-123685226D01*
X174938061Y-123725000D01*
X175141939Y-123725000D01*
X175341898Y-123685226D01*
X175530256Y-123607205D01*
X175699774Y-123493937D01*
X175743711Y-123450000D01*
X176772678Y-123450000D01*
X176810000Y-123453676D01*
X176847322Y-123450000D01*
X176847333Y-123450000D01*
X176958986Y-123439003D01*
X177102247Y-123395546D01*
X177234276Y-123324974D01*
X177350001Y-123230001D01*
X177373804Y-123200998D01*
X178261003Y-122313799D01*
X178290001Y-122290001D01*
X178384974Y-122174276D01*
X178455546Y-122042247D01*
X178499003Y-121898986D01*
X178510000Y-121787333D01*
X178510000Y-121787325D01*
X178513676Y-121750000D01*
X178510000Y-121712675D01*
X178510000Y-99077728D01*
X178528102Y-99085226D01*
X178728061Y-99125000D01*
X178931939Y-99125000D01*
X179110000Y-99089582D01*
X179110000Y-100232678D01*
X179106324Y-100270000D01*
X179110000Y-100307322D01*
X179110000Y-100307332D01*
X179120997Y-100418985D01*
X179164454Y-100562246D01*
X179235026Y-100694276D01*
X179273384Y-100741015D01*
X179329999Y-100810001D01*
X179359003Y-100833804D01*
X184210001Y-105684803D01*
X184210000Y-113982667D01*
X184206323Y-114020000D01*
X184220997Y-114168986D01*
X184264454Y-114312247D01*
X184335026Y-114444276D01*
X184429999Y-114560001D01*
X184545724Y-114654974D01*
X184598248Y-114683049D01*
X185970001Y-116054803D01*
X185970000Y-118456289D01*
X185926063Y-118500226D01*
X185812795Y-118669744D01*
X185734774Y-118858102D01*
X185695000Y-119058061D01*
X185695000Y-119261939D01*
X185734774Y-119461898D01*
X185812795Y-119650256D01*
X185926063Y-119819774D01*
X186070226Y-119963937D01*
X186239744Y-120077205D01*
X186428102Y-120155226D01*
X186628061Y-120195000D01*
X186831939Y-120195000D01*
X187031898Y-120155226D01*
X187220256Y-120077205D01*
X187389774Y-119963937D01*
X187533937Y-119819774D01*
X187647205Y-119650256D01*
X187725226Y-119461898D01*
X187765000Y-119261939D01*
X187765000Y-119058061D01*
X187725226Y-118858102D01*
X187647205Y-118669744D01*
X187533937Y-118500226D01*
X187490000Y-118456289D01*
X187490000Y-115777322D01*
X187493676Y-115739999D01*
X187490000Y-115702676D01*
X187490000Y-115702667D01*
X187479003Y-115591014D01*
X187435546Y-115447753D01*
X187364974Y-115315724D01*
X187270001Y-115199999D01*
X187241003Y-115176201D01*
X185730000Y-113665199D01*
X185730000Y-105407322D01*
X185733676Y-105369999D01*
X185730000Y-105332676D01*
X185730000Y-105332667D01*
X185719003Y-105221014D01*
X185675546Y-105077753D01*
X185604974Y-104945724D01*
X185510001Y-104829999D01*
X185481003Y-104806201D01*
X180630000Y-99955199D01*
X180630000Y-99604801D01*
X185275469Y-104250271D01*
X185315026Y-104324276D01*
X185409999Y-104440001D01*
X185439001Y-104463802D01*
X186730000Y-105754802D01*
X186730001Y-112506288D01*
X186686063Y-112550226D01*
X186572795Y-112719744D01*
X186494774Y-112908102D01*
X186455000Y-113108061D01*
X186455000Y-113311939D01*
X186494774Y-113511898D01*
X186572795Y-113700256D01*
X186686063Y-113869774D01*
X186830226Y-114013937D01*
X186999744Y-114127205D01*
X187188102Y-114205226D01*
X187388061Y-114245000D01*
X187591939Y-114245000D01*
X187791898Y-114205226D01*
X187980256Y-114127205D01*
X188149774Y-114013937D01*
X188293937Y-113869774D01*
X188407205Y-113700256D01*
X188485226Y-113511898D01*
X188525000Y-113311939D01*
X188525000Y-113108061D01*
X188485226Y-112908102D01*
X188407205Y-112719744D01*
X188293937Y-112550226D01*
X188250000Y-112506289D01*
X188250000Y-105834802D01*
X188316200Y-105901002D01*
X188339999Y-105930001D01*
X188455724Y-106024974D01*
X188587753Y-106095546D01*
X188731014Y-106139003D01*
X188842667Y-106150000D01*
X188842677Y-106150000D01*
X188880000Y-106153676D01*
X188917323Y-106150000D01*
X195885199Y-106150000D01*
X197160001Y-107424803D01*
X197160000Y-108202677D01*
X197156324Y-108240000D01*
X197160000Y-108277322D01*
X197160000Y-108277332D01*
X197170997Y-108388985D01*
X197213704Y-108529774D01*
X197214454Y-108532246D01*
X197285026Y-108664276D01*
X197323378Y-108711008D01*
X197379999Y-108780001D01*
X197409003Y-108803804D01*
X201386201Y-112781003D01*
X201409999Y-112810001D01*
X201525724Y-112904974D01*
X201657753Y-112975546D01*
X201801014Y-113019003D01*
X201912667Y-113030000D01*
X201912675Y-113030000D01*
X201950000Y-113033676D01*
X201987325Y-113030000D01*
X202546067Y-113030000D01*
X202642498Y-113147502D01*
X202791762Y-113270000D01*
X202642498Y-113392498D01*
X202488167Y-113580551D01*
X202373489Y-113795099D01*
X202302870Y-114027898D01*
X202279025Y-114270000D01*
X202302870Y-114512102D01*
X202373489Y-114744901D01*
X202488167Y-114959449D01*
X202642498Y-115147502D01*
X202791762Y-115270000D01*
X202642498Y-115392498D01*
X202546067Y-115510000D01*
X201444802Y-115510000D01*
X195605000Y-109670199D01*
X195605000Y-108068711D01*
X195648937Y-108024774D01*
X195762205Y-107855256D01*
X195840226Y-107666898D01*
X195880000Y-107466939D01*
X195880000Y-107263061D01*
X195840226Y-107063102D01*
X195762205Y-106874744D01*
X195648937Y-106705226D01*
X195504774Y-106561063D01*
X195335256Y-106447795D01*
X195146898Y-106369774D01*
X194946939Y-106330000D01*
X194743061Y-106330000D01*
X194543102Y-106369774D01*
X194354744Y-106447795D01*
X194185226Y-106561063D01*
X194041063Y-106705226D01*
X193927795Y-106874744D01*
X193849774Y-107063102D01*
X193810000Y-107263061D01*
X193810000Y-107466939D01*
X193849774Y-107666898D01*
X193927795Y-107855256D01*
X194041063Y-108024774D01*
X194085001Y-108068712D01*
X194085000Y-109947677D01*
X194081324Y-109985000D01*
X194085000Y-110022322D01*
X194085000Y-110022332D01*
X194095997Y-110133985D01*
X194126631Y-110234974D01*
X194139454Y-110277246D01*
X194210026Y-110409276D01*
X194249871Y-110457826D01*
X194304999Y-110525001D01*
X194334003Y-110548804D01*
X200566201Y-116781003D01*
X200589999Y-116810001D01*
X200705724Y-116904974D01*
X200837753Y-116975546D01*
X200981014Y-117019003D01*
X201092667Y-117030000D01*
X201092676Y-117030000D01*
X201129999Y-117033676D01*
X201167322Y-117030000D01*
X202546067Y-117030000D01*
X202642498Y-117147502D01*
X202792348Y-117270481D01*
X202728275Y-117313693D01*
X202556922Y-117486526D01*
X202422579Y-117689467D01*
X202330409Y-117914718D01*
X202326538Y-117952391D01*
X202451269Y-118143000D01*
X203693000Y-118143000D01*
X203693000Y-118123000D01*
X203947000Y-118123000D01*
X203947000Y-118143000D01*
X205188731Y-118143000D01*
X205313462Y-117952391D01*
X205309591Y-117914718D01*
X205217421Y-117689467D01*
X205083078Y-117486526D01*
X204911725Y-117313693D01*
X204847652Y-117270481D01*
X204997502Y-117147502D01*
X205151833Y-116959449D01*
X205266511Y-116744901D01*
X205337130Y-116512102D01*
X205360975Y-116270000D01*
X205337130Y-116027898D01*
X205266511Y-115795099D01*
X205151833Y-115580551D01*
X204997502Y-115392498D01*
X204848238Y-115270000D01*
X204997502Y-115147502D01*
X205093933Y-115030000D01*
X205162678Y-115030000D01*
X205200000Y-115033676D01*
X205237322Y-115030000D01*
X205237333Y-115030000D01*
X205348986Y-115019003D01*
X205492247Y-114975546D01*
X205624276Y-114904974D01*
X205740001Y-114810001D01*
X205763803Y-114780998D01*
X206210001Y-114334801D01*
X206210001Y-119205197D01*
X205341628Y-120073570D01*
X205337130Y-120027898D01*
X205266511Y-119795099D01*
X205151833Y-119580551D01*
X204997502Y-119392498D01*
X204847652Y-119269519D01*
X204911725Y-119226307D01*
X205083078Y-119053474D01*
X205217421Y-118850533D01*
X205309591Y-118625282D01*
X205313462Y-118587609D01*
X205188731Y-118397000D01*
X203947000Y-118397000D01*
X203947000Y-118417000D01*
X203693000Y-118417000D01*
X203693000Y-118397000D01*
X202451269Y-118397000D01*
X202326538Y-118587609D01*
X202330409Y-118625282D01*
X202422579Y-118850533D01*
X202556922Y-119053474D01*
X202728275Y-119226307D01*
X202792348Y-119269519D01*
X202642498Y-119392498D01*
X202546067Y-119510000D01*
X196984803Y-119510000D01*
X191795000Y-114320199D01*
X191795000Y-110368711D01*
X191838937Y-110324774D01*
X191952205Y-110155256D01*
X192030226Y-109966898D01*
X192070000Y-109766939D01*
X192070000Y-109563061D01*
X192030226Y-109363102D01*
X191952205Y-109174744D01*
X191838937Y-109005226D01*
X191694774Y-108861063D01*
X191525256Y-108747795D01*
X191336898Y-108669774D01*
X191136939Y-108630000D01*
X190933061Y-108630000D01*
X190733102Y-108669774D01*
X190544744Y-108747795D01*
X190375226Y-108861063D01*
X190231063Y-109005226D01*
X190117795Y-109174744D01*
X190039774Y-109363102D01*
X190000000Y-109563061D01*
X190000000Y-109766939D01*
X190039774Y-109966898D01*
X190117795Y-110155256D01*
X190231063Y-110324774D01*
X190275001Y-110368712D01*
X190275000Y-114597677D01*
X190271324Y-114635000D01*
X190275000Y-114672322D01*
X190275000Y-114672332D01*
X190285997Y-114783985D01*
X190301108Y-114833799D01*
X190329454Y-114927246D01*
X190400026Y-115059276D01*
X190439871Y-115107826D01*
X190494999Y-115175001D01*
X190524003Y-115198804D01*
X196106205Y-120781008D01*
X196129999Y-120810001D01*
X196158992Y-120833795D01*
X196158996Y-120833799D01*
X196216491Y-120880983D01*
X196245724Y-120904974D01*
X196377753Y-120975546D01*
X196521014Y-121019003D01*
X196632667Y-121030000D01*
X196632676Y-121030000D01*
X196669999Y-121033676D01*
X196707322Y-121030000D01*
X202546067Y-121030000D01*
X202642498Y-121147502D01*
X202791762Y-121270000D01*
X202642498Y-121392498D01*
X202488167Y-121580551D01*
X202373489Y-121795099D01*
X202302870Y-122027898D01*
X202279025Y-122270000D01*
X202302870Y-122512102D01*
X202373489Y-122744901D01*
X202488167Y-122959449D01*
X202642498Y-123147502D01*
X202830551Y-123301833D01*
X203045099Y-123416511D01*
X203060000Y-123421031D01*
X203060001Y-127942668D01*
X203056324Y-127980000D01*
X203060001Y-128017333D01*
X203066075Y-128078997D01*
X203070998Y-128128985D01*
X203114454Y-128272246D01*
X203185026Y-128404276D01*
X203256201Y-128491002D01*
X203280000Y-128520001D01*
X203308998Y-128543799D01*
X208170000Y-133404802D01*
X208170001Y-137866288D01*
X208126063Y-137910226D01*
X208012795Y-138079744D01*
X207934774Y-138268102D01*
X207895000Y-138468061D01*
X207895000Y-138671939D01*
X207934774Y-138871898D01*
X208012795Y-139060256D01*
X208126063Y-139229774D01*
X208270226Y-139373937D01*
X208439744Y-139487205D01*
X208628102Y-139565226D01*
X208828061Y-139605000D01*
X209031939Y-139605000D01*
X209231898Y-139565226D01*
X209420256Y-139487205D01*
X209589774Y-139373937D01*
X209733937Y-139229774D01*
X209847205Y-139060256D01*
X209925226Y-138871898D01*
X209965000Y-138671939D01*
X209965000Y-138468061D01*
X209925226Y-138268102D01*
X209847205Y-138079744D01*
X209733937Y-137910226D01*
X209690000Y-137866289D01*
X209690000Y-133127322D01*
X209693676Y-133089999D01*
X209690000Y-133052676D01*
X209690000Y-133052667D01*
X209679003Y-132941014D01*
X209635546Y-132797753D01*
X209564974Y-132665724D01*
X209470001Y-132549999D01*
X209441004Y-132526202D01*
X204580000Y-127665199D01*
X204580000Y-123421031D01*
X204594901Y-123416511D01*
X204809449Y-123301833D01*
X204997502Y-123147502D01*
X205151833Y-122959449D01*
X205266511Y-122744901D01*
X205337130Y-122512102D01*
X205360975Y-122270000D01*
X205355042Y-122209759D01*
X207481003Y-120083799D01*
X207510001Y-120060001D01*
X207604974Y-119944276D01*
X207675546Y-119812247D01*
X207719003Y-119668986D01*
X207730000Y-119557333D01*
X207730000Y-119557324D01*
X207733676Y-119520001D01*
X207730000Y-119482678D01*
X207730000Y-108957322D01*
X207733676Y-108919999D01*
X207730000Y-108882676D01*
X207730000Y-108882667D01*
X207719003Y-108771014D01*
X207675546Y-108627753D01*
X207604974Y-108495724D01*
X207510001Y-108379999D01*
X207481004Y-108356202D01*
X205130000Y-106005199D01*
X205130000Y-86387323D01*
X205133676Y-86350000D01*
X205130000Y-86312677D01*
X205130000Y-86312667D01*
X205119003Y-86201014D01*
X205075546Y-86057753D01*
X205004974Y-85925724D01*
X204910001Y-85809999D01*
X204881004Y-85786202D01*
X203225000Y-84130199D01*
X203225000Y-79788711D01*
X203268937Y-79744774D01*
X203382205Y-79575256D01*
X203460226Y-79386898D01*
X203500000Y-79186939D01*
X203500000Y-78983061D01*
X203460226Y-78783102D01*
X203382205Y-78594744D01*
X203268937Y-78425226D01*
X203124774Y-78281063D01*
X202955256Y-78167795D01*
X202766898Y-78089774D01*
X202566939Y-78050000D01*
X202363061Y-78050000D01*
X202163102Y-78089774D01*
X201974744Y-78167795D01*
X201942618Y-78189261D01*
X201940000Y-78162675D01*
X201940000Y-78162667D01*
X201929003Y-78051014D01*
X201885546Y-77907753D01*
X201814974Y-77775724D01*
X201720001Y-77659999D01*
X201691004Y-77636202D01*
X195353804Y-71299003D01*
X195330001Y-71269999D01*
X195214276Y-71175026D01*
X195082247Y-71104454D01*
X194938986Y-71060997D01*
X194827333Y-71050000D01*
X194827322Y-71050000D01*
X194790000Y-71046324D01*
X194752678Y-71050000D01*
X190973711Y-71050000D01*
X190929774Y-71006063D01*
X190760256Y-70892795D01*
X190571898Y-70814774D01*
X190371939Y-70775000D01*
X190168061Y-70775000D01*
X189968102Y-70814774D01*
X189779744Y-70892795D01*
X189610226Y-71006063D01*
X189466063Y-71150226D01*
X189352795Y-71319744D01*
X189274774Y-71508102D01*
X189235000Y-71708061D01*
X189235000Y-71911939D01*
X189274774Y-72111898D01*
X189352795Y-72300256D01*
X189466063Y-72469774D01*
X189610226Y-72613937D01*
X189779744Y-72727205D01*
X189968102Y-72805226D01*
X190168061Y-72845000D01*
X190371939Y-72845000D01*
X190571898Y-72805226D01*
X190760256Y-72727205D01*
X190929774Y-72613937D01*
X190973711Y-72570000D01*
X194475199Y-72570000D01*
X195575785Y-73670587D01*
X195449744Y-73722795D01*
X195280226Y-73836063D01*
X195236289Y-73880000D01*
X189193711Y-73880000D01*
X189109774Y-73796063D01*
X188940256Y-73682795D01*
X188751898Y-73604774D01*
X188551939Y-73565000D01*
X188348061Y-73565000D01*
X188148102Y-73604774D01*
X187959744Y-73682795D01*
X187790226Y-73796063D01*
X187646063Y-73940226D01*
X187532795Y-74109744D01*
X187454774Y-74298102D01*
X187415000Y-74498061D01*
X187415000Y-74701939D01*
X187454774Y-74901898D01*
X187532795Y-75090256D01*
X187646063Y-75259774D01*
X187790226Y-75403937D01*
X187959744Y-75517205D01*
X188148102Y-75595226D01*
X188348061Y-75635000D01*
X188551939Y-75635000D01*
X188751898Y-75595226D01*
X188940256Y-75517205D01*
X189109774Y-75403937D01*
X189113711Y-75400000D01*
X195236289Y-75400000D01*
X195280226Y-75443937D01*
X195449744Y-75557205D01*
X195638102Y-75635226D01*
X195838061Y-75675000D01*
X195900199Y-75675000D01*
X196890001Y-76664803D01*
X196890000Y-94795198D01*
X189081408Y-102603791D01*
X188930256Y-102502795D01*
X188741898Y-102424774D01*
X188541939Y-102385000D01*
X188338061Y-102385000D01*
X188138102Y-102424774D01*
X187949744Y-102502795D01*
X187780226Y-102616063D01*
X187636063Y-102760226D01*
X187522795Y-102929744D01*
X187514521Y-102949719D01*
X182523804Y-97959003D01*
X182523799Y-97958997D01*
X182500000Y-97935198D01*
X182500000Y-89184801D01*
X182649801Y-89035000D01*
X182711939Y-89035000D01*
X182911898Y-88995226D01*
X183100256Y-88917205D01*
X183269774Y-88803937D01*
X183413937Y-88659774D01*
X183527205Y-88490256D01*
X183605226Y-88301898D01*
X183645000Y-88101939D01*
X183645000Y-87898061D01*
X183605226Y-87698102D01*
X183527205Y-87509744D01*
X183413937Y-87340226D01*
X183269774Y-87196063D01*
X183100256Y-87082795D01*
X183009570Y-87045231D01*
X187944802Y-82110000D01*
X194176289Y-82110000D01*
X194220226Y-82153937D01*
X194389744Y-82267205D01*
X194578102Y-82345226D01*
X194778061Y-82385000D01*
X194981939Y-82385000D01*
X195181898Y-82345226D01*
X195370256Y-82267205D01*
X195539774Y-82153937D01*
X195683937Y-82009774D01*
X195797205Y-81840256D01*
X195875226Y-81651898D01*
X195915000Y-81451939D01*
X195915000Y-81248061D01*
X195875226Y-81048102D01*
X195797205Y-80859744D01*
X195683937Y-80690226D01*
X195539774Y-80546063D01*
X195370256Y-80432795D01*
X195181898Y-80354774D01*
X194981939Y-80315000D01*
X194778061Y-80315000D01*
X194578102Y-80354774D01*
X194389744Y-80432795D01*
X194220226Y-80546063D01*
X194176289Y-80590000D01*
X187904802Y-80590000D01*
X188224802Y-80270000D01*
X191316289Y-80270000D01*
X191360226Y-80313937D01*
X191529744Y-80427205D01*
X191718102Y-80505226D01*
X191918061Y-80545000D01*
X192121939Y-80545000D01*
X192321898Y-80505226D01*
X192510256Y-80427205D01*
X192679774Y-80313937D01*
X192823937Y-80169774D01*
X192937205Y-80000256D01*
X193015226Y-79811898D01*
X193055000Y-79611939D01*
X193055000Y-79408061D01*
X193015226Y-79208102D01*
X192937205Y-79019744D01*
X192823937Y-78850226D01*
X192679774Y-78706063D01*
X192510256Y-78592795D01*
X192321898Y-78514774D01*
X192121939Y-78475000D01*
X191918061Y-78475000D01*
X191718102Y-78514774D01*
X191529744Y-78592795D01*
X191360226Y-78706063D01*
X191316289Y-78750000D01*
X188003087Y-78750000D01*
X187915000Y-78741324D01*
X187914999Y-78741324D01*
X187766013Y-78755998D01*
X187622753Y-78799454D01*
X187592315Y-78815724D01*
X187490724Y-78870026D01*
X187374999Y-78964999D01*
X187351201Y-78993997D01*
X179590000Y-86755199D01*
X179590000Y-83164801D01*
X184324802Y-78430000D01*
X187016289Y-78430000D01*
X187060226Y-78473937D01*
X187229744Y-78587205D01*
X187418102Y-78665226D01*
X187618061Y-78705000D01*
X187821939Y-78705000D01*
X188021898Y-78665226D01*
X188210256Y-78587205D01*
X188379774Y-78473937D01*
X188523937Y-78329774D01*
X188637205Y-78160256D01*
X188715226Y-77971898D01*
X188755000Y-77771939D01*
X188755000Y-77568061D01*
X188715226Y-77368102D01*
X188637205Y-77179744D01*
X188523937Y-77010226D01*
X188379774Y-76866063D01*
X188210256Y-76752795D01*
X188021898Y-76674774D01*
X187821939Y-76635000D01*
X187618061Y-76635000D01*
X187418102Y-76674774D01*
X187229744Y-76752795D01*
X187060226Y-76866063D01*
X187016289Y-76910000D01*
X184047322Y-76910000D01*
X184009999Y-76906324D01*
X183972676Y-76910000D01*
X183972667Y-76910000D01*
X183861014Y-76920997D01*
X183717753Y-76964454D01*
X183585724Y-77035026D01*
X183469999Y-77129999D01*
X183446201Y-77158997D01*
X178510000Y-82095199D01*
X178510000Y-75877322D01*
X178513676Y-75839999D01*
X178510000Y-75802676D01*
X178510000Y-75802667D01*
X178499003Y-75691014D01*
X178455546Y-75547753D01*
X178384974Y-75415724D01*
X178290001Y-75299999D01*
X178261004Y-75276202D01*
X176813804Y-73829003D01*
X176790001Y-73799999D01*
X176674276Y-73705026D01*
X176542247Y-73634454D01*
X176398986Y-73590997D01*
X176287333Y-73580000D01*
X176287322Y-73580000D01*
X176250000Y-73576324D01*
X176212678Y-73580000D01*
X169477322Y-73580000D01*
X169439999Y-73576324D01*
X169402677Y-73580000D01*
X169402667Y-73580000D01*
X169291014Y-73590997D01*
X169147753Y-73634454D01*
X169015723Y-73705026D01*
X168994072Y-73722795D01*
X168899999Y-73799999D01*
X168876201Y-73828997D01*
X167968998Y-74736201D01*
X167940000Y-74759999D01*
X167916202Y-74788997D01*
X167916201Y-74788998D01*
X167845026Y-74875724D01*
X167774454Y-75007754D01*
X167749428Y-75090256D01*
X167748951Y-75091830D01*
X167690001Y-75019999D01*
X167661004Y-74996202D01*
X166913803Y-74249002D01*
X166890001Y-74219999D01*
X166774276Y-74125026D01*
X166642247Y-74054454D01*
X166498986Y-74010997D01*
X166387333Y-74000000D01*
X166387322Y-74000000D01*
X166350000Y-73996324D01*
X166312678Y-74000000D01*
X128147322Y-74000000D01*
X128109999Y-73996324D01*
X128072677Y-74000000D01*
X128072667Y-74000000D01*
X127961014Y-74010997D01*
X127817753Y-74054454D01*
X127685723Y-74125026D01*
X127623948Y-74175724D01*
X127569999Y-74219999D01*
X127546201Y-74248997D01*
X125238998Y-76556201D01*
X125210000Y-76579999D01*
X125186202Y-76608997D01*
X125186201Y-76608998D01*
X125115026Y-76695724D01*
X125044454Y-76827754D01*
X125000998Y-76971015D01*
X124986324Y-77120000D01*
X124990001Y-77157332D01*
X124990001Y-77821687D01*
X124771495Y-77967688D01*
X124705056Y-78034127D01*
X124699502Y-78015820D01*
X124640537Y-77905506D01*
X124561185Y-77808815D01*
X124464494Y-77729463D01*
X124354180Y-77670498D01*
X124234482Y-77634188D01*
X124110000Y-77621928D01*
X123495750Y-77625000D01*
X123337000Y-77783750D01*
X123337000Y-79033000D01*
X123357000Y-79033000D01*
X123357000Y-79287000D01*
X123337000Y-79287000D01*
X123337000Y-80536250D01*
X123495750Y-80695000D01*
X124110000Y-80698072D01*
X124234482Y-80685812D01*
X124354180Y-80649502D01*
X124464494Y-80590537D01*
X124561185Y-80511185D01*
X124640537Y-80414494D01*
X124699502Y-80304180D01*
X124705056Y-80285873D01*
X124771495Y-80352312D01*
X124990000Y-80498313D01*
X124990001Y-86988323D01*
X124751495Y-87147688D01*
X124685056Y-87214127D01*
X124679502Y-87195820D01*
X124620537Y-87085506D01*
X124541185Y-86988815D01*
X124444494Y-86909463D01*
X124334180Y-86850498D01*
X124214482Y-86814188D01*
X124090000Y-86801928D01*
X123475750Y-86805000D01*
X123317000Y-86963750D01*
X123063000Y-86963750D01*
X122904250Y-86805000D01*
X122290000Y-86801928D01*
X122165518Y-86814188D01*
X122045820Y-86850498D01*
X121935506Y-86909463D01*
X121838815Y-86988815D01*
X121759463Y-87085506D01*
X121700498Y-87195820D01*
X121664188Y-87315518D01*
X121651928Y-87440000D01*
X118165942Y-87440000D01*
X118244266Y-87272210D01*
X118307811Y-87012973D01*
X118319561Y-86746320D01*
X118279063Y-86482499D01*
X118187875Y-86231647D01*
X118131368Y-86125932D01*
X117895560Y-86064045D01*
X117139605Y-86820000D01*
X116780395Y-86820000D01*
X116024440Y-86064045D01*
X115788632Y-86125932D01*
X115675734Y-86367790D01*
X115612189Y-86627027D01*
X115600439Y-86893680D01*
X112338927Y-86893680D01*
X112332743Y-81606544D01*
X115605000Y-81606544D01*
X115605000Y-81873456D01*
X115657072Y-82135239D01*
X115759215Y-82381833D01*
X115907503Y-82603762D01*
X116096238Y-82792497D01*
X116318167Y-82940785D01*
X116485266Y-83010000D01*
X116318167Y-83079215D01*
X116096238Y-83227503D01*
X115907503Y-83416238D01*
X115759215Y-83638167D01*
X115657072Y-83884761D01*
X115605000Y-84146544D01*
X115605000Y-84413456D01*
X115657072Y-84675239D01*
X115759215Y-84921833D01*
X115907503Y-85143762D01*
X116096238Y-85332497D01*
X116318167Y-85480785D01*
X116486324Y-85550438D01*
X116371647Y-85592125D01*
X116265932Y-85648632D01*
X116204045Y-85884440D01*
X116960000Y-86640395D01*
X117715955Y-85884440D01*
X117654068Y-85648632D01*
X117438993Y-85548236D01*
X117601833Y-85480785D01*
X117823762Y-85332497D01*
X118012497Y-85143762D01*
X118160785Y-84921833D01*
X118262928Y-84675239D01*
X118315000Y-84413456D01*
X118315000Y-84146544D01*
X118262928Y-83884761D01*
X118160785Y-83638167D01*
X118012497Y-83416238D01*
X117823762Y-83227503D01*
X117601833Y-83079215D01*
X117434734Y-83010000D01*
X117601833Y-82940785D01*
X117823762Y-82792497D01*
X118012497Y-82603762D01*
X118160785Y-82381833D01*
X118262928Y-82135239D01*
X118315000Y-81873456D01*
X118315000Y-81606544D01*
X118262928Y-81344761D01*
X118160785Y-81098167D01*
X118012497Y-80876238D01*
X117823762Y-80687503D01*
X117601833Y-80539215D01*
X117355239Y-80437072D01*
X117093456Y-80385000D01*
X116826544Y-80385000D01*
X116564761Y-80437072D01*
X116318167Y-80539215D01*
X116096238Y-80687503D01*
X115907503Y-80876238D01*
X115759215Y-81098167D01*
X115657072Y-81344761D01*
X115605000Y-81606544D01*
X112332743Y-81606544D01*
X112330934Y-80060000D01*
X121671928Y-80060000D01*
X121684188Y-80184482D01*
X121720498Y-80304180D01*
X121779463Y-80414494D01*
X121858815Y-80511185D01*
X121955506Y-80590537D01*
X122065820Y-80649502D01*
X122185518Y-80685812D01*
X122310000Y-80698072D01*
X122924250Y-80695000D01*
X123083000Y-80536250D01*
X123083000Y-79287000D01*
X121833750Y-79287000D01*
X121675000Y-79445750D01*
X121671928Y-80060000D01*
X112330934Y-80060000D01*
X112328829Y-78260000D01*
X121671928Y-78260000D01*
X121675000Y-78874250D01*
X121833750Y-79033000D01*
X123083000Y-79033000D01*
X123083000Y-77783750D01*
X122924250Y-77625000D01*
X122310000Y-77621928D01*
X122185518Y-77634188D01*
X122065820Y-77670498D01*
X121955506Y-77729463D01*
X121858815Y-77808815D01*
X121779463Y-77905506D01*
X121720498Y-78015820D01*
X121684188Y-78135518D01*
X121671928Y-78260000D01*
X112328829Y-78260000D01*
X112309224Y-61500324D01*
X113115000Y-61500324D01*
X113115000Y-61999676D01*
X113212418Y-62489432D01*
X113403512Y-62950773D01*
X113680937Y-63365968D01*
X114034032Y-63719063D01*
X114449227Y-63996488D01*
X114910568Y-64187582D01*
X115400324Y-64285000D01*
X115899676Y-64285000D01*
X116389432Y-64187582D01*
X116850773Y-63996488D01*
X117265968Y-63719063D01*
X117619063Y-63365968D01*
X117896488Y-62950773D01*
X118087582Y-62489432D01*
X118185000Y-61999676D01*
X118185000Y-61510324D01*
X205155000Y-61510324D01*
X205155000Y-62009676D01*
X205252418Y-62499432D01*
X205443512Y-62960773D01*
X205720937Y-63375968D01*
X206074032Y-63729063D01*
X206489227Y-64006488D01*
X206950568Y-64197582D01*
X207440324Y-64295000D01*
X207939676Y-64295000D01*
X208429432Y-64197582D01*
X208890773Y-64006488D01*
X209305968Y-63729063D01*
X209659063Y-63375968D01*
X209936488Y-62960773D01*
X210127582Y-62499432D01*
X210225000Y-62009676D01*
X210225000Y-61510324D01*
X210127582Y-61020568D01*
X209936488Y-60559227D01*
X209659063Y-60144032D01*
X209305968Y-59790937D01*
X208890773Y-59513512D01*
X208429432Y-59322418D01*
X207939676Y-59225000D01*
X207440324Y-59225000D01*
X206950568Y-59322418D01*
X206489227Y-59513512D01*
X206074032Y-59790937D01*
X205720937Y-60144032D01*
X205443512Y-60559227D01*
X205252418Y-61020568D01*
X205155000Y-61510324D01*
X118185000Y-61510324D01*
X118185000Y-61500324D01*
X118087582Y-61010568D01*
X117896488Y-60549227D01*
X117619063Y-60134032D01*
X117265968Y-59780937D01*
X116850773Y-59503512D01*
X116389432Y-59312418D01*
X115899676Y-59215000D01*
X115400324Y-59215000D01*
X114910568Y-59312418D01*
X114449227Y-59503512D01*
X114034032Y-59780937D01*
X113680937Y-60134032D01*
X113403512Y-60549227D01*
X113212418Y-61010568D01*
X113115000Y-61500324D01*
X112309224Y-61500324D01*
X112305801Y-58574589D01*
X210965511Y-58515410D01*
X211034491Y-151165549D01*
G37*
%TD.AperFunction*%
%TD*%
M02*
