%TF.GenerationSoftware,KiCad,Pcbnew,(5.1.10)-1*%
%TF.CreationDate,2022-05-26T21:18:39-05:00*%
%TF.ProjectId,SE,53452e6b-6963-4616-945f-706362585858,rev?*%
%TF.SameCoordinates,Original*%
%TF.FileFunction,Legend,Top*%
%TF.FilePolarity,Positive*%
%FSLAX46Y46*%
G04 Gerber Fmt 4.6, Leading zero omitted, Abs format (unit mm)*
G04 Created by KiCad (PCBNEW (5.1.10)-1) date 2022-05-26 21:18:39*
%MOMM*%
%LPD*%
G01*
G04 APERTURE LIST*
%ADD10C,0.150000*%
%ADD11C,0.120000*%
%ADD12C,0.152400*%
%ADD13C,0.025400*%
G04 APERTURE END LIST*
D10*
X171614761Y-120858571D02*
X171948095Y-120858571D01*
X172090952Y-121382380D02*
X171614761Y-121382380D01*
X171614761Y-120382380D01*
X172090952Y-120382380D01*
X172519523Y-121382380D02*
X172519523Y-120715714D01*
X172519523Y-120906190D02*
X172567142Y-120810952D01*
X172614761Y-120763333D01*
X172710000Y-120715714D01*
X172805238Y-120715714D01*
X173138571Y-121382380D02*
X173138571Y-120715714D01*
X173138571Y-120906190D02*
X173186190Y-120810952D01*
X173233809Y-120763333D01*
X173329047Y-120715714D01*
X173424285Y-120715714D01*
X173900476Y-121382380D02*
X173805238Y-121334761D01*
X173757619Y-121287142D01*
X173710000Y-121191904D01*
X173710000Y-120906190D01*
X173757619Y-120810952D01*
X173805238Y-120763333D01*
X173900476Y-120715714D01*
X174043333Y-120715714D01*
X174138571Y-120763333D01*
X174186190Y-120810952D01*
X174233809Y-120906190D01*
X174233809Y-121191904D01*
X174186190Y-121287142D01*
X174138571Y-121334761D01*
X174043333Y-121382380D01*
X173900476Y-121382380D01*
X174662380Y-121382380D02*
X174662380Y-120715714D01*
X174662380Y-120906190D02*
X174710000Y-120810952D01*
X174757619Y-120763333D01*
X174852857Y-120715714D01*
X174948095Y-120715714D01*
X172564761Y-114642380D02*
X172755238Y-114642380D01*
X172850476Y-114690000D01*
X172945714Y-114785238D01*
X172993333Y-114975714D01*
X172993333Y-115309047D01*
X172945714Y-115499523D01*
X172850476Y-115594761D01*
X172755238Y-115642380D01*
X172564761Y-115642380D01*
X172469523Y-115594761D01*
X172374285Y-115499523D01*
X172326666Y-115309047D01*
X172326666Y-114975714D01*
X172374285Y-114785238D01*
X172469523Y-114690000D01*
X172564761Y-114642380D01*
X173421904Y-115642380D02*
X173421904Y-114642380D01*
X173993333Y-115642380D02*
X173564761Y-115070952D01*
X173993333Y-114642380D02*
X173421904Y-115213809D01*
X170235238Y-109382380D02*
X170235238Y-108382380D01*
X170616190Y-108382380D01*
X170711428Y-108430000D01*
X170759047Y-108477619D01*
X170806666Y-108572857D01*
X170806666Y-108715714D01*
X170759047Y-108810952D01*
X170711428Y-108858571D01*
X170616190Y-108906190D01*
X170235238Y-108906190D01*
X171235238Y-109382380D02*
X171235238Y-108715714D01*
X171235238Y-108906190D02*
X171282857Y-108810952D01*
X171330476Y-108763333D01*
X171425714Y-108715714D01*
X171520952Y-108715714D01*
X171997142Y-109382380D02*
X171901904Y-109334761D01*
X171854285Y-109287142D01*
X171806666Y-109191904D01*
X171806666Y-108906190D01*
X171854285Y-108810952D01*
X171901904Y-108763333D01*
X171997142Y-108715714D01*
X172140000Y-108715714D01*
X172235238Y-108763333D01*
X172282857Y-108810952D01*
X172330476Y-108906190D01*
X172330476Y-109191904D01*
X172282857Y-109287142D01*
X172235238Y-109334761D01*
X172140000Y-109382380D01*
X171997142Y-109382380D01*
X173187619Y-108715714D02*
X173187619Y-109525238D01*
X173140000Y-109620476D01*
X173092380Y-109668095D01*
X172997142Y-109715714D01*
X172854285Y-109715714D01*
X172759047Y-109668095D01*
X173187619Y-109334761D02*
X173092380Y-109382380D01*
X172901904Y-109382380D01*
X172806666Y-109334761D01*
X172759047Y-109287142D01*
X172711428Y-109191904D01*
X172711428Y-108906190D01*
X172759047Y-108810952D01*
X172806666Y-108763333D01*
X172901904Y-108715714D01*
X173092380Y-108715714D01*
X173187619Y-108763333D01*
X173663809Y-109382380D02*
X173663809Y-108715714D01*
X173663809Y-108906190D02*
X173711428Y-108810952D01*
X173759047Y-108763333D01*
X173854285Y-108715714D01*
X173949523Y-108715714D01*
X174711428Y-109382380D02*
X174711428Y-108858571D01*
X174663809Y-108763333D01*
X174568571Y-108715714D01*
X174378095Y-108715714D01*
X174282857Y-108763333D01*
X174711428Y-109334761D02*
X174616190Y-109382380D01*
X174378095Y-109382380D01*
X174282857Y-109334761D01*
X174235238Y-109239523D01*
X174235238Y-109144285D01*
X174282857Y-109049047D01*
X174378095Y-109001428D01*
X174616190Y-109001428D01*
X174711428Y-108953809D01*
X175187619Y-109382380D02*
X175187619Y-108715714D01*
X175187619Y-108810952D02*
X175235238Y-108763333D01*
X175330476Y-108715714D01*
X175473333Y-108715714D01*
X175568571Y-108763333D01*
X175616190Y-108858571D01*
X175616190Y-109382380D01*
X175616190Y-108858571D02*
X175663809Y-108763333D01*
X175759047Y-108715714D01*
X175901904Y-108715714D01*
X175997142Y-108763333D01*
X176044761Y-108858571D01*
X176044761Y-109382380D01*
X206931904Y-66742380D02*
X206598571Y-66266190D01*
X206360476Y-66742380D02*
X206360476Y-65742380D01*
X206741428Y-65742380D01*
X206836666Y-65790000D01*
X206884285Y-65837619D01*
X206931904Y-65932857D01*
X206931904Y-66075714D01*
X206884285Y-66170952D01*
X206836666Y-66218571D01*
X206741428Y-66266190D01*
X206360476Y-66266190D01*
X207741428Y-66694761D02*
X207646190Y-66742380D01*
X207455714Y-66742380D01*
X207360476Y-66694761D01*
X207312857Y-66599523D01*
X207312857Y-66218571D01*
X207360476Y-66123333D01*
X207455714Y-66075714D01*
X207646190Y-66075714D01*
X207741428Y-66123333D01*
X207789047Y-66218571D01*
X207789047Y-66313809D01*
X207312857Y-66409047D01*
X208170000Y-66694761D02*
X208265238Y-66742380D01*
X208455714Y-66742380D01*
X208550952Y-66694761D01*
X208598571Y-66599523D01*
X208598571Y-66551904D01*
X208550952Y-66456666D01*
X208455714Y-66409047D01*
X208312857Y-66409047D01*
X208217619Y-66361428D01*
X208170000Y-66266190D01*
X208170000Y-66218571D01*
X208217619Y-66123333D01*
X208312857Y-66075714D01*
X208455714Y-66075714D01*
X208550952Y-66123333D01*
X209408095Y-66694761D02*
X209312857Y-66742380D01*
X209122380Y-66742380D01*
X209027142Y-66694761D01*
X208979523Y-66599523D01*
X208979523Y-66218571D01*
X209027142Y-66123333D01*
X209122380Y-66075714D01*
X209312857Y-66075714D01*
X209408095Y-66123333D01*
X209455714Y-66218571D01*
X209455714Y-66313809D01*
X208979523Y-66409047D01*
X209741428Y-66075714D02*
X210122380Y-66075714D01*
X209884285Y-65742380D02*
X209884285Y-66599523D01*
X209931904Y-66694761D01*
X210027142Y-66742380D01*
X210122380Y-66742380D01*
X151049523Y-110102380D02*
X151049523Y-109102380D01*
X151430476Y-109102380D01*
X151525714Y-109150000D01*
X151573333Y-109197619D01*
X151620952Y-109292857D01*
X151620952Y-109435714D01*
X151573333Y-109530952D01*
X151525714Y-109578571D01*
X151430476Y-109626190D01*
X151049523Y-109626190D01*
X152478095Y-109435714D02*
X152478095Y-110102380D01*
X152049523Y-109435714D02*
X152049523Y-109959523D01*
X152097142Y-110054761D01*
X152192380Y-110102380D01*
X152335238Y-110102380D01*
X152430476Y-110054761D01*
X152478095Y-110007142D01*
X153335238Y-110054761D02*
X153240000Y-110102380D01*
X153049523Y-110102380D01*
X152954285Y-110054761D01*
X152906666Y-109959523D01*
X152906666Y-109578571D01*
X152954285Y-109483333D01*
X153049523Y-109435714D01*
X153240000Y-109435714D01*
X153335238Y-109483333D01*
X153382857Y-109578571D01*
X153382857Y-109673809D01*
X152906666Y-109769047D01*
X153811428Y-110102380D02*
X153811428Y-109435714D01*
X153811428Y-109626190D02*
X153859047Y-109530952D01*
X153906666Y-109483333D01*
X154001904Y-109435714D01*
X154097142Y-109435714D01*
X154287619Y-109435714D02*
X154668571Y-109435714D01*
X154430476Y-109102380D02*
X154430476Y-109959523D01*
X154478095Y-110054761D01*
X154573333Y-110102380D01*
X154668571Y-110102380D01*
X155430476Y-110102380D02*
X155430476Y-109578571D01*
X155382857Y-109483333D01*
X155287619Y-109435714D01*
X155097142Y-109435714D01*
X155001904Y-109483333D01*
X155430476Y-110054761D02*
X155335238Y-110102380D01*
X155097142Y-110102380D01*
X155001904Y-110054761D01*
X154954285Y-109959523D01*
X154954285Y-109864285D01*
X155001904Y-109769047D01*
X155097142Y-109721428D01*
X155335238Y-109721428D01*
X155430476Y-109673809D01*
X142108571Y-125138571D02*
X142441904Y-125138571D01*
X142584761Y-125662380D02*
X142108571Y-125662380D01*
X142108571Y-124662380D01*
X142584761Y-124662380D01*
X143013333Y-124995714D02*
X143013333Y-125662380D01*
X143013333Y-125090952D02*
X143060952Y-125043333D01*
X143156190Y-124995714D01*
X143299047Y-124995714D01*
X143394285Y-125043333D01*
X143441904Y-125138571D01*
X143441904Y-125662380D01*
X144346666Y-125614761D02*
X144251428Y-125662380D01*
X144060952Y-125662380D01*
X143965714Y-125614761D01*
X143918095Y-125567142D01*
X143870476Y-125471904D01*
X143870476Y-125186190D01*
X143918095Y-125090952D01*
X143965714Y-125043333D01*
X144060952Y-124995714D01*
X144251428Y-124995714D01*
X144346666Y-125043333D01*
X145156190Y-125614761D02*
X145060952Y-125662380D01*
X144870476Y-125662380D01*
X144775238Y-125614761D01*
X144727619Y-125519523D01*
X144727619Y-125138571D01*
X144775238Y-125043333D01*
X144870476Y-124995714D01*
X145060952Y-124995714D01*
X145156190Y-125043333D01*
X145203809Y-125138571D01*
X145203809Y-125233809D01*
X144727619Y-125329047D01*
X145632380Y-124995714D02*
X145632380Y-125662380D01*
X145632380Y-125090952D02*
X145680000Y-125043333D01*
X145775238Y-124995714D01*
X145918095Y-124995714D01*
X146013333Y-125043333D01*
X146060952Y-125138571D01*
X146060952Y-125662380D01*
X146965714Y-125662380D02*
X146965714Y-124662380D01*
X146965714Y-125614761D02*
X146870476Y-125662380D01*
X146680000Y-125662380D01*
X146584761Y-125614761D01*
X146537142Y-125567142D01*
X146489523Y-125471904D01*
X146489523Y-125186190D01*
X146537142Y-125090952D01*
X146584761Y-125043333D01*
X146680000Y-124995714D01*
X146870476Y-124995714D01*
X146965714Y-125043333D01*
X147441904Y-125662380D02*
X147441904Y-124995714D01*
X147441904Y-124662380D02*
X147394285Y-124710000D01*
X147441904Y-124757619D01*
X147489523Y-124710000D01*
X147441904Y-124662380D01*
X147441904Y-124757619D01*
X148346666Y-125662380D02*
X148346666Y-124662380D01*
X148346666Y-125614761D02*
X148251428Y-125662380D01*
X148060952Y-125662380D01*
X147965714Y-125614761D01*
X147918095Y-125567142D01*
X147870476Y-125471904D01*
X147870476Y-125186190D01*
X147918095Y-125090952D01*
X147965714Y-125043333D01*
X148060952Y-124995714D01*
X148251428Y-124995714D01*
X148346666Y-125043333D01*
X148965714Y-125662380D02*
X148870476Y-125614761D01*
X148822857Y-125567142D01*
X148775238Y-125471904D01*
X148775238Y-125186190D01*
X148822857Y-125090952D01*
X148870476Y-125043333D01*
X148965714Y-124995714D01*
X149108571Y-124995714D01*
X149203809Y-125043333D01*
X149251428Y-125090952D01*
X149299047Y-125186190D01*
X149299047Y-125471904D01*
X149251428Y-125567142D01*
X149203809Y-125614761D01*
X149108571Y-125662380D01*
X148965714Y-125662380D01*
X143545238Y-131318571D02*
X143211904Y-131318571D01*
X143211904Y-131842380D02*
X143211904Y-130842380D01*
X143688095Y-130842380D01*
X144497619Y-131175714D02*
X144497619Y-131842380D01*
X144069047Y-131175714D02*
X144069047Y-131699523D01*
X144116666Y-131794761D01*
X144211904Y-131842380D01*
X144354761Y-131842380D01*
X144450000Y-131794761D01*
X144497619Y-131747142D01*
X145354761Y-131794761D02*
X145259523Y-131842380D01*
X145069047Y-131842380D01*
X144973809Y-131794761D01*
X144926190Y-131699523D01*
X144926190Y-131318571D01*
X144973809Y-131223333D01*
X145069047Y-131175714D01*
X145259523Y-131175714D01*
X145354761Y-131223333D01*
X145402380Y-131318571D01*
X145402380Y-131413809D01*
X144926190Y-131509047D01*
X145830952Y-131175714D02*
X145830952Y-131842380D01*
X145830952Y-131270952D02*
X145878571Y-131223333D01*
X145973809Y-131175714D01*
X146116666Y-131175714D01*
X146211904Y-131223333D01*
X146259523Y-131318571D01*
X146259523Y-131842380D01*
X146592857Y-131175714D02*
X146973809Y-131175714D01*
X146735714Y-130842380D02*
X146735714Y-131699523D01*
X146783333Y-131794761D01*
X146878571Y-131842380D01*
X146973809Y-131842380D01*
X147688095Y-131794761D02*
X147592857Y-131842380D01*
X147402380Y-131842380D01*
X147307142Y-131794761D01*
X147259523Y-131699523D01*
X147259523Y-131318571D01*
X147307142Y-131223333D01*
X147402380Y-131175714D01*
X147592857Y-131175714D01*
X147688095Y-131223333D01*
X147735714Y-131318571D01*
X147735714Y-131413809D01*
X147259523Y-131509047D01*
X114486190Y-102792380D02*
X114486190Y-101792380D01*
X114962380Y-102792380D02*
X114962380Y-101792380D01*
X115295714Y-102506666D01*
X115629047Y-101792380D01*
X115629047Y-102792380D01*
X116057619Y-102506666D02*
X116533809Y-102506666D01*
X115962380Y-102792380D02*
X116295714Y-101792380D01*
X116629047Y-102792380D01*
X116962380Y-102792380D02*
X116962380Y-101792380D01*
X117533809Y-102792380D01*
X117533809Y-101792380D01*
X122169047Y-139011428D02*
X122930952Y-139011428D01*
X122259047Y-127571428D02*
X123020952Y-127571428D01*
X121979047Y-129171428D02*
X122740952Y-129171428D01*
X122360000Y-129552380D02*
X122360000Y-128790476D01*
X121889047Y-140701428D02*
X122650952Y-140701428D01*
X122270000Y-141082380D02*
X122270000Y-140320476D01*
X114282857Y-135488571D02*
X114425714Y-135536190D01*
X114473333Y-135583809D01*
X114520952Y-135679047D01*
X114520952Y-135821904D01*
X114473333Y-135917142D01*
X114425714Y-135964761D01*
X114330476Y-136012380D01*
X113949523Y-136012380D01*
X113949523Y-135012380D01*
X114282857Y-135012380D01*
X114378095Y-135060000D01*
X114425714Y-135107619D01*
X114473333Y-135202857D01*
X114473333Y-135298095D01*
X114425714Y-135393333D01*
X114378095Y-135440952D01*
X114282857Y-135488571D01*
X113949523Y-135488571D01*
X114901904Y-135726666D02*
X115378095Y-135726666D01*
X114806666Y-136012380D02*
X115140000Y-135012380D01*
X115473333Y-136012380D01*
X115663809Y-135012380D02*
X116235238Y-135012380D01*
X115949523Y-136012380D02*
X115949523Y-135012380D01*
X116568571Y-135488571D02*
X116901904Y-135488571D01*
X117044761Y-136012380D02*
X116568571Y-136012380D01*
X116568571Y-135012380D01*
X117044761Y-135012380D01*
X118044761Y-136012380D02*
X117711428Y-135536190D01*
X117473333Y-136012380D02*
X117473333Y-135012380D01*
X117854285Y-135012380D01*
X117949523Y-135060000D01*
X117997142Y-135107619D01*
X118044761Y-135202857D01*
X118044761Y-135345714D01*
X117997142Y-135440952D01*
X117949523Y-135488571D01*
X117854285Y-135536190D01*
X117473333Y-135536190D01*
X118473333Y-136012380D02*
X118473333Y-135012380D01*
X118901904Y-135726666D02*
X119378095Y-135726666D01*
X118806666Y-136012380D02*
X119140000Y-135012380D01*
X119473333Y-136012380D01*
X115389523Y-124058571D02*
X115056190Y-124058571D01*
X115056190Y-124582380D02*
X115056190Y-123582380D01*
X115532380Y-123582380D01*
X115913333Y-123582380D02*
X115913333Y-124391904D01*
X115960952Y-124487142D01*
X116008571Y-124534761D01*
X116103809Y-124582380D01*
X116294285Y-124582380D01*
X116389523Y-124534761D01*
X116437142Y-124487142D01*
X116484761Y-124391904D01*
X116484761Y-123582380D01*
X116960952Y-124058571D02*
X117294285Y-124058571D01*
X117437142Y-124582380D02*
X116960952Y-124582380D01*
X116960952Y-123582380D01*
X117437142Y-123582380D01*
X117865714Y-124582380D02*
X117865714Y-123582380D01*
X118437142Y-124582380D01*
X118437142Y-123582380D01*
X118770476Y-123582380D02*
X119341904Y-123582380D01*
X119056190Y-124582380D02*
X119056190Y-123582380D01*
X119675238Y-124058571D02*
X120008571Y-124058571D01*
X120151428Y-124582380D02*
X119675238Y-124582380D01*
X119675238Y-123582380D01*
X120151428Y-123582380D01*
X161792380Y-86321904D02*
X160792380Y-86321904D01*
X161792380Y-85750476D02*
X161220952Y-86179047D01*
X160792380Y-85750476D02*
X161363809Y-86321904D01*
X158876666Y-86208095D02*
X158876666Y-85731904D01*
X159162380Y-86303333D02*
X158162380Y-85970000D01*
X159162380Y-85636666D01*
X156822380Y-86638095D02*
X155822380Y-86638095D01*
X155822380Y-86400000D01*
X155870000Y-86257142D01*
X155965238Y-86161904D01*
X156060476Y-86114285D01*
X156250952Y-86066666D01*
X156393809Y-86066666D01*
X156584285Y-86114285D01*
X156679523Y-86161904D01*
X156774761Y-86257142D01*
X156822380Y-86400000D01*
X156822380Y-86638095D01*
X156298571Y-85304761D02*
X156346190Y-85161904D01*
X156393809Y-85114285D01*
X156489047Y-85066666D01*
X156631904Y-85066666D01*
X156727142Y-85114285D01*
X156774761Y-85161904D01*
X156822380Y-85257142D01*
X156822380Y-85638095D01*
X155822380Y-85638095D01*
X155822380Y-85304761D01*
X155870000Y-85209523D01*
X155917619Y-85161904D01*
X156012857Y-85114285D01*
X156108095Y-85114285D01*
X156203333Y-85161904D01*
X156250952Y-85209523D01*
X156298571Y-85304761D01*
X156298571Y-85638095D01*
X155822380Y-84733333D02*
X155822380Y-84066666D01*
X156822380Y-84495238D01*
X154192380Y-86738095D02*
X153192380Y-86738095D01*
X153192380Y-86500000D01*
X153240000Y-86357142D01*
X153335238Y-86261904D01*
X153430476Y-86214285D01*
X153620952Y-86166666D01*
X153763809Y-86166666D01*
X153954285Y-86214285D01*
X154049523Y-86261904D01*
X154144761Y-86357142D01*
X154192380Y-86500000D01*
X154192380Y-86738095D01*
X153668571Y-85404761D02*
X153716190Y-85261904D01*
X153763809Y-85214285D01*
X153859047Y-85166666D01*
X154001904Y-85166666D01*
X154097142Y-85214285D01*
X154144761Y-85261904D01*
X154192380Y-85357142D01*
X154192380Y-85738095D01*
X153192380Y-85738095D01*
X153192380Y-85404761D01*
X153240000Y-85309523D01*
X153287619Y-85261904D01*
X153382857Y-85214285D01*
X153478095Y-85214285D01*
X153573333Y-85261904D01*
X153620952Y-85309523D01*
X153668571Y-85404761D01*
X153668571Y-85738095D01*
X153192380Y-84309523D02*
X153192380Y-84500000D01*
X153240000Y-84595238D01*
X153287619Y-84642857D01*
X153430476Y-84738095D01*
X153620952Y-84785714D01*
X154001904Y-84785714D01*
X154097142Y-84738095D01*
X154144761Y-84690476D01*
X154192380Y-84595238D01*
X154192380Y-84404761D01*
X154144761Y-84309523D01*
X154097142Y-84261904D01*
X154001904Y-84214285D01*
X153763809Y-84214285D01*
X153668571Y-84261904D01*
X153620952Y-84309523D01*
X153573333Y-84404761D01*
X153573333Y-84595238D01*
X153620952Y-84690476D01*
X153668571Y-84738095D01*
X153763809Y-84785714D01*
X151762380Y-86638095D02*
X150762380Y-86638095D01*
X150762380Y-86400000D01*
X150810000Y-86257142D01*
X150905238Y-86161904D01*
X151000476Y-86114285D01*
X151190952Y-86066666D01*
X151333809Y-86066666D01*
X151524285Y-86114285D01*
X151619523Y-86161904D01*
X151714761Y-86257142D01*
X151762380Y-86400000D01*
X151762380Y-86638095D01*
X151238571Y-85304761D02*
X151286190Y-85161904D01*
X151333809Y-85114285D01*
X151429047Y-85066666D01*
X151571904Y-85066666D01*
X151667142Y-85114285D01*
X151714761Y-85161904D01*
X151762380Y-85257142D01*
X151762380Y-85638095D01*
X150762380Y-85638095D01*
X150762380Y-85304761D01*
X150810000Y-85209523D01*
X150857619Y-85161904D01*
X150952857Y-85114285D01*
X151048095Y-85114285D01*
X151143333Y-85161904D01*
X151190952Y-85209523D01*
X151238571Y-85304761D01*
X151238571Y-85638095D01*
X150762380Y-84161904D02*
X150762380Y-84638095D01*
X151238571Y-84685714D01*
X151190952Y-84638095D01*
X151143333Y-84542857D01*
X151143333Y-84304761D01*
X151190952Y-84209523D01*
X151238571Y-84161904D01*
X151333809Y-84114285D01*
X151571904Y-84114285D01*
X151667142Y-84161904D01*
X151714761Y-84209523D01*
X151762380Y-84304761D01*
X151762380Y-84542857D01*
X151714761Y-84638095D01*
X151667142Y-84685714D01*
X149232380Y-86738095D02*
X148232380Y-86738095D01*
X148232380Y-86500000D01*
X148280000Y-86357142D01*
X148375238Y-86261904D01*
X148470476Y-86214285D01*
X148660952Y-86166666D01*
X148803809Y-86166666D01*
X148994285Y-86214285D01*
X149089523Y-86261904D01*
X149184761Y-86357142D01*
X149232380Y-86500000D01*
X149232380Y-86738095D01*
X148708571Y-85404761D02*
X148756190Y-85261904D01*
X148803809Y-85214285D01*
X148899047Y-85166666D01*
X149041904Y-85166666D01*
X149137142Y-85214285D01*
X149184761Y-85261904D01*
X149232380Y-85357142D01*
X149232380Y-85738095D01*
X148232380Y-85738095D01*
X148232380Y-85404761D01*
X148280000Y-85309523D01*
X148327619Y-85261904D01*
X148422857Y-85214285D01*
X148518095Y-85214285D01*
X148613333Y-85261904D01*
X148660952Y-85309523D01*
X148708571Y-85404761D01*
X148708571Y-85738095D01*
X148565714Y-84309523D02*
X149232380Y-84309523D01*
X148184761Y-84547619D02*
X148899047Y-84785714D01*
X148899047Y-84166666D01*
X146602380Y-86788095D02*
X145602380Y-86788095D01*
X145602380Y-86550000D01*
X145650000Y-86407142D01*
X145745238Y-86311904D01*
X145840476Y-86264285D01*
X146030952Y-86216666D01*
X146173809Y-86216666D01*
X146364285Y-86264285D01*
X146459523Y-86311904D01*
X146554761Y-86407142D01*
X146602380Y-86550000D01*
X146602380Y-86788095D01*
X146078571Y-85454761D02*
X146126190Y-85311904D01*
X146173809Y-85264285D01*
X146269047Y-85216666D01*
X146411904Y-85216666D01*
X146507142Y-85264285D01*
X146554761Y-85311904D01*
X146602380Y-85407142D01*
X146602380Y-85788095D01*
X145602380Y-85788095D01*
X145602380Y-85454761D01*
X145650000Y-85359523D01*
X145697619Y-85311904D01*
X145792857Y-85264285D01*
X145888095Y-85264285D01*
X145983333Y-85311904D01*
X146030952Y-85359523D01*
X146078571Y-85454761D01*
X146078571Y-85788095D01*
X145602380Y-84883333D02*
X145602380Y-84264285D01*
X145983333Y-84597619D01*
X145983333Y-84454761D01*
X146030952Y-84359523D01*
X146078571Y-84311904D01*
X146173809Y-84264285D01*
X146411904Y-84264285D01*
X146507142Y-84311904D01*
X146554761Y-84359523D01*
X146602380Y-84454761D01*
X146602380Y-84740476D01*
X146554761Y-84835714D01*
X146507142Y-84883333D01*
X144072380Y-86788095D02*
X143072380Y-86788095D01*
X143072380Y-86550000D01*
X143120000Y-86407142D01*
X143215238Y-86311904D01*
X143310476Y-86264285D01*
X143500952Y-86216666D01*
X143643809Y-86216666D01*
X143834285Y-86264285D01*
X143929523Y-86311904D01*
X144024761Y-86407142D01*
X144072380Y-86550000D01*
X144072380Y-86788095D01*
X143548571Y-85454761D02*
X143596190Y-85311904D01*
X143643809Y-85264285D01*
X143739047Y-85216666D01*
X143881904Y-85216666D01*
X143977142Y-85264285D01*
X144024761Y-85311904D01*
X144072380Y-85407142D01*
X144072380Y-85788095D01*
X143072380Y-85788095D01*
X143072380Y-85454761D01*
X143120000Y-85359523D01*
X143167619Y-85311904D01*
X143262857Y-85264285D01*
X143358095Y-85264285D01*
X143453333Y-85311904D01*
X143500952Y-85359523D01*
X143548571Y-85454761D01*
X143548571Y-85788095D01*
X143167619Y-84835714D02*
X143120000Y-84788095D01*
X143072380Y-84692857D01*
X143072380Y-84454761D01*
X143120000Y-84359523D01*
X143167619Y-84311904D01*
X143262857Y-84264285D01*
X143358095Y-84264285D01*
X143500952Y-84311904D01*
X144072380Y-84883333D01*
X144072380Y-84264285D01*
X141352380Y-86788095D02*
X140352380Y-86788095D01*
X140352380Y-86550000D01*
X140400000Y-86407142D01*
X140495238Y-86311904D01*
X140590476Y-86264285D01*
X140780952Y-86216666D01*
X140923809Y-86216666D01*
X141114285Y-86264285D01*
X141209523Y-86311904D01*
X141304761Y-86407142D01*
X141352380Y-86550000D01*
X141352380Y-86788095D01*
X140828571Y-85454761D02*
X140876190Y-85311904D01*
X140923809Y-85264285D01*
X141019047Y-85216666D01*
X141161904Y-85216666D01*
X141257142Y-85264285D01*
X141304761Y-85311904D01*
X141352380Y-85407142D01*
X141352380Y-85788095D01*
X140352380Y-85788095D01*
X140352380Y-85454761D01*
X140400000Y-85359523D01*
X140447619Y-85311904D01*
X140542857Y-85264285D01*
X140638095Y-85264285D01*
X140733333Y-85311904D01*
X140780952Y-85359523D01*
X140828571Y-85454761D01*
X140828571Y-85788095D01*
X141352380Y-84264285D02*
X141352380Y-84835714D01*
X141352380Y-84550000D02*
X140352380Y-84550000D01*
X140495238Y-84645238D01*
X140590476Y-84740476D01*
X140638095Y-84835714D01*
X138912380Y-86878095D02*
X137912380Y-86878095D01*
X137912380Y-86640000D01*
X137960000Y-86497142D01*
X138055238Y-86401904D01*
X138150476Y-86354285D01*
X138340952Y-86306666D01*
X138483809Y-86306666D01*
X138674285Y-86354285D01*
X138769523Y-86401904D01*
X138864761Y-86497142D01*
X138912380Y-86640000D01*
X138912380Y-86878095D01*
X138388571Y-85544761D02*
X138436190Y-85401904D01*
X138483809Y-85354285D01*
X138579047Y-85306666D01*
X138721904Y-85306666D01*
X138817142Y-85354285D01*
X138864761Y-85401904D01*
X138912380Y-85497142D01*
X138912380Y-85878095D01*
X137912380Y-85878095D01*
X137912380Y-85544761D01*
X137960000Y-85449523D01*
X138007619Y-85401904D01*
X138102857Y-85354285D01*
X138198095Y-85354285D01*
X138293333Y-85401904D01*
X138340952Y-85449523D01*
X138388571Y-85544761D01*
X138388571Y-85878095D01*
X137912380Y-84687619D02*
X137912380Y-84592380D01*
X137960000Y-84497142D01*
X138007619Y-84449523D01*
X138102857Y-84401904D01*
X138293333Y-84354285D01*
X138531428Y-84354285D01*
X138721904Y-84401904D01*
X138817142Y-84449523D01*
X138864761Y-84497142D01*
X138912380Y-84592380D01*
X138912380Y-84687619D01*
X138864761Y-84782857D01*
X138817142Y-84830476D01*
X138721904Y-84878095D01*
X138531428Y-84925714D01*
X138293333Y-84925714D01*
X138102857Y-84878095D01*
X138007619Y-84830476D01*
X137960000Y-84782857D01*
X137912380Y-84687619D01*
X136048571Y-86414285D02*
X136048571Y-86080952D01*
X136572380Y-85938095D02*
X136572380Y-86414285D01*
X135572380Y-86414285D01*
X135572380Y-85938095D01*
X133852380Y-86235714D02*
X133376190Y-86569047D01*
X133852380Y-86807142D02*
X132852380Y-86807142D01*
X132852380Y-86426190D01*
X132900000Y-86330952D01*
X132947619Y-86283333D01*
X133042857Y-86235714D01*
X133185714Y-86235714D01*
X133280952Y-86283333D01*
X133328571Y-86330952D01*
X133376190Y-86426190D01*
X133376190Y-86807142D01*
X132804761Y-85092857D02*
X134090476Y-85950000D01*
X132852380Y-84854761D02*
X133852380Y-84616666D01*
X133138095Y-84426190D01*
X133852380Y-84235714D01*
X132852380Y-83997619D01*
X131232380Y-85996666D02*
X130756190Y-86330000D01*
X131232380Y-86568095D02*
X130232380Y-86568095D01*
X130232380Y-86187142D01*
X130280000Y-86091904D01*
X130327619Y-86044285D01*
X130422857Y-85996666D01*
X130565714Y-85996666D01*
X130660952Y-86044285D01*
X130708571Y-86091904D01*
X130756190Y-86187142D01*
X130756190Y-86568095D01*
X131184761Y-85615714D02*
X131232380Y-85472857D01*
X131232380Y-85234761D01*
X131184761Y-85139523D01*
X131137142Y-85091904D01*
X131041904Y-85044285D01*
X130946666Y-85044285D01*
X130851428Y-85091904D01*
X130803809Y-85139523D01*
X130756190Y-85234761D01*
X130708571Y-85425238D01*
X130660952Y-85520476D01*
X130613333Y-85568095D01*
X130518095Y-85615714D01*
X130422857Y-85615714D01*
X130327619Y-85568095D01*
X130280000Y-85520476D01*
X130232380Y-85425238D01*
X130232380Y-85187142D01*
X130280000Y-85044285D01*
X127792380Y-86615714D02*
X128792380Y-86282380D01*
X127792380Y-85949047D01*
X128792380Y-85472857D02*
X128744761Y-85568095D01*
X128697142Y-85615714D01*
X128601904Y-85663333D01*
X128316190Y-85663333D01*
X128220952Y-85615714D01*
X128173333Y-85568095D01*
X128125714Y-85472857D01*
X128125714Y-85330000D01*
X128173333Y-85234761D01*
X128220952Y-85187142D01*
X128316190Y-85139523D01*
X128601904Y-85139523D01*
X128697142Y-85187142D01*
X128744761Y-85234761D01*
X128792380Y-85330000D01*
X128792380Y-85472857D01*
X122732380Y-86735714D02*
X123732380Y-86402380D01*
X122732380Y-86069047D01*
X123684761Y-85783333D02*
X123732380Y-85640476D01*
X123732380Y-85402380D01*
X123684761Y-85307142D01*
X123637142Y-85259523D01*
X123541904Y-85211904D01*
X123446666Y-85211904D01*
X123351428Y-85259523D01*
X123303809Y-85307142D01*
X123256190Y-85402380D01*
X123208571Y-85592857D01*
X123160952Y-85688095D01*
X123113333Y-85735714D01*
X123018095Y-85783333D01*
X122922857Y-85783333D01*
X122827619Y-85735714D01*
X122780000Y-85688095D01*
X122732380Y-85592857D01*
X122732380Y-85354761D01*
X122780000Y-85211904D01*
X123684761Y-84830952D02*
X123732380Y-84688095D01*
X123732380Y-84450000D01*
X123684761Y-84354761D01*
X123637142Y-84307142D01*
X123541904Y-84259523D01*
X123446666Y-84259523D01*
X123351428Y-84307142D01*
X123303809Y-84354761D01*
X123256190Y-84450000D01*
X123208571Y-84640476D01*
X123160952Y-84735714D01*
X123113333Y-84783333D01*
X123018095Y-84830952D01*
X122922857Y-84830952D01*
X122827619Y-84783333D01*
X122780000Y-84735714D01*
X122732380Y-84640476D01*
X122732380Y-84402380D01*
X122780000Y-84259523D01*
X125262380Y-86783333D02*
X126262380Y-86450000D01*
X125262380Y-86116666D01*
X126262380Y-85783333D02*
X125262380Y-85783333D01*
X125262380Y-85545238D01*
X125310000Y-85402380D01*
X125405238Y-85307142D01*
X125500476Y-85259523D01*
X125690952Y-85211904D01*
X125833809Y-85211904D01*
X126024285Y-85259523D01*
X126119523Y-85307142D01*
X126214761Y-85402380D01*
X126262380Y-85545238D01*
X126262380Y-85783333D01*
X126262380Y-84783333D02*
X125262380Y-84783333D01*
X125262380Y-84545238D01*
X125310000Y-84402380D01*
X125405238Y-84307142D01*
X125500476Y-84259523D01*
X125690952Y-84211904D01*
X125833809Y-84211904D01*
X126024285Y-84259523D01*
X126119523Y-84307142D01*
X126214761Y-84402380D01*
X126262380Y-84545238D01*
X126262380Y-84783333D01*
X197913333Y-131182380D02*
X197580000Y-130706190D01*
X197341904Y-131182380D02*
X197341904Y-130182380D01*
X197722857Y-130182380D01*
X197818095Y-130230000D01*
X197865714Y-130277619D01*
X197913333Y-130372857D01*
X197913333Y-130515714D01*
X197865714Y-130610952D01*
X197818095Y-130658571D01*
X197722857Y-130706190D01*
X197341904Y-130706190D01*
X198246666Y-130182380D02*
X198913333Y-131182380D01*
X198913333Y-130182380D02*
X198246666Y-131182380D01*
X197268095Y-132722380D02*
X197839523Y-132722380D01*
X197553809Y-133722380D02*
X197553809Y-132722380D01*
X198077619Y-132722380D02*
X198744285Y-133722380D01*
X198744285Y-132722380D02*
X198077619Y-133722380D01*
X197038095Y-127630000D02*
X196942857Y-127582380D01*
X196800000Y-127582380D01*
X196657142Y-127630000D01*
X196561904Y-127725238D01*
X196514285Y-127820476D01*
X196466666Y-128010952D01*
X196466666Y-128153809D01*
X196514285Y-128344285D01*
X196561904Y-128439523D01*
X196657142Y-128534761D01*
X196800000Y-128582380D01*
X196895238Y-128582380D01*
X197038095Y-128534761D01*
X197085714Y-128487142D01*
X197085714Y-128153809D01*
X196895238Y-128153809D01*
X197514285Y-128582380D02*
X197514285Y-127582380D01*
X198085714Y-128582380D01*
X198085714Y-127582380D01*
X198561904Y-128582380D02*
X198561904Y-127582380D01*
X198800000Y-127582380D01*
X198942857Y-127630000D01*
X199038095Y-127725238D01*
X199085714Y-127820476D01*
X199133333Y-128010952D01*
X199133333Y-128153809D01*
X199085714Y-128344285D01*
X199038095Y-128439523D01*
X198942857Y-128534761D01*
X198800000Y-128582380D01*
X198561904Y-128582380D01*
X199619523Y-121572380D02*
X199952857Y-122572380D01*
X200286190Y-121572380D01*
X201048095Y-122524761D02*
X200952857Y-122572380D01*
X200762380Y-122572380D01*
X200667142Y-122524761D01*
X200619523Y-122477142D01*
X200571904Y-122381904D01*
X200571904Y-122096190D01*
X200619523Y-122000952D01*
X200667142Y-121953333D01*
X200762380Y-121905714D01*
X200952857Y-121905714D01*
X201048095Y-121953333D01*
X201905238Y-122524761D02*
X201810000Y-122572380D01*
X201619523Y-122572380D01*
X201524285Y-122524761D01*
X201476666Y-122477142D01*
X201429047Y-122381904D01*
X201429047Y-122096190D01*
X201476666Y-122000952D01*
X201524285Y-121953333D01*
X201619523Y-121905714D01*
X201810000Y-121905714D01*
X201905238Y-121953333D01*
X200082380Y-120752380D02*
X199749047Y-120276190D01*
X199510952Y-120752380D02*
X199510952Y-119752380D01*
X199891904Y-119752380D01*
X199987142Y-119800000D01*
X200034761Y-119847619D01*
X200082380Y-119942857D01*
X200082380Y-120085714D01*
X200034761Y-120180952D01*
X199987142Y-120228571D01*
X199891904Y-120276190D01*
X199510952Y-120276190D01*
X200463333Y-120704761D02*
X200606190Y-120752380D01*
X200844285Y-120752380D01*
X200939523Y-120704761D01*
X200987142Y-120657142D01*
X201034761Y-120561904D01*
X201034761Y-120466666D01*
X200987142Y-120371428D01*
X200939523Y-120323809D01*
X200844285Y-120276190D01*
X200653809Y-120228571D01*
X200558571Y-120180952D01*
X200510952Y-120133333D01*
X200463333Y-120038095D01*
X200463333Y-119942857D01*
X200510952Y-119847619D01*
X200558571Y-119800000D01*
X200653809Y-119752380D01*
X200891904Y-119752380D01*
X201034761Y-119800000D01*
X201320476Y-119752380D02*
X201891904Y-119752380D01*
X201606190Y-120752380D02*
X201606190Y-119752380D01*
X199958095Y-117840000D02*
X199862857Y-117792380D01*
X199720000Y-117792380D01*
X199577142Y-117840000D01*
X199481904Y-117935238D01*
X199434285Y-118030476D01*
X199386666Y-118220952D01*
X199386666Y-118363809D01*
X199434285Y-118554285D01*
X199481904Y-118649523D01*
X199577142Y-118744761D01*
X199720000Y-118792380D01*
X199815238Y-118792380D01*
X199958095Y-118744761D01*
X200005714Y-118697142D01*
X200005714Y-118363809D01*
X199815238Y-118363809D01*
X200434285Y-118792380D02*
X200434285Y-117792380D01*
X201005714Y-118792380D01*
X201005714Y-117792380D01*
X201481904Y-118792380D02*
X201481904Y-117792380D01*
X201720000Y-117792380D01*
X201862857Y-117840000D01*
X201958095Y-117935238D01*
X202005714Y-118030476D01*
X202053333Y-118220952D01*
X202053333Y-118363809D01*
X202005714Y-118554285D01*
X201958095Y-118649523D01*
X201862857Y-118744761D01*
X201720000Y-118792380D01*
X201481904Y-118792380D01*
X198968571Y-116772380D02*
X198968571Y-115772380D01*
X199301904Y-116486666D01*
X199635238Y-115772380D01*
X199635238Y-116772380D01*
X200111428Y-116772380D02*
X200111428Y-115772380D01*
X200540000Y-116724761D02*
X200682857Y-116772380D01*
X200920952Y-116772380D01*
X201016190Y-116724761D01*
X201063809Y-116677142D01*
X201111428Y-116581904D01*
X201111428Y-116486666D01*
X201063809Y-116391428D01*
X201016190Y-116343809D01*
X200920952Y-116296190D01*
X200730476Y-116248571D01*
X200635238Y-116200952D01*
X200587619Y-116153333D01*
X200540000Y-116058095D01*
X200540000Y-115962857D01*
X200587619Y-115867619D01*
X200635238Y-115820000D01*
X200730476Y-115772380D01*
X200968571Y-115772380D01*
X201111428Y-115820000D01*
X201730476Y-115772380D02*
X201920952Y-115772380D01*
X202016190Y-115820000D01*
X202111428Y-115915238D01*
X202159047Y-116105714D01*
X202159047Y-116439047D01*
X202111428Y-116629523D01*
X202016190Y-116724761D01*
X201920952Y-116772380D01*
X201730476Y-116772380D01*
X201635238Y-116724761D01*
X201540000Y-116629523D01*
X201492380Y-116439047D01*
X201492380Y-116105714D01*
X201540000Y-115915238D01*
X201635238Y-115820000D01*
X201730476Y-115772380D01*
X198998571Y-114772380D02*
X198998571Y-113772380D01*
X199331904Y-114486666D01*
X199665238Y-113772380D01*
X199665238Y-114772380D01*
X200331904Y-113772380D02*
X200522380Y-113772380D01*
X200617619Y-113820000D01*
X200712857Y-113915238D01*
X200760476Y-114105714D01*
X200760476Y-114439047D01*
X200712857Y-114629523D01*
X200617619Y-114724761D01*
X200522380Y-114772380D01*
X200331904Y-114772380D01*
X200236666Y-114724761D01*
X200141428Y-114629523D01*
X200093809Y-114439047D01*
X200093809Y-114105714D01*
X200141428Y-113915238D01*
X200236666Y-113820000D01*
X200331904Y-113772380D01*
X201141428Y-114724761D02*
X201284285Y-114772380D01*
X201522380Y-114772380D01*
X201617619Y-114724761D01*
X201665238Y-114677142D01*
X201712857Y-114581904D01*
X201712857Y-114486666D01*
X201665238Y-114391428D01*
X201617619Y-114343809D01*
X201522380Y-114296190D01*
X201331904Y-114248571D01*
X201236666Y-114200952D01*
X201189047Y-114153333D01*
X201141428Y-114058095D01*
X201141428Y-113962857D01*
X201189047Y-113867619D01*
X201236666Y-113820000D01*
X201331904Y-113772380D01*
X201570000Y-113772380D01*
X201712857Y-113820000D01*
X202141428Y-114772380D02*
X202141428Y-113772380D01*
X199374285Y-112644761D02*
X199517142Y-112692380D01*
X199755238Y-112692380D01*
X199850476Y-112644761D01*
X199898095Y-112597142D01*
X199945714Y-112501904D01*
X199945714Y-112406666D01*
X199898095Y-112311428D01*
X199850476Y-112263809D01*
X199755238Y-112216190D01*
X199564761Y-112168571D01*
X199469523Y-112120952D01*
X199421904Y-112073333D01*
X199374285Y-111978095D01*
X199374285Y-111882857D01*
X199421904Y-111787619D01*
X199469523Y-111740000D01*
X199564761Y-111692380D01*
X199802857Y-111692380D01*
X199945714Y-111740000D01*
X200945714Y-112597142D02*
X200898095Y-112644761D01*
X200755238Y-112692380D01*
X200660000Y-112692380D01*
X200517142Y-112644761D01*
X200421904Y-112549523D01*
X200374285Y-112454285D01*
X200326666Y-112263809D01*
X200326666Y-112120952D01*
X200374285Y-111930476D01*
X200421904Y-111835238D01*
X200517142Y-111740000D01*
X200660000Y-111692380D01*
X200755238Y-111692380D01*
X200898095Y-111740000D01*
X200945714Y-111787619D01*
X201374285Y-112692380D02*
X201374285Y-111692380D01*
X201945714Y-112692380D02*
X201517142Y-112120952D01*
X201945714Y-111692380D02*
X201374285Y-112263809D01*
X199365714Y-110594761D02*
X199508571Y-110642380D01*
X199746666Y-110642380D01*
X199841904Y-110594761D01*
X199889523Y-110547142D01*
X199937142Y-110451904D01*
X199937142Y-110356666D01*
X199889523Y-110261428D01*
X199841904Y-110213809D01*
X199746666Y-110166190D01*
X199556190Y-110118571D01*
X199460952Y-110070952D01*
X199413333Y-110023333D01*
X199365714Y-109928095D01*
X199365714Y-109832857D01*
X199413333Y-109737619D01*
X199460952Y-109690000D01*
X199556190Y-109642380D01*
X199794285Y-109642380D01*
X199937142Y-109690000D01*
X200365714Y-110642380D02*
X200365714Y-109642380D01*
X200603809Y-109642380D01*
X200746666Y-109690000D01*
X200841904Y-109785238D01*
X200889523Y-109880476D01*
X200937142Y-110070952D01*
X200937142Y-110213809D01*
X200889523Y-110404285D01*
X200841904Y-110499523D01*
X200746666Y-110594761D01*
X200603809Y-110642380D01*
X200365714Y-110642380D01*
X201318095Y-110356666D02*
X201794285Y-110356666D01*
X201222857Y-110642380D02*
X201556190Y-109642380D01*
X201889523Y-110642380D01*
D11*
%TO.C,D8*%
X144450000Y-127930000D02*
X147310000Y-127930000D01*
X147310000Y-127930000D02*
X147310000Y-126010000D01*
X147310000Y-126010000D02*
X144450000Y-126010000D01*
%TO.C,D7*%
X144360000Y-134120000D02*
X147220000Y-134120000D01*
X147220000Y-134120000D02*
X147220000Y-132200000D01*
X147220000Y-132200000D02*
X144360000Y-132200000D01*
%TO.C,D4*%
X154130000Y-106950000D02*
X151270000Y-106950000D01*
X151270000Y-106950000D02*
X151270000Y-108870000D01*
X151270000Y-108870000D02*
X154130000Y-108870000D01*
%TO.C,D3*%
X174260000Y-118180000D02*
X171400000Y-118180000D01*
X171400000Y-118180000D02*
X171400000Y-120100000D01*
X171400000Y-120100000D02*
X174260000Y-120100000D01*
%TO.C,D2*%
X174260000Y-112370000D02*
X171400000Y-112370000D01*
X171400000Y-112370000D02*
X171400000Y-114290000D01*
X171400000Y-114290000D02*
X174260000Y-114290000D01*
%TO.C,D1*%
X174170000Y-106420000D02*
X171310000Y-106420000D01*
X171310000Y-106420000D02*
X171310000Y-108340000D01*
X171310000Y-108340000D02*
X174170000Y-108340000D01*
%TO.C,C10*%
X203260000Y-142311252D02*
X203260000Y-140888748D01*
X205080000Y-142311252D02*
X205080000Y-140888748D01*
%TO.C,C9*%
X198120000Y-142251252D02*
X198120000Y-140828748D01*
X199940000Y-142251252D02*
X199940000Y-140828748D01*
%TO.C,C8*%
X174320000Y-142571252D02*
X174320000Y-141148748D01*
X176140000Y-142571252D02*
X176140000Y-141148748D01*
%TO.C,C7*%
X180220000Y-142551252D02*
X180220000Y-141128748D01*
X182040000Y-142551252D02*
X182040000Y-141128748D01*
%TO.C,C6*%
X168570000Y-142581252D02*
X168570000Y-141158748D01*
X170390000Y-142581252D02*
X170390000Y-141158748D01*
%TO.C,C5*%
X144550000Y-142781252D02*
X144550000Y-141358748D01*
X146370000Y-142781252D02*
X146370000Y-141358748D01*
%TO.C,C4*%
X150020000Y-142651252D02*
X150020000Y-141228748D01*
X151840000Y-142651252D02*
X151840000Y-141228748D01*
%TO.C,C3*%
X200141252Y-75690000D02*
X198718748Y-75690000D01*
X200141252Y-73870000D02*
X198718748Y-73870000D01*
%TO.C,C2*%
X208781252Y-75210000D02*
X207358748Y-75210000D01*
X208781252Y-73390000D02*
X207358748Y-73390000D01*
%TO.C,C1*%
X191448748Y-74140000D02*
X192871252Y-74140000D01*
X191448748Y-75960000D02*
X192871252Y-75960000D01*
D12*
%TO.C,U7*%
X126815200Y-145318600D02*
G75*
G02*
X127145400Y-145013800I304749J1114D01*
G01*
X126408800Y-144429600D02*
X126408800Y-145318600D01*
X127272400Y-142321400D02*
X126408800Y-142321400D01*
X126408800Y-142321400D02*
X126408800Y-143210400D01*
X126408800Y-145318600D02*
X126815200Y-145318600D01*
X126815200Y-145318600D02*
X127272400Y-145318600D01*
D11*
%TO.C,U6*%
X191980000Y-144670000D02*
X191980000Y-143410000D01*
X191980000Y-137850000D02*
X191980000Y-139110000D01*
X188220000Y-144670000D02*
X191980000Y-144670000D01*
X185970000Y-137850000D02*
X191980000Y-137850000D01*
%TO.C,U5*%
X161430000Y-145040000D02*
X161430000Y-143780000D01*
X161430000Y-138220000D02*
X161430000Y-139480000D01*
X157670000Y-145040000D02*
X161430000Y-145040000D01*
X155420000Y-138220000D02*
X161430000Y-138220000D01*
D12*
%TO.C,U4*%
X177034800Y-87841600D02*
X177034800Y-80018400D01*
X177034800Y-80018400D02*
X176704600Y-80018400D01*
X166265200Y-80018400D02*
X166265200Y-87841600D01*
X166265200Y-87841600D02*
X166595400Y-87841600D01*
X176704600Y-87841600D02*
X177034800Y-87841600D01*
X166595400Y-80018400D02*
X166265200Y-80018400D01*
D13*
G36*
X174634500Y-77750700D02*
G01*
X175015500Y-77750700D01*
X175015500Y-78004700D01*
X174634500Y-78004700D01*
X174634500Y-77750700D01*
G37*
X174634500Y-77750700D02*
X175015500Y-77750700D01*
X175015500Y-78004700D01*
X174634500Y-78004700D01*
X174634500Y-77750700D01*
D11*
%TO.C,U1*%
X186380000Y-83340000D02*
X185600000Y-83340000D01*
X185600000Y-83340000D02*
X185600000Y-84340000D01*
X186380000Y-101580000D02*
X185600000Y-101580000D01*
X185600000Y-101580000D02*
X185600000Y-100580000D01*
X211345000Y-83340000D02*
X211345000Y-101580000D01*
X211345000Y-101580000D02*
X204925000Y-101580000D01*
X211345000Y-83340000D02*
X204925000Y-83340000D01*
X204925000Y-83340000D02*
X204925000Y-82960000D01*
%TO.C,SW4*%
X139330000Y-144570000D02*
X140730000Y-144570000D01*
X140730000Y-144570000D02*
X140730000Y-148370000D01*
X131530000Y-148370000D02*
X131530000Y-144570000D01*
X131530000Y-144570000D02*
X132930000Y-144570000D01*
X137930000Y-144570000D02*
X136830000Y-144570000D01*
X136830000Y-144570000D02*
X136830000Y-144570000D01*
X135430000Y-144570000D02*
X134330000Y-144570000D01*
X134330000Y-144570000D02*
X134330000Y-144570000D01*
X140730000Y-148370000D02*
X139030000Y-148370000D01*
X139030000Y-148370000D02*
X139030000Y-148670000D01*
X139030000Y-148670000D02*
X138230000Y-148670000D01*
X138230000Y-148670000D02*
X138230000Y-148370000D01*
X138230000Y-148370000D02*
X136530000Y-148370000D01*
X136530000Y-148370000D02*
X136530000Y-148670000D01*
X136530000Y-148670000D02*
X135730000Y-148670000D01*
X135730000Y-148670000D02*
X135730000Y-148370000D01*
X135730000Y-148370000D02*
X134030000Y-148370000D01*
X134030000Y-148370000D02*
X134030000Y-148670000D01*
X134030000Y-148670000D02*
X133230000Y-148670000D01*
X133230000Y-148670000D02*
X133230000Y-148370000D01*
X133230000Y-148370000D02*
X131530000Y-148370000D01*
X131530000Y-148370000D02*
X131530000Y-148370000D01*
X134130000Y-150270000D02*
X134130000Y-149770000D01*
X134130000Y-149770000D02*
X134130000Y-149770000D01*
X134130000Y-150270000D02*
X134630000Y-150270000D01*
X134630000Y-150270000D02*
X134630000Y-150270000D01*
X138130000Y-150270000D02*
X137630000Y-150270000D01*
X137630000Y-150270000D02*
X137630000Y-150270000D01*
X138130000Y-150270000D02*
X138130000Y-149770000D01*
X138130000Y-149770000D02*
X138130000Y-149770000D01*
X138130000Y-149470000D02*
X138130000Y-148970000D01*
X138130000Y-148970000D02*
X138130000Y-148970000D01*
X134130000Y-149470000D02*
X134130000Y-148970000D01*
X134130000Y-148970000D02*
X134130000Y-148970000D01*
X134930000Y-150270000D02*
X135430000Y-150270000D01*
X135430000Y-150270000D02*
X135430000Y-150270000D01*
X137330000Y-150270000D02*
X136830000Y-150270000D01*
X136830000Y-150270000D02*
X136830000Y-150270000D01*
X136530000Y-150270000D02*
X135730000Y-150270000D01*
X135730000Y-150270000D02*
X135730000Y-150270000D01*
%TO.C,SW3*%
X210350000Y-70360000D02*
X206210000Y-70360000D01*
X206210000Y-67520000D02*
X206210000Y-67220000D01*
X206210000Y-67220000D02*
X210350000Y-67220000D01*
X210350000Y-70060000D02*
X210350000Y-70360000D01*
X210350000Y-67220000D02*
X210350000Y-67520000D01*
X206210000Y-70360000D02*
X206210000Y-70060000D01*
%TO.C,SW2*%
X189860000Y-66790000D02*
X194000000Y-66790000D01*
X194000000Y-69630000D02*
X194000000Y-69930000D01*
X194000000Y-69930000D02*
X189860000Y-69930000D01*
X189860000Y-67090000D02*
X189860000Y-66790000D01*
X189860000Y-69930000D02*
X189860000Y-69630000D01*
X194000000Y-66790000D02*
X194000000Y-67090000D01*
%TO.C,SW1*%
X197510000Y-66820000D02*
X201650000Y-66820000D01*
X201650000Y-69660000D02*
X201650000Y-69960000D01*
X201650000Y-69960000D02*
X197510000Y-69960000D01*
X197510000Y-67120000D02*
X197510000Y-66820000D01*
X197510000Y-69960000D02*
X197510000Y-69660000D01*
X201650000Y-66820000D02*
X201650000Y-67120000D01*
%TO.C,RV1*%
X114430000Y-89165000D02*
X114430000Y-79395000D01*
X119500000Y-89165000D02*
X119500000Y-79395000D01*
X114430000Y-89165000D02*
X119500000Y-89165000D01*
X114430000Y-79395000D02*
X119500000Y-79395000D01*
%TO.C,R19*%
X161267500Y-119942224D02*
X161267500Y-119432776D01*
X162312500Y-119942224D02*
X162312500Y-119432776D01*
%TO.C,R18*%
X158012500Y-119385276D02*
X158012500Y-119894724D01*
X156967500Y-119385276D02*
X156967500Y-119894724D01*
%TO.C,R17*%
X136295276Y-126227500D02*
X136804724Y-126227500D01*
X136295276Y-127272500D02*
X136804724Y-127272500D01*
%TO.C,R16*%
X136415276Y-130307500D02*
X136924724Y-130307500D01*
X136415276Y-131352500D02*
X136924724Y-131352500D01*
%TO.C,R15*%
X136402776Y-134457500D02*
X136912224Y-134457500D01*
X136402776Y-135502500D02*
X136912224Y-135502500D01*
%TO.C,R14*%
X166294724Y-113202500D02*
X165785276Y-113202500D01*
X166294724Y-112157500D02*
X165785276Y-112157500D01*
%TO.C,R13*%
X185215276Y-73327500D02*
X185724724Y-73327500D01*
X185215276Y-74372500D02*
X185724724Y-74372500D01*
%TO.C,R12*%
X182465276Y-118637500D02*
X182974724Y-118637500D01*
X182465276Y-119682500D02*
X182974724Y-119682500D01*
%TO.C,R11*%
X182405276Y-112777500D02*
X182914724Y-112777500D01*
X182405276Y-113822500D02*
X182914724Y-113822500D01*
%TO.C,R10*%
X181122500Y-125215276D02*
X181122500Y-125724724D01*
X180077500Y-125215276D02*
X180077500Y-125724724D01*
%TO.C,R9*%
X181112500Y-130835276D02*
X181112500Y-131344724D01*
X180067500Y-130835276D02*
X180067500Y-131344724D01*
%TO.C,R8*%
X154185276Y-92997500D02*
X154694724Y-92997500D01*
X154185276Y-94042500D02*
X154694724Y-94042500D01*
%TO.C,R7*%
X161905276Y-101697500D02*
X162414724Y-101697500D01*
X161905276Y-102742500D02*
X162414724Y-102742500D01*
%TO.C,R6*%
X161905276Y-97407500D02*
X162414724Y-97407500D01*
X161905276Y-98452500D02*
X162414724Y-98452500D01*
%TO.C,R5*%
X161865276Y-93227500D02*
X162374724Y-93227500D01*
X161865276Y-94272500D02*
X162374724Y-94272500D01*
%TO.C,R4*%
X169017500Y-125634724D02*
X169017500Y-125125276D01*
X170062500Y-125634724D02*
X170062500Y-125125276D01*
%TO.C,R3*%
X169017500Y-131504724D02*
X169017500Y-130995276D01*
X170062500Y-131504724D02*
X170062500Y-130995276D01*
%TO.C,R2*%
X182485276Y-106857500D02*
X182994724Y-106857500D01*
X182485276Y-107902500D02*
X182994724Y-107902500D01*
%TO.C,R1*%
X185222776Y-68817500D02*
X185732224Y-68817500D01*
X185222776Y-69862500D02*
X185732224Y-69862500D01*
%TO.C,Q4*%
X162298478Y-110691522D02*
G75*
G03*
X157860000Y-112530000I-1838478J-1838478D01*
G01*
X162298478Y-114368478D02*
G75*
G02*
X157860000Y-112530000I-1838478J1838478D01*
G01*
X162310000Y-114330000D02*
X162310000Y-110730000D01*
%TO.C,Q2*%
X176640000Y-124660000D02*
X175710000Y-124660000D01*
X173480000Y-124660000D02*
X174410000Y-124660000D01*
X173480000Y-124660000D02*
X173480000Y-126820000D01*
X176640000Y-124660000D02*
X176640000Y-126120000D01*
%TO.C,Q1*%
X176600000Y-130350000D02*
X175670000Y-130350000D01*
X173440000Y-130350000D02*
X174370000Y-130350000D01*
X173440000Y-130350000D02*
X173440000Y-132510000D01*
X176600000Y-130350000D02*
X176600000Y-131810000D01*
%TO.C,K1*%
X145930000Y-112320000D02*
X145930000Y-105720000D01*
X145930000Y-121320000D02*
X145930000Y-114720000D01*
X145930000Y-121320000D02*
X126130000Y-121320000D01*
X126130000Y-121320000D02*
X126130000Y-105720000D01*
X126130000Y-105720000D02*
X145930000Y-105720000D01*
X130380000Y-109320000D02*
X130380000Y-111770000D01*
X130380000Y-117720000D02*
X130380000Y-115220000D01*
X140980000Y-107470000D02*
X138480000Y-107470000D01*
X141880000Y-113470000D02*
X142680000Y-113470000D01*
X138480000Y-119470000D02*
X140980000Y-119470000D01*
X135080000Y-113470000D02*
X133580000Y-113470000D01*
X133580000Y-113470000D02*
X128980000Y-115970000D01*
X135080000Y-109870000D02*
X141880000Y-109870000D01*
X135080000Y-113470000D02*
X135080000Y-109870000D01*
X141880000Y-113470000D02*
X141880000Y-109870000D01*
X138480000Y-119470000D02*
X138480000Y-115270000D01*
X138480000Y-111670000D02*
X138480000Y-107470000D01*
X136480000Y-111670000D02*
X140480000Y-115270000D01*
X140480000Y-111670000D02*
X140480000Y-115270000D01*
X140480000Y-115270000D02*
X136480000Y-115270000D01*
X136480000Y-115270000D02*
X136480000Y-111670000D01*
X136480000Y-111670000D02*
X140480000Y-111670000D01*
%TO.C,J5*%
X121560000Y-107790000D02*
X121810000Y-107990000D01*
X121810000Y-107990000D02*
X121810000Y-109000000D01*
X121810000Y-109000000D02*
X120900000Y-109500000D01*
X120900000Y-109500000D02*
X120400000Y-109500000D01*
X120400000Y-109500000D02*
X120400000Y-109600000D01*
X120400000Y-109600000D02*
X114290000Y-109600000D01*
X114290000Y-109600000D02*
X114290000Y-106490000D01*
X121560000Y-105190000D02*
X121810000Y-104990000D01*
X121810000Y-104990000D02*
X121810000Y-103980000D01*
X121810000Y-103980000D02*
X120900000Y-103480000D01*
X120900000Y-103480000D02*
X120400000Y-103480000D01*
X120400000Y-103480000D02*
X120400000Y-103380000D01*
X120400000Y-103380000D02*
X114290000Y-103380000D01*
X114290000Y-103380000D02*
X114290000Y-106490000D01*
X121560000Y-107790000D02*
X121560000Y-107190000D01*
X121560000Y-107190000D02*
X121810000Y-106990000D01*
X121810000Y-106990000D02*
X121810000Y-105990000D01*
X121810000Y-105990000D02*
X121560000Y-105790000D01*
X121560000Y-105790000D02*
X121560000Y-105190000D01*
X122110000Y-107600000D02*
X122110000Y-109900000D01*
X122110000Y-109900000D02*
X119810000Y-109900000D01*
X114290000Y-109150000D02*
X118300000Y-109150000D01*
X118300000Y-109150000D02*
X118300000Y-103830000D01*
X118300000Y-103830000D02*
X114290000Y-103830000D01*
X118300000Y-107740000D02*
X115250000Y-107740000D01*
X115250000Y-107740000D02*
X115000000Y-107490000D01*
X115000000Y-107490000D02*
X115250000Y-107240000D01*
X115250000Y-107240000D02*
X118300000Y-107240000D01*
X118300000Y-105740000D02*
X115250000Y-105740000D01*
X115250000Y-105740000D02*
X115000000Y-105490000D01*
X115000000Y-105490000D02*
X115250000Y-105240000D01*
X115250000Y-105240000D02*
X118300000Y-105240000D01*
%TO.C,J4*%
X121230000Y-140960000D02*
X121480000Y-141160000D01*
X121480000Y-141160000D02*
X121480000Y-142170000D01*
X121480000Y-142170000D02*
X120570000Y-142670000D01*
X120570000Y-142670000D02*
X120070000Y-142670000D01*
X120070000Y-142670000D02*
X120070000Y-142770000D01*
X120070000Y-142770000D02*
X113960000Y-142770000D01*
X113960000Y-142770000D02*
X113960000Y-139660000D01*
X121230000Y-138360000D02*
X121480000Y-138160000D01*
X121480000Y-138160000D02*
X121480000Y-137150000D01*
X121480000Y-137150000D02*
X120570000Y-136650000D01*
X120570000Y-136650000D02*
X120070000Y-136650000D01*
X120070000Y-136650000D02*
X120070000Y-136550000D01*
X120070000Y-136550000D02*
X113960000Y-136550000D01*
X113960000Y-136550000D02*
X113960000Y-139660000D01*
X121230000Y-140960000D02*
X121230000Y-140360000D01*
X121230000Y-140360000D02*
X121480000Y-140160000D01*
X121480000Y-140160000D02*
X121480000Y-139160000D01*
X121480000Y-139160000D02*
X121230000Y-138960000D01*
X121230000Y-138960000D02*
X121230000Y-138360000D01*
X121780000Y-140770000D02*
X121780000Y-143070000D01*
X121780000Y-143070000D02*
X119480000Y-143070000D01*
X113960000Y-142320000D02*
X117970000Y-142320000D01*
X117970000Y-142320000D02*
X117970000Y-137000000D01*
X117970000Y-137000000D02*
X113960000Y-137000000D01*
X117970000Y-140910000D02*
X114920000Y-140910000D01*
X114920000Y-140910000D02*
X114670000Y-140660000D01*
X114670000Y-140660000D02*
X114920000Y-140410000D01*
X114920000Y-140410000D02*
X117970000Y-140410000D01*
X117970000Y-138910000D02*
X114920000Y-138910000D01*
X114920000Y-138910000D02*
X114670000Y-138660000D01*
X114670000Y-138660000D02*
X114920000Y-138410000D01*
X114920000Y-138410000D02*
X117970000Y-138410000D01*
%TO.C,J3*%
X121540000Y-129610000D02*
X121790000Y-129810000D01*
X121790000Y-129810000D02*
X121790000Y-130820000D01*
X121790000Y-130820000D02*
X120880000Y-131320000D01*
X120880000Y-131320000D02*
X120380000Y-131320000D01*
X120380000Y-131320000D02*
X120380000Y-131420000D01*
X120380000Y-131420000D02*
X114270000Y-131420000D01*
X114270000Y-131420000D02*
X114270000Y-128310000D01*
X121540000Y-127010000D02*
X121790000Y-126810000D01*
X121790000Y-126810000D02*
X121790000Y-125800000D01*
X121790000Y-125800000D02*
X120880000Y-125300000D01*
X120880000Y-125300000D02*
X120380000Y-125300000D01*
X120380000Y-125300000D02*
X120380000Y-125200000D01*
X120380000Y-125200000D02*
X114270000Y-125200000D01*
X114270000Y-125200000D02*
X114270000Y-128310000D01*
X121540000Y-129610000D02*
X121540000Y-129010000D01*
X121540000Y-129010000D02*
X121790000Y-128810000D01*
X121790000Y-128810000D02*
X121790000Y-127810000D01*
X121790000Y-127810000D02*
X121540000Y-127610000D01*
X121540000Y-127610000D02*
X121540000Y-127010000D01*
X122090000Y-129420000D02*
X122090000Y-131720000D01*
X122090000Y-131720000D02*
X119790000Y-131720000D01*
X114270000Y-130970000D02*
X118280000Y-130970000D01*
X118280000Y-130970000D02*
X118280000Y-125650000D01*
X118280000Y-125650000D02*
X114270000Y-125650000D01*
X118280000Y-129560000D02*
X115230000Y-129560000D01*
X115230000Y-129560000D02*
X114980000Y-129310000D01*
X114980000Y-129310000D02*
X115230000Y-129060000D01*
X115230000Y-129060000D02*
X118280000Y-129060000D01*
X118280000Y-127560000D02*
X115230000Y-127560000D01*
X115230000Y-127560000D02*
X114980000Y-127310000D01*
X114980000Y-127310000D02*
X115230000Y-127060000D01*
X115230000Y-127060000D02*
X118280000Y-127060000D01*
%TO.C,J2*%
X202660000Y-109970000D02*
X202410000Y-109770000D01*
X202410000Y-109770000D02*
X202410000Y-108760000D01*
X202410000Y-108760000D02*
X203320000Y-108260000D01*
X203320000Y-108260000D02*
X203820000Y-108260000D01*
X203820000Y-108260000D02*
X203820000Y-108160000D01*
X203820000Y-108160000D02*
X209930000Y-108160000D01*
X209930000Y-108160000D02*
X209930000Y-116270000D01*
X202660000Y-122570000D02*
X202410000Y-122770000D01*
X202410000Y-122770000D02*
X202410000Y-123780000D01*
X202410000Y-123780000D02*
X203320000Y-124280000D01*
X203320000Y-124280000D02*
X203820000Y-124280000D01*
X203820000Y-124280000D02*
X203820000Y-124380000D01*
X203820000Y-124380000D02*
X209930000Y-124380000D01*
X209930000Y-124380000D02*
X209930000Y-116270000D01*
X202660000Y-109970000D02*
X202660000Y-110570000D01*
X202660000Y-110570000D02*
X202410000Y-110770000D01*
X202410000Y-110770000D02*
X202410000Y-111770000D01*
X202410000Y-111770000D02*
X202660000Y-111970000D01*
X202660000Y-111970000D02*
X202660000Y-112570000D01*
X202660000Y-112570000D02*
X202410000Y-112770000D01*
X202410000Y-112770000D02*
X202410000Y-113770000D01*
X202410000Y-113770000D02*
X202660000Y-113970000D01*
X202660000Y-113970000D02*
X202660000Y-114570000D01*
X202660000Y-114570000D02*
X202410000Y-114770000D01*
X202410000Y-114770000D02*
X202410000Y-115770000D01*
X202410000Y-115770000D02*
X202660000Y-115970000D01*
X202660000Y-115970000D02*
X202660000Y-116570000D01*
X202660000Y-116570000D02*
X202410000Y-116770000D01*
X202410000Y-116770000D02*
X202410000Y-117770000D01*
X202410000Y-117770000D02*
X202660000Y-117970000D01*
X202660000Y-117970000D02*
X202660000Y-118570000D01*
X202660000Y-118570000D02*
X202410000Y-118770000D01*
X202410000Y-118770000D02*
X202410000Y-119770000D01*
X202410000Y-119770000D02*
X202660000Y-119970000D01*
X202660000Y-119970000D02*
X202660000Y-120570000D01*
X202660000Y-120570000D02*
X202410000Y-120770000D01*
X202410000Y-120770000D02*
X202410000Y-121770000D01*
X202410000Y-121770000D02*
X202660000Y-121970000D01*
X202660000Y-121970000D02*
X202660000Y-122570000D01*
X202110000Y-110160000D02*
X202110000Y-107860000D01*
X202110000Y-107860000D02*
X204410000Y-107860000D01*
X209930000Y-108610000D02*
X205920000Y-108610000D01*
X205920000Y-108610000D02*
X205920000Y-123930000D01*
X205920000Y-123930000D02*
X209930000Y-123930000D01*
X205920000Y-110020000D02*
X208970000Y-110020000D01*
X208970000Y-110020000D02*
X209220000Y-110270000D01*
X209220000Y-110270000D02*
X208970000Y-110520000D01*
X208970000Y-110520000D02*
X205920000Y-110520000D01*
X205920000Y-112020000D02*
X208970000Y-112020000D01*
X208970000Y-112020000D02*
X209220000Y-112270000D01*
X209220000Y-112270000D02*
X208970000Y-112520000D01*
X208970000Y-112520000D02*
X205920000Y-112520000D01*
X205920000Y-114020000D02*
X208970000Y-114020000D01*
X208970000Y-114020000D02*
X209220000Y-114270000D01*
X209220000Y-114270000D02*
X208970000Y-114520000D01*
X208970000Y-114520000D02*
X205920000Y-114520000D01*
X205920000Y-116020000D02*
X208970000Y-116020000D01*
X208970000Y-116020000D02*
X209220000Y-116270000D01*
X209220000Y-116270000D02*
X208970000Y-116520000D01*
X208970000Y-116520000D02*
X205920000Y-116520000D01*
X205920000Y-118020000D02*
X208970000Y-118020000D01*
X208970000Y-118020000D02*
X209220000Y-118270000D01*
X209220000Y-118270000D02*
X208970000Y-118520000D01*
X208970000Y-118520000D02*
X205920000Y-118520000D01*
X205920000Y-120020000D02*
X208970000Y-120020000D01*
X208970000Y-120020000D02*
X209220000Y-120270000D01*
X209220000Y-120270000D02*
X208970000Y-120520000D01*
X208970000Y-120520000D02*
X205920000Y-120520000D01*
X205920000Y-122020000D02*
X208970000Y-122020000D01*
X208970000Y-122020000D02*
X209220000Y-122270000D01*
X209220000Y-122270000D02*
X208970000Y-122520000D01*
X208970000Y-122520000D02*
X205920000Y-122520000D01*
%TO.C,J1*%
X210610000Y-134430000D02*
X201980000Y-134430000D01*
X210610000Y-134311905D02*
X201980000Y-134311905D01*
X210610000Y-134193810D02*
X201980000Y-134193810D01*
X210610000Y-134075715D02*
X201980000Y-134075715D01*
X210610000Y-133957620D02*
X201980000Y-133957620D01*
X210610000Y-133839525D02*
X201980000Y-133839525D01*
X210610000Y-133721430D02*
X201980000Y-133721430D01*
X210610000Y-133603335D02*
X201980000Y-133603335D01*
X210610000Y-133485240D02*
X201980000Y-133485240D01*
X210610000Y-133367145D02*
X201980000Y-133367145D01*
X210610000Y-133249050D02*
X201980000Y-133249050D01*
X210610000Y-133130955D02*
X201980000Y-133130955D01*
X210610000Y-133012860D02*
X201980000Y-133012860D01*
X210610000Y-132894765D02*
X201980000Y-132894765D01*
X210610000Y-132776670D02*
X201980000Y-132776670D01*
X210610000Y-132658575D02*
X201980000Y-132658575D01*
X210610000Y-132540480D02*
X201980000Y-132540480D01*
X210610000Y-132422385D02*
X201980000Y-132422385D01*
X210610000Y-132304290D02*
X201980000Y-132304290D01*
X210610000Y-132186195D02*
X201980000Y-132186195D01*
X210610000Y-132068100D02*
X201980000Y-132068100D01*
X201980000Y-133580000D02*
X201630000Y-133580000D01*
X201980000Y-132860000D02*
X201630000Y-132860000D01*
X201980000Y-131040000D02*
X201570000Y-131040000D01*
X201980000Y-130320000D02*
X201570000Y-130320000D01*
X201980000Y-128500000D02*
X201570000Y-128500000D01*
X201980000Y-127780000D02*
X201570000Y-127780000D01*
X210610000Y-131950000D02*
X201980000Y-131950000D01*
X210610000Y-129410000D02*
X201980000Y-129410000D01*
X210610000Y-134550000D02*
X201980000Y-134550000D01*
X201980000Y-134550000D02*
X201980000Y-126810000D01*
X210610000Y-126810000D02*
X201980000Y-126810000D01*
X210610000Y-134550000D02*
X210610000Y-126810000D01*
X199410000Y-134550000D02*
X199410000Y-133220000D01*
X200520000Y-134550000D02*
X199410000Y-134550000D01*
%TO.C,F1*%
X126713748Y-127580000D02*
X129486252Y-127580000D01*
X126713748Y-131000000D02*
X129486252Y-131000000D01*
%TO.C,D6*%
X126010000Y-134370000D02*
X126010000Y-136370000D01*
X126010000Y-136370000D02*
X129860000Y-136370000D01*
X126010000Y-134370000D02*
X129860000Y-134370000D01*
%TO.C,D5*%
X151440000Y-121210000D02*
X153440000Y-121210000D01*
X153440000Y-121210000D02*
X153440000Y-117310000D01*
X151440000Y-121210000D02*
X151440000Y-117310000D01*
%TO.C,D8*%
D10*
X144711904Y-129072380D02*
X144711904Y-128072380D01*
X144950000Y-128072380D01*
X145092857Y-128120000D01*
X145188095Y-128215238D01*
X145235714Y-128310476D01*
X145283333Y-128500952D01*
X145283333Y-128643809D01*
X145235714Y-128834285D01*
X145188095Y-128929523D01*
X145092857Y-129024761D01*
X144950000Y-129072380D01*
X144711904Y-129072380D01*
X145854761Y-128500952D02*
X145759523Y-128453333D01*
X145711904Y-128405714D01*
X145664285Y-128310476D01*
X145664285Y-128262857D01*
X145711904Y-128167619D01*
X145759523Y-128120000D01*
X145854761Y-128072380D01*
X146045238Y-128072380D01*
X146140476Y-128120000D01*
X146188095Y-128167619D01*
X146235714Y-128262857D01*
X146235714Y-128310476D01*
X146188095Y-128405714D01*
X146140476Y-128453333D01*
X146045238Y-128500952D01*
X145854761Y-128500952D01*
X145759523Y-128548571D01*
X145711904Y-128596190D01*
X145664285Y-128691428D01*
X145664285Y-128881904D01*
X145711904Y-128977142D01*
X145759523Y-129024761D01*
X145854761Y-129072380D01*
X146045238Y-129072380D01*
X146140476Y-129024761D01*
X146188095Y-128977142D01*
X146235714Y-128881904D01*
X146235714Y-128691428D01*
X146188095Y-128596190D01*
X146140476Y-128548571D01*
X146045238Y-128500952D01*
%TO.C,D7*%
X144621904Y-135262380D02*
X144621904Y-134262380D01*
X144860000Y-134262380D01*
X145002857Y-134310000D01*
X145098095Y-134405238D01*
X145145714Y-134500476D01*
X145193333Y-134690952D01*
X145193333Y-134833809D01*
X145145714Y-135024285D01*
X145098095Y-135119523D01*
X145002857Y-135214761D01*
X144860000Y-135262380D01*
X144621904Y-135262380D01*
X145526666Y-134262380D02*
X146193333Y-134262380D01*
X145764761Y-135262380D01*
%TO.C,D4*%
X152391904Y-106712380D02*
X152391904Y-105712380D01*
X152630000Y-105712380D01*
X152772857Y-105760000D01*
X152868095Y-105855238D01*
X152915714Y-105950476D01*
X152963333Y-106140952D01*
X152963333Y-106283809D01*
X152915714Y-106474285D01*
X152868095Y-106569523D01*
X152772857Y-106664761D01*
X152630000Y-106712380D01*
X152391904Y-106712380D01*
X153820476Y-106045714D02*
X153820476Y-106712380D01*
X153582380Y-105664761D02*
X153344285Y-106379047D01*
X153963333Y-106379047D01*
%TO.C,D3*%
X172521904Y-117942380D02*
X172521904Y-116942380D01*
X172760000Y-116942380D01*
X172902857Y-116990000D01*
X172998095Y-117085238D01*
X173045714Y-117180476D01*
X173093333Y-117370952D01*
X173093333Y-117513809D01*
X173045714Y-117704285D01*
X172998095Y-117799523D01*
X172902857Y-117894761D01*
X172760000Y-117942380D01*
X172521904Y-117942380D01*
X173426666Y-116942380D02*
X174045714Y-116942380D01*
X173712380Y-117323333D01*
X173855238Y-117323333D01*
X173950476Y-117370952D01*
X173998095Y-117418571D01*
X174045714Y-117513809D01*
X174045714Y-117751904D01*
X173998095Y-117847142D01*
X173950476Y-117894761D01*
X173855238Y-117942380D01*
X173569523Y-117942380D01*
X173474285Y-117894761D01*
X173426666Y-117847142D01*
%TO.C,D2*%
X172521904Y-112132380D02*
X172521904Y-111132380D01*
X172760000Y-111132380D01*
X172902857Y-111180000D01*
X172998095Y-111275238D01*
X173045714Y-111370476D01*
X173093333Y-111560952D01*
X173093333Y-111703809D01*
X173045714Y-111894285D01*
X172998095Y-111989523D01*
X172902857Y-112084761D01*
X172760000Y-112132380D01*
X172521904Y-112132380D01*
X173474285Y-111227619D02*
X173521904Y-111180000D01*
X173617142Y-111132380D01*
X173855238Y-111132380D01*
X173950476Y-111180000D01*
X173998095Y-111227619D01*
X174045714Y-111322857D01*
X174045714Y-111418095D01*
X173998095Y-111560952D01*
X173426666Y-112132380D01*
X174045714Y-112132380D01*
%TO.C,D1*%
X172431904Y-106182380D02*
X172431904Y-105182380D01*
X172670000Y-105182380D01*
X172812857Y-105230000D01*
X172908095Y-105325238D01*
X172955714Y-105420476D01*
X173003333Y-105610952D01*
X173003333Y-105753809D01*
X172955714Y-105944285D01*
X172908095Y-106039523D01*
X172812857Y-106134761D01*
X172670000Y-106182380D01*
X172431904Y-106182380D01*
X173955714Y-106182380D02*
X173384285Y-106182380D01*
X173670000Y-106182380D02*
X173670000Y-105182380D01*
X173574761Y-105325238D01*
X173479523Y-105420476D01*
X173384285Y-105468095D01*
%TO.C,C10*%
X202677142Y-142242857D02*
X202724761Y-142290476D01*
X202772380Y-142433333D01*
X202772380Y-142528571D01*
X202724761Y-142671428D01*
X202629523Y-142766666D01*
X202534285Y-142814285D01*
X202343809Y-142861904D01*
X202200952Y-142861904D01*
X202010476Y-142814285D01*
X201915238Y-142766666D01*
X201820000Y-142671428D01*
X201772380Y-142528571D01*
X201772380Y-142433333D01*
X201820000Y-142290476D01*
X201867619Y-142242857D01*
X202772380Y-141290476D02*
X202772380Y-141861904D01*
X202772380Y-141576190D02*
X201772380Y-141576190D01*
X201915238Y-141671428D01*
X202010476Y-141766666D01*
X202058095Y-141861904D01*
X201772380Y-140671428D02*
X201772380Y-140576190D01*
X201820000Y-140480952D01*
X201867619Y-140433333D01*
X201962857Y-140385714D01*
X202153333Y-140338095D01*
X202391428Y-140338095D01*
X202581904Y-140385714D01*
X202677142Y-140433333D01*
X202724761Y-140480952D01*
X202772380Y-140576190D01*
X202772380Y-140671428D01*
X202724761Y-140766666D01*
X202677142Y-140814285D01*
X202581904Y-140861904D01*
X202391428Y-140909523D01*
X202153333Y-140909523D01*
X201962857Y-140861904D01*
X201867619Y-140814285D01*
X201820000Y-140766666D01*
X201772380Y-140671428D01*
%TO.C,C9*%
X197537142Y-141706666D02*
X197584761Y-141754285D01*
X197632380Y-141897142D01*
X197632380Y-141992380D01*
X197584761Y-142135238D01*
X197489523Y-142230476D01*
X197394285Y-142278095D01*
X197203809Y-142325714D01*
X197060952Y-142325714D01*
X196870476Y-142278095D01*
X196775238Y-142230476D01*
X196680000Y-142135238D01*
X196632380Y-141992380D01*
X196632380Y-141897142D01*
X196680000Y-141754285D01*
X196727619Y-141706666D01*
X197632380Y-141230476D02*
X197632380Y-141040000D01*
X197584761Y-140944761D01*
X197537142Y-140897142D01*
X197394285Y-140801904D01*
X197203809Y-140754285D01*
X196822857Y-140754285D01*
X196727619Y-140801904D01*
X196680000Y-140849523D01*
X196632380Y-140944761D01*
X196632380Y-141135238D01*
X196680000Y-141230476D01*
X196727619Y-141278095D01*
X196822857Y-141325714D01*
X197060952Y-141325714D01*
X197156190Y-141278095D01*
X197203809Y-141230476D01*
X197251428Y-141135238D01*
X197251428Y-140944761D01*
X197203809Y-140849523D01*
X197156190Y-140801904D01*
X197060952Y-140754285D01*
%TO.C,C8*%
X173737142Y-142026666D02*
X173784761Y-142074285D01*
X173832380Y-142217142D01*
X173832380Y-142312380D01*
X173784761Y-142455238D01*
X173689523Y-142550476D01*
X173594285Y-142598095D01*
X173403809Y-142645714D01*
X173260952Y-142645714D01*
X173070476Y-142598095D01*
X172975238Y-142550476D01*
X172880000Y-142455238D01*
X172832380Y-142312380D01*
X172832380Y-142217142D01*
X172880000Y-142074285D01*
X172927619Y-142026666D01*
X173260952Y-141455238D02*
X173213333Y-141550476D01*
X173165714Y-141598095D01*
X173070476Y-141645714D01*
X173022857Y-141645714D01*
X172927619Y-141598095D01*
X172880000Y-141550476D01*
X172832380Y-141455238D01*
X172832380Y-141264761D01*
X172880000Y-141169523D01*
X172927619Y-141121904D01*
X173022857Y-141074285D01*
X173070476Y-141074285D01*
X173165714Y-141121904D01*
X173213333Y-141169523D01*
X173260952Y-141264761D01*
X173260952Y-141455238D01*
X173308571Y-141550476D01*
X173356190Y-141598095D01*
X173451428Y-141645714D01*
X173641904Y-141645714D01*
X173737142Y-141598095D01*
X173784761Y-141550476D01*
X173832380Y-141455238D01*
X173832380Y-141264761D01*
X173784761Y-141169523D01*
X173737142Y-141121904D01*
X173641904Y-141074285D01*
X173451428Y-141074285D01*
X173356190Y-141121904D01*
X173308571Y-141169523D01*
X173260952Y-141264761D01*
%TO.C,C7*%
X179637142Y-142006666D02*
X179684761Y-142054285D01*
X179732380Y-142197142D01*
X179732380Y-142292380D01*
X179684761Y-142435238D01*
X179589523Y-142530476D01*
X179494285Y-142578095D01*
X179303809Y-142625714D01*
X179160952Y-142625714D01*
X178970476Y-142578095D01*
X178875238Y-142530476D01*
X178780000Y-142435238D01*
X178732380Y-142292380D01*
X178732380Y-142197142D01*
X178780000Y-142054285D01*
X178827619Y-142006666D01*
X178732380Y-141673333D02*
X178732380Y-141006666D01*
X179732380Y-141435238D01*
%TO.C,C6*%
X167987142Y-142036666D02*
X168034761Y-142084285D01*
X168082380Y-142227142D01*
X168082380Y-142322380D01*
X168034761Y-142465238D01*
X167939523Y-142560476D01*
X167844285Y-142608095D01*
X167653809Y-142655714D01*
X167510952Y-142655714D01*
X167320476Y-142608095D01*
X167225238Y-142560476D01*
X167130000Y-142465238D01*
X167082380Y-142322380D01*
X167082380Y-142227142D01*
X167130000Y-142084285D01*
X167177619Y-142036666D01*
X167082380Y-141179523D02*
X167082380Y-141370000D01*
X167130000Y-141465238D01*
X167177619Y-141512857D01*
X167320476Y-141608095D01*
X167510952Y-141655714D01*
X167891904Y-141655714D01*
X167987142Y-141608095D01*
X168034761Y-141560476D01*
X168082380Y-141465238D01*
X168082380Y-141274761D01*
X168034761Y-141179523D01*
X167987142Y-141131904D01*
X167891904Y-141084285D01*
X167653809Y-141084285D01*
X167558571Y-141131904D01*
X167510952Y-141179523D01*
X167463333Y-141274761D01*
X167463333Y-141465238D01*
X167510952Y-141560476D01*
X167558571Y-141608095D01*
X167653809Y-141655714D01*
%TO.C,C5*%
X143967142Y-142236666D02*
X144014761Y-142284285D01*
X144062380Y-142427142D01*
X144062380Y-142522380D01*
X144014761Y-142665238D01*
X143919523Y-142760476D01*
X143824285Y-142808095D01*
X143633809Y-142855714D01*
X143490952Y-142855714D01*
X143300476Y-142808095D01*
X143205238Y-142760476D01*
X143110000Y-142665238D01*
X143062380Y-142522380D01*
X143062380Y-142427142D01*
X143110000Y-142284285D01*
X143157619Y-142236666D01*
X143062380Y-141331904D02*
X143062380Y-141808095D01*
X143538571Y-141855714D01*
X143490952Y-141808095D01*
X143443333Y-141712857D01*
X143443333Y-141474761D01*
X143490952Y-141379523D01*
X143538571Y-141331904D01*
X143633809Y-141284285D01*
X143871904Y-141284285D01*
X143967142Y-141331904D01*
X144014761Y-141379523D01*
X144062380Y-141474761D01*
X144062380Y-141712857D01*
X144014761Y-141808095D01*
X143967142Y-141855714D01*
%TO.C,C4*%
X149437142Y-142106666D02*
X149484761Y-142154285D01*
X149532380Y-142297142D01*
X149532380Y-142392380D01*
X149484761Y-142535238D01*
X149389523Y-142630476D01*
X149294285Y-142678095D01*
X149103809Y-142725714D01*
X148960952Y-142725714D01*
X148770476Y-142678095D01*
X148675238Y-142630476D01*
X148580000Y-142535238D01*
X148532380Y-142392380D01*
X148532380Y-142297142D01*
X148580000Y-142154285D01*
X148627619Y-142106666D01*
X148865714Y-141249523D02*
X149532380Y-141249523D01*
X148484761Y-141487619D02*
X149199047Y-141725714D01*
X149199047Y-141106666D01*
%TO.C,C3*%
X199263333Y-76987142D02*
X199215714Y-77034761D01*
X199072857Y-77082380D01*
X198977619Y-77082380D01*
X198834761Y-77034761D01*
X198739523Y-76939523D01*
X198691904Y-76844285D01*
X198644285Y-76653809D01*
X198644285Y-76510952D01*
X198691904Y-76320476D01*
X198739523Y-76225238D01*
X198834761Y-76130000D01*
X198977619Y-76082380D01*
X199072857Y-76082380D01*
X199215714Y-76130000D01*
X199263333Y-76177619D01*
X199596666Y-76082380D02*
X200215714Y-76082380D01*
X199882380Y-76463333D01*
X200025238Y-76463333D01*
X200120476Y-76510952D01*
X200168095Y-76558571D01*
X200215714Y-76653809D01*
X200215714Y-76891904D01*
X200168095Y-76987142D01*
X200120476Y-77034761D01*
X200025238Y-77082380D01*
X199739523Y-77082380D01*
X199644285Y-77034761D01*
X199596666Y-76987142D01*
%TO.C,C2*%
X207903333Y-76507142D02*
X207855714Y-76554761D01*
X207712857Y-76602380D01*
X207617619Y-76602380D01*
X207474761Y-76554761D01*
X207379523Y-76459523D01*
X207331904Y-76364285D01*
X207284285Y-76173809D01*
X207284285Y-76030952D01*
X207331904Y-75840476D01*
X207379523Y-75745238D01*
X207474761Y-75650000D01*
X207617619Y-75602380D01*
X207712857Y-75602380D01*
X207855714Y-75650000D01*
X207903333Y-75697619D01*
X208284285Y-75697619D02*
X208331904Y-75650000D01*
X208427142Y-75602380D01*
X208665238Y-75602380D01*
X208760476Y-75650000D01*
X208808095Y-75697619D01*
X208855714Y-75792857D01*
X208855714Y-75888095D01*
X208808095Y-76030952D01*
X208236666Y-76602380D01*
X208855714Y-76602380D01*
%TO.C,C1*%
X191993333Y-73557142D02*
X191945714Y-73604761D01*
X191802857Y-73652380D01*
X191707619Y-73652380D01*
X191564761Y-73604761D01*
X191469523Y-73509523D01*
X191421904Y-73414285D01*
X191374285Y-73223809D01*
X191374285Y-73080952D01*
X191421904Y-72890476D01*
X191469523Y-72795238D01*
X191564761Y-72700000D01*
X191707619Y-72652380D01*
X191802857Y-72652380D01*
X191945714Y-72700000D01*
X191993333Y-72747619D01*
X192945714Y-73652380D02*
X192374285Y-73652380D01*
X192660000Y-73652380D02*
X192660000Y-72652380D01*
X192564761Y-72795238D01*
X192469523Y-72890476D01*
X192374285Y-72938095D01*
%TO.C,REF\u002A\u002A*%
X114316666Y-145422380D02*
X113983333Y-144946190D01*
X113745238Y-145422380D02*
X113745238Y-144422380D01*
X114126190Y-144422380D01*
X114221428Y-144470000D01*
X114269047Y-144517619D01*
X114316666Y-144612857D01*
X114316666Y-144755714D01*
X114269047Y-144850952D01*
X114221428Y-144898571D01*
X114126190Y-144946190D01*
X113745238Y-144946190D01*
X114745238Y-144898571D02*
X115078571Y-144898571D01*
X115221428Y-145422380D02*
X114745238Y-145422380D01*
X114745238Y-144422380D01*
X115221428Y-144422380D01*
X115983333Y-144898571D02*
X115650000Y-144898571D01*
X115650000Y-145422380D02*
X115650000Y-144422380D01*
X116126190Y-144422380D01*
X116650000Y-144422380D02*
X116650000Y-144660476D01*
X116411904Y-144565238D02*
X116650000Y-144660476D01*
X116888095Y-144565238D01*
X116507142Y-144850952D02*
X116650000Y-144660476D01*
X116792857Y-144850952D01*
X117411904Y-144422380D02*
X117411904Y-144660476D01*
X117173809Y-144565238D02*
X117411904Y-144660476D01*
X117650000Y-144565238D01*
X117269047Y-144850952D02*
X117411904Y-144660476D01*
X117554761Y-144850952D01*
X206336666Y-145502380D02*
X206003333Y-145026190D01*
X205765238Y-145502380D02*
X205765238Y-144502380D01*
X206146190Y-144502380D01*
X206241428Y-144550000D01*
X206289047Y-144597619D01*
X206336666Y-144692857D01*
X206336666Y-144835714D01*
X206289047Y-144930952D01*
X206241428Y-144978571D01*
X206146190Y-145026190D01*
X205765238Y-145026190D01*
X206765238Y-144978571D02*
X207098571Y-144978571D01*
X207241428Y-145502380D02*
X206765238Y-145502380D01*
X206765238Y-144502380D01*
X207241428Y-144502380D01*
X208003333Y-144978571D02*
X207670000Y-144978571D01*
X207670000Y-145502380D02*
X207670000Y-144502380D01*
X208146190Y-144502380D01*
X208670000Y-144502380D02*
X208670000Y-144740476D01*
X208431904Y-144645238D02*
X208670000Y-144740476D01*
X208908095Y-144645238D01*
X208527142Y-144930952D02*
X208670000Y-144740476D01*
X208812857Y-144930952D01*
X209431904Y-144502380D02*
X209431904Y-144740476D01*
X209193809Y-144645238D02*
X209431904Y-144740476D01*
X209670000Y-144645238D01*
X209289047Y-144930952D02*
X209431904Y-144740476D01*
X209574761Y-144930952D01*
X206356666Y-59312380D02*
X206023333Y-58836190D01*
X205785238Y-59312380D02*
X205785238Y-58312380D01*
X206166190Y-58312380D01*
X206261428Y-58360000D01*
X206309047Y-58407619D01*
X206356666Y-58502857D01*
X206356666Y-58645714D01*
X206309047Y-58740952D01*
X206261428Y-58788571D01*
X206166190Y-58836190D01*
X205785238Y-58836190D01*
X206785238Y-58788571D02*
X207118571Y-58788571D01*
X207261428Y-59312380D02*
X206785238Y-59312380D01*
X206785238Y-58312380D01*
X207261428Y-58312380D01*
X208023333Y-58788571D02*
X207690000Y-58788571D01*
X207690000Y-59312380D02*
X207690000Y-58312380D01*
X208166190Y-58312380D01*
X208690000Y-58312380D02*
X208690000Y-58550476D01*
X208451904Y-58455238D02*
X208690000Y-58550476D01*
X208928095Y-58455238D01*
X208547142Y-58740952D02*
X208690000Y-58550476D01*
X208832857Y-58740952D01*
X209451904Y-58312380D02*
X209451904Y-58550476D01*
X209213809Y-58455238D02*
X209451904Y-58550476D01*
X209690000Y-58455238D01*
X209309047Y-58740952D02*
X209451904Y-58550476D01*
X209594761Y-58740952D01*
X114316666Y-59302380D02*
X113983333Y-58826190D01*
X113745238Y-59302380D02*
X113745238Y-58302380D01*
X114126190Y-58302380D01*
X114221428Y-58350000D01*
X114269047Y-58397619D01*
X114316666Y-58492857D01*
X114316666Y-58635714D01*
X114269047Y-58730952D01*
X114221428Y-58778571D01*
X114126190Y-58826190D01*
X113745238Y-58826190D01*
X114745238Y-58778571D02*
X115078571Y-58778571D01*
X115221428Y-59302380D02*
X114745238Y-59302380D01*
X114745238Y-58302380D01*
X115221428Y-58302380D01*
X115983333Y-58778571D02*
X115650000Y-58778571D01*
X115650000Y-59302380D02*
X115650000Y-58302380D01*
X116126190Y-58302380D01*
X116650000Y-58302380D02*
X116650000Y-58540476D01*
X116411904Y-58445238D02*
X116650000Y-58540476D01*
X116888095Y-58445238D01*
X116507142Y-58730952D02*
X116650000Y-58540476D01*
X116792857Y-58730952D01*
X117411904Y-58302380D02*
X117411904Y-58540476D01*
X117173809Y-58445238D02*
X117411904Y-58540476D01*
X117650000Y-58445238D01*
X117269047Y-58730952D02*
X117411904Y-58540476D01*
X117554761Y-58730952D01*
%TO.C,U2*%
X141943333Y-89568333D02*
X141943333Y-90701666D01*
X142010000Y-90835000D01*
X142076666Y-90901666D01*
X142210000Y-90968333D01*
X142476666Y-90968333D01*
X142610000Y-90901666D01*
X142676666Y-90835000D01*
X142743333Y-90701666D01*
X142743333Y-89568333D01*
X143343333Y-89701666D02*
X143410000Y-89635000D01*
X143543333Y-89568333D01*
X143876666Y-89568333D01*
X144010000Y-89635000D01*
X144076666Y-89701666D01*
X144143333Y-89835000D01*
X144143333Y-89968333D01*
X144076666Y-90168333D01*
X143276666Y-90968333D01*
X144143333Y-90968333D01*
%TO.C,U3*%
X141803333Y-75963333D02*
X141803333Y-77096666D01*
X141870000Y-77230000D01*
X141936666Y-77296666D01*
X142070000Y-77363333D01*
X142336666Y-77363333D01*
X142470000Y-77296666D01*
X142536666Y-77230000D01*
X142603333Y-77096666D01*
X142603333Y-75963333D01*
X143136666Y-75963333D02*
X144003333Y-75963333D01*
X143536666Y-76496666D01*
X143736666Y-76496666D01*
X143870000Y-76563333D01*
X143936666Y-76630000D01*
X144003333Y-76763333D01*
X144003333Y-77096666D01*
X143936666Y-77230000D01*
X143870000Y-77296666D01*
X143736666Y-77363333D01*
X143336666Y-77363333D01*
X143203333Y-77296666D01*
X143136666Y-77230000D01*
%TO.C,U7*%
X124116629Y-146504424D02*
X124116629Y-147832598D01*
X124194757Y-147988853D01*
X124272885Y-148066981D01*
X124429140Y-148145109D01*
X124741652Y-148145109D01*
X124897907Y-148066981D01*
X124976035Y-147988853D01*
X125054163Y-147832598D01*
X125054163Y-146504424D01*
X125679186Y-146504424D02*
X126772976Y-146504424D01*
X126069825Y-148145109D01*
%TO.C,U6*%
X189308095Y-136212380D02*
X189308095Y-137021904D01*
X189355714Y-137117142D01*
X189403333Y-137164761D01*
X189498571Y-137212380D01*
X189689047Y-137212380D01*
X189784285Y-137164761D01*
X189831904Y-137117142D01*
X189879523Y-137021904D01*
X189879523Y-136212380D01*
X190784285Y-136212380D02*
X190593809Y-136212380D01*
X190498571Y-136260000D01*
X190450952Y-136307619D01*
X190355714Y-136450476D01*
X190308095Y-136640952D01*
X190308095Y-137021904D01*
X190355714Y-137117142D01*
X190403333Y-137164761D01*
X190498571Y-137212380D01*
X190689047Y-137212380D01*
X190784285Y-137164761D01*
X190831904Y-137117142D01*
X190879523Y-137021904D01*
X190879523Y-136783809D01*
X190831904Y-136688571D01*
X190784285Y-136640952D01*
X190689047Y-136593333D01*
X190498571Y-136593333D01*
X190403333Y-136640952D01*
X190355714Y-136688571D01*
X190308095Y-136783809D01*
%TO.C,U5*%
X158758095Y-136582380D02*
X158758095Y-137391904D01*
X158805714Y-137487142D01*
X158853333Y-137534761D01*
X158948571Y-137582380D01*
X159139047Y-137582380D01*
X159234285Y-137534761D01*
X159281904Y-137487142D01*
X159329523Y-137391904D01*
X159329523Y-136582380D01*
X160281904Y-136582380D02*
X159805714Y-136582380D01*
X159758095Y-137058571D01*
X159805714Y-137010952D01*
X159900952Y-136963333D01*
X160139047Y-136963333D01*
X160234285Y-137010952D01*
X160281904Y-137058571D01*
X160329523Y-137153809D01*
X160329523Y-137391904D01*
X160281904Y-137487142D01*
X160234285Y-137534761D01*
X160139047Y-137582380D01*
X159900952Y-137582380D01*
X159805714Y-137534761D01*
X159758095Y-137487142D01*
%TO.C,U4*%
X171102380Y-84793504D02*
X171911904Y-84793504D01*
X172007142Y-84745885D01*
X172054761Y-84698266D01*
X172102380Y-84603028D01*
X172102380Y-84412552D01*
X172054761Y-84317314D01*
X172007142Y-84269695D01*
X171911904Y-84222076D01*
X171102380Y-84222076D01*
X171435714Y-83317314D02*
X172102380Y-83317314D01*
X171054761Y-83555409D02*
X171769047Y-83793504D01*
X171769047Y-83174457D01*
X172102380Y-78592438D02*
X171102380Y-78592438D01*
X171102380Y-78211485D01*
X171150000Y-78116247D01*
X171197619Y-78068628D01*
X171292857Y-78021009D01*
X171435714Y-78021009D01*
X171530952Y-78068628D01*
X171578571Y-78116247D01*
X171626190Y-78211485D01*
X171626190Y-78592438D01*
X172007142Y-77021009D02*
X172054761Y-77068628D01*
X172102380Y-77211485D01*
X172102380Y-77306723D01*
X172054761Y-77449580D01*
X171959523Y-77544819D01*
X171864285Y-77592438D01*
X171673809Y-77640057D01*
X171530952Y-77640057D01*
X171340476Y-77592438D01*
X171245238Y-77544819D01*
X171150000Y-77449580D01*
X171102380Y-77306723D01*
X171102380Y-77211485D01*
X171150000Y-77068628D01*
X171197619Y-77021009D01*
X171578571Y-76259104D02*
X171578571Y-76592438D01*
X172102380Y-76592438D02*
X171102380Y-76592438D01*
X171102380Y-76116247D01*
X171530952Y-75592438D02*
X171483333Y-75687676D01*
X171435714Y-75735295D01*
X171340476Y-75782914D01*
X171292857Y-75782914D01*
X171197619Y-75735295D01*
X171150000Y-75687676D01*
X171102380Y-75592438D01*
X171102380Y-75401961D01*
X171150000Y-75306723D01*
X171197619Y-75259104D01*
X171292857Y-75211485D01*
X171340476Y-75211485D01*
X171435714Y-75259104D01*
X171483333Y-75306723D01*
X171530952Y-75401961D01*
X171530952Y-75592438D01*
X171578571Y-75687676D01*
X171626190Y-75735295D01*
X171721428Y-75782914D01*
X171911904Y-75782914D01*
X172007142Y-75735295D01*
X172054761Y-75687676D01*
X172102380Y-75592438D01*
X172102380Y-75401961D01*
X172054761Y-75306723D01*
X172007142Y-75259104D01*
X171911904Y-75211485D01*
X171721428Y-75211485D01*
X171626190Y-75259104D01*
X171578571Y-75306723D01*
X171530952Y-75401961D01*
X171102380Y-74306723D02*
X171102380Y-74782914D01*
X171578571Y-74830533D01*
X171530952Y-74782914D01*
X171483333Y-74687676D01*
X171483333Y-74449580D01*
X171530952Y-74354342D01*
X171578571Y-74306723D01*
X171673809Y-74259104D01*
X171911904Y-74259104D01*
X172007142Y-74306723D01*
X172054761Y-74354342D01*
X172102380Y-74449580D01*
X172102380Y-74687676D01*
X172054761Y-74782914D01*
X172007142Y-74830533D01*
X171102380Y-73925771D02*
X171102380Y-73259104D01*
X172102380Y-73687676D01*
X171435714Y-72449580D02*
X172102380Y-72449580D01*
X171054761Y-72687676D02*
X171769047Y-72925771D01*
X171769047Y-72306723D01*
X166225580Y-89492600D02*
X166463676Y-89492600D01*
X166368438Y-89730695D02*
X166463676Y-89492600D01*
X166368438Y-89254504D01*
X166654152Y-89635457D02*
X166463676Y-89492600D01*
X166654152Y-89349742D01*
%TO.C,U1*%
X186288095Y-81302380D02*
X186288095Y-82111904D01*
X186335714Y-82207142D01*
X186383333Y-82254761D01*
X186478571Y-82302380D01*
X186669047Y-82302380D01*
X186764285Y-82254761D01*
X186811904Y-82207142D01*
X186859523Y-82111904D01*
X186859523Y-81302380D01*
X187859523Y-82302380D02*
X187288095Y-82302380D01*
X187573809Y-82302380D02*
X187573809Y-81302380D01*
X187478571Y-81445238D01*
X187383333Y-81540476D01*
X187288095Y-81588095D01*
%TO.C,SW4*%
X134796666Y-142074761D02*
X134939523Y-142122380D01*
X135177619Y-142122380D01*
X135272857Y-142074761D01*
X135320476Y-142027142D01*
X135368095Y-141931904D01*
X135368095Y-141836666D01*
X135320476Y-141741428D01*
X135272857Y-141693809D01*
X135177619Y-141646190D01*
X134987142Y-141598571D01*
X134891904Y-141550952D01*
X134844285Y-141503333D01*
X134796666Y-141408095D01*
X134796666Y-141312857D01*
X134844285Y-141217619D01*
X134891904Y-141170000D01*
X134987142Y-141122380D01*
X135225238Y-141122380D01*
X135368095Y-141170000D01*
X135701428Y-141122380D02*
X135939523Y-142122380D01*
X136130000Y-141408095D01*
X136320476Y-142122380D01*
X136558571Y-141122380D01*
X137368095Y-141455714D02*
X137368095Y-142122380D01*
X137130000Y-141074761D02*
X136891904Y-141789047D01*
X137510952Y-141789047D01*
%TO.C,SW3*%
X206946666Y-71444761D02*
X207089523Y-71492380D01*
X207327619Y-71492380D01*
X207422857Y-71444761D01*
X207470476Y-71397142D01*
X207518095Y-71301904D01*
X207518095Y-71206666D01*
X207470476Y-71111428D01*
X207422857Y-71063809D01*
X207327619Y-71016190D01*
X207137142Y-70968571D01*
X207041904Y-70920952D01*
X206994285Y-70873333D01*
X206946666Y-70778095D01*
X206946666Y-70682857D01*
X206994285Y-70587619D01*
X207041904Y-70540000D01*
X207137142Y-70492380D01*
X207375238Y-70492380D01*
X207518095Y-70540000D01*
X207851428Y-70492380D02*
X208089523Y-71492380D01*
X208280000Y-70778095D01*
X208470476Y-71492380D01*
X208708571Y-70492380D01*
X208994285Y-70492380D02*
X209613333Y-70492380D01*
X209280000Y-70873333D01*
X209422857Y-70873333D01*
X209518095Y-70920952D01*
X209565714Y-70968571D01*
X209613333Y-71063809D01*
X209613333Y-71301904D01*
X209565714Y-71397142D01*
X209518095Y-71444761D01*
X209422857Y-71492380D01*
X209137142Y-71492380D01*
X209041904Y-71444761D01*
X208994285Y-71397142D01*
%TO.C,SW2*%
X190596666Y-66334761D02*
X190739523Y-66382380D01*
X190977619Y-66382380D01*
X191072857Y-66334761D01*
X191120476Y-66287142D01*
X191168095Y-66191904D01*
X191168095Y-66096666D01*
X191120476Y-66001428D01*
X191072857Y-65953809D01*
X190977619Y-65906190D01*
X190787142Y-65858571D01*
X190691904Y-65810952D01*
X190644285Y-65763333D01*
X190596666Y-65668095D01*
X190596666Y-65572857D01*
X190644285Y-65477619D01*
X190691904Y-65430000D01*
X190787142Y-65382380D01*
X191025238Y-65382380D01*
X191168095Y-65430000D01*
X191501428Y-65382380D02*
X191739523Y-66382380D01*
X191930000Y-65668095D01*
X192120476Y-66382380D01*
X192358571Y-65382380D01*
X192691904Y-65477619D02*
X192739523Y-65430000D01*
X192834761Y-65382380D01*
X193072857Y-65382380D01*
X193168095Y-65430000D01*
X193215714Y-65477619D01*
X193263333Y-65572857D01*
X193263333Y-65668095D01*
X193215714Y-65810952D01*
X192644285Y-66382380D01*
X193263333Y-66382380D01*
%TO.C,SW1*%
X198246666Y-66544761D02*
X198389523Y-66592380D01*
X198627619Y-66592380D01*
X198722857Y-66544761D01*
X198770476Y-66497142D01*
X198818095Y-66401904D01*
X198818095Y-66306666D01*
X198770476Y-66211428D01*
X198722857Y-66163809D01*
X198627619Y-66116190D01*
X198437142Y-66068571D01*
X198341904Y-66020952D01*
X198294285Y-65973333D01*
X198246666Y-65878095D01*
X198246666Y-65782857D01*
X198294285Y-65687619D01*
X198341904Y-65640000D01*
X198437142Y-65592380D01*
X198675238Y-65592380D01*
X198818095Y-65640000D01*
X199151428Y-65592380D02*
X199389523Y-66592380D01*
X199580000Y-65878095D01*
X199770476Y-66592380D01*
X200008571Y-65592380D01*
X200913333Y-66592380D02*
X200341904Y-66592380D01*
X200627619Y-66592380D02*
X200627619Y-65592380D01*
X200532380Y-65735238D01*
X200437142Y-65830476D01*
X200341904Y-65878095D01*
%TO.C,RV1*%
X113752380Y-84875238D02*
X113276190Y-85208571D01*
X113752380Y-85446666D02*
X112752380Y-85446666D01*
X112752380Y-85065714D01*
X112800000Y-84970476D01*
X112847619Y-84922857D01*
X112942857Y-84875238D01*
X113085714Y-84875238D01*
X113180952Y-84922857D01*
X113228571Y-84970476D01*
X113276190Y-85065714D01*
X113276190Y-85446666D01*
X112752380Y-84589523D02*
X113752380Y-84256190D01*
X112752380Y-83922857D01*
X113752380Y-83065714D02*
X113752380Y-83637142D01*
X113752380Y-83351428D02*
X112752380Y-83351428D01*
X112895238Y-83446666D01*
X112990476Y-83541904D01*
X113038095Y-83637142D01*
%TO.C,R19*%
X160812380Y-120330357D02*
X160336190Y-120663690D01*
X160812380Y-120901785D02*
X159812380Y-120901785D01*
X159812380Y-120520833D01*
X159860000Y-120425595D01*
X159907619Y-120377976D01*
X160002857Y-120330357D01*
X160145714Y-120330357D01*
X160240952Y-120377976D01*
X160288571Y-120425595D01*
X160336190Y-120520833D01*
X160336190Y-120901785D01*
X160812380Y-119377976D02*
X160812380Y-119949404D01*
X160812380Y-119663690D02*
X159812380Y-119663690D01*
X159955238Y-119758928D01*
X160050476Y-119854166D01*
X160098095Y-119949404D01*
X160812380Y-118901785D02*
X160812380Y-118711309D01*
X160764761Y-118616071D01*
X160717142Y-118568452D01*
X160574285Y-118473214D01*
X160383809Y-118425595D01*
X160002857Y-118425595D01*
X159907619Y-118473214D01*
X159860000Y-118520833D01*
X159812380Y-118616071D01*
X159812380Y-118806547D01*
X159860000Y-118901785D01*
X159907619Y-118949404D01*
X160002857Y-118997023D01*
X160240952Y-118997023D01*
X160336190Y-118949404D01*
X160383809Y-118901785D01*
X160431428Y-118806547D01*
X160431428Y-118616071D01*
X160383809Y-118520833D01*
X160336190Y-118473214D01*
X160240952Y-118425595D01*
%TO.C,R18*%
X159372380Y-120282857D02*
X158896190Y-120616190D01*
X159372380Y-120854285D02*
X158372380Y-120854285D01*
X158372380Y-120473333D01*
X158420000Y-120378095D01*
X158467619Y-120330476D01*
X158562857Y-120282857D01*
X158705714Y-120282857D01*
X158800952Y-120330476D01*
X158848571Y-120378095D01*
X158896190Y-120473333D01*
X158896190Y-120854285D01*
X159372380Y-119330476D02*
X159372380Y-119901904D01*
X159372380Y-119616190D02*
X158372380Y-119616190D01*
X158515238Y-119711428D01*
X158610476Y-119806666D01*
X158658095Y-119901904D01*
X158800952Y-118759047D02*
X158753333Y-118854285D01*
X158705714Y-118901904D01*
X158610476Y-118949523D01*
X158562857Y-118949523D01*
X158467619Y-118901904D01*
X158420000Y-118854285D01*
X158372380Y-118759047D01*
X158372380Y-118568571D01*
X158420000Y-118473333D01*
X158467619Y-118425714D01*
X158562857Y-118378095D01*
X158610476Y-118378095D01*
X158705714Y-118425714D01*
X158753333Y-118473333D01*
X158800952Y-118568571D01*
X158800952Y-118759047D01*
X158848571Y-118854285D01*
X158896190Y-118901904D01*
X158991428Y-118949523D01*
X159181904Y-118949523D01*
X159277142Y-118901904D01*
X159324761Y-118854285D01*
X159372380Y-118759047D01*
X159372380Y-118568571D01*
X159324761Y-118473333D01*
X159277142Y-118425714D01*
X159181904Y-118378095D01*
X158991428Y-118378095D01*
X158896190Y-118425714D01*
X158848571Y-118473333D01*
X158800952Y-118568571D01*
%TO.C,R17*%
X135907142Y-125772380D02*
X135573809Y-125296190D01*
X135335714Y-125772380D02*
X135335714Y-124772380D01*
X135716666Y-124772380D01*
X135811904Y-124820000D01*
X135859523Y-124867619D01*
X135907142Y-124962857D01*
X135907142Y-125105714D01*
X135859523Y-125200952D01*
X135811904Y-125248571D01*
X135716666Y-125296190D01*
X135335714Y-125296190D01*
X136859523Y-125772380D02*
X136288095Y-125772380D01*
X136573809Y-125772380D02*
X136573809Y-124772380D01*
X136478571Y-124915238D01*
X136383333Y-125010476D01*
X136288095Y-125058095D01*
X137192857Y-124772380D02*
X137859523Y-124772380D01*
X137430952Y-125772380D01*
%TO.C,R16*%
X136027142Y-129852380D02*
X135693809Y-129376190D01*
X135455714Y-129852380D02*
X135455714Y-128852380D01*
X135836666Y-128852380D01*
X135931904Y-128900000D01*
X135979523Y-128947619D01*
X136027142Y-129042857D01*
X136027142Y-129185714D01*
X135979523Y-129280952D01*
X135931904Y-129328571D01*
X135836666Y-129376190D01*
X135455714Y-129376190D01*
X136979523Y-129852380D02*
X136408095Y-129852380D01*
X136693809Y-129852380D02*
X136693809Y-128852380D01*
X136598571Y-128995238D01*
X136503333Y-129090476D01*
X136408095Y-129138095D01*
X137836666Y-128852380D02*
X137646190Y-128852380D01*
X137550952Y-128900000D01*
X137503333Y-128947619D01*
X137408095Y-129090476D01*
X137360476Y-129280952D01*
X137360476Y-129661904D01*
X137408095Y-129757142D01*
X137455714Y-129804761D01*
X137550952Y-129852380D01*
X137741428Y-129852380D01*
X137836666Y-129804761D01*
X137884285Y-129757142D01*
X137931904Y-129661904D01*
X137931904Y-129423809D01*
X137884285Y-129328571D01*
X137836666Y-129280952D01*
X137741428Y-129233333D01*
X137550952Y-129233333D01*
X137455714Y-129280952D01*
X137408095Y-129328571D01*
X137360476Y-129423809D01*
%TO.C,R15*%
X136014642Y-134002380D02*
X135681309Y-133526190D01*
X135443214Y-134002380D02*
X135443214Y-133002380D01*
X135824166Y-133002380D01*
X135919404Y-133050000D01*
X135967023Y-133097619D01*
X136014642Y-133192857D01*
X136014642Y-133335714D01*
X135967023Y-133430952D01*
X135919404Y-133478571D01*
X135824166Y-133526190D01*
X135443214Y-133526190D01*
X136967023Y-134002380D02*
X136395595Y-134002380D01*
X136681309Y-134002380D02*
X136681309Y-133002380D01*
X136586071Y-133145238D01*
X136490833Y-133240476D01*
X136395595Y-133288095D01*
X137871785Y-133002380D02*
X137395595Y-133002380D01*
X137347976Y-133478571D01*
X137395595Y-133430952D01*
X137490833Y-133383333D01*
X137728928Y-133383333D01*
X137824166Y-133430952D01*
X137871785Y-133478571D01*
X137919404Y-133573809D01*
X137919404Y-133811904D01*
X137871785Y-133907142D01*
X137824166Y-133954761D01*
X137728928Y-134002380D01*
X137490833Y-134002380D01*
X137395595Y-133954761D01*
X137347976Y-133907142D01*
%TO.C,R14*%
X165397142Y-114562380D02*
X165063809Y-114086190D01*
X164825714Y-114562380D02*
X164825714Y-113562380D01*
X165206666Y-113562380D01*
X165301904Y-113610000D01*
X165349523Y-113657619D01*
X165397142Y-113752857D01*
X165397142Y-113895714D01*
X165349523Y-113990952D01*
X165301904Y-114038571D01*
X165206666Y-114086190D01*
X164825714Y-114086190D01*
X166349523Y-114562380D02*
X165778095Y-114562380D01*
X166063809Y-114562380D02*
X166063809Y-113562380D01*
X165968571Y-113705238D01*
X165873333Y-113800476D01*
X165778095Y-113848095D01*
X167206666Y-113895714D02*
X167206666Y-114562380D01*
X166968571Y-113514761D02*
X166730476Y-114229047D01*
X167349523Y-114229047D01*
%TO.C,R13*%
X184827142Y-72872380D02*
X184493809Y-72396190D01*
X184255714Y-72872380D02*
X184255714Y-71872380D01*
X184636666Y-71872380D01*
X184731904Y-71920000D01*
X184779523Y-71967619D01*
X184827142Y-72062857D01*
X184827142Y-72205714D01*
X184779523Y-72300952D01*
X184731904Y-72348571D01*
X184636666Y-72396190D01*
X184255714Y-72396190D01*
X185779523Y-72872380D02*
X185208095Y-72872380D01*
X185493809Y-72872380D02*
X185493809Y-71872380D01*
X185398571Y-72015238D01*
X185303333Y-72110476D01*
X185208095Y-72158095D01*
X186112857Y-71872380D02*
X186731904Y-71872380D01*
X186398571Y-72253333D01*
X186541428Y-72253333D01*
X186636666Y-72300952D01*
X186684285Y-72348571D01*
X186731904Y-72443809D01*
X186731904Y-72681904D01*
X186684285Y-72777142D01*
X186636666Y-72824761D01*
X186541428Y-72872380D01*
X186255714Y-72872380D01*
X186160476Y-72824761D01*
X186112857Y-72777142D01*
%TO.C,R12*%
X182077142Y-118182380D02*
X181743809Y-117706190D01*
X181505714Y-118182380D02*
X181505714Y-117182380D01*
X181886666Y-117182380D01*
X181981904Y-117230000D01*
X182029523Y-117277619D01*
X182077142Y-117372857D01*
X182077142Y-117515714D01*
X182029523Y-117610952D01*
X181981904Y-117658571D01*
X181886666Y-117706190D01*
X181505714Y-117706190D01*
X183029523Y-118182380D02*
X182458095Y-118182380D01*
X182743809Y-118182380D02*
X182743809Y-117182380D01*
X182648571Y-117325238D01*
X182553333Y-117420476D01*
X182458095Y-117468095D01*
X183410476Y-117277619D02*
X183458095Y-117230000D01*
X183553333Y-117182380D01*
X183791428Y-117182380D01*
X183886666Y-117230000D01*
X183934285Y-117277619D01*
X183981904Y-117372857D01*
X183981904Y-117468095D01*
X183934285Y-117610952D01*
X183362857Y-118182380D01*
X183981904Y-118182380D01*
%TO.C,R11*%
X182017142Y-112322380D02*
X181683809Y-111846190D01*
X181445714Y-112322380D02*
X181445714Y-111322380D01*
X181826666Y-111322380D01*
X181921904Y-111370000D01*
X181969523Y-111417619D01*
X182017142Y-111512857D01*
X182017142Y-111655714D01*
X181969523Y-111750952D01*
X181921904Y-111798571D01*
X181826666Y-111846190D01*
X181445714Y-111846190D01*
X182969523Y-112322380D02*
X182398095Y-112322380D01*
X182683809Y-112322380D02*
X182683809Y-111322380D01*
X182588571Y-111465238D01*
X182493333Y-111560476D01*
X182398095Y-111608095D01*
X183921904Y-112322380D02*
X183350476Y-112322380D01*
X183636190Y-112322380D02*
X183636190Y-111322380D01*
X183540952Y-111465238D01*
X183445714Y-111560476D01*
X183350476Y-111608095D01*
%TO.C,R10*%
X182482380Y-126112857D02*
X182006190Y-126446190D01*
X182482380Y-126684285D02*
X181482380Y-126684285D01*
X181482380Y-126303333D01*
X181530000Y-126208095D01*
X181577619Y-126160476D01*
X181672857Y-126112857D01*
X181815714Y-126112857D01*
X181910952Y-126160476D01*
X181958571Y-126208095D01*
X182006190Y-126303333D01*
X182006190Y-126684285D01*
X182482380Y-125160476D02*
X182482380Y-125731904D01*
X182482380Y-125446190D02*
X181482380Y-125446190D01*
X181625238Y-125541428D01*
X181720476Y-125636666D01*
X181768095Y-125731904D01*
X181482380Y-124541428D02*
X181482380Y-124446190D01*
X181530000Y-124350952D01*
X181577619Y-124303333D01*
X181672857Y-124255714D01*
X181863333Y-124208095D01*
X182101428Y-124208095D01*
X182291904Y-124255714D01*
X182387142Y-124303333D01*
X182434761Y-124350952D01*
X182482380Y-124446190D01*
X182482380Y-124541428D01*
X182434761Y-124636666D01*
X182387142Y-124684285D01*
X182291904Y-124731904D01*
X182101428Y-124779523D01*
X181863333Y-124779523D01*
X181672857Y-124731904D01*
X181577619Y-124684285D01*
X181530000Y-124636666D01*
X181482380Y-124541428D01*
%TO.C,R9*%
X182472380Y-131256666D02*
X181996190Y-131590000D01*
X182472380Y-131828095D02*
X181472380Y-131828095D01*
X181472380Y-131447142D01*
X181520000Y-131351904D01*
X181567619Y-131304285D01*
X181662857Y-131256666D01*
X181805714Y-131256666D01*
X181900952Y-131304285D01*
X181948571Y-131351904D01*
X181996190Y-131447142D01*
X181996190Y-131828095D01*
X182472380Y-130780476D02*
X182472380Y-130590000D01*
X182424761Y-130494761D01*
X182377142Y-130447142D01*
X182234285Y-130351904D01*
X182043809Y-130304285D01*
X181662857Y-130304285D01*
X181567619Y-130351904D01*
X181520000Y-130399523D01*
X181472380Y-130494761D01*
X181472380Y-130685238D01*
X181520000Y-130780476D01*
X181567619Y-130828095D01*
X181662857Y-130875714D01*
X181900952Y-130875714D01*
X181996190Y-130828095D01*
X182043809Y-130780476D01*
X182091428Y-130685238D01*
X182091428Y-130494761D01*
X182043809Y-130399523D01*
X181996190Y-130351904D01*
X181900952Y-130304285D01*
%TO.C,R8*%
X154273333Y-92542380D02*
X153940000Y-92066190D01*
X153701904Y-92542380D02*
X153701904Y-91542380D01*
X154082857Y-91542380D01*
X154178095Y-91590000D01*
X154225714Y-91637619D01*
X154273333Y-91732857D01*
X154273333Y-91875714D01*
X154225714Y-91970952D01*
X154178095Y-92018571D01*
X154082857Y-92066190D01*
X153701904Y-92066190D01*
X154844761Y-91970952D02*
X154749523Y-91923333D01*
X154701904Y-91875714D01*
X154654285Y-91780476D01*
X154654285Y-91732857D01*
X154701904Y-91637619D01*
X154749523Y-91590000D01*
X154844761Y-91542380D01*
X155035238Y-91542380D01*
X155130476Y-91590000D01*
X155178095Y-91637619D01*
X155225714Y-91732857D01*
X155225714Y-91780476D01*
X155178095Y-91875714D01*
X155130476Y-91923333D01*
X155035238Y-91970952D01*
X154844761Y-91970952D01*
X154749523Y-92018571D01*
X154701904Y-92066190D01*
X154654285Y-92161428D01*
X154654285Y-92351904D01*
X154701904Y-92447142D01*
X154749523Y-92494761D01*
X154844761Y-92542380D01*
X155035238Y-92542380D01*
X155130476Y-92494761D01*
X155178095Y-92447142D01*
X155225714Y-92351904D01*
X155225714Y-92161428D01*
X155178095Y-92066190D01*
X155130476Y-92018571D01*
X155035238Y-91970952D01*
%TO.C,R7*%
X161993333Y-101242380D02*
X161660000Y-100766190D01*
X161421904Y-101242380D02*
X161421904Y-100242380D01*
X161802857Y-100242380D01*
X161898095Y-100290000D01*
X161945714Y-100337619D01*
X161993333Y-100432857D01*
X161993333Y-100575714D01*
X161945714Y-100670952D01*
X161898095Y-100718571D01*
X161802857Y-100766190D01*
X161421904Y-100766190D01*
X162326666Y-100242380D02*
X162993333Y-100242380D01*
X162564761Y-101242380D01*
%TO.C,R6*%
X161993333Y-96952380D02*
X161660000Y-96476190D01*
X161421904Y-96952380D02*
X161421904Y-95952380D01*
X161802857Y-95952380D01*
X161898095Y-96000000D01*
X161945714Y-96047619D01*
X161993333Y-96142857D01*
X161993333Y-96285714D01*
X161945714Y-96380952D01*
X161898095Y-96428571D01*
X161802857Y-96476190D01*
X161421904Y-96476190D01*
X162850476Y-95952380D02*
X162660000Y-95952380D01*
X162564761Y-96000000D01*
X162517142Y-96047619D01*
X162421904Y-96190476D01*
X162374285Y-96380952D01*
X162374285Y-96761904D01*
X162421904Y-96857142D01*
X162469523Y-96904761D01*
X162564761Y-96952380D01*
X162755238Y-96952380D01*
X162850476Y-96904761D01*
X162898095Y-96857142D01*
X162945714Y-96761904D01*
X162945714Y-96523809D01*
X162898095Y-96428571D01*
X162850476Y-96380952D01*
X162755238Y-96333333D01*
X162564761Y-96333333D01*
X162469523Y-96380952D01*
X162421904Y-96428571D01*
X162374285Y-96523809D01*
%TO.C,R5*%
X161953333Y-92772380D02*
X161620000Y-92296190D01*
X161381904Y-92772380D02*
X161381904Y-91772380D01*
X161762857Y-91772380D01*
X161858095Y-91820000D01*
X161905714Y-91867619D01*
X161953333Y-91962857D01*
X161953333Y-92105714D01*
X161905714Y-92200952D01*
X161858095Y-92248571D01*
X161762857Y-92296190D01*
X161381904Y-92296190D01*
X162858095Y-91772380D02*
X162381904Y-91772380D01*
X162334285Y-92248571D01*
X162381904Y-92200952D01*
X162477142Y-92153333D01*
X162715238Y-92153333D01*
X162810476Y-92200952D01*
X162858095Y-92248571D01*
X162905714Y-92343809D01*
X162905714Y-92581904D01*
X162858095Y-92677142D01*
X162810476Y-92724761D01*
X162715238Y-92772380D01*
X162477142Y-92772380D01*
X162381904Y-92724761D01*
X162334285Y-92677142D01*
%TO.C,R4*%
X168562380Y-125546666D02*
X168086190Y-125880000D01*
X168562380Y-126118095D02*
X167562380Y-126118095D01*
X167562380Y-125737142D01*
X167610000Y-125641904D01*
X167657619Y-125594285D01*
X167752857Y-125546666D01*
X167895714Y-125546666D01*
X167990952Y-125594285D01*
X168038571Y-125641904D01*
X168086190Y-125737142D01*
X168086190Y-126118095D01*
X167895714Y-124689523D02*
X168562380Y-124689523D01*
X167514761Y-124927619D02*
X168229047Y-125165714D01*
X168229047Y-124546666D01*
%TO.C,R3*%
X168562380Y-131416666D02*
X168086190Y-131750000D01*
X168562380Y-131988095D02*
X167562380Y-131988095D01*
X167562380Y-131607142D01*
X167610000Y-131511904D01*
X167657619Y-131464285D01*
X167752857Y-131416666D01*
X167895714Y-131416666D01*
X167990952Y-131464285D01*
X168038571Y-131511904D01*
X168086190Y-131607142D01*
X168086190Y-131988095D01*
X167562380Y-131083333D02*
X167562380Y-130464285D01*
X167943333Y-130797619D01*
X167943333Y-130654761D01*
X167990952Y-130559523D01*
X168038571Y-130511904D01*
X168133809Y-130464285D01*
X168371904Y-130464285D01*
X168467142Y-130511904D01*
X168514761Y-130559523D01*
X168562380Y-130654761D01*
X168562380Y-130940476D01*
X168514761Y-131035714D01*
X168467142Y-131083333D01*
%TO.C,R2*%
X182573333Y-106402380D02*
X182240000Y-105926190D01*
X182001904Y-106402380D02*
X182001904Y-105402380D01*
X182382857Y-105402380D01*
X182478095Y-105450000D01*
X182525714Y-105497619D01*
X182573333Y-105592857D01*
X182573333Y-105735714D01*
X182525714Y-105830952D01*
X182478095Y-105878571D01*
X182382857Y-105926190D01*
X182001904Y-105926190D01*
X182954285Y-105497619D02*
X183001904Y-105450000D01*
X183097142Y-105402380D01*
X183335238Y-105402380D01*
X183430476Y-105450000D01*
X183478095Y-105497619D01*
X183525714Y-105592857D01*
X183525714Y-105688095D01*
X183478095Y-105830952D01*
X182906666Y-106402380D01*
X183525714Y-106402380D01*
%TO.C,R1*%
X185310833Y-68362380D02*
X184977500Y-67886190D01*
X184739404Y-68362380D02*
X184739404Y-67362380D01*
X185120357Y-67362380D01*
X185215595Y-67410000D01*
X185263214Y-67457619D01*
X185310833Y-67552857D01*
X185310833Y-67695714D01*
X185263214Y-67790952D01*
X185215595Y-67838571D01*
X185120357Y-67886190D01*
X184739404Y-67886190D01*
X186263214Y-68362380D02*
X185691785Y-68362380D01*
X185977500Y-68362380D02*
X185977500Y-67362380D01*
X185882261Y-67505238D01*
X185787023Y-67600476D01*
X185691785Y-67648095D01*
%TO.C,Q4*%
X157447619Y-112625238D02*
X157400000Y-112720476D01*
X157304761Y-112815714D01*
X157161904Y-112958571D01*
X157114285Y-113053809D01*
X157114285Y-113149047D01*
X157352380Y-113101428D02*
X157304761Y-113196666D01*
X157209523Y-113291904D01*
X157019047Y-113339523D01*
X156685714Y-113339523D01*
X156495238Y-113291904D01*
X156400000Y-113196666D01*
X156352380Y-113101428D01*
X156352380Y-112910952D01*
X156400000Y-112815714D01*
X156495238Y-112720476D01*
X156685714Y-112672857D01*
X157019047Y-112672857D01*
X157209523Y-112720476D01*
X157304761Y-112815714D01*
X157352380Y-112910952D01*
X157352380Y-113101428D01*
X156685714Y-111815714D02*
X157352380Y-111815714D01*
X156304761Y-112053809D02*
X157019047Y-112291904D01*
X157019047Y-111672857D01*
%TO.C,Q2*%
X173107619Y-125515238D02*
X173060000Y-125610476D01*
X172964761Y-125705714D01*
X172821904Y-125848571D01*
X172774285Y-125943809D01*
X172774285Y-126039047D01*
X173012380Y-125991428D02*
X172964761Y-126086666D01*
X172869523Y-126181904D01*
X172679047Y-126229523D01*
X172345714Y-126229523D01*
X172155238Y-126181904D01*
X172060000Y-126086666D01*
X172012380Y-125991428D01*
X172012380Y-125800952D01*
X172060000Y-125705714D01*
X172155238Y-125610476D01*
X172345714Y-125562857D01*
X172679047Y-125562857D01*
X172869523Y-125610476D01*
X172964761Y-125705714D01*
X173012380Y-125800952D01*
X173012380Y-125991428D01*
X172107619Y-125181904D02*
X172060000Y-125134285D01*
X172012380Y-125039047D01*
X172012380Y-124800952D01*
X172060000Y-124705714D01*
X172107619Y-124658095D01*
X172202857Y-124610476D01*
X172298095Y-124610476D01*
X172440952Y-124658095D01*
X173012380Y-125229523D01*
X173012380Y-124610476D01*
%TO.C,Q1*%
X173067619Y-131205238D02*
X173020000Y-131300476D01*
X172924761Y-131395714D01*
X172781904Y-131538571D01*
X172734285Y-131633809D01*
X172734285Y-131729047D01*
X172972380Y-131681428D02*
X172924761Y-131776666D01*
X172829523Y-131871904D01*
X172639047Y-131919523D01*
X172305714Y-131919523D01*
X172115238Y-131871904D01*
X172020000Y-131776666D01*
X171972380Y-131681428D01*
X171972380Y-131490952D01*
X172020000Y-131395714D01*
X172115238Y-131300476D01*
X172305714Y-131252857D01*
X172639047Y-131252857D01*
X172829523Y-131300476D01*
X172924761Y-131395714D01*
X172972380Y-131490952D01*
X172972380Y-131681428D01*
X172972380Y-130300476D02*
X172972380Y-130871904D01*
X172972380Y-130586190D02*
X171972380Y-130586190D01*
X172115238Y-130681428D01*
X172210476Y-130776666D01*
X172258095Y-130871904D01*
%TO.C,K1*%
X135691904Y-104772380D02*
X135691904Y-103772380D01*
X136263333Y-104772380D02*
X135834761Y-104200952D01*
X136263333Y-103772380D02*
X135691904Y-104343809D01*
X137215714Y-104772380D02*
X136644285Y-104772380D01*
X136930000Y-104772380D02*
X136930000Y-103772380D01*
X136834761Y-103915238D01*
X136739523Y-104010476D01*
X136644285Y-104058095D01*
%TO.C,J5*%
X112652380Y-106823333D02*
X113366666Y-106823333D01*
X113509523Y-106870952D01*
X113604761Y-106966190D01*
X113652380Y-107109047D01*
X113652380Y-107204285D01*
X112652380Y-105870952D02*
X112652380Y-106347142D01*
X113128571Y-106394761D01*
X113080952Y-106347142D01*
X113033333Y-106251904D01*
X113033333Y-106013809D01*
X113080952Y-105918571D01*
X113128571Y-105870952D01*
X113223809Y-105823333D01*
X113461904Y-105823333D01*
X113557142Y-105870952D01*
X113604761Y-105918571D01*
X113652380Y-106013809D01*
X113652380Y-106251904D01*
X113604761Y-106347142D01*
X113557142Y-106394761D01*
%TO.C,J4*%
X112322380Y-139993333D02*
X113036666Y-139993333D01*
X113179523Y-140040952D01*
X113274761Y-140136190D01*
X113322380Y-140279047D01*
X113322380Y-140374285D01*
X112655714Y-139088571D02*
X113322380Y-139088571D01*
X112274761Y-139326666D02*
X112989047Y-139564761D01*
X112989047Y-138945714D01*
%TO.C,J3*%
X112632380Y-128643333D02*
X113346666Y-128643333D01*
X113489523Y-128690952D01*
X113584761Y-128786190D01*
X113632380Y-128929047D01*
X113632380Y-129024285D01*
X112632380Y-128262380D02*
X112632380Y-127643333D01*
X113013333Y-127976666D01*
X113013333Y-127833809D01*
X113060952Y-127738571D01*
X113108571Y-127690952D01*
X113203809Y-127643333D01*
X113441904Y-127643333D01*
X113537142Y-127690952D01*
X113584761Y-127738571D01*
X113632380Y-127833809D01*
X113632380Y-128119523D01*
X113584761Y-128214761D01*
X113537142Y-128262380D01*
%TO.C,J2*%
X210472380Y-116603333D02*
X211186666Y-116603333D01*
X211329523Y-116650952D01*
X211424761Y-116746190D01*
X211472380Y-116889047D01*
X211472380Y-116984285D01*
X210567619Y-116174761D02*
X210520000Y-116127142D01*
X210472380Y-116031904D01*
X210472380Y-115793809D01*
X210520000Y-115698571D01*
X210567619Y-115650952D01*
X210662857Y-115603333D01*
X210758095Y-115603333D01*
X210900952Y-115650952D01*
X211472380Y-116222380D01*
X211472380Y-115603333D01*
%TO.C,J1*%
X204566666Y-135442380D02*
X204566666Y-136156666D01*
X204519047Y-136299523D01*
X204423809Y-136394761D01*
X204280952Y-136442380D01*
X204185714Y-136442380D01*
X205566666Y-136442380D02*
X204995238Y-136442380D01*
X205280952Y-136442380D02*
X205280952Y-135442380D01*
X205185714Y-135585238D01*
X205090476Y-135680476D01*
X204995238Y-135728095D01*
%TO.C,F1*%
X127766666Y-126568571D02*
X127433333Y-126568571D01*
X127433333Y-127092380D02*
X127433333Y-126092380D01*
X127909523Y-126092380D01*
X128814285Y-127092380D02*
X128242857Y-127092380D01*
X128528571Y-127092380D02*
X128528571Y-126092380D01*
X128433333Y-126235238D01*
X128338095Y-126330476D01*
X128242857Y-126378095D01*
%TO.C,D6*%
X127344904Y-133917380D02*
X127344904Y-132917380D01*
X127583000Y-132917380D01*
X127725857Y-132965000D01*
X127821095Y-133060238D01*
X127868714Y-133155476D01*
X127916333Y-133345952D01*
X127916333Y-133488809D01*
X127868714Y-133679285D01*
X127821095Y-133774523D01*
X127725857Y-133869761D01*
X127583000Y-133917380D01*
X127344904Y-133917380D01*
X128773476Y-132917380D02*
X128583000Y-132917380D01*
X128487761Y-132965000D01*
X128440142Y-133012619D01*
X128344904Y-133155476D01*
X128297285Y-133345952D01*
X128297285Y-133726904D01*
X128344904Y-133822142D01*
X128392523Y-133869761D01*
X128487761Y-133917380D01*
X128678238Y-133917380D01*
X128773476Y-133869761D01*
X128821095Y-133822142D01*
X128868714Y-133726904D01*
X128868714Y-133488809D01*
X128821095Y-133393571D01*
X128773476Y-133345952D01*
X128678238Y-133298333D01*
X128487761Y-133298333D01*
X128392523Y-133345952D01*
X128344904Y-133393571D01*
X128297285Y-133488809D01*
%TO.C,D5*%
X150892380Y-119698095D02*
X149892380Y-119698095D01*
X149892380Y-119460000D01*
X149940000Y-119317142D01*
X150035238Y-119221904D01*
X150130476Y-119174285D01*
X150320952Y-119126666D01*
X150463809Y-119126666D01*
X150654285Y-119174285D01*
X150749523Y-119221904D01*
X150844761Y-119317142D01*
X150892380Y-119460000D01*
X150892380Y-119698095D01*
X149892380Y-118221904D02*
X149892380Y-118698095D01*
X150368571Y-118745714D01*
X150320952Y-118698095D01*
X150273333Y-118602857D01*
X150273333Y-118364761D01*
X150320952Y-118269523D01*
X150368571Y-118221904D01*
X150463809Y-118174285D01*
X150701904Y-118174285D01*
X150797142Y-118221904D01*
X150844761Y-118269523D01*
X150892380Y-118364761D01*
X150892380Y-118602857D01*
X150844761Y-118698095D01*
X150797142Y-118745714D01*
%TD*%
M02*
