%TF.GenerationSoftware,KiCad,Pcbnew,(5.1.10)-1*%
%TF.CreationDate,2022-05-26T21:18:39-05:00*%
%TF.ProjectId,SE,53452e6b-6963-4616-945f-706362585858,rev?*%
%TF.SameCoordinates,Original*%
%TF.FileFunction,Paste,Top*%
%TF.FilePolarity,Positive*%
%FSLAX46Y46*%
G04 Gerber Fmt 4.6, Leading zero omitted, Abs format (unit mm)*
G04 Created by KiCad (PCBNEW (5.1.10)-1) date 2022-05-26 21:18:39*
%MOMM*%
%LPD*%
G01*
G04 APERTURE LIST*
%ADD10R,1.320800X0.558800*%
%ADD11R,2.000000X1.500000*%
%ADD12R,2.000000X3.800000*%
%ADD13R,0.568000X1.874000*%
%ADD14R,0.900000X2.000000*%
%ADD15R,2.000000X0.900000*%
%ADD16R,5.000000X5.000000*%
%ADD17R,1.250000X2.500000*%
%ADD18R,0.800000X0.900000*%
%ADD19R,1.100000X1.100000*%
%ADD20R,1.200000X0.900000*%
G04 APERTURE END LIST*
%TO.C,D8*%
G36*
G01*
X145000000Y-126519999D02*
X145000000Y-127420001D01*
G75*
G02*
X144750001Y-127670000I-249999J0D01*
G01*
X144099999Y-127670000D01*
G75*
G02*
X143850000Y-127420001I0J249999D01*
G01*
X143850000Y-126519999D01*
G75*
G02*
X144099999Y-126270000I249999J0D01*
G01*
X144750001Y-126270000D01*
G75*
G02*
X145000000Y-126519999I0J-249999D01*
G01*
G37*
G36*
G01*
X147050000Y-126519999D02*
X147050000Y-127420001D01*
G75*
G02*
X146800001Y-127670000I-249999J0D01*
G01*
X146149999Y-127670000D01*
G75*
G02*
X145900000Y-127420001I0J249999D01*
G01*
X145900000Y-126519999D01*
G75*
G02*
X146149999Y-126270000I249999J0D01*
G01*
X146800001Y-126270000D01*
G75*
G02*
X147050000Y-126519999I0J-249999D01*
G01*
G37*
%TD*%
%TO.C,D7*%
G36*
G01*
X144910000Y-132709999D02*
X144910000Y-133610001D01*
G75*
G02*
X144660001Y-133860000I-249999J0D01*
G01*
X144009999Y-133860000D01*
G75*
G02*
X143760000Y-133610001I0J249999D01*
G01*
X143760000Y-132709999D01*
G75*
G02*
X144009999Y-132460000I249999J0D01*
G01*
X144660001Y-132460000D01*
G75*
G02*
X144910000Y-132709999I0J-249999D01*
G01*
G37*
G36*
G01*
X146960000Y-132709999D02*
X146960000Y-133610001D01*
G75*
G02*
X146710001Y-133860000I-249999J0D01*
G01*
X146059999Y-133860000D01*
G75*
G02*
X145810000Y-133610001I0J249999D01*
G01*
X145810000Y-132709999D01*
G75*
G02*
X146059999Y-132460000I249999J0D01*
G01*
X146710001Y-132460000D01*
G75*
G02*
X146960000Y-132709999I0J-249999D01*
G01*
G37*
%TD*%
%TO.C,D4*%
G36*
G01*
X153580000Y-108360001D02*
X153580000Y-107459999D01*
G75*
G02*
X153829999Y-107210000I249999J0D01*
G01*
X154480001Y-107210000D01*
G75*
G02*
X154730000Y-107459999I0J-249999D01*
G01*
X154730000Y-108360001D01*
G75*
G02*
X154480001Y-108610000I-249999J0D01*
G01*
X153829999Y-108610000D01*
G75*
G02*
X153580000Y-108360001I0J249999D01*
G01*
G37*
G36*
G01*
X151530000Y-108360001D02*
X151530000Y-107459999D01*
G75*
G02*
X151779999Y-107210000I249999J0D01*
G01*
X152430001Y-107210000D01*
G75*
G02*
X152680000Y-107459999I0J-249999D01*
G01*
X152680000Y-108360001D01*
G75*
G02*
X152430001Y-108610000I-249999J0D01*
G01*
X151779999Y-108610000D01*
G75*
G02*
X151530000Y-108360001I0J249999D01*
G01*
G37*
%TD*%
%TO.C,D3*%
G36*
G01*
X173710000Y-119590001D02*
X173710000Y-118689999D01*
G75*
G02*
X173959999Y-118440000I249999J0D01*
G01*
X174610001Y-118440000D01*
G75*
G02*
X174860000Y-118689999I0J-249999D01*
G01*
X174860000Y-119590001D01*
G75*
G02*
X174610001Y-119840000I-249999J0D01*
G01*
X173959999Y-119840000D01*
G75*
G02*
X173710000Y-119590001I0J249999D01*
G01*
G37*
G36*
G01*
X171660000Y-119590001D02*
X171660000Y-118689999D01*
G75*
G02*
X171909999Y-118440000I249999J0D01*
G01*
X172560001Y-118440000D01*
G75*
G02*
X172810000Y-118689999I0J-249999D01*
G01*
X172810000Y-119590001D01*
G75*
G02*
X172560001Y-119840000I-249999J0D01*
G01*
X171909999Y-119840000D01*
G75*
G02*
X171660000Y-119590001I0J249999D01*
G01*
G37*
%TD*%
%TO.C,D2*%
G36*
G01*
X173710000Y-113780001D02*
X173710000Y-112879999D01*
G75*
G02*
X173959999Y-112630000I249999J0D01*
G01*
X174610001Y-112630000D01*
G75*
G02*
X174860000Y-112879999I0J-249999D01*
G01*
X174860000Y-113780001D01*
G75*
G02*
X174610001Y-114030000I-249999J0D01*
G01*
X173959999Y-114030000D01*
G75*
G02*
X173710000Y-113780001I0J249999D01*
G01*
G37*
G36*
G01*
X171660000Y-113780001D02*
X171660000Y-112879999D01*
G75*
G02*
X171909999Y-112630000I249999J0D01*
G01*
X172560001Y-112630000D01*
G75*
G02*
X172810000Y-112879999I0J-249999D01*
G01*
X172810000Y-113780001D01*
G75*
G02*
X172560001Y-114030000I-249999J0D01*
G01*
X171909999Y-114030000D01*
G75*
G02*
X171660000Y-113780001I0J249999D01*
G01*
G37*
%TD*%
%TO.C,D1*%
G36*
G01*
X173620000Y-107830001D02*
X173620000Y-106929999D01*
G75*
G02*
X173869999Y-106680000I249999J0D01*
G01*
X174520001Y-106680000D01*
G75*
G02*
X174770000Y-106929999I0J-249999D01*
G01*
X174770000Y-107830001D01*
G75*
G02*
X174520001Y-108080000I-249999J0D01*
G01*
X173869999Y-108080000D01*
G75*
G02*
X173620000Y-107830001I0J249999D01*
G01*
G37*
G36*
G01*
X171570000Y-107830001D02*
X171570000Y-106929999D01*
G75*
G02*
X171819999Y-106680000I249999J0D01*
G01*
X172470001Y-106680000D01*
G75*
G02*
X172720000Y-106929999I0J-249999D01*
G01*
X172720000Y-107830001D01*
G75*
G02*
X172470001Y-108080000I-249999J0D01*
G01*
X171819999Y-108080000D01*
G75*
G02*
X171570000Y-107830001I0J249999D01*
G01*
G37*
%TD*%
%TO.C,C10*%
G36*
G01*
X204820001Y-140700000D02*
X203519999Y-140700000D01*
G75*
G02*
X203270000Y-140450001I0J249999D01*
G01*
X203270000Y-139624999D01*
G75*
G02*
X203519999Y-139375000I249999J0D01*
G01*
X204820001Y-139375000D01*
G75*
G02*
X205070000Y-139624999I0J-249999D01*
G01*
X205070000Y-140450001D01*
G75*
G02*
X204820001Y-140700000I-249999J0D01*
G01*
G37*
G36*
G01*
X204820001Y-143825000D02*
X203519999Y-143825000D01*
G75*
G02*
X203270000Y-143575001I0J249999D01*
G01*
X203270000Y-142749999D01*
G75*
G02*
X203519999Y-142500000I249999J0D01*
G01*
X204820001Y-142500000D01*
G75*
G02*
X205070000Y-142749999I0J-249999D01*
G01*
X205070000Y-143575001D01*
G75*
G02*
X204820001Y-143825000I-249999J0D01*
G01*
G37*
%TD*%
%TO.C,C9*%
G36*
G01*
X199680001Y-140640000D02*
X198379999Y-140640000D01*
G75*
G02*
X198130000Y-140390001I0J249999D01*
G01*
X198130000Y-139564999D01*
G75*
G02*
X198379999Y-139315000I249999J0D01*
G01*
X199680001Y-139315000D01*
G75*
G02*
X199930000Y-139564999I0J-249999D01*
G01*
X199930000Y-140390001D01*
G75*
G02*
X199680001Y-140640000I-249999J0D01*
G01*
G37*
G36*
G01*
X199680001Y-143765000D02*
X198379999Y-143765000D01*
G75*
G02*
X198130000Y-143515001I0J249999D01*
G01*
X198130000Y-142689999D01*
G75*
G02*
X198379999Y-142440000I249999J0D01*
G01*
X199680001Y-142440000D01*
G75*
G02*
X199930000Y-142689999I0J-249999D01*
G01*
X199930000Y-143515001D01*
G75*
G02*
X199680001Y-143765000I-249999J0D01*
G01*
G37*
%TD*%
%TO.C,C8*%
G36*
G01*
X175880001Y-140960000D02*
X174579999Y-140960000D01*
G75*
G02*
X174330000Y-140710001I0J249999D01*
G01*
X174330000Y-139884999D01*
G75*
G02*
X174579999Y-139635000I249999J0D01*
G01*
X175880001Y-139635000D01*
G75*
G02*
X176130000Y-139884999I0J-249999D01*
G01*
X176130000Y-140710001D01*
G75*
G02*
X175880001Y-140960000I-249999J0D01*
G01*
G37*
G36*
G01*
X175880001Y-144085000D02*
X174579999Y-144085000D01*
G75*
G02*
X174330000Y-143835001I0J249999D01*
G01*
X174330000Y-143009999D01*
G75*
G02*
X174579999Y-142760000I249999J0D01*
G01*
X175880001Y-142760000D01*
G75*
G02*
X176130000Y-143009999I0J-249999D01*
G01*
X176130000Y-143835001D01*
G75*
G02*
X175880001Y-144085000I-249999J0D01*
G01*
G37*
%TD*%
%TO.C,C7*%
G36*
G01*
X181780001Y-140940000D02*
X180479999Y-140940000D01*
G75*
G02*
X180230000Y-140690001I0J249999D01*
G01*
X180230000Y-139864999D01*
G75*
G02*
X180479999Y-139615000I249999J0D01*
G01*
X181780001Y-139615000D01*
G75*
G02*
X182030000Y-139864999I0J-249999D01*
G01*
X182030000Y-140690001D01*
G75*
G02*
X181780001Y-140940000I-249999J0D01*
G01*
G37*
G36*
G01*
X181780001Y-144065000D02*
X180479999Y-144065000D01*
G75*
G02*
X180230000Y-143815001I0J249999D01*
G01*
X180230000Y-142989999D01*
G75*
G02*
X180479999Y-142740000I249999J0D01*
G01*
X181780001Y-142740000D01*
G75*
G02*
X182030000Y-142989999I0J-249999D01*
G01*
X182030000Y-143815001D01*
G75*
G02*
X181780001Y-144065000I-249999J0D01*
G01*
G37*
%TD*%
%TO.C,C6*%
G36*
G01*
X170130001Y-140970000D02*
X168829999Y-140970000D01*
G75*
G02*
X168580000Y-140720001I0J249999D01*
G01*
X168580000Y-139894999D01*
G75*
G02*
X168829999Y-139645000I249999J0D01*
G01*
X170130001Y-139645000D01*
G75*
G02*
X170380000Y-139894999I0J-249999D01*
G01*
X170380000Y-140720001D01*
G75*
G02*
X170130001Y-140970000I-249999J0D01*
G01*
G37*
G36*
G01*
X170130001Y-144095000D02*
X168829999Y-144095000D01*
G75*
G02*
X168580000Y-143845001I0J249999D01*
G01*
X168580000Y-143019999D01*
G75*
G02*
X168829999Y-142770000I249999J0D01*
G01*
X170130001Y-142770000D01*
G75*
G02*
X170380000Y-143019999I0J-249999D01*
G01*
X170380000Y-143845001D01*
G75*
G02*
X170130001Y-144095000I-249999J0D01*
G01*
G37*
%TD*%
%TO.C,C5*%
G36*
G01*
X146110001Y-141170000D02*
X144809999Y-141170000D01*
G75*
G02*
X144560000Y-140920001I0J249999D01*
G01*
X144560000Y-140094999D01*
G75*
G02*
X144809999Y-139845000I249999J0D01*
G01*
X146110001Y-139845000D01*
G75*
G02*
X146360000Y-140094999I0J-249999D01*
G01*
X146360000Y-140920001D01*
G75*
G02*
X146110001Y-141170000I-249999J0D01*
G01*
G37*
G36*
G01*
X146110001Y-144295000D02*
X144809999Y-144295000D01*
G75*
G02*
X144560000Y-144045001I0J249999D01*
G01*
X144560000Y-143219999D01*
G75*
G02*
X144809999Y-142970000I249999J0D01*
G01*
X146110001Y-142970000D01*
G75*
G02*
X146360000Y-143219999I0J-249999D01*
G01*
X146360000Y-144045001D01*
G75*
G02*
X146110001Y-144295000I-249999J0D01*
G01*
G37*
%TD*%
%TO.C,C4*%
G36*
G01*
X151580001Y-141040000D02*
X150279999Y-141040000D01*
G75*
G02*
X150030000Y-140790001I0J249999D01*
G01*
X150030000Y-139964999D01*
G75*
G02*
X150279999Y-139715000I249999J0D01*
G01*
X151580001Y-139715000D01*
G75*
G02*
X151830000Y-139964999I0J-249999D01*
G01*
X151830000Y-140790001D01*
G75*
G02*
X151580001Y-141040000I-249999J0D01*
G01*
G37*
G36*
G01*
X151580001Y-144165000D02*
X150279999Y-144165000D01*
G75*
G02*
X150030000Y-143915001I0J249999D01*
G01*
X150030000Y-143089999D01*
G75*
G02*
X150279999Y-142840000I249999J0D01*
G01*
X151580001Y-142840000D01*
G75*
G02*
X151830000Y-143089999I0J-249999D01*
G01*
X151830000Y-143915001D01*
G75*
G02*
X151580001Y-144165000I-249999J0D01*
G01*
G37*
%TD*%
%TO.C,C3*%
G36*
G01*
X198530000Y-74129999D02*
X198530000Y-75430001D01*
G75*
G02*
X198280001Y-75680000I-249999J0D01*
G01*
X197454999Y-75680000D01*
G75*
G02*
X197205000Y-75430001I0J249999D01*
G01*
X197205000Y-74129999D01*
G75*
G02*
X197454999Y-73880000I249999J0D01*
G01*
X198280001Y-73880000D01*
G75*
G02*
X198530000Y-74129999I0J-249999D01*
G01*
G37*
G36*
G01*
X201655000Y-74129999D02*
X201655000Y-75430001D01*
G75*
G02*
X201405001Y-75680000I-249999J0D01*
G01*
X200579999Y-75680000D01*
G75*
G02*
X200330000Y-75430001I0J249999D01*
G01*
X200330000Y-74129999D01*
G75*
G02*
X200579999Y-73880000I249999J0D01*
G01*
X201405001Y-73880000D01*
G75*
G02*
X201655000Y-74129999I0J-249999D01*
G01*
G37*
%TD*%
%TO.C,C2*%
G36*
G01*
X207170000Y-73649999D02*
X207170000Y-74950001D01*
G75*
G02*
X206920001Y-75200000I-249999J0D01*
G01*
X206094999Y-75200000D01*
G75*
G02*
X205845000Y-74950001I0J249999D01*
G01*
X205845000Y-73649999D01*
G75*
G02*
X206094999Y-73400000I249999J0D01*
G01*
X206920001Y-73400000D01*
G75*
G02*
X207170000Y-73649999I0J-249999D01*
G01*
G37*
G36*
G01*
X210295000Y-73649999D02*
X210295000Y-74950001D01*
G75*
G02*
X210045001Y-75200000I-249999J0D01*
G01*
X209219999Y-75200000D01*
G75*
G02*
X208970000Y-74950001I0J249999D01*
G01*
X208970000Y-73649999D01*
G75*
G02*
X209219999Y-73400000I249999J0D01*
G01*
X210045001Y-73400000D01*
G75*
G02*
X210295000Y-73649999I0J-249999D01*
G01*
G37*
%TD*%
%TO.C,C1*%
G36*
G01*
X193060000Y-75700001D02*
X193060000Y-74399999D01*
G75*
G02*
X193309999Y-74150000I249999J0D01*
G01*
X194135001Y-74150000D01*
G75*
G02*
X194385000Y-74399999I0J-249999D01*
G01*
X194385000Y-75700001D01*
G75*
G02*
X194135001Y-75950000I-249999J0D01*
G01*
X193309999Y-75950000D01*
G75*
G02*
X193060000Y-75700001I0J249999D01*
G01*
G37*
G36*
G01*
X189935000Y-75700001D02*
X189935000Y-74399999D01*
G75*
G02*
X190184999Y-74150000I249999J0D01*
G01*
X191010001Y-74150000D01*
G75*
G02*
X191260000Y-74399999I0J-249999D01*
G01*
X191260000Y-75700001D01*
G75*
G02*
X191010001Y-75950000I-249999J0D01*
G01*
X190184999Y-75950000D01*
G75*
G02*
X189935000Y-75700001I0J249999D01*
G01*
G37*
%TD*%
D10*
%TO.C,U7*%
X126104000Y-143820000D03*
X128136000Y-142854800D03*
X128136000Y-144785200D03*
%TD*%
D11*
%TO.C,U6*%
X186920000Y-138960000D03*
X186920000Y-143560000D03*
X186920000Y-141260000D03*
D12*
X193220000Y-141260000D03*
%TD*%
D11*
%TO.C,U5*%
X156370000Y-139330000D03*
X156370000Y-143930000D03*
X156370000Y-141630000D03*
D12*
X162670000Y-141630000D03*
%TD*%
D13*
%TO.C,U4*%
X167205000Y-79195700D03*
X168475000Y-79195700D03*
X169745000Y-79195700D03*
X171015000Y-79195700D03*
X172285000Y-79195700D03*
X173555000Y-79195700D03*
X174825000Y-79195700D03*
X176095000Y-79195700D03*
X176095000Y-88664300D03*
X174825000Y-88664300D03*
X173555000Y-88664300D03*
X172285000Y-88664300D03*
X171015000Y-88664300D03*
X169745000Y-88664300D03*
X168475000Y-88664300D03*
X167205000Y-88664300D03*
%TD*%
D14*
%TO.C,U1*%
X203735000Y-100960000D03*
X202465000Y-100960000D03*
X201195000Y-100960000D03*
X199925000Y-100960000D03*
X198655000Y-100960000D03*
X197385000Y-100960000D03*
X196115000Y-100960000D03*
X194845000Y-100960000D03*
X193575000Y-100960000D03*
X192305000Y-100960000D03*
X191035000Y-100960000D03*
X189765000Y-100960000D03*
X188495000Y-100960000D03*
X187225000Y-100960000D03*
D15*
X186225000Y-98175000D03*
X186225000Y-96905000D03*
X186225000Y-95635000D03*
X186225000Y-94365000D03*
X186225000Y-93095000D03*
X186225000Y-91825000D03*
X186225000Y-90555000D03*
X186225000Y-89285000D03*
X186225000Y-88015000D03*
X186225000Y-86745000D03*
D14*
X187225000Y-83960000D03*
X188495000Y-83960000D03*
X189765000Y-83960000D03*
X191035000Y-83960000D03*
X192305000Y-83960000D03*
X193575000Y-83960000D03*
X194845000Y-83960000D03*
X196115000Y-83960000D03*
X197385000Y-83960000D03*
X198655000Y-83960000D03*
X199925000Y-83960000D03*
X201195000Y-83960000D03*
X202465000Y-83960000D03*
X203735000Y-83960000D03*
D16*
X196235000Y-91460000D03*
%TD*%
D17*
%TO.C,SW4*%
X138630000Y-143720000D03*
X136130000Y-143720000D03*
X133630000Y-143720000D03*
%TD*%
%TO.C,SW3*%
G36*
G01*
X210780000Y-67990000D02*
X210780000Y-69590000D01*
G75*
G02*
X210580000Y-69790000I-200000J0D01*
G01*
X210180000Y-69790000D01*
G75*
G02*
X209980000Y-69590000I0J200000D01*
G01*
X209980000Y-67990000D01*
G75*
G02*
X210180000Y-67790000I200000J0D01*
G01*
X210580000Y-67790000D01*
G75*
G02*
X210780000Y-67990000I0J-200000D01*
G01*
G37*
G36*
G01*
X206580000Y-67990000D02*
X206580000Y-69590000D01*
G75*
G02*
X206380000Y-69790000I-200000J0D01*
G01*
X205980000Y-69790000D01*
G75*
G02*
X205780000Y-69590000I0J200000D01*
G01*
X205780000Y-67990000D01*
G75*
G02*
X205980000Y-67790000I200000J0D01*
G01*
X206380000Y-67790000D01*
G75*
G02*
X206580000Y-67990000I0J-200000D01*
G01*
G37*
%TD*%
%TO.C,SW2*%
G36*
G01*
X189430000Y-69160000D02*
X189430000Y-67560000D01*
G75*
G02*
X189630000Y-67360000I200000J0D01*
G01*
X190030000Y-67360000D01*
G75*
G02*
X190230000Y-67560000I0J-200000D01*
G01*
X190230000Y-69160000D01*
G75*
G02*
X190030000Y-69360000I-200000J0D01*
G01*
X189630000Y-69360000D01*
G75*
G02*
X189430000Y-69160000I0J200000D01*
G01*
G37*
G36*
G01*
X193630000Y-69160000D02*
X193630000Y-67560000D01*
G75*
G02*
X193830000Y-67360000I200000J0D01*
G01*
X194230000Y-67360000D01*
G75*
G02*
X194430000Y-67560000I0J-200000D01*
G01*
X194430000Y-69160000D01*
G75*
G02*
X194230000Y-69360000I-200000J0D01*
G01*
X193830000Y-69360000D01*
G75*
G02*
X193630000Y-69160000I0J200000D01*
G01*
G37*
%TD*%
%TO.C,SW1*%
G36*
G01*
X197080000Y-69190000D02*
X197080000Y-67590000D01*
G75*
G02*
X197280000Y-67390000I200000J0D01*
G01*
X197680000Y-67390000D01*
G75*
G02*
X197880000Y-67590000I0J-200000D01*
G01*
X197880000Y-69190000D01*
G75*
G02*
X197680000Y-69390000I-200000J0D01*
G01*
X197280000Y-69390000D01*
G75*
G02*
X197080000Y-69190000I0J200000D01*
G01*
G37*
G36*
G01*
X201280000Y-69190000D02*
X201280000Y-67590000D01*
G75*
G02*
X201480000Y-67390000I200000J0D01*
G01*
X201880000Y-67390000D01*
G75*
G02*
X202080000Y-67590000I0J-200000D01*
G01*
X202080000Y-69190000D01*
G75*
G02*
X201880000Y-69390000I-200000J0D01*
G01*
X201480000Y-69390000D01*
G75*
G02*
X201280000Y-69190000I0J200000D01*
G01*
G37*
%TD*%
%TO.C,R19*%
G36*
G01*
X162027500Y-119262500D02*
X161552500Y-119262500D01*
G75*
G02*
X161315000Y-119025000I0J237500D01*
G01*
X161315000Y-118525000D01*
G75*
G02*
X161552500Y-118287500I237500J0D01*
G01*
X162027500Y-118287500D01*
G75*
G02*
X162265000Y-118525000I0J-237500D01*
G01*
X162265000Y-119025000D01*
G75*
G02*
X162027500Y-119262500I-237500J0D01*
G01*
G37*
G36*
G01*
X162027500Y-121087500D02*
X161552500Y-121087500D01*
G75*
G02*
X161315000Y-120850000I0J237500D01*
G01*
X161315000Y-120350000D01*
G75*
G02*
X161552500Y-120112500I237500J0D01*
G01*
X162027500Y-120112500D01*
G75*
G02*
X162265000Y-120350000I0J-237500D01*
G01*
X162265000Y-120850000D01*
G75*
G02*
X162027500Y-121087500I-237500J0D01*
G01*
G37*
%TD*%
%TO.C,R18*%
G36*
G01*
X157252500Y-120065000D02*
X157727500Y-120065000D01*
G75*
G02*
X157965000Y-120302500I0J-237500D01*
G01*
X157965000Y-120802500D01*
G75*
G02*
X157727500Y-121040000I-237500J0D01*
G01*
X157252500Y-121040000D01*
G75*
G02*
X157015000Y-120802500I0J237500D01*
G01*
X157015000Y-120302500D01*
G75*
G02*
X157252500Y-120065000I237500J0D01*
G01*
G37*
G36*
G01*
X157252500Y-118240000D02*
X157727500Y-118240000D01*
G75*
G02*
X157965000Y-118477500I0J-237500D01*
G01*
X157965000Y-118977500D01*
G75*
G02*
X157727500Y-119215000I-237500J0D01*
G01*
X157252500Y-119215000D01*
G75*
G02*
X157015000Y-118977500I0J237500D01*
G01*
X157015000Y-118477500D01*
G75*
G02*
X157252500Y-118240000I237500J0D01*
G01*
G37*
%TD*%
%TO.C,R17*%
G36*
G01*
X136975000Y-126987500D02*
X136975000Y-126512500D01*
G75*
G02*
X137212500Y-126275000I237500J0D01*
G01*
X137712500Y-126275000D01*
G75*
G02*
X137950000Y-126512500I0J-237500D01*
G01*
X137950000Y-126987500D01*
G75*
G02*
X137712500Y-127225000I-237500J0D01*
G01*
X137212500Y-127225000D01*
G75*
G02*
X136975000Y-126987500I0J237500D01*
G01*
G37*
G36*
G01*
X135150000Y-126987500D02*
X135150000Y-126512500D01*
G75*
G02*
X135387500Y-126275000I237500J0D01*
G01*
X135887500Y-126275000D01*
G75*
G02*
X136125000Y-126512500I0J-237500D01*
G01*
X136125000Y-126987500D01*
G75*
G02*
X135887500Y-127225000I-237500J0D01*
G01*
X135387500Y-127225000D01*
G75*
G02*
X135150000Y-126987500I0J237500D01*
G01*
G37*
%TD*%
%TO.C,R16*%
G36*
G01*
X137095000Y-131067500D02*
X137095000Y-130592500D01*
G75*
G02*
X137332500Y-130355000I237500J0D01*
G01*
X137832500Y-130355000D01*
G75*
G02*
X138070000Y-130592500I0J-237500D01*
G01*
X138070000Y-131067500D01*
G75*
G02*
X137832500Y-131305000I-237500J0D01*
G01*
X137332500Y-131305000D01*
G75*
G02*
X137095000Y-131067500I0J237500D01*
G01*
G37*
G36*
G01*
X135270000Y-131067500D02*
X135270000Y-130592500D01*
G75*
G02*
X135507500Y-130355000I237500J0D01*
G01*
X136007500Y-130355000D01*
G75*
G02*
X136245000Y-130592500I0J-237500D01*
G01*
X136245000Y-131067500D01*
G75*
G02*
X136007500Y-131305000I-237500J0D01*
G01*
X135507500Y-131305000D01*
G75*
G02*
X135270000Y-131067500I0J237500D01*
G01*
G37*
%TD*%
%TO.C,R15*%
G36*
G01*
X137082500Y-135217500D02*
X137082500Y-134742500D01*
G75*
G02*
X137320000Y-134505000I237500J0D01*
G01*
X137820000Y-134505000D01*
G75*
G02*
X138057500Y-134742500I0J-237500D01*
G01*
X138057500Y-135217500D01*
G75*
G02*
X137820000Y-135455000I-237500J0D01*
G01*
X137320000Y-135455000D01*
G75*
G02*
X137082500Y-135217500I0J237500D01*
G01*
G37*
G36*
G01*
X135257500Y-135217500D02*
X135257500Y-134742500D01*
G75*
G02*
X135495000Y-134505000I237500J0D01*
G01*
X135995000Y-134505000D01*
G75*
G02*
X136232500Y-134742500I0J-237500D01*
G01*
X136232500Y-135217500D01*
G75*
G02*
X135995000Y-135455000I-237500J0D01*
G01*
X135495000Y-135455000D01*
G75*
G02*
X135257500Y-135217500I0J237500D01*
G01*
G37*
%TD*%
%TO.C,R14*%
G36*
G01*
X165615000Y-112442500D02*
X165615000Y-112917500D01*
G75*
G02*
X165377500Y-113155000I-237500J0D01*
G01*
X164877500Y-113155000D01*
G75*
G02*
X164640000Y-112917500I0J237500D01*
G01*
X164640000Y-112442500D01*
G75*
G02*
X164877500Y-112205000I237500J0D01*
G01*
X165377500Y-112205000D01*
G75*
G02*
X165615000Y-112442500I0J-237500D01*
G01*
G37*
G36*
G01*
X167440000Y-112442500D02*
X167440000Y-112917500D01*
G75*
G02*
X167202500Y-113155000I-237500J0D01*
G01*
X166702500Y-113155000D01*
G75*
G02*
X166465000Y-112917500I0J237500D01*
G01*
X166465000Y-112442500D01*
G75*
G02*
X166702500Y-112205000I237500J0D01*
G01*
X167202500Y-112205000D01*
G75*
G02*
X167440000Y-112442500I0J-237500D01*
G01*
G37*
%TD*%
%TO.C,R13*%
G36*
G01*
X185895000Y-74087500D02*
X185895000Y-73612500D01*
G75*
G02*
X186132500Y-73375000I237500J0D01*
G01*
X186632500Y-73375000D01*
G75*
G02*
X186870000Y-73612500I0J-237500D01*
G01*
X186870000Y-74087500D01*
G75*
G02*
X186632500Y-74325000I-237500J0D01*
G01*
X186132500Y-74325000D01*
G75*
G02*
X185895000Y-74087500I0J237500D01*
G01*
G37*
G36*
G01*
X184070000Y-74087500D02*
X184070000Y-73612500D01*
G75*
G02*
X184307500Y-73375000I237500J0D01*
G01*
X184807500Y-73375000D01*
G75*
G02*
X185045000Y-73612500I0J-237500D01*
G01*
X185045000Y-74087500D01*
G75*
G02*
X184807500Y-74325000I-237500J0D01*
G01*
X184307500Y-74325000D01*
G75*
G02*
X184070000Y-74087500I0J237500D01*
G01*
G37*
%TD*%
%TO.C,R12*%
G36*
G01*
X183145000Y-119397500D02*
X183145000Y-118922500D01*
G75*
G02*
X183382500Y-118685000I237500J0D01*
G01*
X183882500Y-118685000D01*
G75*
G02*
X184120000Y-118922500I0J-237500D01*
G01*
X184120000Y-119397500D01*
G75*
G02*
X183882500Y-119635000I-237500J0D01*
G01*
X183382500Y-119635000D01*
G75*
G02*
X183145000Y-119397500I0J237500D01*
G01*
G37*
G36*
G01*
X181320000Y-119397500D02*
X181320000Y-118922500D01*
G75*
G02*
X181557500Y-118685000I237500J0D01*
G01*
X182057500Y-118685000D01*
G75*
G02*
X182295000Y-118922500I0J-237500D01*
G01*
X182295000Y-119397500D01*
G75*
G02*
X182057500Y-119635000I-237500J0D01*
G01*
X181557500Y-119635000D01*
G75*
G02*
X181320000Y-119397500I0J237500D01*
G01*
G37*
%TD*%
%TO.C,R11*%
G36*
G01*
X183085000Y-113537500D02*
X183085000Y-113062500D01*
G75*
G02*
X183322500Y-112825000I237500J0D01*
G01*
X183822500Y-112825000D01*
G75*
G02*
X184060000Y-113062500I0J-237500D01*
G01*
X184060000Y-113537500D01*
G75*
G02*
X183822500Y-113775000I-237500J0D01*
G01*
X183322500Y-113775000D01*
G75*
G02*
X183085000Y-113537500I0J237500D01*
G01*
G37*
G36*
G01*
X181260000Y-113537500D02*
X181260000Y-113062500D01*
G75*
G02*
X181497500Y-112825000I237500J0D01*
G01*
X181997500Y-112825000D01*
G75*
G02*
X182235000Y-113062500I0J-237500D01*
G01*
X182235000Y-113537500D01*
G75*
G02*
X181997500Y-113775000I-237500J0D01*
G01*
X181497500Y-113775000D01*
G75*
G02*
X181260000Y-113537500I0J237500D01*
G01*
G37*
%TD*%
%TO.C,R10*%
G36*
G01*
X180362500Y-125895000D02*
X180837500Y-125895000D01*
G75*
G02*
X181075000Y-126132500I0J-237500D01*
G01*
X181075000Y-126632500D01*
G75*
G02*
X180837500Y-126870000I-237500J0D01*
G01*
X180362500Y-126870000D01*
G75*
G02*
X180125000Y-126632500I0J237500D01*
G01*
X180125000Y-126132500D01*
G75*
G02*
X180362500Y-125895000I237500J0D01*
G01*
G37*
G36*
G01*
X180362500Y-124070000D02*
X180837500Y-124070000D01*
G75*
G02*
X181075000Y-124307500I0J-237500D01*
G01*
X181075000Y-124807500D01*
G75*
G02*
X180837500Y-125045000I-237500J0D01*
G01*
X180362500Y-125045000D01*
G75*
G02*
X180125000Y-124807500I0J237500D01*
G01*
X180125000Y-124307500D01*
G75*
G02*
X180362500Y-124070000I237500J0D01*
G01*
G37*
%TD*%
%TO.C,R9*%
G36*
G01*
X180352500Y-131515000D02*
X180827500Y-131515000D01*
G75*
G02*
X181065000Y-131752500I0J-237500D01*
G01*
X181065000Y-132252500D01*
G75*
G02*
X180827500Y-132490000I-237500J0D01*
G01*
X180352500Y-132490000D01*
G75*
G02*
X180115000Y-132252500I0J237500D01*
G01*
X180115000Y-131752500D01*
G75*
G02*
X180352500Y-131515000I237500J0D01*
G01*
G37*
G36*
G01*
X180352500Y-129690000D02*
X180827500Y-129690000D01*
G75*
G02*
X181065000Y-129927500I0J-237500D01*
G01*
X181065000Y-130427500D01*
G75*
G02*
X180827500Y-130665000I-237500J0D01*
G01*
X180352500Y-130665000D01*
G75*
G02*
X180115000Y-130427500I0J237500D01*
G01*
X180115000Y-129927500D01*
G75*
G02*
X180352500Y-129690000I237500J0D01*
G01*
G37*
%TD*%
%TO.C,R8*%
G36*
G01*
X154865000Y-93757500D02*
X154865000Y-93282500D01*
G75*
G02*
X155102500Y-93045000I237500J0D01*
G01*
X155602500Y-93045000D01*
G75*
G02*
X155840000Y-93282500I0J-237500D01*
G01*
X155840000Y-93757500D01*
G75*
G02*
X155602500Y-93995000I-237500J0D01*
G01*
X155102500Y-93995000D01*
G75*
G02*
X154865000Y-93757500I0J237500D01*
G01*
G37*
G36*
G01*
X153040000Y-93757500D02*
X153040000Y-93282500D01*
G75*
G02*
X153277500Y-93045000I237500J0D01*
G01*
X153777500Y-93045000D01*
G75*
G02*
X154015000Y-93282500I0J-237500D01*
G01*
X154015000Y-93757500D01*
G75*
G02*
X153777500Y-93995000I-237500J0D01*
G01*
X153277500Y-93995000D01*
G75*
G02*
X153040000Y-93757500I0J237500D01*
G01*
G37*
%TD*%
%TO.C,R7*%
G36*
G01*
X162585000Y-102457500D02*
X162585000Y-101982500D01*
G75*
G02*
X162822500Y-101745000I237500J0D01*
G01*
X163322500Y-101745000D01*
G75*
G02*
X163560000Y-101982500I0J-237500D01*
G01*
X163560000Y-102457500D01*
G75*
G02*
X163322500Y-102695000I-237500J0D01*
G01*
X162822500Y-102695000D01*
G75*
G02*
X162585000Y-102457500I0J237500D01*
G01*
G37*
G36*
G01*
X160760000Y-102457500D02*
X160760000Y-101982500D01*
G75*
G02*
X160997500Y-101745000I237500J0D01*
G01*
X161497500Y-101745000D01*
G75*
G02*
X161735000Y-101982500I0J-237500D01*
G01*
X161735000Y-102457500D01*
G75*
G02*
X161497500Y-102695000I-237500J0D01*
G01*
X160997500Y-102695000D01*
G75*
G02*
X160760000Y-102457500I0J237500D01*
G01*
G37*
%TD*%
%TO.C,R6*%
G36*
G01*
X162585000Y-98167500D02*
X162585000Y-97692500D01*
G75*
G02*
X162822500Y-97455000I237500J0D01*
G01*
X163322500Y-97455000D01*
G75*
G02*
X163560000Y-97692500I0J-237500D01*
G01*
X163560000Y-98167500D01*
G75*
G02*
X163322500Y-98405000I-237500J0D01*
G01*
X162822500Y-98405000D01*
G75*
G02*
X162585000Y-98167500I0J237500D01*
G01*
G37*
G36*
G01*
X160760000Y-98167500D02*
X160760000Y-97692500D01*
G75*
G02*
X160997500Y-97455000I237500J0D01*
G01*
X161497500Y-97455000D01*
G75*
G02*
X161735000Y-97692500I0J-237500D01*
G01*
X161735000Y-98167500D01*
G75*
G02*
X161497500Y-98405000I-237500J0D01*
G01*
X160997500Y-98405000D01*
G75*
G02*
X160760000Y-98167500I0J237500D01*
G01*
G37*
%TD*%
%TO.C,R5*%
G36*
G01*
X162545000Y-93987500D02*
X162545000Y-93512500D01*
G75*
G02*
X162782500Y-93275000I237500J0D01*
G01*
X163282500Y-93275000D01*
G75*
G02*
X163520000Y-93512500I0J-237500D01*
G01*
X163520000Y-93987500D01*
G75*
G02*
X163282500Y-94225000I-237500J0D01*
G01*
X162782500Y-94225000D01*
G75*
G02*
X162545000Y-93987500I0J237500D01*
G01*
G37*
G36*
G01*
X160720000Y-93987500D02*
X160720000Y-93512500D01*
G75*
G02*
X160957500Y-93275000I237500J0D01*
G01*
X161457500Y-93275000D01*
G75*
G02*
X161695000Y-93512500I0J-237500D01*
G01*
X161695000Y-93987500D01*
G75*
G02*
X161457500Y-94225000I-237500J0D01*
G01*
X160957500Y-94225000D01*
G75*
G02*
X160720000Y-93987500I0J237500D01*
G01*
G37*
%TD*%
%TO.C,R4*%
G36*
G01*
X169777500Y-124955000D02*
X169302500Y-124955000D01*
G75*
G02*
X169065000Y-124717500I0J237500D01*
G01*
X169065000Y-124217500D01*
G75*
G02*
X169302500Y-123980000I237500J0D01*
G01*
X169777500Y-123980000D01*
G75*
G02*
X170015000Y-124217500I0J-237500D01*
G01*
X170015000Y-124717500D01*
G75*
G02*
X169777500Y-124955000I-237500J0D01*
G01*
G37*
G36*
G01*
X169777500Y-126780000D02*
X169302500Y-126780000D01*
G75*
G02*
X169065000Y-126542500I0J237500D01*
G01*
X169065000Y-126042500D01*
G75*
G02*
X169302500Y-125805000I237500J0D01*
G01*
X169777500Y-125805000D01*
G75*
G02*
X170015000Y-126042500I0J-237500D01*
G01*
X170015000Y-126542500D01*
G75*
G02*
X169777500Y-126780000I-237500J0D01*
G01*
G37*
%TD*%
%TO.C,R3*%
G36*
G01*
X169777500Y-130825000D02*
X169302500Y-130825000D01*
G75*
G02*
X169065000Y-130587500I0J237500D01*
G01*
X169065000Y-130087500D01*
G75*
G02*
X169302500Y-129850000I237500J0D01*
G01*
X169777500Y-129850000D01*
G75*
G02*
X170015000Y-130087500I0J-237500D01*
G01*
X170015000Y-130587500D01*
G75*
G02*
X169777500Y-130825000I-237500J0D01*
G01*
G37*
G36*
G01*
X169777500Y-132650000D02*
X169302500Y-132650000D01*
G75*
G02*
X169065000Y-132412500I0J237500D01*
G01*
X169065000Y-131912500D01*
G75*
G02*
X169302500Y-131675000I237500J0D01*
G01*
X169777500Y-131675000D01*
G75*
G02*
X170015000Y-131912500I0J-237500D01*
G01*
X170015000Y-132412500D01*
G75*
G02*
X169777500Y-132650000I-237500J0D01*
G01*
G37*
%TD*%
%TO.C,R2*%
G36*
G01*
X183165000Y-107617500D02*
X183165000Y-107142500D01*
G75*
G02*
X183402500Y-106905000I237500J0D01*
G01*
X183902500Y-106905000D01*
G75*
G02*
X184140000Y-107142500I0J-237500D01*
G01*
X184140000Y-107617500D01*
G75*
G02*
X183902500Y-107855000I-237500J0D01*
G01*
X183402500Y-107855000D01*
G75*
G02*
X183165000Y-107617500I0J237500D01*
G01*
G37*
G36*
G01*
X181340000Y-107617500D02*
X181340000Y-107142500D01*
G75*
G02*
X181577500Y-106905000I237500J0D01*
G01*
X182077500Y-106905000D01*
G75*
G02*
X182315000Y-107142500I0J-237500D01*
G01*
X182315000Y-107617500D01*
G75*
G02*
X182077500Y-107855000I-237500J0D01*
G01*
X181577500Y-107855000D01*
G75*
G02*
X181340000Y-107617500I0J237500D01*
G01*
G37*
%TD*%
%TO.C,R1*%
G36*
G01*
X185902500Y-69577500D02*
X185902500Y-69102500D01*
G75*
G02*
X186140000Y-68865000I237500J0D01*
G01*
X186640000Y-68865000D01*
G75*
G02*
X186877500Y-69102500I0J-237500D01*
G01*
X186877500Y-69577500D01*
G75*
G02*
X186640000Y-69815000I-237500J0D01*
G01*
X186140000Y-69815000D01*
G75*
G02*
X185902500Y-69577500I0J237500D01*
G01*
G37*
G36*
G01*
X184077500Y-69577500D02*
X184077500Y-69102500D01*
G75*
G02*
X184315000Y-68865000I237500J0D01*
G01*
X184815000Y-68865000D01*
G75*
G02*
X185052500Y-69102500I0J-237500D01*
G01*
X185052500Y-69577500D01*
G75*
G02*
X184815000Y-69815000I-237500J0D01*
G01*
X184315000Y-69815000D01*
G75*
G02*
X184077500Y-69577500I0J237500D01*
G01*
G37*
%TD*%
D18*
%TO.C,Q2*%
X175060000Y-124420000D03*
X176010000Y-126420000D03*
X174110000Y-126420000D03*
%TD*%
%TO.C,Q1*%
X175020000Y-130110000D03*
X175970000Y-132110000D03*
X174070000Y-132110000D03*
%TD*%
%TO.C,F1*%
G36*
G01*
X129675000Y-130740000D02*
X129675000Y-127840000D01*
G75*
G02*
X129925000Y-127590000I250000J0D01*
G01*
X130725000Y-127590000D01*
G75*
G02*
X130975000Y-127840000I0J-250000D01*
G01*
X130975000Y-130740000D01*
G75*
G02*
X130725000Y-130990000I-250000J0D01*
G01*
X129925000Y-130990000D01*
G75*
G02*
X129675000Y-130740000I0J250000D01*
G01*
G37*
G36*
G01*
X125225000Y-130740000D02*
X125225000Y-127840000D01*
G75*
G02*
X125475000Y-127590000I250000J0D01*
G01*
X126275000Y-127590000D01*
G75*
G02*
X126525000Y-127840000I0J-250000D01*
G01*
X126525000Y-130740000D01*
G75*
G02*
X126275000Y-130990000I-250000J0D01*
G01*
X125475000Y-130990000D01*
G75*
G02*
X125225000Y-130740000I0J250000D01*
G01*
G37*
%TD*%
D19*
%TO.C,D6*%
X129610000Y-135370000D03*
X126810000Y-135370000D03*
%TD*%
D20*
%TO.C,D5*%
X152440000Y-117310000D03*
X152440000Y-120610000D03*
%TD*%
M02*
