M48
; DRILL file {KiCad (5.1.10)-1} date 05/26/22 21:21:22
; FORMAT={-:-/ absolute / metric / decimal}
; #@! TF.CreationDate,2022-05-26T21:21:22-05:00
; #@! TF.GenerationSoftware,Kicad,Pcbnew,(5.1.10)-1
; #@! TF.FileFunction,Plated,1,2,PTH
FMAT,2
METRIC
T1C0.400
T2C0.500
T3C0.750
T4C0.800
T5C1.000
T6C1.200
T7C1.300
T8C2.200
%
G90
G05
T1
X130.77Y-91.56
X133.35Y-97.37
X136.0Y-100.89
X150.82Y-93.57
X157.49Y-107.87
X157.5Y-116.04
X167.15Y-76.84
X168.48Y-76.84
X169.54Y-128.59
X169.57Y-122.69
X169.73Y-76.83
X170.97Y-90.87
X172.24Y-90.87
X173.53Y-90.89
X175.02Y-128.53
X175.04Y-122.69
X178.83Y-98.09
X180.61Y-128.41
X182.61Y-88.0
X186.73Y-119.16
X187.49Y-113.21
X187.72Y-77.67
X188.44Y-103.42
X188.45Y-74.6
X190.27Y-71.81
X191.035Y-109.665
X192.02Y-79.51
X192.29Y-103.9
X192.35Y-130.77
X194.845Y-107.365
X194.88Y-81.35
X195.94Y-74.64
X197.05Y-130.77
X200.65Y-124.93
X201.18Y-80.67
X202.465Y-79.085
X202.48Y-103.83
X208.93Y-138.57
T2
X130.19Y-144.8
X131.77Y-138.37
X138.54Y-139.42
T3
X160.46Y-111.26
X160.46Y-112.53
X160.46Y-113.8
T4
X116.96Y-81.74
X116.96Y-84.28
X116.96Y-86.82
X120.07Y-138.66
X120.07Y-140.66
X120.38Y-127.31
X120.38Y-129.31
X120.4Y-105.49
X120.4Y-107.49
X203.82Y-110.27
X203.82Y-112.27
X203.82Y-114.27
X203.82Y-116.27
X203.82Y-118.27
X203.82Y-120.27
X203.82Y-122.27
T5
X142.58Y-107.47
X142.58Y-119.47
X200.52Y-128.14
X200.52Y-130.68
X200.52Y-133.22
T6
X123.19Y-88.34
X123.21Y-79.16
X125.73Y-88.34
X125.75Y-79.16
X128.27Y-88.34
X128.29Y-79.16
X130.81Y-88.34
X130.83Y-79.16
X133.35Y-88.34
X133.37Y-79.16
X135.89Y-88.34
X135.91Y-79.16
X138.43Y-88.34
X138.45Y-79.16
X140.97Y-88.34
X140.99Y-79.16
X143.51Y-88.34
X143.53Y-79.16
X146.05Y-88.34
X146.07Y-79.16
X148.59Y-88.34
X148.61Y-79.16
X151.13Y-88.34
X151.15Y-79.16
X153.67Y-88.34
X153.69Y-79.16
X156.21Y-88.34
X156.23Y-79.16
X158.75Y-88.34
X158.77Y-79.16
X161.29Y-88.34
X161.31Y-79.16
T7
X130.33Y-119.52
X130.38Y-107.47
X144.53Y-113.52
T8
X115.65Y-61.75
X115.65Y-147.87
X207.67Y-147.95
X207.69Y-61.76
T0
M30
